<svg width="476" height="579" viewBox="0 0 476 579" fill="none" xmlns="http://www.w3.org/2000/svg">
<g filter="url(#filter0_d_16_3765)">
<path opacity="0.15" d="M237.521 571C366.491 571 471.042 564.425 471.042 556.313C471.042 548.202 366.491 541.626 237.521 541.626C108.551 541.626 4 548.202 4 556.313C4 564.425 108.551 571 237.521 571Z" fill="black" fill-opacity="0.31"/>
<path fill-rule="evenodd" clip-rule="evenodd" d="M344.991 193.824L346.892 196.405C348.298 195.291 349.693 194.158 351.058 192.989L349.058 190.49C347.725 191.63 346.364 192.735 344.991 193.824Z" fill="#3C415E"/>
<path fill-rule="evenodd" clip-rule="evenodd" d="M337.38 199.367L339.099 202.081C340.585 201.083 342.045 200.044 343.491 198.986L341.67 196.344C340.256 197.377 338.831 198.393 337.38 199.367Z" fill="#3C415E"/>
<path fill-rule="evenodd" clip-rule="evenodd" d="M329.437 204.302L330.936 207.151C332.507 206.27 334.04 205.346 335.557 204.395L333.924 201.625C332.446 202.551 330.951 203.453 329.437 204.302Z" fill="#3C415E"/>
<path fill-rule="evenodd" clip-rule="evenodd" d="M365.026 173.826L367.488 175.839C368.056 175.13 368.575 174.378 369.118 173.647C369.664 172.918 370.174 172.16 370.687 171.405L368.116 169.543C367.621 170.272 367.13 171.003 366.602 171.707C366.077 172.413 365.577 173.14 365.026 173.826Z" fill="#3C415E"/>
<path fill-rule="evenodd" clip-rule="evenodd" d="M358.918 181.048L361.187 183.29C361.8 182.625 362.418 181.965 363.008 181.276C363.602 180.591 364.211 179.921 364.782 179.213L362.407 177.092C361.855 177.778 361.263 178.428 360.687 179.092C360.115 179.76 359.515 180.402 358.918 181.048Z" fill="#3C415E"/>
<path fill-rule="evenodd" clip-rule="evenodd" d="M352.237 187.683L354.32 190.11L356.294 188.264L358.228 186.371L356.043 184.042L354.16 185.884L352.237 187.683Z" fill="#3C415E"/>
<path fill-rule="evenodd" clip-rule="evenodd" d="M377.588 148.669L380.68 149.235L380.813 148.529L380.895 147.81L381.053 146.371C381.122 145.894 381.116 145.406 381.133 144.922L381.17 143.466L378.03 143.503L377.995 144.798C377.98 145.229 377.989 145.662 377.925 146.091L377.783 147.383L377.71 148.028L377.588 148.669Z" fill="#3C415E"/>
<path fill-rule="evenodd" clip-rule="evenodd" d="M374.826 157.619L377.691 158.946C378.042 158.077 378.416 157.221 378.745 156.341C379.045 155.446 379.366 154.56 379.645 153.656L376.644 152.7C376.386 153.533 376.086 154.356 375.811 155.184C375.506 156.003 375.153 156.807 374.826 157.619Z" fill="#3C415E"/>
<path fill-rule="evenodd" clip-rule="evenodd" d="M370.434 165.967L373.092 167.693L374.479 165.319C374.939 164.526 375.353 163.703 375.791 162.897L373.027 161.358C372.605 162.132 372.209 162.921 371.768 163.684L370.434 165.967Z" fill="#3C415E"/>
<path fill-rule="evenodd" clip-rule="evenodd" d="M368.955 123.262L371.229 121.025C369.988 119.654 368.659 118.394 367.319 117.155L365.247 119.591C366.525 120.774 367.79 121.972 368.955 123.262Z" fill="#3C415E"/>
<path fill-rule="evenodd" clip-rule="evenodd" d="M374.495 130.727L377.212 129.103C376.999 128.673 376.739 128.28 376.487 127.879L375.73 126.68C375.488 126.27 375.191 125.91 374.92 125.527L374.089 124.392L371.629 126.408L372.396 127.456C372.645 127.81 372.924 128.144 373.142 128.517L373.833 129.614C374.064 129.98 374.305 130.34 374.495 130.727Z" fill="#3C415E"/>
<path fill-rule="evenodd" clip-rule="evenodd" d="M377.637 139.36L380.727 138.782C380.67 138.296 380.545 137.826 380.432 137.354L380.088 135.936C379.96 135.468 379.789 135.015 379.64 134.554C379.48 134.098 379.344 133.63 379.162 133.185L376.25 134.399C376.414 134.797 376.53 135.212 376.674 135.618C376.805 136.027 376.96 136.43 377.074 136.844L377.376 138.098C377.476 138.516 377.59 138.932 377.637 139.36Z" fill="#3C415E"/>
<path fill-rule="evenodd" clip-rule="evenodd" d="M346.5 106.351L348.049 103.53C346.521 102.616 344.966 101.762 343.417 100.896L341.937 103.756C343.464 104.61 344.998 105.452 346.5 106.351Z" fill="#3C415E"/>
<path fill-rule="evenodd" clip-rule="evenodd" d="M354.487 111.325L356.195 108.603L353.951 107.134C353.207 106.637 352.438 106.188 351.683 105.713L350.07 108.496C350.81 108.961 351.567 109.402 352.293 109.888L354.487 111.325Z" fill="#3C415E"/>
<path fill-rule="evenodd" clip-rule="evenodd" d="M362.038 116.858L363.976 114.307C362.582 113.145 361.122 112.096 359.68 111.014L357.883 113.673C359.278 114.722 360.698 115.741 362.038 116.858Z" fill="#3C415E"/>
<path fill-rule="evenodd" clip-rule="evenodd" d="M321.342 93.4163L322.631 90.4591L320.234 89.3451L317.827 88.2551L316.565 91.2249L318.959 92.3088L321.342 93.4163Z" fill="#3C415E"/>
<path fill-rule="evenodd" clip-rule="evenodd" d="M329.846 97.4779L331.197 94.5507C329.618 93.7568 328.02 93.0119 326.431 92.2441L325.116 95.1892C326.693 95.9508 328.281 96.6908 329.846 97.4779Z" fill="#3C415E"/>
<path fill-rule="evenodd" clip-rule="evenodd" d="M338.211 101.743L339.645 98.8583C338.088 98.0101 336.503 97.2306 334.933 96.4138L333.549 99.3243C335.102 100.133 336.674 100.906 338.211 101.743Z" fill="#3C415E"/>
<path fill-rule="evenodd" clip-rule="evenodd" d="M295.569 81.5137L296.903 78.5781L292.196 76.2632L290.828 79.182L295.569 81.5137Z" fill="#3C415E"/>
<path fill-rule="evenodd" clip-rule="evenodd" d="M304.122 85.5666L305.409 82.6086L300.657 80.3784L299.346 83.325L304.122 85.5666Z" fill="#3C415E"/>
<path fill-rule="evenodd" clip-rule="evenodd" d="M312.7 89.4768L313.954 86.5036C312.359 85.78 310.758 85.0716 309.169 84.3362L307.898 87.3017C309.494 88.0402 311.1 88.7509 312.7 89.4768Z" fill="#3C415E"/>
<path fill-rule="evenodd" clip-rule="evenodd" d="M270.488 67.9184L272.129 65.1539C271.385 64.7035 271.759 64.7639 271.031 64.2923L268.86 63.0225L267.796 62.2803L266.041 64.9695L267.138 65.7339L268.251 66.4677C268.997 66.9508 269.73 67.4589 270.488 67.9184Z" fill="#3C415E"/>
<path fill-rule="evenodd" clip-rule="evenodd" d="M278.683 72.7786L280.181 69.9282L277.906 68.6413L275.657 67.3157L274.087 70.1239L277.46 72.0268L278.683 72.7786Z" fill="#3C415E"/>
<path fill-rule="evenodd" clip-rule="evenodd" d="M287.026 77.2546L288.427 74.3525C286.883 73.5377 285.326 72.7449 283.795 71.9106L282.344 74.7865C283.895 75.6314 285.466 76.4314 287.026 77.2546Z" fill="#3C415E"/>
<path fill-rule="evenodd" clip-rule="evenodd" d="M250.628 48.5367L252.351 46.5296C251.957 45.8109 251.713 45.0417 251.409 44.2934C251.276 43.9133 251.188 43.5226 251.073 43.1384L250.908 42.5603C250.868 42.365 250.839 42.1669 250.803 41.9705L247.724 42.6082C247.767 42.8431 247.805 43.0798 247.854 43.3132L248.046 44.0015C248.18 44.4579 248.292 44.9239 248.447 45.3712C248.796 46.2503 250.181 47.7105 250.628 48.5367Z" fill="#3C415E"/>
<path fill-rule="evenodd" clip-rule="evenodd" d="M255.31 56.0323L257.553 53.7626C256.989 53.1359 257.467 53.0926 256.959 52.4286L255.079 50.9004C254.822 50.5713 254.595 50.2247 254.351 49.8879L251.81 51.7928C252.08 52.1671 252.337 52.5548 252.62 52.917L253.49 53.9842C254.054 54.7139 254.698 55.3554 255.31 56.0323Z" fill="#3C415E"/>
<path fill-rule="evenodd" clip-rule="evenodd" d="M262.548 62.43L264.418 59.8251C263.717 59.3192 263.071 58.7568 262.397 58.222C261.719 57.6922 261.088 57.1164 260.446 56.5513L258.391 59.0026C259.067 59.5986 260.82 60.7612 261.526 61.3134C262.227 61.8717 261.824 61.9063 262.548 62.43Z" fill="#3C415E"/>
<path fill-rule="evenodd" clip-rule="evenodd" d="M255.418 20.0088L257.478 22.4571C258.61 21.4082 261.016 21.1425 262.425 20.5557L260.169 16.9893C258.436 17.7095 256.813 18.7223 255.418 20.0088Z" fill="#3C415E"/>
<path fill-rule="evenodd" clip-rule="evenodd" d="M249.777 28.2723L252.633 29.6211C253.451 27.7261 253.945 26.8163 255.012 25.2801L252.467 23.3813C251.395 24.921 250.509 26.5788 249.777 28.2723Z" fill="#3C415E"/>
<path fill-rule="evenodd" clip-rule="evenodd" d="M247.365 38.008L250.504 38.122L250.514 37.5196L250.585 36.9169C250.635 36.5152 250.672 36.1127 250.729 35.7109L250.979 34.5107C251.023 34.3108 251.054 34.1094 251.108 33.911L251.285 33.317L248.27 32.4102L248.071 33.0855C248.01 33.3124 247.971 33.5469 247.92 33.7772L248.717 35.7208C248.65 36.1902 247.519 36.11 247.462 36.582L247.382 37.2909L247.365 38.008Z" fill="#3C415E"/>
<path fill-rule="evenodd" clip-rule="evenodd" d="M283.201 20.2161L281.87 23.1531C284.503 24.4256 285.984 25.2963 286.425 25.5452L287.931 22.699C286.381 21.8256 284.807 20.9921 283.201 20.2161Z" fill="#3C415E"/>
<path fill-rule="evenodd" clip-rule="evenodd" d="M274.218 16.7659L273.428 19.9044C275.025 20.3331 276.611 20.8788 278.177 21.5101L280.401 19.0432C278.742 18.3743 275.959 17.233 274.218 16.7659Z" fill="#3C415E"/>
<path fill-rule="evenodd" clip-rule="evenodd" d="M264.537 15.8635L264.907 19.0837C266.449 18.9062 268.043 18.9347 269.643 19.1392L270.029 15.9208C269.25 15.8213 267.463 15.5237 264.537 15.8635Z" fill="#3C415E"/>
<path fill-rule="evenodd" clip-rule="evenodd" d="M307.286 35.7283L306.529 38.9097L310.745 42.0911L311.522 38.9245L307.286 35.7283Z" fill="#3C415E"/>
<path fill-rule="evenodd" clip-rule="evenodd" d="M300.657 30.6838L297.812 32.8148C299.245 33.8163 300.667 34.8363 302.084 35.8705L303.897 33.2226C302.466 32.1778 302.11 31.6997 300.657 30.6838Z" fill="#3C415E"/>
<path fill-rule="evenodd" clip-rule="evenodd" d="M291.632 24.8853L291.108 28.2252C292.584 29.1328 292.961 29.52 294.409 30.4877L296.113 27.7638C294.638 26.7783 293.145 25.816 291.632 24.8853Z" fill="#3C415E"/>
<path fill-rule="evenodd" clip-rule="evenodd" d="M330.926 49.8833L330.539 53.1016C331.008 53.1746 331.483 53.1864 331.955 53.2301C332.428 53.2669 333.985 53.8647 334.458 53.848L334.792 53.2844C335.263 53.2567 335.732 53.2111 336.202 53.1738L335.912 49.9449C335.496 49.9768 335.08 50.019 334.664 50.0444L333.414 50.0509C332.996 50.068 332.582 50.0273 332.168 49.9946C331.754 49.9551 331.337 49.9491 330.926 49.8833Z" fill="#3C415E"/>
<path fill-rule="evenodd" clip-rule="evenodd" d="M322.487 46.9526L320.948 49.7795L322.186 50.4761C322.605 50.6966 323.046 50.8775 323.475 51.0785L324.124 51.3723L324.448 51.5179L324.784 51.6372L326.13 52.1104L327.064 49.0144L325.882 48.5991L325.587 48.4957L326.385 48.9206L324.728 48.105C324.349 47.9263 323.96 47.7701 323.588 47.5744L322.487 46.9526Z" fill="#3C415E"/>
<path fill-rule="evenodd" clip-rule="evenodd" d="M314.922 41.5122L314.144 44.6777L318.385 47.8819L319.141 44.6997L314.922 41.5122Z" fill="#3C415E"/>
<path fill-rule="evenodd" clip-rule="evenodd" d="M355.856 40.378L357.854 42.8799C359.249 41.6919 361.675 40.9967 362.964 39.6745L359.661 36.8245C358.45 38.0665 357.177 39.2538 355.856 40.378Z" fill="#52298A"/>
<path fill-rule="evenodd" clip-rule="evenodd" d="M348.291 45.7394L349.811 48.5773C351.416 47.6746 352.944 46.653 354.429 45.5794L352.62 42.9285C351.351 43.8459 350.57 44.4601 348.291 45.7394Z" fill="#3C415E"/>
<path fill-rule="evenodd" clip-rule="evenodd" d="M339.903 49.2466L340.666 52.3923C342.467 51.9013 344.229 51.2955 345.923 50.5475L344.691 47.5645C343.502 48.0897 342.524 48.5275 339.903 49.2466Z" fill="#3C415E"/>
<path d="M361.535 5.21753L366.159 18.0421L422.65 22.6917L361.535 5.21753Z" fill="#2A5468"/>
<path d="M360.993 39.0113L366.159 18.0421L422.65 22.6917L370.586 29.3963L360.993 39.0113Z" fill="#2D9596"/>
<path d="M379.044 49.1638L370.586 29.3963L422.651 22.6914L379.044 49.1638Z" fill="#2A5468"/>
<path d="M311.669 552.049H126.432C112.607 552.049 101.393 540.469 101.393 526.192V137.465C101.393 123.188 112.607 111.608 126.432 111.608H311.662C325.494 111.608 336.708 123.188 336.708 137.465V526.185C336.708 540.469 325.494 552.049 311.669 552.049Z" fill="url(#paint0_linear_16_3765)"/>
<path d="M324.287 157.17H113.814V489.17H324.287V157.17Z" fill="#FAF9F9"/>
<path d="M233.757 141.983H204.343C200.277 141.983 196.989 138.589 196.989 134.389C196.989 130.19 200.277 126.795 204.343 126.795H233.757C237.824 126.795 241.111 130.19 241.111 134.389C241.111 138.589 237.824 141.983 233.757 141.983Z" fill="#AFB9CA"/>
<path d="M218.425 400.157C259.788 400.157 293.32 365.53 293.32 322.815C293.32 280.101 259.788 245.474 218.425 245.474C177.061 245.474 143.529 280.101 143.529 322.815C143.529 365.53 177.061 400.157 218.425 400.157Z" fill="url(#paint1_linear_16_3765)"/>
<path d="M188.152 358.184L165.685 325.87C162.858 321.803 163.758 316.139 167.697 313.219C171.635 310.299 177.121 311.229 179.949 315.296L197.064 339.913L258.858 294.917C262.821 292.032 268.298 293.01 271.092 297.102C273.886 301.194 272.939 306.85 268.977 309.735L199.684 360.192C195.958 362.904 190.811 362.009 188.152 358.184Z" fill="white"/>
<path d="M268.256 479.959C271.635 479.428 275.297 481.445 278.291 482.8C278.611 482.945 279.284 483.327 279.982 483.71C278.786 482.298 277.584 480.893 276.372 479.498C275.567 478.571 274.751 477.651 273.935 476.728C273.062 476.868 271.229 476.545 269.137 476.788C266.664 477.074 265.617 478.074 263.359 476.134C261.229 474.304 260.329 471.115 263.695 470.59C266.557 470.144 269.209 472.073 271.576 474.022C269.094 471.119 266.754 468.117 264.959 464.765C256.064 460.11 251.838 446.459 253.105 436.941C253.227 436.026 253.421 435.057 254.054 434.406C255.426 432.992 257.842 433.984 259.129 435.481C260.931 437.578 261.731 440.413 262.02 443.201C262.309 445.99 262.14 448.806 262.277 451.607C262.393 453.966 262.854 456.161 263.418 458.321C263.443 458.357 263.471 458.388 263.489 458.435C264.882 462.023 266.951 465.225 269.313 468.228C268.442 466.01 268.016 462.755 267.863 461.477C267.436 457.903 267.87 454.127 269.656 451.034C269.988 450.459 270.438 449.862 271.08 449.77C271.888 449.654 272.565 450.383 273.008 451.09C274.568 453.576 275.169 456.687 274.652 459.602C273.99 463.333 272.069 466.75 271.26 470.452C271.214 470.45 271.17 470.441 271.125 470.434C272.595 472.156 274.131 473.825 275.664 475.476C275.03 472.396 275.096 468.698 275.409 467.008C275.657 465.669 276.096 464.309 277.023 463.339C277.951 462.369 279.47 461.9 280.637 462.538C281.317 462.91 281.793 463.599 282.083 464.337C283.008 466.697 282.193 469.361 281.376 471.764C280.56 474.163 279.837 476.654 278.923 479.022C279.104 479.223 279.287 479.424 279.466 479.625C282.069 482.554 284.639 485.519 287.163 488.527C286.368 486.444 285.705 484.302 285.231 482.127C284.271 477.726 284.14 473.061 285.437 468.81C285.958 467.104 286.742 465.428 288.053 464.305C288.585 463.849 289.302 463.484 289.95 463.756C290.296 463.902 290.561 464.209 290.783 464.526C292.171 466.51 292.333 469.157 292.041 471.573C291.579 475.402 290.135 478.986 289.109 482.678C288.52 484.795 287.893 487.232 288.012 489.538C290.612 492.662 293.153 495.839 295.616 499.077C293.914 495.233 293.056 490.151 292.632 486.533C292.218 483.004 292.566 478.912 295.273 476.715C295.667 476.395 296.112 476.122 296.603 476.02C298.144 475.699 299.548 477.144 300.076 478.673C300.75 480.628 300.517 482.801 299.961 484.796C299.404 486.79 298.539 488.678 297.936 490.658C296.862 494.183 296.893 497.634 297.227 501.217C299.11 503.748 300.949 506.316 302.736 508.923C302.267 506.955 302.045 504.831 301.954 503.733C301.657 500.153 302.087 496.501 303.275 493.12C303.677 491.976 304.313 490.725 305.463 490.456C306.462 490.223 307.464 490.844 308.199 491.581C310.086 493.47 311.01 496.332 310.598 499.013C310.331 500.749 309.553 502.351 308.785 503.921C307.991 505.544 307.197 507.168 306.403 508.792C305.797 510.032 305.395 511.306 305.237 512.658C307.152 515.581 308.997 518.552 310.758 521.574C310.394 520.151 310.106 518.706 309.943 517.251C309.575 513.969 309.892 510.525 311.385 507.604C311.9 506.598 312.635 505.601 313.7 505.31C315.206 504.899 316.78 506.169 317.228 507.71C317.676 509.251 317.255 510.921 316.626 512.393C316.04 513.765 315.272 515.053 314.349 516.211C313.692 517.036 312.948 517.811 312.502 518.775C311.951 519.969 311.911 521.337 311.881 522.659C311.875 522.932 311.869 523.207 311.863 523.483C313.222 525.858 314.57 528.279 315.85 530.744C315.767 527.752 316.662 524.572 318.021 522.166C318.875 520.655 320.386 519.134 322.022 519.587C322.539 519.73 322.996 520.067 323.333 520.497C324.553 522.05 324.043 524.436 322.904 526.054C321.765 527.672 320.122 528.835 318.869 530.361C318.151 531.236 317.873 532.683 317.295 533.608C319.224 537.56 320.93 541.619 322.188 545.782C322.557 547.003 320.971 547.564 320.422 546.468C318.932 543.49 317.494 540.499 316.043 537.517C314.581 538.245 308.464 539.504 307.523 539.764C306.022 540.179 304.158 539.974 303.305 538.634C302.482 537.34 303.019 535.475 304.176 534.491C305.334 533.507 306.926 533.253 308.424 533.322C309.266 533.361 312.951 534.201 315.005 535.399C313.505 532.345 311.967 529.31 310.331 526.321C309.378 526.264 308.384 526.154 307.418 526.336C305.884 526.625 304.454 527.371 302.914 527.628C301.374 527.886 299.545 527.485 298.794 526.073C297.896 524.388 299.133 522.144 300.874 521.46C302.614 520.776 304.58 521.254 306.302 521.986C306.846 522.218 307.628 522.531 308.412 522.926C308.272 522.686 308.138 522.443 307.995 522.203C307.221 520.901 306.428 519.611 305.626 518.328C303.604 518.774 300.75 518.102 298.601 518.161C296.58 518.217 294.461 518.389 292.631 517.502C290.801 516.615 289.481 514.2 290.494 512.393C291.412 510.754 293.627 510.515 295.426 510.878C297.364 511.268 300.817 512.697 303.239 514.588C301.481 511.895 299.669 509.241 297.813 506.618C294.3 506.187 289.751 508.988 285.979 507.593C284.455 507.029 282.359 505.22 283.125 503.212C283.729 501.632 286.345 501.514 287.717 501.384C290.048 501.163 292.899 501.876 295.37 503.214C294.624 502.192 293.874 501.173 293.117 500.159C292.142 498.855 291.154 497.562 290.16 496.274C288.818 496.187 286.491 496.143 284.353 496.506C281.577 496.976 278.669 498.091 276.438 495.467C274.398 493.066 273.469 488.069 277.744 488.335C280.147 488.484 283.828 489.976 286.789 491.978C284.839 489.536 282.858 487.123 280.849 484.734C278.745 485 276.93 484.625 273.921 485.686C271.484 486.545 268.546 488.935 266.292 486.789C263.619 484.244 264.895 480.488 268.256 479.959Z" fill="#A3C36D"/>
<path d="M302.449 468.956C305.723 469.97 308.196 473.413 310.339 475.961C310.568 476.234 311.018 476.876 311.49 477.531C310.995 475.727 310.491 473.925 309.975 472.128C309.631 470.935 309.275 469.742 308.921 468.548C308.073 468.288 306.552 467.186 304.56 466.48C302.207 465.645 300.846 466.086 299.61 463.333C298.445 460.738 298.953 457.457 302.212 458.472C304.984 459.335 306.58 462.25 307.911 465.058C306.872 461.337 306.002 457.59 305.771 453.767C299.663 445.627 301.505 431.421 306.598 423.381C307.087 422.609 307.664 421.819 308.506 421.51C310.333 420.839 312.104 422.804 312.646 424.726C313.405 427.418 312.952 430.333 312.057 432.981C311.162 435.628 309.841 438.099 308.804 440.691C307.931 442.874 307.437 445.061 307.051 447.263C307.058 447.307 307.071 447.347 307.068 447.397C306.838 451.255 307.38 455.064 308.269 458.823C308.402 456.433 309.367 453.303 309.759 452.08C310.854 448.662 312.813 445.442 315.709 443.437C316.248 443.064 316.903 442.723 317.521 442.924C318.3 443.177 318.608 444.134 318.716 444.969C319.095 447.907 318.347 450.983 316.671 453.388C314.526 456.467 311.373 458.706 309.107 461.694C309.066 461.672 309.03 461.644 308.993 461.617C309.606 463.823 310.303 466.011 311.003 468.181C311.707 465.117 313.301 461.805 314.285 460.416C315.064 459.316 316.024 458.281 317.265 457.814C318.506 457.348 320.072 457.596 320.862 458.689C321.323 459.326 321.467 460.159 321.422 460.954C321.28 463.495 319.438 465.542 317.704 467.353C315.971 469.16 314.285 471.09 312.477 472.827C312.557 473.089 312.639 473.351 312.717 473.613C313.854 477.41 314.948 481.227 315.981 485.06C316.126 482.827 316.416 480.598 316.889 478.423C317.847 474.021 319.663 469.747 322.598 466.48C323.776 465.169 325.18 464.001 326.83 463.566C327.5 463.389 328.299 463.377 328.772 463.909C329.024 464.194 329.136 464.588 329.206 464.974C329.637 467.379 328.686 469.843 327.42 471.897C325.414 475.153 322.623 477.754 320.165 480.636C318.755 482.289 317.177 484.214 316.329 486.35C317.383 490.323 318.362 494.318 319.245 498.333C319.301 494.107 320.634 489.134 321.75 485.677C322.84 482.305 324.852 478.761 328.209 477.973C328.698 477.858 329.212 477.808 329.699 477.933C331.224 478.325 331.894 480.251 331.737 481.866C331.535 483.931 330.423 485.792 329.094 487.348C327.764 488.904 326.199 490.228 324.833 491.75C322.4 494.461 320.997 497.593 319.813 500.978C320.465 504.098 321.063 507.232 321.595 510.378C321.988 508.393 322.668 506.375 323.041 505.342C324.258 501.976 326.161 498.867 328.636 496.336C329.473 495.481 330.568 494.631 331.718 494.897C332.717 495.128 333.365 496.133 333.725 497.124C334.646 499.665 334.294 502.66 332.81 504.9C331.848 506.351 330.481 507.455 329.137 508.534C327.746 509.649 326.355 510.766 324.964 511.882C323.901 512.734 323.011 513.708 322.307 514.86C322.825 518.348 323.261 521.849 323.598 525.358C323.859 523.911 324.199 522.479 324.656 521.091C325.684 517.963 327.398 514.991 329.959 513.011C330.841 512.33 331.919 511.753 333.001 511.962C334.533 512.256 335.429 514.1 335.194 515.691C334.96 517.281 333.887 518.605 332.708 519.656C331.609 520.637 330.381 521.461 329.068 522.1C328.132 522.555 327.138 522.926 326.336 523.6C325.342 524.436 324.739 525.654 324.163 526.835C324.045 527.078 323.926 527.325 323.806 527.571C324.049 530.319 324.263 533.102 324.398 535.896C325.563 533.156 327.691 530.678 329.917 529.105C331.314 528.118 333.312 527.41 334.602 528.544C335.009 528.902 335.283 529.409 335.409 529.946C335.867 531.889 334.417 533.819 332.717 534.778C331.017 535.736 329.049 536.061 327.284 536.886C326.272 537.359 325.421 538.543 324.515 539.124C324.619 543.548 324.478 547.971 323.888 552.289C323.715 553.555 322.049 553.361 322.008 552.128C321.896 548.778 321.838 545.439 321.763 542.103C320.14 542.115 314.089 540.547 313.131 540.365C311.603 540.076 310.003 539.067 309.789 537.479C309.582 535.946 310.84 534.497 312.294 534.121C313.748 533.744 315.292 534.218 316.617 534.942C317.361 535.35 320.344 537.739 321.703 539.73C321.614 536.306 321.483 532.884 321.244 529.459C320.407 528.986 319.553 528.447 318.606 528.184C317.099 527.766 315.497 527.809 313.999 527.36C312.501 526.912 311.015 525.741 310.921 524.133C310.809 522.213 312.857 520.733 314.714 520.884C316.571 521.035 318.148 522.337 319.401 523.76C319.797 524.21 320.373 524.839 320.918 525.543C320.891 525.263 320.871 524.985 320.841 524.705C320.681 523.186 320.499 521.67 320.307 520.156C318.296 519.665 315.995 517.794 314.029 516.898C312.179 516.055 310.192 515.274 308.906 513.662C307.62 512.052 307.429 509.285 309.094 508.1C310.603 507.026 312.704 507.789 314.179 508.912C315.769 510.123 318.297 512.941 319.7 515.72C319.229 512.509 318.693 509.31 318.102 506.119C315.107 504.176 309.834 504.695 307.004 501.766C305.861 500.584 304.716 498.021 306.242 496.546C307.443 495.385 309.856 496.435 311.149 496.924C313.348 497.756 315.628 499.661 317.306 501.963C317.056 500.709 316.801 499.457 316.537 498.206C316.197 496.596 315.84 494.991 315.476 493.388C314.3 492.716 312.215 491.647 310.133 491.029C307.428 490.226 304.338 489.948 303.411 486.59C302.563 483.518 303.796 478.591 307.549 480.722C309.658 481.92 312.366 484.896 314.211 488.014C313.462 484.947 312.673 481.889 311.848 478.842C309.836 478.152 308.351 477.011 305.192 476.639C302.634 476.337 298.987 477.197 297.841 474.261C296.482 470.778 299.193 467.948 302.449 468.956Z" fill="#A3C36D"/>
<path d="M335.043 552.615C335.043 552.615 348.816 530.472 340.991 498.956C340.991 498.956 318.453 504.128 310.94 552.615H335.043Z" fill="#00B256"/>
<path d="M324.777 552.615C324.777 552.615 330.661 523.523 333.948 517.704C333.948 517.704 324.058 536.129 322.586 552.615H324.777Z" fill="#071952"/>
<path d="M296.967 553.035C296.967 553.035 283.194 530.892 291.02 499.375C291.02 499.375 313.558 504.547 321.071 553.035H296.967Z" fill="#00B256"/>
<path d="M307.234 553.035C307.234 553.035 301.35 523.943 298.063 518.124C298.063 518.124 307.953 536.55 309.425 553.035H307.234Z" fill="#071952"/>
<path d="M270.919 553.034C270.919 553.034 253.164 524.491 263.252 483.864C263.252 483.864 292.305 490.531 301.989 553.034H270.919Z" fill="#00884C"/>
<path d="M284.153 553.034C284.153 553.034 276.568 515.532 272.331 508.032C272.331 508.032 285.079 531.783 286.977 553.034H284.153Z" fill="#071952"/>
<path d="M366.369 553.034C366.369 553.034 384.124 524.491 374.036 483.864C374.036 483.864 344.983 490.531 335.299 553.034H366.369Z" fill="#00884C"/>
<path d="M353.135 553.034C353.135 553.034 360.72 515.532 364.957 508.032C364.957 508.032 352.208 531.783 350.311 553.034H353.135Z" fill="#071952"/>
<path d="M203.755 453.792C203.755 453.792 208.757 495.546 207.089 516.638C205.422 537.73 203.755 557.101 203.755 557.101H195.418L192.291 502.648L184.997 484.784L182.81 502.282C182.1 507.97 178.507 512.835 173.383 515.048L135.81 531.274L132.059 524.386L164.006 501.453C165.416 500.441 166.3 498.818 166.404 497.047L168.74 457.235L203.755 453.792Z" fill="#3C415E"/>
<path d="M226.473 374.373L220.22 366.625C220.22 366.625 196.878 379.539 193.126 382.552C189.374 385.565 166.448 389.008 161.446 401.061C156.445 413.114 149.358 429.902 149.358 429.902L158.946 435.928L169.575 418.925L168.742 457.235C168.742 457.235 187.083 469.288 203.756 453.792L204.59 400.846L226.473 374.373Z" fill="#E4973F"/>
<path d="M226.681 374.158L232.933 366.41L224.18 333.265C224.18 333.265 224.597 325.947 221.679 323.364C218.761 320.782 217.094 319.921 215.009 321.212C212.925 322.503 219.594 325.516 217.51 329.39C217.51 329.39 215.009 328.099 214.592 326.808C214.176 325.516 211.675 326.377 212.925 328.53C214.175 330.682 218.344 334.986 218.344 334.986L223.763 361.674L220.428 366.409L226.681 374.158Z" fill="#FFE1BD"/>
<path d="M159.152 435.713L139.978 463.262C139.978 463.262 138.727 466.275 135.393 466.706C132.058 467.136 130.807 469.719 129.974 471.871C129.14 474.023 126.639 475.315 127.472 468.858C128.306 462.401 132.891 460.249 135.393 459.818L149.565 429.687L159.152 435.713Z" fill="#FFE1BD"/>
<path d="M195.796 411.675C197.856 413.081 200.515 413.147 202.742 412.046C206.991 409.945 212.509 406.606 212.509 403.429C212.509 398.264 212.925 393.098 205.422 389.224C197.919 385.35 191.25 377.602 189.166 368.992C187.081 360.383 185.414 353.927 179.995 353.066C174.576 352.205 164.572 353.927 164.156 362.966C163.739 372.006 166.24 394.82 170.408 402.568C174.576 410.316 176.661 421.078 183.747 418.925C190.833 416.773 187.915 413.329 189.582 412.038C190.833 411.07 193.49 410.101 195.796 411.675Z" fill="#3C415E"/>
<path d="M203.754 557.101L207.833 561.613C208.501 562.352 207.994 563.557 207.015 563.557H196.537C195.919 563.557 195.418 563.04 195.418 562.402V557.101H203.754Z" fill="#738598"/>
<path d="M135.81 531.274V536.589C135.81 537.681 134.478 538.163 133.818 537.31L126.748 528.185C126.28 527.58 126.51 526.679 127.207 526.391L132.059 524.386L135.81 531.274Z" fill="#738598"/>
<path d="M458.018 509.728L446.236 556.387H410.358L399.513 509.728H458.018Z" fill="#738598"/>
<path d="M400.605 452.974C400.603 448.099 402.951 443.543 406.867 440.822C402.59 435.3 403.457 427.243 408.804 422.825C411.006 421.006 413.742 420.016 416.561 420.019C416.739 420.019 416.916 420.04 417.093 420.047C415.108 413.272 418.817 406.119 425.377 404.069C431.937 402.019 438.865 405.849 440.85 412.623C441.559 415.044 441.559 417.627 440.85 420.047C441.027 420.047 441.204 420.019 441.381 420.019C448.229 420.013 453.786 425.74 453.792 432.812C453.795 435.724 452.837 438.549 451.075 440.822C457.574 445.339 459.297 454.44 454.923 461.151C453.901 462.719 452.594 464.069 451.075 465.124C455.353 470.647 454.486 478.704 449.139 483.122C446.937 484.941 444.201 485.93 441.381 485.928H416.561C409.713 485.934 404.157 480.207 404.15 473.135C404.148 470.223 405.106 467.398 406.867 465.124C402.951 462.404 400.603 457.848 400.605 452.974Z" fill="#00B256"/>
<path d="M415.309 444.356C416.001 443.641 417.123 443.641 417.816 444.356L427.199 454.046V427.342C427.199 426.331 427.993 425.511 428.972 425.511C429.951 425.511 430.745 426.331 430.745 427.342V440.315L438.799 431.998C439.504 431.295 440.626 431.315 441.306 432.043C441.97 432.752 441.97 433.877 441.306 434.587L430.745 445.493V470.523L438.356 462.664C439.06 461.961 440.183 461.981 440.863 462.708C441.526 463.418 441.526 464.543 440.863 465.252L430.745 475.701V509.727C430.745 510.738 429.951 511.558 428.972 511.558C427.993 511.558 427.199 510.738 427.199 509.727V459.097C427.067 459.03 426.944 458.945 426.832 458.844L415.309 446.944C414.617 446.23 414.617 445.07 415.309 444.356Z" fill="#00884C"/>
<path d="M398.833 511.558H459.111C460.09 511.558 460.884 510.739 460.884 509.728C460.884 508.717 460.09 507.897 459.111 507.897H398.833C397.854 507.897 397.061 508.717 397.061 509.728C397.061 510.739 397.854 511.558 398.833 511.558Z" fill="#3C415E"/>
</g>
<defs>
<filter id="filter0_d_16_3765" x="0" y="5.21753" width="475.042" height="573.782" filterUnits="userSpaceOnUse" color-interpolation-filters="sRGB">
<feFlood flood-opacity="0" result="BackgroundImageFix"/>
<feColorMatrix in="SourceAlpha" type="matrix" values="0 0 0 0 0 0 0 0 0 0 0 0 0 0 0 0 0 0 127 0" result="hardAlpha"/>
<feOffset dy="4"/>
<feGaussianBlur stdDeviation="2"/>
<feComposite in2="hardAlpha" operator="out"/>
<feColorMatrix type="matrix" values="0 0 0 0 0 0 0 0 0 0 0 0 0 0 0 0 0 0 0.25 0"/>
<feBlend mode="normal" in2="BackgroundImageFix" result="effect1_dropShadow_16_3765"/>
<feBlend mode="normal" in="SourceGraphic" in2="effect1_dropShadow_16_3765" result="shape"/>
</filter>
<linearGradient id="paint0_linear_16_3765" x1="101.393" y1="331.828" x2="336.708" y2="331.828" gradientUnits="userSpaceOnUse">
<stop stop-color="#263238"/>
<stop offset="1" stop-color="#3C415E"/>
</linearGradient>
<linearGradient id="paint1_linear_16_3765" x1="143.529" y1="322.816" x2="293.32" y2="322.816" gradientUnits="userSpaceOnUse">
<stop offset="0.136" stop-color="#2A5468"/>
<stop offset="1" stop-color="#2D9596"/>
</linearGradient>
</defs>
</svg>
