<svg width="1297" height="464" viewBox="0 0 1297 464" fill="none" xmlns="http://www.w3.org/2000/svg">
<path d="M270 102.5C455.414 387.605 543.755 -97.2986 782 111.421" stroke="#142239" stroke-width="2.9263" stroke-miterlimit="10" stroke-linecap="round" stroke-dasharray="0.15 7.32"/>
<path d="M949.5 42.5C949.5 42.5 1000 1.00005 1085 55.5001C1164.91 99.0758 1155.78 176.601 1219 165.71" stroke="#142239" stroke-width="2.9263" stroke-miterlimit="10" stroke-linecap="round" stroke-dasharray="0.15 7.32"/>
<path d="M1255.8 174C1255.8 174 1268.91 348.637 1084 325.97" stroke="#142239" stroke-width="2.9263" stroke-miterlimit="10" stroke-linecap="round" stroke-dasharray="0.15 7.32"/>
<path d="M887 373.286C887 373.286 933.5 294.248 987 331.5C1036 358.248 1087.92 324.917 1083 312.5" stroke="#142239" stroke-width="2.9263" stroke-miterlimit="10" stroke-linecap="round" stroke-dasharray="0.15 7.32"/>
<path d="M933.5 54.5C933.5 54.5 926.001 169.5 979.5 198.5C1047 235.089 1088.51 248.943 1073 319.5" stroke="#142239" stroke-width="2.9263" stroke-miterlimit="10" stroke-linecap="round" stroke-dasharray="0.15 7.32"/>
<path d="M1075.63 73C1075.63 73 1062.27 145.08 1112.04 233.214C1142.52 287.193 1253.89 326.195 1238.56 420" stroke="#142239" stroke-width="2.9263" stroke-miterlimit="10" stroke-linecap="round" stroke-dasharray="0.15 7.32"/>
<path d="M1227.5 416C936.5 532 1004 186 840.5 138" stroke="#142239" stroke-width="2.9263" stroke-miterlimit="10" stroke-linecap="round" stroke-dasharray="0.15 7.32"/>
<path d="M73 219C73 219 113 164.529 165.005 169.754C217.001 174.975 238 122 238 122" stroke="#142239" stroke-width="2.9263" stroke-miterlimit="10" stroke-linecap="round" stroke-dasharray="0.15 7.32"/>
<path d="M249 104C249 104 267.604 75.2603 321.5 80C375.387 84.7367 396.5 63 396.5 63" stroke="#142239" stroke-width="2.9263" stroke-miterlimit="10" stroke-linecap="round" stroke-dasharray="0.15 7.32"/>
<path d="M43.9446 174.5C43.9446 174.5 49.2136 140.281 34.5003 117.895C-1.25072 63.5002 22.5574 24.6879 51.4032 24.5C324 -15 245.085 147.895 252 235.5C234.616 260.521 316.5 273 310 350C325 429 333.749 378.724 324 395.5C275.045 407.94 305 366 248.915 416.5C156.5 514.5 83.3472 417.254 63 366C43.9446 318 91.5 310 51.4032 217" stroke="#142239" stroke-width="2.9263" stroke-miterlimit="10" stroke-linecap="round" stroke-dasharray="0.15 7.32"/>
<g filter="url(#filter0_d_16_89)">
<path d="M1098.28 313.313C1098.28 332.814 1081.87 348.627 1061.64 348.627C1041.4 348.627 1025 332.816 1025 313.313C1025 293.807 1041.4 278 1061.64 278C1081.87 278 1098.28 293.807 1098.28 313.313Z" fill="url(#paint0_linear_16_89)"/>
<mask id="mask0_16_89" style="mask-type:luminance" maskUnits="userSpaceOnUse" x="1029" y="281" width="66" height="64">
<path d="M1094.27 313.313C1094.27 330.679 1079.66 344.756 1061.65 344.756C1043.62 344.756 1029.02 330.68 1029.02 313.313C1029.02 295.948 1043.62 281.867 1061.65 281.867C1079.66 281.867 1094.27 295.947 1094.27 313.313Z" fill="white"/>
</mask>
<g mask="url(#mask0_16_89)">
<path d="M1077.48 312.455C1073.48 310.877 1073.93 306.797 1073.93 306.797C1075.57 308.291 1078.58 306.602 1078.58 306.602C1075.63 305.441 1073.91 298.489 1073.41 296.138C1073.3 295.415 1073.14 294.709 1072.91 294.033C1069.84 284.849 1062.38 288.017 1061.15 288.611C1059.91 288.015 1052.45 284.849 1049.38 294.033C1049.11 294.843 1048.92 295.686 1048.8 296.544C1048.2 299.205 1046.51 305.499 1043.73 306.602C1043.73 306.602 1046.73 308.291 1048.36 306.797C1048.36 306.797 1048.82 310.877 1044.82 312.455C1044.82 312.455 1050.82 313.746 1051.37 311.204C1051.37 311.204 1049.48 317.872 1047.21 318.308C1047.21 318.308 1053.57 322.736 1057.58 315.108C1057.58 315.108 1057.64 313.621 1057.55 311.47H1064.74C1064.65 313.62 1064.72 315.108 1064.72 315.108C1068.72 322.736 1075.09 318.308 1075.09 318.308C1072.82 317.872 1070.93 311.204 1070.93 311.204C1071.47 313.746 1077.48 312.455 1077.48 312.455Z" fill="#2A1600"/>
<path d="M1061.73 311.451H1056.1V319.596C1056.1 319.596 1058.43 325.837 1061.73 325.837C1064.93 325.837 1067.37 319.847 1067.37 319.847V311.451H1061.73Z" fill="#F0C496"/>
<path d="M1048.18 332.643H1042.91V346.06H1048.18V332.643Z" fill="#FAD5A9"/>
<path d="M1048.16 322.15C1047.64 322.186 1045.56 322.616 1043.81 327.095C1041.98 331.828 1042.63 335.48 1042.63 335.48H1048.16V322.15Z" fill="#4A5D95"/>
<path d="M1080.51 332.68H1075.23V346.095H1080.51V332.68Z" fill="#FAD5A9"/>
<path d="M1075.12 322.182C1075.65 322.219 1077.73 322.647 1079.47 327.128C1081.31 331.862 1080.65 335.513 1080.65 335.513H1075.12V322.182Z" fill="#4A5D95"/>
<path d="M1048.07 346.076V322.163L1056.13 319.6C1056.13 319.6 1060.28 324.095 1061.99 324.095C1064.17 324.095 1067.41 319.797 1067.41 319.797L1075.18 322.163V346.076H1048.07Z" fill="#6885BE"/>
<path d="M1062.16 325.28C1064.65 325.28 1068.27 320.65 1068.65 320.151L1067.5 319.797C1067.5 319.797 1064.27 324.095 1062.08 324.095C1060.37 324.095 1056.22 319.6 1056.22 319.6L1055.16 319.937C1055.76 320.58 1060.24 325.28 1062.16 325.28Z" fill="#4A5D95"/>
<path d="M1072.44 300.94C1072.17 300.877 1071.95 300.955 1071.77 301.098C1071.78 300.929 1071.78 300.765 1071.78 300.593C1071.78 296.536 1070.55 293.964 1068.93 292.331C1068.93 292.331 1067.05 289.634 1060.99 289.634C1055.28 289.634 1053.24 292.331 1053.24 292.331C1051.33 294.143 1050.18 296.978 1050.06 301.271C1049.85 301.021 1049.58 300.859 1049.21 300.94C1048.13 301.189 1048.23 304.038 1049.21 305.431C1049.89 306.393 1050.37 306.485 1050.6 306.448C1052.37 313.262 1057.96 317.339 1061.49 317.339C1064.93 317.339 1069.59 314.005 1071.2 306.45C1071.46 306.43 1071.88 306.234 1072.44 305.429C1073.42 304.038 1073.52 301.189 1072.44 300.94Z" fill="#FAD5A9"/>
<path d="M1067.12 295.802C1067.12 295.802 1059.39 308.839 1044.39 302.984C1044.39 302.984 1049.31 300.942 1049.84 297.725C1050.09 296.216 1053.48 288.29 1061.64 288.845C1069.79 289.404 1070.99 293.571 1071.84 295.888C1072.68 298.207 1071.53 301.644 1072.86 302.374C1072.86 302.374 1067.14 302.033 1067.12 295.802Z" fill="#40290F"/>
</g>
</g>
<g filter="url(#filter1_d_16_89)">
<path d="M1292.28 420.311C1292.28 439.814 1275.88 455.626 1255.64 455.626C1235.41 455.626 1219 439.814 1219 420.311C1219 400.81 1235.41 385 1255.64 385C1275.88 385.001 1292.28 400.81 1292.28 420.311Z" fill="url(#paint1_linear_16_89)"/>
<mask id="mask1_16_89" style="mask-type:luminance" maskUnits="userSpaceOnUse" x="1223" y="388" width="66" height="64">
<path d="M1288.26 420.311C1288.26 437.679 1273.66 451.759 1255.64 451.759C1237.62 451.759 1223.01 437.68 1223.01 420.311C1223.01 402.942 1237.62 388.868 1255.64 388.868C1273.66 388.869 1288.26 402.942 1288.26 420.311Z" fill="white"/>
</mask>
<g mask="url(#mask1_16_89)">
<path d="M1268.18 401.513C1265.11 392.347 1257 394.644 1255.74 395.247C1254.49 394.644 1246.37 392.347 1243.3 401.513C1242.13 405.021 1240.41 412.629 1249.49 421.705L1255.74 418.611L1262.86 421.705C1271.93 412.629 1269.36 405.023 1268.18 401.513Z" fill="#492B00"/>
<path d="M1269.51 453.12V435.376C1269.51 432.135 1265.48 431.484 1263.69 431.367C1261.57 431.228 1260.31 429.499 1260.12 428.791C1259.46 426.33 1260.12 418.617 1260.12 418.617H1251.24C1251.24 418.617 1251.94 426.476 1251.24 428.976C1251.01 429.807 1249.71 431.239 1247.77 431.368C1245.99 431.485 1241.96 432.135 1241.96 435.377V453.121L1269.51 453.12Z" fill="#F1C896"/>
<path d="M1270.7 436.135C1269.15 431.97 1265.63 431.735 1264.93 431.701V441.11H1264.9V453.141H1271.91V443.651C1271.91 443.651 1271.82 439.135 1270.7 436.135Z" fill="#F1C896"/>
<path d="M1240.77 436.135C1242.32 431.97 1245.84 431.735 1246.54 431.701V441.11H1246.57V453.141H1239.57V443.651C1239.57 443.651 1239.65 439.135 1240.77 436.135Z" fill="#F1C896"/>
<path d="M1267.35 408.989C1267.08 408.925 1266.87 409 1266.68 409.143C1266.68 408.977 1266.69 408.81 1266.69 408.639C1266.69 404.583 1265.46 402.009 1263.84 400.376C1263.84 400.376 1261.96 397.68 1255.9 397.68C1250.19 397.68 1248.15 400.376 1248.15 400.376C1246.24 402.188 1245.08 405.021 1244.97 409.314C1244.76 409.067 1244.49 408.904 1244.12 408.989C1243.04 409.236 1243.14 412.084 1244.12 413.477C1244.8 414.44 1245.28 414.531 1245.5 414.496C1247.28 421.311 1252.87 425.388 1256.4 425.388C1259.84 425.388 1264.5 422.051 1266.11 414.497C1266.37 414.475 1266.79 414.282 1267.35 413.477C1268.33 412.084 1268.43 409.236 1267.35 408.989Z" fill="#FAD5A9"/>
<path d="M1268.12 409.391C1267.7 407.091 1267.08 404.758 1266.3 402.362C1263.54 393.857 1256.84 396.785 1255.73 397.339C1254.63 396.785 1247.93 393.857 1245.17 402.362C1244.4 404.758 1243.77 407.091 1243.35 409.391C1243.35 409.391 1248.75 410.146 1252.07 408.332C1255.02 406.714 1255.7 403.908 1255.71 403.948C1257.49 411.545 1268.12 409.391 1268.12 409.391Z" fill="#734807"/>
<path d="M1267.09 431.747L1263.91 431.043C1263.91 437.78 1257.21 437.856 1256.36 437.839C1256.35 437.839 1256.33 437.839 1256.3 437.839C1256.29 437.839 1256.27 437.839 1256.26 437.839C1255.4 437.856 1248.71 437.782 1248.71 431.043L1245.53 431.747L1243.8 453.142H1256.26H1256.35H1268.82L1267.09 431.747Z" fill="#546CA6"/>
<path d="M1266.44 416.543C1266.44 416.543 1273.18 420.544 1270.1 426.506C1267 432.468 1265.82 433.28 1270.1 437.756C1270.1 437.756 1260.34 438.144 1261.43 429.003C1262.12 423.248 1265.91 419.469 1265.72 417.626L1266.44 416.543Z" fill="#492B00"/>
<path d="M1267.87 417.267L1265.32 419.359L1265.07 419.01L1266.61 416.346L1267.87 417.267Z" fill="#6885BE"/>
</g>
</g>
<g filter="url(#filter2_d_16_89)">
<path d="M298.275 254.31C298.275 273.813 281.873 289.624 261.636 289.624C241.403 289.624 225 273.813 225 254.31C225 234.807 241.404 219 261.636 219C281.872 219.001 298.275 234.809 298.275 254.31Z" fill="url(#paint2_linear_16_89)"/>
<mask id="mask2_16_89" style="mask-type:luminance" maskUnits="userSpaceOnUse" x="229" y="222" width="66" height="64">
<path d="M294.262 254.31C294.262 271.676 279.657 285.756 261.638 285.756C243.62 285.756 229.012 271.676 229.012 254.31C229.012 236.944 243.62 222.867 261.638 222.867C279.656 222.868 294.262 236.944 294.262 254.31Z" fill="white"/>
</mask>
<g mask="url(#mask2_16_89)">
<path d="M275.448 286.566V268.827C275.448 265.578 271.413 264.932 269.632 264.814C267.514 264.673 266.244 262.939 266.057 262.237C265.402 259.772 266.057 252.063 266.057 252.063H257.183C257.183 252.063 257.874 259.923 257.183 262.422C256.951 263.257 255.652 264.687 253.716 264.814C251.928 264.932 247.904 265.578 247.904 268.827V286.566H275.448Z" fill="#523200"/>
<path d="M276.639 269.581C275.086 265.416 271.569 265.18 270.872 265.146V274.558H270.84V286.587H277.844V277.1C277.844 277.1 277.759 272.584 276.639 269.581Z" fill="#F1C896"/>
<path d="M246.71 269.581C248.263 265.416 251.778 265.18 252.477 265.146V274.558H252.508V286.587H245.504V277.1C245.504 277.1 245.589 272.584 246.71 269.581Z" fill="#F1C896"/>
<path d="M273.288 242.436C273.021 242.372 272.801 242.448 272.619 242.591C272.619 242.422 272.629 242.257 272.629 242.087C272.629 238.031 271.396 235.458 269.777 233.824C269.777 233.824 267.891 231.125 261.841 231.125C256.126 231.125 254.087 233.824 254.087 233.824C252.175 235.634 251.026 238.466 250.9 242.763C250.699 242.516 250.424 242.351 250.057 242.436C248.978 242.68 249.074 245.535 250.057 246.923C250.738 247.885 251.213 247.973 251.444 247.941C253.206 254.757 258.808 258.833 262.334 258.833C265.783 258.833 270.435 255.498 272.046 247.945C272.305 247.921 272.728 247.726 273.288 246.922C274.267 245.535 274.366 242.679 273.288 242.436Z" fill="#643E00"/>
<path d="M272.814 265.399C271.12 264.757 268.194 265.071 266.471 262.967C266.471 262.967 265.794 267.429 261.636 268.788C256.288 266.685 256.911 262.967 256.911 262.967C255.195 265.071 252.157 264.757 250.461 265.399C243.032 268.23 245.771 286.613 245.771 286.613L261.59 286.676H261.636H261.689L277.502 286.613C277.502 286.613 280.242 268.23 272.814 265.399Z" fill="#6885BE"/>
<path d="M271.844 248.355C271.844 248.355 273.753 241.192 271.754 236.871C271.754 236.871 270.662 232.549 265.204 231.389L263.747 236.559C263.747 236.559 267.249 236.957 269.819 239.891C272.476 242.934 271.754 243.533 271.844 248.355Z" fill="#321D01"/>
<path d="M263.746 230.318C262.451 229.777 260.112 229.168 256.196 230.508C247.232 233.579 244.573 248.418 256.036 255.876C256.036 255.876 255.287 249.277 257.106 248.568C258.928 247.86 264.204 246.642 266.114 241.067C266.114 241.067 269.982 232.928 263.746 230.318Z" fill="#40290F"/>
</g>
</g>
<g filter="url(#filter3_d_16_89)">
<path d="M452.278 55.3141C452.278 74.8182 435.873 90.6308 415.639 90.6308C395.403 90.6308 379 74.8195 379 55.3141C379 35.8113 395.403 20 415.639 20C435.873 20 452.278 35.8126 452.278 55.3141Z" fill="url(#paint3_linear_16_89)"/>
</g>
<mask id="mask3_16_89" style="mask-type:luminance" maskUnits="userSpaceOnUse" x="383" y="23" width="66" height="64">
<path d="M448.262 55.3141C448.262 72.6798 433.658 86.759 415.639 86.759C397.622 86.759 383.015 72.6785 383.015 55.3141C383.015 37.9483 397.622 23.8731 415.639 23.8731C433.656 23.8731 448.262 37.9483 448.262 55.3141Z" fill="white"/>
</mask>
<g mask="url(#mask3_16_89)">
<path d="M424.227 66.0491C422.11 65.9107 420.841 64.1785 420.656 63.4705C419.997 61.0082 420.656 53.2998 420.656 53.2998H416.216H411.78C411.78 53.2998 412.475 61.1597 411.78 63.6573C411.546 64.4907 410.251 65.9224 408.312 66.0491C406.531 66.168 402.499 66.8159 402.499 70.0607V87.9137L411.935 87.8902V87.8249H420.604V87.8902L430.041 87.9137V70.062C430.04 66.8172 426.013 66.168 424.227 66.0491Z" fill="#F8CA9B"/>
<path d="M426.509 43.6725C426.235 43.615 426.018 43.6829 425.837 43.8279C425.841 43.6594 425.849 43.4948 425.849 43.3224C425.849 39.2651 424.612 36.6943 422.995 35.0615H407.307C405.398 36.8694 404.243 39.704 404.121 43.9964C403.916 43.7496 403.643 43.5876 403.277 43.6712C402.202 43.9194 402.294 46.7671 403.277 48.1622C403.956 49.121 404.434 49.2124 404.663 49.1772C406.429 55.9894 412.024 60.0677 415.557 60.0677C418.999 60.0677 423.653 56.734 425.268 49.1798C425.529 49.1602 425.945 48.9642 426.509 48.1609C427.486 46.7684 427.582 43.9207 426.509 43.6725Z" fill="#F9D3B0"/>
<path d="M426.472 88.0457H406.206V66.2098C406.206 66.2098 411.573 64.897 416.372 64.897C420.583 64.897 426.472 66.2098 426.472 66.2098V88.0457Z" fill="#546CA6"/>
<path d="M422.803 46.6221C425.377 49.2647 423.707 58.9808 422.069 65.2497C422.164 65.3189 422.256 65.3895 422.364 65.4535C424.676 65.8127 426.469 66.2098 426.469 66.2098V66.4084C428.168 66.8551 429.94 67.8257 430.031 69.8922C431.748 61.3178 425.767 56.3212 425.767 56.3212C425.767 56.3212 431.79 44.1206 426.679 36.7792C422.158 30.2818 416.98 31.9695 415.847 32.445V37.7563C416.535 42.233 418.704 42.4119 422.803 46.6221Z" fill="#643E00"/>
<path d="M402.497 70.062C402.497 67.8152 404.427 66.8146 406.205 66.3705V66.2098C406.205 66.2098 407.901 65.7957 410.237 65.4326C410.239 65.4326 410.239 65.43 410.243 65.43C408.485 59.1624 406.296 49.2869 408.893 46.6208C412.994 42.4119 415.162 42.2317 415.847 37.7563V32.445C414.718 31.9695 409.537 30.2818 405.013 36.7792C399.907 44.1205 405.93 56.3212 405.93 56.3212C405.93 56.3212 400.361 63.2067 402.339 72.0215C402.389 71.9091 402.442 71.7994 402.497 71.6936V70.062Z" fill="#643E00"/>
<path d="M428.435 54.2129C426.35 54.2129 425.364 55.4813 425.364 55.4813C425.485 55.6459 425.53 55.8275 425.53 55.9986C425.53 56.1723 425.485 56.3526 425.364 56.5185C425.364 56.5185 426.351 57.7856 428.435 57.7856C428.435 57.7856 428.755 56.9979 428.771 55.9986C428.755 54.9993 428.435 54.2129 428.435 54.2129Z" fill="#6885BE"/>
<path d="M421.423 54.2129C423.512 54.2129 424.493 55.4813 424.493 55.4813C424.376 55.6459 424.332 55.8275 424.33 55.9986C424.332 56.1723 424.376 56.3526 424.493 56.5185C424.493 56.5185 423.512 57.7856 421.423 57.7856C421.423 57.7856 421.103 56.9979 421.09 55.9986C421.103 54.9993 421.423 54.2129 421.423 54.2129Z" fill="#6885BE"/>
<g opacity="0.7">
<path d="M425.489 56.1893C425.489 56.1893 425.794 56.4702 426.214 56.5903C426.214 56.5903 425.737 56.3108 425.492 55.9986C425.738 55.6851 426.214 55.4042 426.214 55.4042C425.794 55.5296 425.489 55.8066 425.489 55.8066C425.633 55.4473 426.245 55.1286 426.245 55.1286C425.566 55.3533 425.364 55.7321 425.364 55.7321V55.7739V56.2272V56.2677C425.364 56.2677 425.566 56.6426 426.245 56.8725C426.245 56.8725 425.633 56.5498 425.489 56.1893Z" fill="#454E75"/>
<path d="M424.294 56.1893C424.294 56.1893 423.988 56.4702 423.566 56.5903C423.566 56.5903 424.046 56.3108 424.289 55.9986C424.046 55.6851 423.566 55.4042 423.566 55.4042C423.988 55.5296 424.294 55.8066 424.294 55.8066C424.153 55.4473 423.535 55.1286 423.535 55.1286C424.216 55.3533 424.422 55.7321 424.422 55.7321V55.7739V56.2272V56.2677C424.422 56.2677 424.214 56.6426 423.535 56.8725C423.535 56.8725 424.152 56.5498 424.294 56.1893Z" fill="#454E75"/>
</g>
<path d="M425.368 55.4813C425.219 55.4813 424.638 55.4813 424.493 55.4813C424.139 55.7412 424.139 56.2572 424.493 56.5211C424.638 56.5211 425.219 56.5211 425.368 56.5211C425.721 56.2559 425.721 55.7412 425.368 55.4813Z" fill="#454E75"/>
<path d="M403.261 54.2129C405.351 54.2129 406.339 55.4813 406.339 55.4813C406.22 55.6459 406.176 55.8275 406.171 55.9986C406.176 56.1723 406.22 56.3526 406.339 56.5185C406.339 56.5185 405.351 57.7856 403.261 57.7856C403.261 57.7856 402.947 56.9979 402.935 55.9986C402.945 54.9993 403.261 54.2129 403.261 54.2129Z" fill="#676FA1"/>
<path d="M410.276 54.2129C408.191 54.2129 407.201 55.4813 407.201 55.4813C407.323 55.6459 407.365 55.8275 407.372 55.9986C407.367 56.1723 407.323 56.3526 407.201 56.5185C407.201 56.5185 408.191 57.7856 410.276 57.7856C410.276 57.7856 410.591 56.9979 410.608 55.9986C410.591 54.9993 410.276 54.2129 410.276 54.2129Z" fill="#676FA1"/>
<g opacity="0.7">
<path d="M406.211 56.1893C406.211 56.1893 405.899 56.4702 405.48 56.5903C405.48 56.5903 405.959 56.3108 406.204 55.9986C405.959 55.6851 405.48 55.4042 405.48 55.4042C405.899 55.5296 406.211 55.8066 406.211 55.8066C406.066 55.4473 405.453 55.1286 405.453 55.1286C406.129 55.3533 406.335 55.7321 406.335 55.7321V55.7739V56.2272V56.2677C406.335 56.2677 406.128 56.6426 405.453 56.8725C405.453 56.8725 406.066 56.5498 406.211 56.1893Z" fill="#454E75"/>
<path d="M407.409 56.1893C407.409 56.1893 407.711 56.4702 408.129 56.5903C408.129 56.5903 407.655 56.3108 407.409 55.9986C407.655 55.6851 408.129 55.4042 408.129 55.4042C407.71 55.5296 407.409 55.8066 407.409 55.8066C407.547 55.4473 408.163 55.1286 408.163 55.1286C407.488 55.3533 407.283 55.7321 407.283 55.7321V55.7739V56.2272V56.2677C407.283 56.2677 407.486 56.6426 408.163 56.8725C408.163 56.8725 407.547 56.5498 407.409 56.1893Z" fill="#454E75"/>
</g>
<path d="M406.335 55.4813C406.476 55.4813 407.066 55.4813 407.207 55.4813C407.563 55.7412 407.563 56.2572 407.207 56.5211C407.066 56.5211 406.476 56.5211 406.335 56.5211C405.981 56.2559 405.981 55.7412 406.335 55.4813Z" fill="#454E75"/>
</g>
<g filter="url(#filter4_d_16_89)">
<path d="M620.278 73.3128C620.278 92.8143 603.875 108.631 583.637 108.631C563.407 108.631 547 92.8143 547 73.3128C547 53.8126 563.407 38 583.637 38C603.875 38 620.278 53.8126 620.278 73.3128Z" fill="url(#paint4_linear_16_89)"/>
<mask id="mask4_16_89" style="mask-type:luminance" maskUnits="userSpaceOnUse" x="551" y="41" width="66" height="64">
<path d="M616.263 73.3127C616.263 90.6785 601.658 104.758 583.637 104.758C565.621 104.758 551.014 90.6785 551.014 73.3127C551.014 55.947 565.621 41.8731 583.637 41.8731C601.658 41.8731 616.263 55.947 616.263 73.3127Z" fill="white"/>
</mask>
<g mask="url(#mask4_16_89)">
<path d="M595.502 53.4415C592.428 44.2558 584.971 47.4183 583.735 48.0153C582.499 47.4183 575.042 44.2558 571.969 53.4415C568.61 63.466 567.82 77.9383 572.656 87.5173H594.809C599.652 77.9383 598.86 63.466 595.502 53.4415Z" fill="#2E1500"/>
<path d="M597.509 105.885V88.1417C597.509 84.8982 593.477 84.245 591.695 84.1288C589.575 83.9929 588.308 82.2608 588.118 81.5528C587.462 79.0917 588.118 71.382 588.118 71.382H579.244C579.244 71.382 579.945 79.2406 579.244 81.7409C579.008 82.5756 577.718 84.0047 575.777 84.1301C573.996 84.2463 569.963 84.8995 569.963 88.143V105.886H597.509V105.885Z" fill="#B69161"/>
<path d="M598.703 88.9006C597.145 84.7349 593.631 84.4971 592.93 84.4671V93.8763H592.903V105.908H599.906V96.4235C599.906 96.4235 599.821 91.9025 598.703 88.9006Z" fill="#B69161"/>
<path d="M568.768 88.9006C570.321 84.7349 573.838 84.4971 574.542 84.4671V93.8763H574.569V105.908H567.567V96.4235C567.567 96.4235 567.649 91.9025 568.768 88.9006Z" fill="#B69161"/>
<path d="M595.351 61.7521C595.084 61.6894 594.863 61.7665 594.683 61.9089C594.687 61.7404 594.688 61.5784 594.688 61.4034C594.688 57.35 593.456 54.7753 591.839 53.1411C591.839 53.1411 589.961 50.4476 583.904 50.4476C578.187 50.4476 576.152 53.1411 576.152 53.1411C574.238 54.9555 573.089 57.7863 572.964 62.0748C572.761 61.8292 572.482 61.6711 572.125 61.7521C571.042 61.9951 571.136 64.8506 572.125 66.2431C572.801 67.2033 573.276 67.2934 573.506 67.2594C575.271 74.0743 580.869 78.1486 584.397 78.1486C587.842 78.1486 592.495 74.815 594.111 67.262C594.364 67.2385 594.788 67.0439 595.351 66.2431C596.326 64.8506 596.427 61.9964 595.351 61.7521Z" fill="#C99F6A"/>
<path d="M596.121 62.1584C595.698 59.8619 595.076 57.525 594.296 55.128C591.538 46.6214 584.845 49.5514 583.735 50.1092C582.623 49.5527 575.932 46.6227 573.172 55.128C572.394 57.525 571.773 59.8619 571.345 62.1584C571.345 62.1584 576.746 62.9173 580.065 61.099C583.018 59.4844 583.695 56.6759 583.709 56.7151C585.482 64.3098 596.121 62.1584 596.121 62.1584Z" fill="#492B00"/>
<path d="M597.254 86.4095C595.775 87.0274 592.078 90.6132 583.735 90.6132C575.278 90.6132 571.697 87.0274 570.22 86.4095C569.886 86.8929 569.682 87.4703 569.682 88.1756V105.908H583.689H583.783H597.789V88.1756C597.789 87.4703 597.583 86.8942 597.254 86.4095Z" fill="#6885BE"/>
</g>
</g>
<g filter="url(#filter5_d_16_89)">
<path d="M1271.27 167.314C1271.27 186.816 1254.87 202.627 1234.64 202.627C1214.4 202.627 1198 186.817 1198 167.314C1198 147.81 1214.4 132 1234.64 132C1254.87 132 1271.27 147.81 1271.27 167.314Z" fill="url(#paint5_linear_16_89)"/>
<mask id="mask5_16_89" style="mask-type:luminance" maskUnits="userSpaceOnUse" x="1202" y="135" width="66" height="64">
<path d="M1267.26 167.314C1267.26 184.681 1252.65 198.758 1234.64 198.758C1216.62 198.758 1202.01 184.682 1202.01 167.314C1202.01 149.947 1216.62 135.869 1234.64 135.869C1252.65 135.869 1267.26 149.947 1267.26 167.314Z" fill="white"/>
</mask>
<g mask="url(#mask5_16_89)">
<path d="M1248.08 175.932C1248.08 175.932 1245.69 179.358 1245.69 183.859C1245.69 188.366 1248.49 191.039 1248.49 191.039L1248.46 199.283L1253.74 199.372L1253.65 185.603C1253.65 185.603 1254.06 178.586 1248.08 175.932Z" fill="#FAD5A9"/>
<path d="M1221.2 175.932C1221.2 175.932 1223.58 179.358 1223.58 183.859C1223.58 188.366 1220.78 191.039 1220.78 191.039L1220.81 199.283L1215.53 199.372L1215.62 185.603C1215.62 185.603 1215.21 178.586 1221.2 175.932Z" fill="#FAD5A9"/>
<path d="M1234.96 165.197H1229.33V173.341C1229.33 173.341 1231.67 177.821 1234.96 177.821C1238.17 177.821 1240.6 173.592 1240.6 173.592V165.197H1234.96Z" fill="#F0C496"/>
<path d="M1245.55 155.568C1245.28 155.5 1245.06 155.58 1244.88 155.722C1244.88 155.554 1244.88 155.386 1244.88 155.218C1244.88 151.162 1243.65 148.587 1242.03 146.957H1226.34C1224.43 148.765 1223.28 151.601 1223.16 155.891C1222.95 155.645 1222.68 155.483 1222.32 155.568C1221.24 155.815 1221.33 158.661 1222.32 160.054C1222.99 161.019 1223.47 161.109 1223.7 161.073C1225.47 167.889 1231.06 171.963 1234.59 171.963C1238.04 171.963 1242.69 168.631 1244.3 161.075C1244.56 161.053 1244.98 160.857 1245.55 160.054C1246.52 158.661 1246.62 155.815 1245.55 155.568Z" fill="#FAD5A9"/>
<path d="M1245.73 149.499C1245.62 144.829 1242.95 144.33 1241.19 143.71C1240.29 143.395 1242.66 142.525 1242.66 142.525C1240.48 140.814 1238.66 142.079 1237.41 141.737C1235.38 141.178 1238.09 139.961 1238.09 139.961C1235.02 139.194 1234.71 140.849 1233.63 140.861C1231.8 140.88 1234.22 138.845 1234.22 138.845C1227.11 139.631 1225.29 145.442 1225.29 145.442C1224.61 145.285 1224.98 143.61 1224.98 143.61C1221.4 147.721 1222.97 156.303 1222.97 156.303C1222.97 156.303 1222.98 156.225 1223.01 156.093C1223.02 156.638 1223.06 156.974 1223.06 156.974C1223.76 157.19 1224.4 156.902 1224.4 154.923C1224.4 151.755 1229.8 150.028 1234.14 149.999C1238.54 149.974 1243.71 152.19 1243.71 154.923C1243.71 156.902 1244.18 157.19 1244.88 156.974C1244.88 156.974 1244.93 156.528 1244.93 155.81C1245.2 154.917 1245.81 152.577 1245.73 149.499Z" fill="#40290F"/>
<path d="M1244.31 174.731C1242.19 174.119 1240.67 172.8 1240.67 172.8L1234.88 174.002L1229.41 173.098C1229.41 173.098 1227.58 174.119 1225.46 174.731C1224.59 174.985 1223.82 175.212 1223.22 175.392V199.37H1244.96V174.921C1244.76 174.857 1244.54 174.793 1244.31 174.731Z" fill="#F0C496"/>
<path d="M1220.99 199.37H1248.33V190.865C1242.82 183.413 1248.32 175.908 1248.32 175.908L1244.69 174.815C1244.69 174.815 1242 181.381 1234.66 181.423C1227.32 181.381 1224.63 174.815 1224.63 174.815L1221 175.908C1221 175.908 1226.49 183.414 1220.99 190.865V199.37H1220.99Z" fill="#546CA6"/>
</g>
</g>
<g filter="url(#filter6_d_16_89)">
<path d="M920.275 363.317C920.275 382.818 903.875 398.632 883.639 398.632C863.404 398.632 847 382.818 847 363.317C847 343.811 863.404 328 883.639 328C903.875 328 920.275 343.811 920.275 363.317Z" fill="url(#paint6_linear_16_89)"/>
<mask id="mask6_16_89" style="mask-type:luminance" maskUnits="userSpaceOnUse" x="851" y="331" width="66" height="64">
<path d="M916.261 363.317C916.261 380.68 901.656 394.76 883.639 394.76C865.619 394.76 851.012 380.68 851.012 363.317C851.012 345.95 865.619 331.873 883.639 331.873C901.655 331.872 916.261 345.95 916.261 363.317Z" fill="white"/>
</mask>
<g mask="url(#mask6_16_89)">
<path d="M897.445 395.454V377.708C897.445 374.468 893.414 373.817 891.631 373.698C889.513 373.563 888.244 371.828 888.056 371.123C887.4 368.661 888.056 360.952 888.056 360.952H879.181C879.181 360.952 879.872 368.81 879.181 371.31C878.945 372.145 877.655 373.574 875.713 373.698C873.93 373.817 869.899 374.468 869.899 377.708V395.454H897.445Z" fill="#F1C896"/>
<path d="M898.638 378.471C897.085 374.3 893.568 374.067 892.868 374.036V383.448H892.841V395.476H899.84V385.989C899.84 385.989 899.759 381.471 898.638 378.471Z" fill="#F1C896"/>
<path d="M868.708 378.471C870.262 374.3 873.778 374.067 874.479 374.036V383.448H874.506V395.476H867.503V385.989C867.503 385.989 867.587 381.471 868.708 378.471Z" fill="#F1C896"/>
<path d="M895.29 351.321C895.02 351.26 894.801 351.335 894.621 351.475C894.621 351.309 894.63 351.146 894.63 350.974C894.63 346.916 893.394 344.347 891.777 342.713C891.777 342.713 889.9 340.015 883.843 340.015C878.124 340.015 876.087 342.713 876.087 342.713C874.176 344.524 873.024 347.355 872.902 351.646C872.697 351.402 872.425 351.24 872.059 351.321C870.98 351.571 871.074 354.417 872.059 355.812C872.738 356.774 873.215 356.864 873.446 356.827C875.21 363.646 880.806 367.718 884.335 367.718C887.783 367.718 892.436 364.385 894.049 356.831C894.306 356.809 894.726 356.613 895.29 355.812C896.266 354.417 896.366 351.571 895.29 351.321Z" fill="#FAD5A9"/>
<path d="M894.81 374.289C893.12 373.643 890.194 373.96 888.473 371.852C888.473 371.852 890.351 380.678 883.637 383.207C876.919 380.678 878.8 371.852 878.8 371.852C877.078 373.959 874.159 373.643 872.46 374.289C865.032 377.115 867.774 395.497 867.774 395.497L883.591 395.561H883.639H883.692L899.5 395.497C899.497 395.497 902.241 377.116 894.81 374.289Z" fill="#2D4575"/>
<path d="M893.591 339.498C891.152 338.437 889.561 339.348 888.725 340.156C888.879 340.374 888.952 340.514 888.952 340.514C892.243 345.926 890.678 348.115 889.62 350.162C889.667 350.196 889.704 350.233 889.748 350.268C896.5 355.317 889.84 365.396 889.84 365.396C901.306 357.276 900.872 342.663 893.591 339.498Z" fill="#985E11"/>
<path d="M889.046 340.514C889.046 340.514 886.69 335.876 879.08 338.546C875.713 339.724 873.318 342.109 871.994 345.06L871.986 345.054C871.986 345.054 868.916 350.448 870.483 356.96C870.483 356.96 870.668 355.578 871.372 355.271C871.372 355.271 870.919 358.408 872.49 360.905C872.49 360.905 872.468 359.7 873.285 359.425C873.288 359.433 873.299 359.441 873.307 359.451C873.289 359.781 873.27 362.323 875.375 363.449C875.375 363.449 875.048 362.658 875.001 361.807C876.088 363.099 877.39 364.313 878.923 365.396C878.923 365.396 876.739 358.903 878.561 358.133C880.377 357.36 886.766 355.964 889.658 350.268C890.711 348.19 892.388 346.02 889.046 340.514Z" fill="#A66612"/>
</g>
</g>
<g filter="url(#filter7_d_16_89)">
<path d="M956.273 37.3128C956.273 56.8156 939.873 72.6255 919.637 72.6255C899.4 72.6255 883 56.8156 883 37.3128C883 17.81 899.4 2 919.637 2C939.875 2 956.273 17.81 956.273 37.3128Z" fill="url(#paint7_linear_16_89)"/>
<mask id="mask7_16_89" style="mask-type:luminance" maskUnits="userSpaceOnUse" x="887" y="5" width="66" height="64">
<path d="M952.262 37.3128C952.262 54.6798 937.658 68.7576 919.638 68.7576C901.617 68.7576 887.016 54.6798 887.016 37.3128C887.016 19.947 901.617 5.8692 919.638 5.8692C937.656 5.8692 952.262 19.947 952.262 37.3128Z" fill="white"/>
</mask>
<g mask="url(#mask7_16_89)">
<path d="M925.242 42.4726C925.248 42.4818 914.16 42.6359 914.292 42.3394L906.077 44.9846V68.9001H933.18V44.9846L925.242 42.4726Z" fill="#6885BE"/>
<path d="M906.103 55.4715H900.829V68.8857H906.103V55.4715Z" fill="#FAD5A9"/>
<path d="M906.119 44.9794C905.535 45.0382 903.517 45.5541 901.815 49.9223C899.976 54.6563 900.633 58.3074 900.633 58.3074H906.119V44.9794Z" fill="#395690"/>
<path d="M938.43 55.5041H933.153V68.921H938.43V55.5041Z" fill="#FAD5A9"/>
<path d="M933.109 45.076C933.637 45.11 935.711 45.5424 937.457 50.0177C939.296 54.7543 938.64 58.4054 938.64 58.4054H933.109V45.076Z" fill="#395690"/>
<path d="M919.488 34.2979H913.85V42.4439C913.85 42.4439 918.121 54.0933 919.488 54.0933C920.129 54.0933 925.115 42.6934 925.115 42.6934V34.2966L919.488 34.2979Z" fill="#F0C496"/>
<path d="M930.064 24.6667C929.792 24.6027 929.57 24.6784 929.391 24.8208C929.395 24.6549 929.398 24.4903 929.398 24.3205C929.398 20.2632 928.165 17.6885 926.548 16.0569H910.861C908.946 17.8675 907.795 20.7008 907.677 24.9919C907.47 24.745 907.193 24.5844 906.829 24.6667C905.752 24.9135 905.849 27.7639 906.829 29.1551C907.512 30.1191 907.986 30.2105 908.214 30.1753C909.98 36.9901 915.576 41.0644 919.106 41.0644C922.551 41.0644 927.207 37.7282 928.819 30.1766C929.076 30.1583 929.498 29.9597 930.062 29.1551C931.038 27.7626 931.138 24.9135 930.064 24.6667Z" fill="#FAD5A9"/>
<path d="M910.35 16.057C907.914 18.5036 907.352 22.2004 907.67 26.0748C907.67 26.0748 910.511 26.8599 911.092 21.1893C911.092 21.1893 919.044 23.0913 924.394 18.5637C924.394 18.5637 927.217 21.3605 927.514 24.0227C927.738 25.9925 928.696 26.2943 929.401 26.0748C929.401 26.0748 930.005 20.0098 927.163 16.057C927.163 16.057 924.939 12.4921 918.476 12.4921C914.064 12.4921 911.884 14.509 910.35 16.057Z" fill="#643E00"/>
</g>
</g>
<g filter="url(#filter8_d_16_89)">
<path d="M113.276 402.311C113.276 421.814 96.8745 437.623 76.6374 437.623C56.403 437.623 40 421.814 40 402.311C40 382.809 56.403 367 76.6374 367C96.8745 367 113.276 382.809 113.276 402.311Z" fill="url(#paint8_linear_16_89)"/>
<mask id="mask8_16_89" style="mask-type:luminance" maskUnits="userSpaceOnUse" x="44" y="370" width="66" height="64">
<path d="M109.267 402.311C109.267 419.679 94.6582 433.758 76.6383 433.758C58.6212 433.758 44.0166 419.679 44.0166 402.311C44.0166 384.947 58.6212 370.867 76.6383 370.867C94.6582 370.867 109.267 384.947 109.267 402.311Z" fill="white"/>
</mask>
<g mask="url(#mask8_16_89)">
<path d="M90.5959 409.921C90.5959 409.921 93.0544 409.695 95.067 414.866C96.9088 419.598 96.2529 433.887 96.2529 433.887H90.5078L90.5959 409.921Z" fill="#395690"/>
<path d="M63.662 409.921C63.662 409.921 61.2021 409.695 59.1922 414.866C57.3491 419.598 58.005 433.887 58.005 433.887H63.7528L63.662 409.921Z" fill="#395690"/>
<path d="M77.3845 399.295H71.752V407.443C71.752 407.443 74.0858 411.919 77.3845 411.919C80.5843 411.919 83.0157 407.695 83.0157 407.695V399.297L77.3845 399.295Z" fill="#643E00"/>
<path d="M87.9642 389.665C87.6904 389.603 87.4722 389.676 87.2919 389.818C87.2933 389.651 87.3001 389.489 87.3001 389.317C87.3001 385.261 86.0641 382.687 84.4499 381.056H68.7598C66.8488 382.865 65.6955 385.699 65.5762 389.991C65.3716 389.742 65.0937 389.582 64.7319 389.665C63.6558 389.911 63.7506 392.763 64.7319 394.154C65.4109 395.119 65.8879 395.208 66.1156 395.174C67.8815 401.99 73.4816 406.063 77.0107 406.063C80.4559 406.063 85.1086 402.727 86.7241 395.175C86.9775 395.154 87.4031 394.957 87.9655 394.154C88.9373 392.761 89.0348 389.911 87.9642 389.665Z" fill="#785121"/>
<path d="M63.6299 433.917V410.007L70.6381 407.746L77.2546 410.997L83.7247 407.746L90.7369 410.007V433.917H63.6299Z" fill="#6885BE"/>
<path d="M77.2832 410.217C77.2832 410.217 80.5372 409.61 83.0174 407.359L83.9241 407.355L81.368 413.679L77.2832 411.103V410.217Z" fill="url(#paint9_linear_16_89)"/>
<path d="M77.2913 410.217C77.2913 410.217 74.036 409.61 71.5612 407.359L70.6572 407.355L73.2106 413.679L77.2913 411.103V410.217Z" fill="#EDEEF0"/>
<path d="M88.3231 390.218C88.3231 389.78 88.0127 389.413 87.5994 389.298C88.0141 389.186 88.3231 388.818 88.3231 388.377C88.3231 387.857 87.9002 387.445 87.369 387.421C87.7959 387.314 88.1184 386.94 88.1184 386.491C88.1184 386.069 87.8365 385.718 87.4462 385.586C87.6224 385.411 87.7322 385.176 87.7322 384.914C87.7322 384.423 87.35 384.025 86.8621 383.962C87.0871 383.784 87.228 383.525 87.228 383.225C87.228 382.692 86.7821 382.263 86.2305 382.263C86.1641 382.263 86.1086 382.272 86.0449 382.286C86.2292 382.111 86.343 381.866 86.343 381.595C86.343 381.066 85.8971 380.638 85.3469 380.638C85.252 380.638 85.1626 380.651 85.0785 380.674C85.1978 380.515 85.2737 380.322 85.2737 380.109C85.2737 379.577 84.8265 379.147 84.2749 379.147C84.1759 379.147 84.0838 379.168 83.9957 379.193C83.9997 379.147 84.0038 379.109 84.0038 379.065C84.0038 378.533 83.562 378.102 83.0077 378.102C82.8274 378.102 82.6594 378.153 82.5143 378.234C82.5184 378.205 82.5265 378.174 82.5265 378.145C82.5265 377.615 82.0793 377.183 81.5318 377.183C81.1984 377.183 80.9083 377.341 80.7213 377.58C80.7213 377.57 80.7267 377.563 80.7267 377.552C80.7267 377.019 80.2768 376.593 79.7252 376.593C79.3172 376.593 78.9716 376.829 78.8117 377.168C78.7561 376.689 78.3414 376.319 77.8278 376.319C77.3602 376.319 76.9753 376.625 76.8628 377.043C76.7056 376.711 76.3613 376.476 75.9548 376.476C75.4818 376.476 75.0874 376.792 74.9844 377.223C74.8231 376.903 74.487 376.681 74.094 376.681C73.5423 376.681 73.0924 377.111 73.0924 377.64C73.0924 377.68 73.1032 377.722 73.1073 377.765C72.9352 377.47 72.614 377.27 72.2359 377.27C71.6883 377.27 71.2384 377.697 71.2384 378.226C71.2384 378.286 71.2506 378.345 71.2601 378.401C71.0852 378.251 70.8494 378.153 70.6 378.153C70.0444 378.153 69.5985 378.584 69.5985 379.116C69.5985 379.179 69.6039 379.248 69.6174 379.309C69.6039 379.317 69.5903 379.329 69.5754 379.341C69.4263 379.257 69.2556 379.205 69.0658 379.205C68.5224 379.205 68.0751 379.636 68.0751 380.167C68.0751 380.301 68.1022 380.431 68.1524 380.546C68.151 380.551 68.147 380.554 68.147 380.562C68.0236 380.507 67.8881 380.476 67.739 380.476C67.1888 380.476 66.7456 380.908 66.7456 381.437C66.7456 381.681 66.8445 381.909 67.0017 382.078C66.9624 382.075 66.9245 382.065 66.8852 382.065C66.3336 382.065 65.8863 382.499 65.8863 383.028C65.8863 383.276 65.9893 383.505 66.1493 383.673C66.1032 383.67 66.049 383.659 66.007 383.659C65.4526 383.659 65.0041 384.09 65.0041 384.622C65.0041 384.935 65.1667 385.214 65.4039 385.387C65.4039 385.387 65.4039 385.387 65.4011 385.387C64.8495 385.387 64.4023 385.817 64.4023 386.349C64.4023 386.882 64.8495 387.31 65.4011 387.31C65.4689 387.31 65.5353 387.305 65.5977 387.289C65.5895 387.344 65.5828 387.396 65.5828 387.449C65.4689 387.407 65.3483 387.381 65.2182 387.381C64.6679 387.381 64.2207 387.809 64.2207 388.342C64.2207 388.794 64.546 389.173 64.9864 389.275C64.588 389.405 64.298 389.757 64.298 390.184C64.298 390.542 64.5053 390.854 64.8008 391.013C64.8252 391.527 65.2561 391.934 65.7982 391.934C66.3485 391.934 66.7944 391.503 66.7944 390.976C66.7944 390.964 66.793 390.955 66.793 390.943C66.938 391.028 67.1142 391.081 67.2986 391.081C67.8529 391.081 68.296 390.648 68.296 390.119C68.296 389.83 68.1605 389.571 67.9504 389.4C68.1226 389.223 68.2269 388.994 68.2269 388.739C68.2269 388.462 68.105 388.214 67.9111 388.036C68.3801 387.959 68.7419 387.573 68.7419 387.092C68.7419 386.897 68.6769 386.717 68.5725 386.563C68.9845 386.443 69.2868 386.081 69.2868 385.646C69.2868 385.44 69.2136 385.248 69.1011 385.088C69.6215 385.059 70.0376 384.647 70.0376 384.135C70.0376 383.958 69.9847 383.8 69.9021 383.659C70.2964 383.53 70.581 383.174 70.581 382.755C70.581 382.592 70.5323 382.438 70.4577 382.303C70.5675 382.34 70.6881 382.366 70.8128 382.366C71.1557 382.366 71.4552 382.201 71.6368 381.95C71.6951 382.421 72.1098 382.794 72.6194 382.794C72.9176 382.794 73.1805 382.666 73.3635 382.47C73.4773 382.883 73.8635 383.191 74.3271 383.191C74.7269 383.191 75.0657 382.964 75.2243 382.641C75.2893 382.649 75.3584 382.655 75.4276 382.658C75.6078 382.879 75.8897 383.024 76.2028 383.024C76.5064 383.024 76.7761 382.891 76.9577 382.69C77.0105 382.686 77.0647 382.681 77.1162 382.679C77.3006 382.891 77.5675 383.024 77.8752 383.024C78.2723 383.024 78.6111 382.801 78.7724 382.478C78.7765 382.477 78.7873 382.477 78.7941 382.474C78.9757 382.728 79.2725 382.892 79.6154 382.892C80.1317 382.892 80.5465 382.516 80.6007 382.034C80.785 382.222 81.0384 382.334 81.323 382.334C81.5995 382.334 81.853 382.223 82.0332 382.042C82.0563 382.553 82.4913 382.955 83.0266 382.955C83.0415 382.955 83.0524 382.955 83.0619 382.955C82.9304 383.118 82.8491 383.318 82.8491 383.544C82.8491 384.009 83.1988 384.402 83.6582 384.487C83.5362 384.647 83.4603 384.841 83.4603 385.058C83.4603 385.409 83.6663 385.718 83.9564 385.882C83.9035 386 83.8737 386.136 83.8737 386.272C83.8737 386.751 84.2355 387.146 84.7126 387.219C84.5717 387.383 84.4876 387.59 84.4876 387.82C84.4876 388.234 84.7614 388.582 85.1395 388.718C84.8915 388.893 84.7248 389.176 84.7248 389.496C84.7248 390.023 85.1721 390.457 85.7264 390.457C85.7345 390.457 85.7453 390.453 85.7575 390.453C85.7535 390.487 85.7494 390.513 85.7494 390.55C85.7494 391.079 86.1953 391.511 86.7428 391.511C87.0545 391.511 87.3215 391.374 87.5072 391.164C87.9734 391.08 88.3231 390.689 88.3231 390.218ZM78.7399 377.667C78.7426 377.667 78.7426 377.667 78.7439 377.663C78.7439 377.667 78.7439 377.667 78.7439 377.667C78.7439 377.667 78.7426 377.667 78.7399 377.667Z" fill="#40290F"/>
</g>
</g>
<g filter="url(#filter9_d_16_89)">
<path d="M285.275 90.3115C285.275 109.816 268.875 125.626 248.64 125.626C228.406 125.626 212 109.816 212 90.3115C212 70.81 228.407 55 248.64 55C268.875 55 285.275 70.81 285.275 90.3115Z" fill="url(#paint10_linear_16_89)"/>
</g>
<mask id="mask9_16_89" style="mask-type:luminance" maskUnits="userSpaceOnUse" x="216" y="58" width="66" height="64">
<path d="M281.264 90.3114C281.264 107.677 266.66 121.756 248.641 121.756C230.627 121.756 216.016 107.677 216.016 90.3114C216.016 72.947 230.627 58.8666 248.641 58.8666C266.659 58.8666 281.264 72.947 281.264 90.3114Z" fill="white"/>
</mask>
<g mask="url(#mask9_16_89)">
<path d="M254.527 95.6241L255.601 95.9507V95.4151L254.522 94.9501V95.6293L254.527 95.6241Z" fill="#4FA268"/>
<path d="M242.149 95.9508V95.4153L243.263 95.0312V95.427L242.149 95.9508Z" fill="#4FA268"/>
<path d="M255.696 95.9833C255.708 95.9951 255.713 95.999 255.723 96.0042C255.861 96.2354 255.796 96.6038 255.525 96.724C255.521 96.7501 255.518 96.7736 255.524 96.7984C255.503 97.3014 254.902 97.432 254.602 97.1864C253.988 98.8441 253.274 100.805 251.844 101.907C250.554 102.907 247.898 101.876 246.516 101.907C246.01 101.915 245.79 101.719 245.446 101.414C245.247 101.233 245.21 100.781 245.169 100.602C244.91 99.9035 244.49 99.3261 243.916 98.8611C243.193 98.0381 242.537 97.3575 242.485 96.5254C242.086 96.4928 241.956 96.0904 242.083 95.7978L235.184 97.9898V121.903H262.287V97.9898L255.696 95.9833Z" fill="#2D4575"/>
<path d="M255.021 95.3851L252.2 94.5517L241.757 95.5836L241.271 95.9977L242.52 97.2922L243.523 98.7932L245.568 101.713L245.667 101.781C246.259 102.446 248.891 105.671 248.891 110.641H248.9C248.9 105.638 251.562 102.402 252.138 101.764H252.102L252.167 101.63L252.278 101.466L253.153 100.052C253.153 100.052 255.087 98.7161 255.181 98.6508C255.272 98.5829 256.817 97.0245 256.817 97.0245L255.021 95.3851Z" fill="#F0C496"/>
<path d="M248.893 87.2757H243.263V95.419C243.263 95.419 245.592 99.9009 248.893 99.9009C252.091 99.9009 254.525 95.6751 254.525 95.6751V87.277L248.893 87.2757Z" fill="#F0C496"/>
<path d="M259.789 77.647C259.519 77.5843 259.297 77.6588 259.121 77.8012C259.122 77.6326 259.126 77.4694 259.126 77.2982C259.126 73.2422 257.889 70.6715 256.275 69.0347C256.275 69.0347 254.396 66.3372 248.337 66.3372C242.625 66.3372 240.584 69.0347 240.584 69.0347C238.671 70.8465 237.523 73.6798 237.398 77.9697C237.194 77.7215 236.924 77.5621 236.555 77.647C235.476 77.8913 235.574 80.7442 236.555 82.1367C237.236 83.0981 237.713 83.187 237.942 83.153C239.704 89.9679 245.306 94.0461 248.83 94.0461C252.275 94.0461 256.931 90.7086 258.543 83.1569C258.805 83.1308 259.224 82.9401 259.786 82.138C260.763 80.7429 260.864 77.89 259.789 77.647Z" fill="#FAD5A9"/>
<path d="M257.09 69.373C255.885 66.9303 254.258 64.7161 246.971 64.7161C238.506 64.7161 234.414 75.7634 238.603 81.0225C238.603 81.0225 237.914 76.905 243.304 76.1801C248.048 75.5426 249.722 75.4564 253.577 71.3782C253.577 71.3782 253.132 73.1207 255.795 76.1134C256.968 77.4367 257.76 79.2159 258.219 80.8814C258.219 80.8814 260.773 76.8175 257.09 69.373Z" fill="#492B00"/>
<path d="M235.213 108.47H229.937V121.886H235.213V108.47Z" fill="#FAD5A9"/>
<path d="M235.19 97.9754C234.664 98.012 232.583 98.4431 230.842 102.921C229 107.654 229.661 111.307 229.661 111.307H235.19V97.9754Z" fill="#18294B"/>
<path d="M267.54 108.504H262.263V121.92H267.54V108.504Z" fill="#FAD5A9"/>
<path d="M262.284 98.0081C262.813 98.0472 264.889 98.4757 266.632 102.954C268.474 107.686 267.815 111.34 267.815 111.34H262.284V98.0081Z" fill="#18294B"/>
<path d="M258.317 96.3804L254.522 94.7463V94.9736L255.524 95.8527C253.745 96.9042 252.088 101.794 252.088 101.794L253.907 99.8656C255.524 100.054 256.409 104.118 256.409 104.118L258.317 96.3804Z" fill="#18294B"/>
<path d="M239.431 96.3804L243.259 94.5438V95.1081L242.228 95.854C244.002 96.9056 245.661 101.795 245.661 101.795L243.845 99.8669C242.228 100.055 241.34 104.119 241.34 104.119L239.431 96.3804Z" fill="#18294B"/>
</g>
<g filter="url(#filter10_d_16_89)">
<path d="M1029.39 195.372C1029.39 214.904 1012.96 230.742 992.694 230.742C972.425 230.742 956 214.904 956 195.372C956 175.837 972.425 160 992.694 160C1012.96 160 1029.39 175.837 1029.39 195.372Z" fill="url(#paint11_linear_16_89)"/>
<mask id="mask10_16_89" style="mask-type:luminance" maskUnits="userSpaceOnUse" x="960" y="163" width="66" height="64">
<path d="M1025.37 195.372C1025.37 212.763 1010.74 226.865 992.693 226.865C974.649 226.863 960.021 212.763 960.021 195.372C960.021 177.978 974.649 163.878 992.693 163.878C1010.74 163.877 1025.37 177.977 1025.37 195.372Z" fill="white"/>
</mask>
<g mask="url(#mask10_16_89)">
<path d="M1004.57 175.465C1001.49 166.266 994.028 169.437 992.786 170.035C991.554 169.435 984.08 166.266 981.008 175.465C977.642 185.504 976.852 200.002 981.693 209.594H1003.89C1008.73 200.002 1007.94 185.504 1004.57 175.465Z" fill="#2E1500"/>
<path d="M1006.58 227.993V210.223C1006.58 206.971 1002.55 206.322 1000.76 206.202C998.636 206.066 997.366 204.331 997.179 203.623C996.521 201.157 997.179 193.436 997.179 193.436H988.287C988.287 193.436 988.986 201.306 988.287 203.811C988.051 204.646 986.757 206.079 984.818 206.203C983.033 206.323 978.998 206.973 978.998 210.224V227.995L1006.58 227.993Z" fill="#B69161"/>
<path d="M1007.77 210.979C1006.22 206.808 1002.7 206.573 1002 206.54V215.964H1001.97V228.016H1008.98V218.511C1008.98 218.511 1008.9 213.987 1007.77 210.979Z" fill="#B69161"/>
<path d="M977.802 210.979C979.355 206.808 982.882 206.573 983.577 206.54V215.964H983.612V228.016H976.596V218.511C976.596 218.511 976.68 213.987 977.802 210.979Z" fill="#B69161"/>
<path d="M1004.42 183.791C1004.16 183.729 1003.94 183.801 1003.75 183.948C1003.76 183.781 1003.76 183.615 1003.76 183.443C1003.76 179.38 1002.52 176.804 1000.91 175.167C1000.91 175.167 999.024 172.466 992.959 172.466C987.237 172.466 985.193 175.167 985.193 175.167C983.278 176.983 982.123 179.819 982.003 184.114C981.798 183.867 981.524 183.706 981.162 183.791C980.074 184.037 980.172 186.894 981.162 188.285C981.836 189.25 982.318 189.342 982.545 189.304C984.309 196.132 989.922 200.213 993.453 200.213C996.907 200.213 1001.56 196.874 1003.18 189.308C1003.44 189.286 1003.86 189.088 1004.42 188.285C1005.4 186.894 1005.5 184.037 1004.42 183.791Z" fill="#C99F6A"/>
<path d="M1005.19 184.198C1004.77 181.897 1004.15 179.558 1003.37 177.158C1000.6 168.638 993.902 171.571 992.786 172.128C991.677 171.571 984.972 168.638 982.213 177.158C981.431 179.558 980.81 181.897 980.385 184.198C980.385 184.198 985.79 184.958 989.114 183.137C992.074 181.516 992.754 178.705 992.764 178.743C994.538 186.35 1005.19 184.198 1005.19 184.198Z" fill="#492B00"/>
<path d="M1006.33 208.485C1004.84 209.106 1001.14 212.696 992.785 212.696C984.319 212.696 980.727 209.106 979.25 208.485C978.918 208.971 978.713 209.547 978.713 210.255V228.014H992.743H992.838H1006.86V210.255C1006.86 209.547 1006.66 208.971 1006.33 208.485Z" fill="#6885BE"/>
</g>
</g>
<path d="M353.482 377.93C353.482 397.225 337.255 412.863 317.242 412.863C297.225 412.863 281 397.225 281 377.93C281 358.639 297.225 343 317.242 343C337.257 343 353.482 358.639 353.482 377.93Z" fill="url(#paint12_linear_16_89)"/>
<mask id="mask11_16_89" style="mask-type:luminance" maskUnits="userSpaceOnUse" x="284" y="346" width="66" height="64">
<path d="M349.512 377.93C349.512 395.112 335.063 409.035 317.242 409.035C299.422 409.035 284.972 395.112 284.972 377.93C284.972 360.751 299.42 346.827 317.242 346.827C335.064 346.827 349.512 360.751 349.512 377.93Z" fill="white"/>
</mask>
<g mask="url(#mask11_16_89)">
<path d="M336.392 396.729H331.172V409.999H336.392V396.729Z" fill="#FAD5A9"/>
<path d="M331.058 386.348C331.577 386.38 333.635 386.808 335.359 391.237C337.179 395.919 336.53 399.532 336.53 399.532H331.058V386.348Z" fill="#18294B"/>
<path d="M325.968 373.668H307.676V388.824H325.968V373.668Z" fill="#533300"/>
<path d="M317.814 375.729H312.242V383.787C312.242 383.787 314.55 389.961 317.814 389.961C320.978 389.961 323.383 384.034 323.383 384.034V375.729H317.814Z" fill="#F0C496"/>
<path d="M328.278 366.205C328.007 366.142 327.79 366.217 327.611 366.358C327.612 366.192 327.621 366.03 327.621 365.86C327.621 361.846 326.398 359.304 324.802 357.688H309.278C307.389 359.481 306.252 362.283 306.127 366.529C305.927 366.283 307.833 367.143 307.476 367.226C306.402 367.471 305.958 368.843 306.929 370.219C307.602 371.171 306.439 371.686 306.667 371.652C308.411 378.396 313.947 382.422 317.441 382.422C320.846 382.422 325.453 379.125 327.049 371.653C327.301 371.632 326.291 371.534 326.845 370.739C327.808 369.362 329.338 366.448 328.278 366.205Z" fill="#FAD5A9"/>
<path d="M304.414 396.693H299.194V409.965H304.414V396.693Z" fill="#FAD5A9"/>
<path d="M304.393 386.315C303.87 386.349 301.815 386.776 300.093 391.203C298.266 395.887 298.919 399.501 298.919 399.501H304.395V386.315H304.393Z" fill="#18294B"/>
<path d="M304.304 409.977V386.324L312.269 383.791C312.269 383.791 316.385 388.239 318.069 388.239C320.232 388.239 323.429 383.989 323.429 383.989L331.113 386.326V409.977H304.304Z" fill="#2D4575"/>
<path d="M318.232 389.412C320.693 389.412 324.273 384.835 324.658 384.333L323.523 383.987C323.523 383.987 320.321 388.238 318.16 388.238C316.472 388.238 312.362 383.79 312.362 383.79L311.313 384.124C311.907 384.758 316.339 389.412 318.232 389.412Z" fill="#18294B"/>
<path d="M329.489 375.688C327.817 373.809 328.242 368.582 328.933 365.621C330.123 360.486 325.934 354.136 317.369 354.025V354.022C317.354 354.022 317.336 354.022 317.32 354.022C317.298 354.022 317.282 354.022 317.262 354.022V354.025C308.699 354.136 304.509 360.486 305.703 365.621C306.392 368.581 306.817 373.809 305.143 375.688C303.468 377.564 302.98 383.021 304.724 384.642C305.131 385.022 305.324 385.284 305.48 385.961L310.575 384.382C310.408 383.654 309.608 383.077 310.422 382.08C311.502 380.744 311.826 374.807 310.779 372.928C309.735 371.052 308.062 366.409 310.372 364.82C313.687 362.542 320.096 364.69 323.534 360.59C323.914 361.622 323.088 365.149 324.952 366.641C328.53 369.504 325.055 372.094 324.008 373.972C322.963 375.849 323.606 379.65 324.866 381.994C325.083 382.4 324.098 384.204 324.098 384.204L329.249 385.74C329.4 385.3 329.619 384.916 329.905 384.642C331.652 383.021 331.16 377.564 329.489 375.688Z" fill="#785121"/>
</g>
<g filter="url(#filter11_d_16_89)">
<path d="M76.4834 34.9313C76.4834 54.2225 60.2579 69.8614 40.243 69.8614C20.2295 69.8614 4 54.2225 4 34.9313C4 15.6388 20.2295 8.18209e-08 40.243 8.18209e-08C60.2579 -0.0013062 76.4834 15.6388 76.4834 34.9313Z" fill="url(#paint13_linear_16_89)"/>
<mask id="mask12_16_89" style="mask-type:luminance" maskUnits="userSpaceOnUse" x="7" y="3" width="66" height="64">
<path d="M72.5119 34.9313C72.5119 52.1103 58.0659 66.0326 40.2439 66.0326C22.4192 66.0326 7.97461 52.1103 7.97461 34.9313C7.97461 17.755 22.4192 3.82739 40.2439 3.82739C58.0646 3.82739 72.5119 17.755 72.5119 34.9313Z" fill="white"/>
</mask>
<g mask="url(#mask12_16_89)">
<path d="M45.7845 40.0337C45.7859 40.0415 34.8243 40.1944 34.9517 39.9017L26.8281 42.5222V66.1737H53.637V42.5235L45.7845 40.0337Z" fill="#546CA6"/>
<path d="M40.3888 31.9256H34.8213V39.9814C34.8213 39.9814 40.0147 49.162 40.3888 49.162C40.6246 49.3932 45.9577 40.2335 45.9577 40.2335V31.9256H40.3888Z" fill="#F8CC9A"/>
<path d="M51.1681 22.4015C50.8971 22.3388 50.6775 22.4132 50.5013 22.5543C50.5013 22.3897 50.5067 22.2264 50.5067 22.0592C50.5067 18.0437 49.287 15.5017 47.6864 13.8871C47.6864 13.8871 45.8297 11.2144 39.8379 11.2144C34.1837 11.2144 32.1697 13.8871 32.1697 13.8871C30.2791 15.6767 29.1393 18.4774 29.0187 22.7241C28.8127 22.4772 28.5443 22.3205 28.1852 22.4015C27.1186 22.6457 27.2148 25.4647 28.1852 26.8415C28.8534 27.7951 29.3263 27.8826 29.554 27.8474C31.2956 34.5878 36.836 38.6216 40.3231 38.6216C43.7358 38.6216 48.3383 35.3219 49.9375 27.8487C50.1923 27.8252 50.6043 27.6331 51.1654 26.8415C52.129 25.4647 52.228 22.6457 51.1681 22.4015Z" fill="#FADBBA"/>
<path d="M50.0937 16.0255C49.3564 14.1353 46.9453 9.65341 39.0278 9.65341C30.0287 9.65341 26.6974 20.4969 29.9799 24.6587C29.9799 24.6587 42.1761 25.1342 47.1703 16.7204C47.1703 16.7204 45.6131 22.0122 48.9674 24.7449C48.9674 24.7449 52.3868 21.9273 50.0937 16.0255Z" fill="#434041"/>
<path d="M26.8482 52.894H21.6357V66.162H26.8482V52.894Z" fill="#F8CC9A"/>
<path d="M26.8705 42.5156C26.2891 42.5718 24.2954 43.0812 22.6162 47.4024C20.7961 52.0828 21.4426 55.696 21.4426 55.696H26.8705V42.5156Z" fill="#2D4575"/>
<path d="M58.8309 52.9254H53.6104V66.1946H58.8309V52.9254Z" fill="#F8CC9A"/>
<path d="M53.5654 42.6097C54.0859 42.6436 56.1445 43.0695 57.8671 47.4978C59.6872 52.1821 59.034 55.794 59.034 55.794H53.5654V42.6097Z" fill="#2D4575"/>
</g>
</g>
<g filter="url(#filter12_d_16_89)">
<path d="M1120.48 54.93C1120.48 74.2212 1104.25 89.8626 1084.24 89.8626C1064.23 89.8626 1048 74.2212 1048 54.93C1048 35.6388 1064.23 20 1084.24 20C1104.25 20 1120.48 35.6401 1120.48 54.93Z" fill="#2D9596"/>
<mask id="mask13_16_89" style="mask-type:luminance" maskUnits="userSpaceOnUse" x="1051" y="23" width="66" height="64">
<path d="M1116.51 54.93C1116.51 72.1063 1102.06 86.0326 1084.24 86.0326C1066.42 86.0326 1051.97 72.1076 1051.97 54.93C1051.97 37.7498 1066.42 23.8274 1084.24 23.8274C1102.06 23.8287 1116.51 37.7498 1116.51 54.93Z" fill="white"/>
</mask>
<g mask="url(#mask13_16_89)">
<path d="M1093.5 40.25H1073.99V66.1418H1093.5V40.25Z" fill="#2A1600"/>
<path d="M1092.56 65.2888C1090.47 65.1504 1089.22 63.4365 1089.03 62.7377C1088.38 60.3041 1089.03 52.678 1089.03 52.678H1084.64H1080.25C1080.25 52.678 1080.94 60.4478 1080.25 62.9205C1080.02 63.7487 1078.74 65.1608 1076.82 65.2875C1075.06 65.4025 1071.07 66.0465 1071.07 69.256V86.9131L1080.41 86.8922V86.8256H1088.98V86.8922L1098.32 86.9131V69.256C1098.32 66.0478 1094.33 65.4038 1092.56 65.2888Z" fill="#6C491B"/>
<path d="M1095.9 43.1539C1095.63 43.0898 1095.42 43.1643 1095.24 43.3041C1095.24 43.1408 1095.24 42.9788 1095.24 42.809C1095.24 38.7974 1094.02 36.2514 1092.43 34.6356H1076.91C1075.01 36.4278 1073.88 39.2311 1073.75 43.4739C1073.55 43.2283 1073.28 43.0703 1072.92 43.1552C1071.85 43.3981 1071.95 46.2158 1072.92 47.5939C1073.59 48.5462 1074.06 48.635 1074.29 48.5984C1076.03 55.3441 1081.57 59.3727 1085.06 59.3727C1088.47 59.3727 1093.07 56.0743 1094.67 48.605C1094.92 48.5802 1095.34 48.3868 1095.9 47.5939C1096.86 46.2145 1096.96 43.3968 1095.9 43.1539Z" fill="#7D5424"/>
<path d="M1094.78 87.0424H1074.73V65.4482C1074.73 65.4482 1080.05 64.1445 1084.79 64.1445C1088.96 64.1445 1094.78 65.4482 1094.78 65.4482V87.0424Z" fill="#2D4575"/>
<path d="M1077.44 44.2825C1073.72 44.2825 1077.43 58.2989 1079.06 64.4972C1078.96 64.5678 1078.87 64.6344 1078.76 64.6997C1076.47 65.0537 1074.7 65.4482 1074.7 65.4482V65.6441C1073.03 66.087 1071.27 67.0471 1071.18 69.094C1069.48 60.6071 1069.44 43.5954 1074.49 36.3337C1078.96 29.9121 1084.09 31.5789 1085.21 32.0465V35.0457C1084.53 39.4714 1082.64 44.2825 1077.44 44.2825Z" fill="#40290F"/>
<path d="M1092.02 44.2825C1095.74 44.2825 1092.02 58.2989 1090.4 64.4972C1090.49 64.5678 1090.59 64.6344 1090.69 64.6997C1092.98 65.0537 1094.75 65.4482 1094.75 65.4482V65.6441C1096.43 66.087 1098.19 67.0471 1098.28 69.094C1099.97 60.6071 1100.02 43.5954 1094.96 36.3337C1090.49 29.9121 1085.36 31.5789 1084.25 32.0465V35.0457C1084.92 39.4714 1086.82 44.2825 1092.02 44.2825Z" fill="#40290F"/>
</g>
</g>
<g filter="url(#filter13_d_16_89)">
<path d="M85.4861 201.933C85.4861 221.221 69.2579 236.863 49.2444 236.863C29.2295 236.863 13 221.221 13 201.933C13 182.639 29.2295 167 49.2444 167C69.2579 167 85.4861 182.639 85.4861 201.933Z" fill="url(#paint14_linear_16_89)"/>
<mask id="mask14_16_89" style="mask-type:luminance" maskUnits="userSpaceOnUse" x="16" y="170" width="66" height="64">
<path d="M81.5177 201.933C81.5177 219.108 67.0677 233.037 49.2457 233.037C31.4223 233.037 16.9736 219.108 16.9736 201.933C16.9736 184.752 31.4223 170.827 49.2457 170.827C67.0677 170.827 81.5177 184.752 81.5177 201.933Z" fill="white"/>
</mask>
<g mask="url(#mask14_16_89)">
<path d="M62.9401 217.386V189.851C62.9401 182.732 56.9606 176.97 49.581 176.97C42.1947 176.97 36.2139 182.733 36.2139 189.851V217.386H62.9401Z" fill="#492B00"/>
<path d="M62.9058 235.279V217.727C62.9058 214.517 58.9199 213.875 57.1499 213.757C55.0574 213.623 53.8037 211.907 53.6181 211.207C52.9716 208.774 53.6181 201.148 53.6181 201.148H44.8372C44.8372 201.148 45.5284 208.921 44.8372 211.393C44.6068 212.22 43.3274 213.634 41.4083 213.757C39.6464 213.873 35.6592 214.517 35.6592 217.727V235.281H62.9058V235.279Z" fill="#EAA576"/>
<path d="M64.0846 218.477C62.5463 214.352 59.0687 214.123 58.3761 214.094V223.398H58.3477V235.298H65.2772V225.913C65.2772 225.913 65.1891 221.445 64.0846 218.477Z" fill="#F1C896"/>
<path d="M34.4767 218.477C36.0136 214.351 39.4926 214.123 40.1824 214.094V223.398H40.2149V235.298H33.2881V225.913C33.2881 225.913 33.3721 221.445 34.4767 218.477Z" fill="#F1C896"/>
<path d="M60.7728 191.622C60.5031 191.559 60.2862 191.639 60.106 191.778C60.11 191.61 60.1182 191.448 60.1182 191.279C60.1182 187.268 58.893 184.724 57.2992 183.106C57.2992 183.106 55.4384 180.438 49.4466 180.438C43.7965 180.438 41.7784 183.106 41.7784 183.106C39.8892 184.899 38.7494 187.701 38.6301 191.945C38.4268 191.702 38.1558 191.541 37.7912 191.622C36.7232 191.869 36.8208 194.685 37.7912 196.064C38.4675 197.017 38.9378 197.109 39.1627 197.071C40.9097 203.815 46.4474 207.845 49.9386 207.845C53.3431 207.845 57.9483 204.55 59.5462 197.071C59.7956 197.051 60.2157 196.858 60.7741 196.064C61.7323 194.685 61.8339 191.869 60.7728 191.622Z" fill="#EDBA84"/>
<path d="M60.3012 214.344C58.6261 213.702 55.7271 214.018 54.0276 211.932C54.0276 211.932 55.8925 220.665 49.2489 223.168C42.6066 220.665 44.462 211.932 44.462 211.932C42.7652 214.017 39.8689 213.702 38.1925 214.344C30.8454 217.138 33.556 235.319 33.556 235.319L49.1987 235.385H49.2489H49.2949L64.939 235.319C64.939 235.319 67.6469 217.138 60.3012 214.344Z" fill="#2D4575"/>
<path d="M55.4294 186.337L56.0826 191.8H61.0497C60.6621 189.793 60.5686 187.733 59.6131 185.73C55.1163 176.275 50.6303 179.825 49.603 180.312C48.5811 179.826 43.3714 175.817 39.6362 185.556C38.8407 187.621 38.5479 189.793 38.1562 191.8H54.7748L55.4294 186.337Z" fill="#734807"/>
</g>
</g>
<g filter="url(#filter14_d_16_89)">
<path d="M848.481 124.93C848.481 144.223 832.254 159.861 812.24 159.861C792.227 159.861 776 144.221 776 124.93C776 105.64 792.227 90 812.24 90C832.254 90 848.481 105.64 848.481 124.93Z" fill="url(#paint15_linear_16_89)"/>
<mask id="mask15_16_89" style="mask-type:luminance" maskUnits="userSpaceOnUse" x="779" y="93" width="66" height="64">
<path d="M844.51 124.93C844.51 142.109 830.064 156.034 812.242 156.034C794.42 156.034 779.971 142.11 779.971 124.93C779.971 107.754 794.42 93.8274 812.242 93.8274C830.064 93.8274 844.51 107.754 844.51 124.93Z" fill="white"/>
</mask>
<g mask="url(#mask15_16_89)">
<path d="M817.78 130.032C817.793 130.044 806.828 130.196 806.953 129.903L798.828 132.523V156.175H825.638V132.523L817.78 130.032Z" fill="#6885BE"/>
<path d="M798.855 142.894H793.634V156.162H798.855V142.894Z" fill="#FAD5A9"/>
<path d="M798.872 132.514C798.293 132.569 796.294 133.083 794.618 137.402C792.795 142.083 793.447 145.697 793.447 145.697H798.872V132.514Z" fill="#395690"/>
<path d="M830.832 142.925H825.609V156.195H830.832V142.925Z" fill="#FAD5A9"/>
<path d="M825.567 132.61C826.09 132.645 828.141 133.072 829.868 137.499C831.69 142.18 831.037 145.797 831.037 145.797H825.566L825.567 132.61Z" fill="#395690"/>
<path d="M812.09 121.946H806.523V130.005C806.523 130.005 810.742 141.529 812.09 141.529C812.727 141.529 817.663 130.252 817.663 130.252V121.946H812.09Z" fill="#F0C496"/>
<path d="M822.552 112.421C822.286 112.358 822.07 112.43 821.888 112.575C821.893 112.409 821.897 112.246 821.897 112.079C821.897 108.065 820.675 105.521 819.076 103.904H803.559C801.666 105.695 800.534 108.498 800.412 112.744C800.208 112.498 799.932 112.337 799.576 112.422C798.505 112.667 798.6 115.483 799.576 116.861C800.248 117.816 800.723 117.907 800.939 117.868C802.688 124.611 808.227 128.641 811.714 128.641C815.125 128.641 819.726 125.344 821.323 117.873C821.578 117.851 821.996 117.655 822.552 116.861C823.518 115.482 823.615 112.665 822.552 112.421Z" fill="#FAD5A9"/>
<path d="M803.055 103.903C800.646 106.325 800.089 109.982 800.404 113.815C800.404 113.815 803.216 114.589 803.787 108.979C803.787 108.979 811.649 110.86 816.948 106.383C816.948 106.383 819.737 109.15 820.031 111.784C820.249 113.734 821.198 114.029 821.897 113.815C821.897 113.815 822.495 107.815 819.681 103.903C819.681 103.903 817.483 100.378 811.093 100.378C806.726 100.378 804.571 102.377 803.055 103.903Z" fill="#F3A53C"/>
</g>
</g>
<defs>
<filter id="filter0_d_16_89" x="1021" y="278" width="81.2773" height="78.6269" filterUnits="userSpaceOnUse" color-interpolation-filters="sRGB">
<feFlood flood-opacity="0" result="BackgroundImageFix"/>
<feColorMatrix in="SourceAlpha" type="matrix" values="0 0 0 0 0 0 0 0 0 0 0 0 0 0 0 0 0 0 127 0" result="hardAlpha"/>
<feOffset dy="4"/>
<feGaussianBlur stdDeviation="2"/>
<feComposite in2="hardAlpha" operator="out"/>
<feColorMatrix type="matrix" values="0 0 0 0 0 0 0 0 0 0 0 0 0 0 0 0 0 0 0.25 0"/>
<feBlend mode="normal" in2="BackgroundImageFix" result="effect1_dropShadow_16_89"/>
<feBlend mode="normal" in="SourceGraphic" in2="effect1_dropShadow_16_89" result="shape"/>
</filter>
<filter id="filter1_d_16_89" x="1215" y="385" width="81.2842" height="78.6256" filterUnits="userSpaceOnUse" color-interpolation-filters="sRGB">
<feFlood flood-opacity="0" result="BackgroundImageFix"/>
<feColorMatrix in="SourceAlpha" type="matrix" values="0 0 0 0 0 0 0 0 0 0 0 0 0 0 0 0 0 0 127 0" result="hardAlpha"/>
<feOffset dy="4"/>
<feGaussianBlur stdDeviation="2"/>
<feComposite in2="hardAlpha" operator="out"/>
<feColorMatrix type="matrix" values="0 0 0 0 0 0 0 0 0 0 0 0 0 0 0 0 0 0 0.25 0"/>
<feBlend mode="normal" in2="BackgroundImageFix" result="effect1_dropShadow_16_89"/>
<feBlend mode="normal" in="SourceGraphic" in2="effect1_dropShadow_16_89" result="shape"/>
</filter>
<filter id="filter2_d_16_89" x="221" y="219" width="81.2744" height="78.6243" filterUnits="userSpaceOnUse" color-interpolation-filters="sRGB">
<feFlood flood-opacity="0" result="BackgroundImageFix"/>
<feColorMatrix in="SourceAlpha" type="matrix" values="0 0 0 0 0 0 0 0 0 0 0 0 0 0 0 0 0 0 127 0" result="hardAlpha"/>
<feOffset dy="4"/>
<feGaussianBlur stdDeviation="2"/>
<feComposite in2="hardAlpha" operator="out"/>
<feColorMatrix type="matrix" values="0 0 0 0 0 0 0 0 0 0 0 0 0 0 0 0 0 0 0.25 0"/>
<feBlend mode="normal" in2="BackgroundImageFix" result="effect1_dropShadow_16_89"/>
<feBlend mode="normal" in="SourceGraphic" in2="effect1_dropShadow_16_89" result="shape"/>
</filter>
<filter id="filter3_d_16_89" x="375" y="20" width="81.2773" height="78.6308" filterUnits="userSpaceOnUse" color-interpolation-filters="sRGB">
<feFlood flood-opacity="0" result="BackgroundImageFix"/>
<feColorMatrix in="SourceAlpha" type="matrix" values="0 0 0 0 0 0 0 0 0 0 0 0 0 0 0 0 0 0 127 0" result="hardAlpha"/>
<feOffset dy="4"/>
<feGaussianBlur stdDeviation="2"/>
<feComposite in2="hardAlpha" operator="out"/>
<feColorMatrix type="matrix" values="0 0 0 0 0 0 0 0 0 0 0 0 0 0 0 0 0 0 0.25 0"/>
<feBlend mode="normal" in2="BackgroundImageFix" result="effect1_dropShadow_16_89"/>
<feBlend mode="normal" in="SourceGraphic" in2="effect1_dropShadow_16_89" result="shape"/>
</filter>
<filter id="filter4_d_16_89" x="543" y="38" width="81.2773" height="78.6308" filterUnits="userSpaceOnUse" color-interpolation-filters="sRGB">
<feFlood flood-opacity="0" result="BackgroundImageFix"/>
<feColorMatrix in="SourceAlpha" type="matrix" values="0 0 0 0 0 0 0 0 0 0 0 0 0 0 0 0 0 0 127 0" result="hardAlpha"/>
<feOffset dy="4"/>
<feGaussianBlur stdDeviation="2"/>
<feComposite in2="hardAlpha" operator="out"/>
<feColorMatrix type="matrix" values="0 0 0 0 0 0 0 0 0 0 0 0 0 0 0 0 0 0 0.25 0"/>
<feBlend mode="normal" in2="BackgroundImageFix" result="effect1_dropShadow_16_89"/>
<feBlend mode="normal" in="SourceGraphic" in2="effect1_dropShadow_16_89" result="shape"/>
</filter>
<filter id="filter5_d_16_89" x="1194" y="132" width="81.2749" height="78.6269" filterUnits="userSpaceOnUse" color-interpolation-filters="sRGB">
<feFlood flood-opacity="0" result="BackgroundImageFix"/>
<feColorMatrix in="SourceAlpha" type="matrix" values="0 0 0 0 0 0 0 0 0 0 0 0 0 0 0 0 0 0 127 0" result="hardAlpha"/>
<feOffset dy="4"/>
<feGaussianBlur stdDeviation="2"/>
<feComposite in2="hardAlpha" operator="out"/>
<feColorMatrix type="matrix" values="0 0 0 0 0 0 0 0 0 0 0 0 0 0 0 0 0 0 0.25 0"/>
<feBlend mode="normal" in2="BackgroundImageFix" result="effect1_dropShadow_16_89"/>
<feBlend mode="normal" in="SourceGraphic" in2="effect1_dropShadow_16_89" result="shape"/>
</filter>
<filter id="filter6_d_16_89" x="843" y="328" width="81.2749" height="78.6321" filterUnits="userSpaceOnUse" color-interpolation-filters="sRGB">
<feFlood flood-opacity="0" result="BackgroundImageFix"/>
<feColorMatrix in="SourceAlpha" type="matrix" values="0 0 0 0 0 0 0 0 0 0 0 0 0 0 0 0 0 0 127 0" result="hardAlpha"/>
<feOffset dy="4"/>
<feGaussianBlur stdDeviation="2"/>
<feComposite in2="hardAlpha" operator="out"/>
<feColorMatrix type="matrix" values="0 0 0 0 0 0 0 0 0 0 0 0 0 0 0 0 0 0 0.25 0"/>
<feBlend mode="normal" in2="BackgroundImageFix" result="effect1_dropShadow_16_89"/>
<feBlend mode="normal" in="SourceGraphic" in2="effect1_dropShadow_16_89" result="shape"/>
</filter>
<filter id="filter7_d_16_89" x="879" y="2" width="81.2734" height="78.6255" filterUnits="userSpaceOnUse" color-interpolation-filters="sRGB">
<feFlood flood-opacity="0" result="BackgroundImageFix"/>
<feColorMatrix in="SourceAlpha" type="matrix" values="0 0 0 0 0 0 0 0 0 0 0 0 0 0 0 0 0 0 127 0" result="hardAlpha"/>
<feOffset dy="4"/>
<feGaussianBlur stdDeviation="2"/>
<feComposite in2="hardAlpha" operator="out"/>
<feColorMatrix type="matrix" values="0 0 0 0 0 0 0 0 0 0 0 0 0 0 0 0 0 0 0.25 0"/>
<feBlend mode="normal" in2="BackgroundImageFix" result="effect1_dropShadow_16_89"/>
<feBlend mode="normal" in="SourceGraphic" in2="effect1_dropShadow_16_89" result="shape"/>
</filter>
<filter id="filter8_d_16_89" x="36" y="367" width="81.2764" height="78.623" filterUnits="userSpaceOnUse" color-interpolation-filters="sRGB">
<feFlood flood-opacity="0" result="BackgroundImageFix"/>
<feColorMatrix in="SourceAlpha" type="matrix" values="0 0 0 0 0 0 0 0 0 0 0 0 0 0 0 0 0 0 127 0" result="hardAlpha"/>
<feOffset dy="4"/>
<feGaussianBlur stdDeviation="2"/>
<feComposite in2="hardAlpha" operator="out"/>
<feColorMatrix type="matrix" values="0 0 0 0 0 0 0 0 0 0 0 0 0 0 0 0 0 0 0.25 0"/>
<feBlend mode="normal" in2="BackgroundImageFix" result="effect1_dropShadow_16_89"/>
<feBlend mode="normal" in="SourceGraphic" in2="effect1_dropShadow_16_89" result="shape"/>
</filter>
<filter id="filter9_d_16_89" x="208" y="55" width="81.2744" height="78.6255" filterUnits="userSpaceOnUse" color-interpolation-filters="sRGB">
<feFlood flood-opacity="0" result="BackgroundImageFix"/>
<feColorMatrix in="SourceAlpha" type="matrix" values="0 0 0 0 0 0 0 0 0 0 0 0 0 0 0 0 0 0 127 0" result="hardAlpha"/>
<feOffset dy="4"/>
<feGaussianBlur stdDeviation="2"/>
<feComposite in2="hardAlpha" operator="out"/>
<feColorMatrix type="matrix" values="0 0 0 0 0 0 0 0 0 0 0 0 0 0 0 0 0 0 0.25 0"/>
<feBlend mode="normal" in2="BackgroundImageFix" result="effect1_dropShadow_16_89"/>
<feBlend mode="normal" in="SourceGraphic" in2="effect1_dropShadow_16_89" result="shape"/>
</filter>
<filter id="filter10_d_16_89" x="952" y="160" width="81.3887" height="78.7418" filterUnits="userSpaceOnUse" color-interpolation-filters="sRGB">
<feFlood flood-opacity="0" result="BackgroundImageFix"/>
<feColorMatrix in="SourceAlpha" type="matrix" values="0 0 0 0 0 0 0 0 0 0 0 0 0 0 0 0 0 0 127 0" result="hardAlpha"/>
<feOffset dy="4"/>
<feGaussianBlur stdDeviation="2"/>
<feComposite in2="hardAlpha" operator="out"/>
<feColorMatrix type="matrix" values="0 0 0 0 0 0 0 0 0 0 0 0 0 0 0 0 0 0 0.25 0"/>
<feBlend mode="normal" in2="BackgroundImageFix" result="effect1_dropShadow_16_89"/>
<feBlend mode="normal" in="SourceGraphic" in2="effect1_dropShadow_16_89" result="shape"/>
</filter>
<filter id="filter11_d_16_89" x="0" y="0" width="80.4834" height="77.8614" filterUnits="userSpaceOnUse" color-interpolation-filters="sRGB">
<feFlood flood-opacity="0" result="BackgroundImageFix"/>
<feColorMatrix in="SourceAlpha" type="matrix" values="0 0 0 0 0 0 0 0 0 0 0 0 0 0 0 0 0 0 127 0" result="hardAlpha"/>
<feOffset dy="4"/>
<feGaussianBlur stdDeviation="2"/>
<feComposite in2="hardAlpha" operator="out"/>
<feColorMatrix type="matrix" values="0 0 0 0 0 0 0 0 0 0 0 0 0 0 0 0 0 0 0.25 0"/>
<feBlend mode="normal" in2="BackgroundImageFix" result="effect1_dropShadow_16_89"/>
<feBlend mode="normal" in="SourceGraphic" in2="effect1_dropShadow_16_89" result="shape"/>
</filter>
<filter id="filter12_d_16_89" x="1044" y="20" width="80.4819" height="77.8627" filterUnits="userSpaceOnUse" color-interpolation-filters="sRGB">
<feFlood flood-opacity="0" result="BackgroundImageFix"/>
<feColorMatrix in="SourceAlpha" type="matrix" values="0 0 0 0 0 0 0 0 0 0 0 0 0 0 0 0 0 0 127 0" result="hardAlpha"/>
<feOffset dy="4"/>
<feGaussianBlur stdDeviation="2"/>
<feComposite in2="hardAlpha" operator="out"/>
<feColorMatrix type="matrix" values="0 0 0 0 0 0 0 0 0 0 0 0 0 0 0 0 0 0 0.25 0"/>
<feBlend mode="normal" in2="BackgroundImageFix" result="effect1_dropShadow_16_89"/>
<feBlend mode="normal" in="SourceGraphic" in2="effect1_dropShadow_16_89" result="shape"/>
</filter>
<filter id="filter13_d_16_89" x="9" y="167" width="80.4863" height="77.8627" filterUnits="userSpaceOnUse" color-interpolation-filters="sRGB">
<feFlood flood-opacity="0" result="BackgroundImageFix"/>
<feColorMatrix in="SourceAlpha" type="matrix" values="0 0 0 0 0 0 0 0 0 0 0 0 0 0 0 0 0 0 127 0" result="hardAlpha"/>
<feOffset dy="4"/>
<feGaussianBlur stdDeviation="2"/>
<feComposite in2="hardAlpha" operator="out"/>
<feColorMatrix type="matrix" values="0 0 0 0 0 0 0 0 0 0 0 0 0 0 0 0 0 0 0.25 0"/>
<feBlend mode="normal" in2="BackgroundImageFix" result="effect1_dropShadow_16_89"/>
<feBlend mode="normal" in="SourceGraphic" in2="effect1_dropShadow_16_89" result="shape"/>
</filter>
<filter id="filter14_d_16_89" x="772" y="90" width="80.4805" height="77.8614" filterUnits="userSpaceOnUse" color-interpolation-filters="sRGB">
<feFlood flood-opacity="0" result="BackgroundImageFix"/>
<feColorMatrix in="SourceAlpha" type="matrix" values="0 0 0 0 0 0 0 0 0 0 0 0 0 0 0 0 0 0 127 0" result="hardAlpha"/>
<feOffset dy="4"/>
<feGaussianBlur stdDeviation="2"/>
<feComposite in2="hardAlpha" operator="out"/>
<feColorMatrix type="matrix" values="0 0 0 0 0 0 0 0 0 0 0 0 0 0 0 0 0 0 0.25 0"/>
<feBlend mode="normal" in2="BackgroundImageFix" result="effect1_dropShadow_16_89"/>
<feBlend mode="normal" in="SourceGraphic" in2="effect1_dropShadow_16_89" result="shape"/>
</filter>
<linearGradient id="paint0_linear_16_89" x1="1061.64" y1="278" x2="1061.64" y2="348.627" gradientUnits="userSpaceOnUse">
<stop stop-color="#2D9596"/>
<stop offset="1" stop-color="#0E3030"/>
</linearGradient>
<linearGradient id="paint1_linear_16_89" x1="1255.64" y1="385" x2="1255.64" y2="455.626" gradientUnits="userSpaceOnUse">
<stop stop-color="#2D9596"/>
<stop offset="1" stop-color="#0E3030"/>
</linearGradient>
<linearGradient id="paint2_linear_16_89" x1="261.637" y1="219" x2="261.637" y2="289.624" gradientUnits="userSpaceOnUse">
<stop stop-color="#2D9596"/>
<stop offset="1" stop-color="#0E3030"/>
</linearGradient>
<linearGradient id="paint3_linear_16_89" x1="415.639" y1="20" x2="415.639" y2="90.6308" gradientUnits="userSpaceOnUse">
<stop stop-color="#2D9596"/>
<stop offset="1" stop-color="#0E3030"/>
</linearGradient>
<linearGradient id="paint4_linear_16_89" x1="583.639" y1="38" x2="583.639" y2="108.631" gradientUnits="userSpaceOnUse">
<stop stop-color="#2D9596"/>
<stop offset="1" stop-color="#0E3030"/>
</linearGradient>
<linearGradient id="paint5_linear_16_89" x1="1234.64" y1="132" x2="1234.64" y2="202.627" gradientUnits="userSpaceOnUse">
<stop stop-color="#2D9596"/>
<stop offset="1" stop-color="#0E3030"/>
</linearGradient>
<linearGradient id="paint6_linear_16_89" x1="883.637" y1="328" x2="883.637" y2="398.632" gradientUnits="userSpaceOnUse">
<stop stop-color="#2D9596"/>
<stop offset="1" stop-color="#0E3030"/>
</linearGradient>
<linearGradient id="paint7_linear_16_89" x1="919.637" y1="2" x2="919.637" y2="72.6255" gradientUnits="userSpaceOnUse">
<stop stop-color="#2D9596"/>
<stop offset="1" stop-color="#0E3030"/>
</linearGradient>
<linearGradient id="paint8_linear_16_89" x1="76.6381" y1="367" x2="76.6381" y2="437.623" gradientUnits="userSpaceOnUse">
<stop stop-color="#2D9596"/>
<stop offset="1" stop-color="#0E3030"/>
</linearGradient>
<linearGradient id="paint9_linear_16_89" x1="80.6036" y1="407.355" x2="80.6036" y2="413.679" gradientUnits="userSpaceOnUse">
<stop stop-color="#2D9596"/>
<stop offset="1" stop-color="#0E3030"/>
</linearGradient>
<linearGradient id="paint10_linear_16_89" x1="248.637" y1="55" x2="248.637" y2="125.626" gradientUnits="userSpaceOnUse">
<stop stop-color="#2D9596"/>
<stop offset="1" stop-color="#0E3030"/>
</linearGradient>
<linearGradient id="paint11_linear_16_89" x1="992.694" y1="160" x2="992.694" y2="230.742" gradientUnits="userSpaceOnUse">
<stop stop-color="#2D9596"/>
<stop offset="1" stop-color="#0E3030"/>
</linearGradient>
<linearGradient id="paint12_linear_16_89" x1="317.241" y1="343" x2="317.241" y2="412.863" gradientUnits="userSpaceOnUse">
<stop stop-color="#2D9596"/>
<stop offset="1" stop-color="#0E3030"/>
</linearGradient>
<linearGradient id="paint13_linear_16_89" x1="40.2417" y1="0" x2="40.2417" y2="69.8614" gradientUnits="userSpaceOnUse">
<stop stop-color="#2D9596"/>
<stop offset="1" stop-color="#0E3030"/>
</linearGradient>
<linearGradient id="paint14_linear_16_89" x1="49.243" y1="167" x2="49.243" y2="236.863" gradientUnits="userSpaceOnUse">
<stop stop-color="#2D9596"/>
<stop offset="1" stop-color="#0E3030"/>
</linearGradient>
<linearGradient id="paint15_linear_16_89" x1="812.24" y1="90" x2="812.24" y2="159.861" gradientUnits="userSpaceOnUse">
<stop stop-color="#2D9596"/>
<stop offset="1" stop-color="#0E3030"/>
</linearGradient>
</defs>
</svg>
