<svg width="250" height="214" viewBox="0 0 250 214" fill="none" xmlns="http://www.w3.org/2000/svg">
<path opacity="0.42" d="M15.5676 144.425C15.5676 144.425 34.4828 136.29 43.1802 109.762C51.8776 83.2347 67.6439 60.8961 97.5166 59.3956C127.389 57.8951 159.701 59.7393 170.375 43.9299C181.05 28.1205 158.236 27.7591 157.915 55.4966C157.594 83.2341 206.756 134.101 209.327 173.601C211.897 213.1 178.705 205.26 137.463 189.384C96.2204 173.507 53.1698 204.929 26.336 193.178C-0.498467 181.426 0.666095 156.289 15.5676 144.425Z" stroke="#071952" stroke-miterlimit="10"/>
<path opacity="0.42" d="M19.5825 113.682C25.5732 113.682 30.4296 108.895 30.4296 102.989C30.4296 97.0841 25.5732 92.2969 19.5825 92.2969C13.5918 92.2969 8.73535 97.0841 8.73535 102.989C8.73535 108.895 13.5918 113.682 19.5825 113.682Z" fill="#071952"/>
<path opacity="0.42" d="M29.3727 112.64C34.78 107.309 34.78 98.6672 29.3727 93.3369C23.9653 88.0066 15.1983 88.0066 9.79089 93.3369C4.38353 98.6672 4.38353 107.309 9.79089 112.64C15.1983 117.97 23.9653 117.97 29.3727 112.64Z" stroke="#071952" stroke-miterlimit="10"/>
<path opacity="0.42" d="M225.606 122.233C232.593 122.233 238.257 116.65 238.257 109.762C238.257 102.874 232.593 97.2905 225.606 97.2905C218.618 97.2905 212.954 102.874 212.954 109.762C212.954 116.65 218.618 122.233 225.606 122.233Z" fill="#071952"/>
<path opacity="0.42" d="M137.242 76.123L133.826 81.4682H141.098L137.242 76.123Z" stroke="#071952" stroke-miterlimit="10"/>
<path opacity="0.42" d="M89.0758 26.3516L84.5137 33.4921H94.2266L89.0758 26.3516Z" fill="#071952"/>
<path opacity="0.42" d="M123.27 40.7769C130.557 40.7769 136.463 34.9543 136.463 27.7718C136.463 20.5892 130.557 14.7666 123.27 14.7666C115.984 14.7666 110.077 20.5892 110.077 27.7718C110.077 34.9543 115.984 40.7769 123.27 40.7769Z" fill="#071952"/>
<path d="M123.011 26.161L122.269 24.762C121.793 23.8634 122.145 22.7543 123.057 22.2842C123.678 21.9644 123.918 21.2083 123.594 20.5958L122.484 18.5022C122.16 17.8897 121.393 17.6524 120.771 17.9728L119.805 18.4706C118.894 18.9395 118.152 19.674 117.68 20.5736L117.398 21.1118C116.911 22.0392 116.913 23.1428 117.404 24.068L119.478 27.9803L120.863 30.5922L122.937 34.5044C123.428 35.4301 124.346 36.0621 125.396 36.1973L126.006 36.276C127.025 36.4074 128.059 36.2261 128.97 35.7572L129.937 35.2594C130.558 34.9396 130.798 34.1835 130.474 33.571L129.364 31.4774C129.039 30.8649 128.272 30.6276 127.651 30.948C126.74 31.4175 125.614 31.07 125.138 30.1714L124.396 28.7724L123.011 26.161Z" fill="white"/>
<path opacity="0.42" d="M219.77 174.457C219.77 175.944 218.547 177.149 217.039 177.149C215.531 177.149 214.308 175.944 214.308 174.457C214.308 172.97 215.531 171.765 217.039 171.765C218.547 171.765 219.77 172.97 219.77 174.457Z" stroke="#071952" stroke-miterlimit="10"/>
<path opacity="0.42" d="M56.484 32.0513C59.2723 32.0513 61.5325 29.8232 61.5325 27.0747C61.5325 24.3262 59.2723 22.0981 56.484 22.0981C53.6958 22.0981 51.4355 24.3262 51.4355 27.0747C51.4355 29.8232 53.6958 32.0513 56.484 32.0513Z" fill="white"/>
<path opacity="0.42" d="M194.327 101.213C197.115 101.213 199.375 98.9853 199.375 96.2368C199.375 93.4883 197.115 91.2603 194.327 91.2603C191.539 91.2603 189.278 93.4883 189.278 96.2368C189.278 98.9853 191.539 101.213 194.327 101.213Z" stroke="#071952" stroke-miterlimit="10"/>
<path opacity="0.42" d="M35.3554 129.571C38.0731 129.571 40.2763 127.399 40.2763 124.72C40.2763 122.041 38.0731 119.869 35.3554 119.869C32.6377 119.869 30.4346 122.041 30.4346 124.72C30.4346 127.399 32.6377 129.571 35.3554 129.571Z" fill="#071952"/>
<path opacity="0.42" d="M225.605 118.365C230.425 118.365 234.332 114.513 234.332 109.762C234.332 105.011 230.425 101.159 225.605 101.159C220.785 101.159 216.878 105.011 216.878 109.762C216.878 114.513 220.785 118.365 225.605 118.365Z" stroke="white" stroke-miterlimit="10"/>
<path opacity="0.42" d="M218.187 28.2715H157.704C155.121 28.2715 153.025 30.3363 153.025 32.8839V68.8978C153.025 71.4448 155.12 73.5101 157.704 73.5101H196.277V82.5891C196.277 84.1085 198.078 84.935 199.258 83.9566L211.85 73.5101H218.187C220.771 73.5101 222.867 71.4454 222.867 68.8978V32.8839C222.867 30.3363 220.772 28.2715 218.187 28.2715Z" fill="#071952"/>
<path d="M233.506 32.7632C233.506 38.1455 231.937 43.1619 229.233 47.3747C228.805 48.0509 228.344 48.7106 227.855 49.3425C222.912 55.7392 215.18 59.8577 206.492 59.8577C202.033 59.8577 197.827 58.7768 194.121 56.8533C185.422 52.3524 179.479 43.2506 179.479 32.7632C179.479 31.5381 179.557 30.3297 179.72 29.1435C181.48 15.89 192.8 5.66309 206.492 5.66309C221.41 5.66309 233.506 17.7969 233.506 32.7632Z" fill="#68A8DE"/>
<path d="M227.855 49.3401C222.912 55.7368 215.18 59.8553 206.492 59.8553C202.033 59.8553 197.827 58.7744 194.121 56.8509C194.627 55.6038 196.179 52.2945 198.929 50.4432C202.359 48.1262 212.784 46.7348 220.016 47.3446C224.284 47.6993 226.64 48.6361 227.855 49.3401Z" fill="#E4973F"/>
<path d="M194.326 19.018L194.609 32.2498C194.609 32.2498 195.035 45.7677 206.196 45.5282C217.356 45.2888 219.714 28.5892 219.714 28.5892L217.958 18.4575C217.958 18.4575 204.913 9.87576 194.326 19.018Z" fill="white"/>
<path d="M206.271 42.3478C206.271 42.3478 207.1 47.464 205.849 49.1375C204.598 50.8104 208.333 56.6234 208.333 56.6234L216.975 48.8088C216.975 48.8088 216.4 43.08 216.557 38.063L206.271 42.3478Z" fill="white"/>
<path d="M194.39 22.0565C194.39 22.0565 197.602 23.0643 201.036 22.7677C204.47 22.4706 205.675 21.1048 205.675 21.1048C205.675 21.1048 206.82 21.5798 208.687 21.5798C210.555 21.5798 211.941 20.6891 211.941 20.6891C211.941 20.6891 210.676 22.827 211.218 25.5592C211.76 28.2914 213.568 29.0037 213.568 29.0037C213.568 29.0037 214.713 26.2715 216.7 26.2715C218.688 26.2715 219.412 28.3501 218.9 31.0823C218.387 33.8139 215.194 34.4675 215.194 34.4675L216.555 38.0622C216.555 38.0622 221.7 32.6266 222.303 26.6279C222.906 20.6298 219.833 18.8477 219.833 18.8477C219.833 18.8477 220.089 14.3932 214.057 12.8495C208.024 11.3058 204.048 11.4244 199.529 13.9781C199.529 13.9781 195.734 11.1273 192.54 12.8495C189.347 14.5717 190.251 18.254 191.817 19.2041C191.817 19.2041 188.745 19.9762 189.407 23.7178C190.069 27.4594 194.499 27.1667 194.499 27.1667L194.39 22.0565Z" fill="#00496A"/>
<path d="M206.195 45.5278C206.195 45.5278 214.307 43.4121 215.11 38.063C215.11 38.063 217.122 45.8189 206.195 48.4518C206.195 48.4518 206.519 46.1476 206.195 45.5278Z" fill="#D9D9D9"/>
<path opacity="0.42" d="M247.963 16.3058C249.088 9.51888 244.419 3.11773 237.534 2.00847C230.649 0.899204 224.155 5.50188 223.03 12.2888C221.904 19.0757 226.574 25.4769 233.459 26.5861C240.344 27.6954 246.837 23.0927 247.963 16.3058Z" fill="#071952"/>
<path d="M234.072 17.6487L234.027 17.0694C233.891 15.8666 234.298 14.5518 235.428 13.2154C236.445 12.0347 237.01 11.1655 237.01 10.1633C237.01 9.02701 236.287 8.26982 234.864 8.24765C234.05 8.24765 233.146 8.51483 232.581 8.93832L232.038 7.53482C232.784 7.00046 234.072 6.64404 235.27 6.64404C237.869 6.64404 239.044 8.22604 239.044 9.91889C239.044 11.4338 238.185 12.5252 237.101 13.7952C236.106 14.9537 235.745 15.9337 235.812 17.07L235.835 17.6493L234.072 17.6487ZM233.575 20.7678C233.575 19.9435 234.14 19.3643 234.931 19.3643C235.722 19.3643 236.264 19.9435 236.264 20.7678C236.264 21.5477 235.745 22.1491 234.909 22.1491C234.118 22.1491 233.575 21.5477 233.575 20.7678Z" fill="white"/>
<path d="M214.021 160.686C213.98 160.813 213.93 160.919 213.87 161.005C212.803 162.529 211.676 164.007 210.489 165.441H210.484C171.889 212.194 72.6318 212.194 72.6318 212.194V156.392H213.87C213.87 156.392 214.413 159.43 214.021 160.686Z" fill="#A6D6F7"/>
<path d="M214.021 160.686C213.98 160.812 213.93 160.918 213.87 161.004C212.803 162.529 211.677 164.007 210.489 165.44H210.484L72.6318 180.904V160.687H214.021V160.686Z" fill="#8CC6E5"/>
<path d="M137.463 116.918L130.63 124.057C130.63 124.057 129.23 122.638 127.555 120.465C126.756 119.423 125.896 118.209 125.103 116.895C124.063 115.177 123.129 113.292 122.595 111.402C120.795 105.055 121.532 91.6689 121.532 91.6689C121.532 91.6689 124.445 91.9794 125.44 93.0713C131.047 99.2241 137.463 116.918 137.463 116.918Z" fill="#E4973F"/>
<path d="M111.78 140.242H62.8558L58.3882 103.158C57.8748 98.9138 60.8787 95.048 65.1051 94.5081L68.0483 94.1295L105.431 89.3403L111.78 140.242Z" fill="#071952"/>
<path d="M99.8337 90.5664C99.8337 90.5664 83.9133 95.6133 83.0507 96.911C82.1881 98.2086 89.6631 121.208 89.6631 121.208L88.2258 140.242H120.642L122.275 122.078C122.275 122.078 125.745 118.324 125.96 112.124C126.176 105.923 121.53 91.67 121.53 91.67L110.219 90.2061L99.8337 90.5664Z" fill="#E4973F"/>
<path d="M104.391 54.8407C104.391 54.8407 93.2941 50.1374 85.4171 61.1121C77.5396 72.0869 85.6977 89.3402 85.6977 89.3402C85.6977 89.3402 105.798 86.7533 111.363 86.2245C116.927 85.6957 118.052 85.6957 118.052 85.6957C118.052 85.6957 120.919 68.363 114.801 61.9907C108.683 55.6173 104.391 54.8407 104.391 54.8407Z" fill="#00496A"/>
<path d="M108.52 97.6448L99.1514 91.3146C99.1514 91.3146 99.9217 88.8923 99.7306 86.47C99.6856 85.9323 99.5956 85.3946 99.4381 84.8847C99.3594 84.6297 99.2638 84.3802 99.1514 84.1363L108.52 83.6763C108.52 83.6763 108.581 84.4246 108.756 85.3891C108.896 86.1429 109.104 87.0298 109.419 87.8003C109.644 88.3713 109.925 88.8757 110.274 89.2249C111.709 90.6605 108.52 97.6448 108.52 97.6448Z" fill="white"/>
<path d="M109.42 87.8004C108.216 87.8392 103.049 87.9168 99.7309 86.4701C99.6859 85.9324 99.5959 85.3947 99.4385 84.8848C99.4385 84.8848 105.753 85.6442 108.756 85.3892C108.897 86.143 109.105 87.0299 109.42 87.8004Z" fill="#D9D9D9"/>
<path d="M113.79 59.0063L115.352 71.7332C115.352 71.7332 117.399 84.8476 106.663 86.1203C95.9274 87.3929 92.3184 75.1599 92.3184 75.1599L91.0498 61.6498C91.0498 61.6498 102.371 51.664 113.79 59.0063Z" fill="white"/>
<path d="M108.896 59.9927C108.896 59.9927 107.492 63.3978 102.873 65.8129C98.7778 67.9542 94.9355 68.5451 94.9355 68.5451C94.9355 68.5451 94.3191 72.1293 92.2453 74.3786C92.2453 74.3786 88.6588 67.6704 90.1226 61.894C91.5868 56.1181 99.1506 53.3277 105.787 53.9153C112.424 54.5029 114.815 56.9013 115.693 60.7194C116.572 64.5375 115.101 69.6903 115.101 69.6903C115.101 69.6903 113.693 61.1806 108.896 59.9927Z" fill="#00496A"/>
<path d="M91.0497 71.573C91.0497 71.573 89.7716 61.8943 97.3449 56.7547C102.276 53.4078 108.483 54.2986 108.483 54.2986C108.483 54.2986 104.567 51.3935 96.8568 54.7476C89.1463 58.1017 88.756 65.6857 89.5371 71.573H91.0497Z" fill="#68A8DE"/>
<path d="M74.015 140.242H62.8558L58.3882 103.158C57.8748 98.9136 60.8787 95.0479 65.1051 94.508L68.0483 94.1294L74.015 140.242Z" fill="#375C93"/>
<path d="M101.522 83.7886C96.4004 83.7886 92.5985 80.2738 92.4287 80.1141L93.1164 79.3774C93.1575 79.4162 97.313 83.241 102.508 82.7316L102.606 83.736C102.238 83.772 101.877 83.7886 101.522 83.7886Z" fill="#375C93"/>
<path d="M228.435 161.005H74.938C70.8326 161.005 66.9216 159.334 64.1893 156.413L55.759 147.401C52.4886 143.904 55.0921 138.366 60.0062 138.366H209.855C215.034 138.366 220.011 140.283 223.736 143.712L232.389 151.678C236.07 155.067 233.553 161.005 228.435 161.005Z" fill="#68A8DE"/>
<path d="M158.436 93.8013C158.16 93.9493 157.726 94.1992 157.254 94.477L157.163 94.3328C158.566 93.4509 160.646 92.0735 160.505 91.737C160.294 91.232 159.24 91.4959 158.457 91.915C158.004 92.1572 157.183 92.6383 156.392 93.11L156.335 93.0191C157.727 92.1516 160.051 90.6373 159.903 90.282C159.692 89.777 158.638 90.0408 157.854 90.4599C157.358 90.7254 156.419 91.2786 155.562 91.7908L155.495 91.6849C156.877 90.8063 158.678 89.5863 158.547 89.272C158.336 88.767 157.282 89.0309 156.499 89.4499C155.443 90.0153 152.376 91.885 152.376 91.885L150.142 92.6865C150.624 91.9144 151.98 89.0636 151.347 89.0636C150.715 89.0636 148.967 91.053 148.244 93.1023C147.703 94.6366 147.635 96.0046 147.634 96.595L128.062 121.112C128.062 121.112 128.525 121.83 129.226 122.784C131.256 125.553 135.985 126.162 138.715 124.057C140.871 122.395 142.574 120.199 144.241 117.956C147.382 113.73 152.066 102.52 153.167 99.836L157.597 95.743C158.811 94.9697 160.358 93.9166 160.244 93.6433C160.059 93.1982 159.128 93.431 158.436 93.8013Z" fill="white"/>
<path d="M106.946 144.327C106.946 144.327 109.236 145.99 110.14 148.246C111.043 150.503 105.259 151.956 95.6043 148.725C88.5793 146.374 100.44 139.16 106.946 144.327Z" fill="#00496A"/>
<path d="M103.31 84.3956H102.016C101.555 84.3956 101.181 84.0203 101.181 83.5574V82.7737C101.181 82.3108 101.555 81.9355 102.016 81.9355H103.31C103.772 81.9355 104.146 82.3108 104.146 82.7737V83.1656V83.5574C104.146 84.0203 103.772 84.3956 103.31 84.3956Z" fill="#00496A"/>
<path d="M96.5816 74.4432C97.2974 77.9702 95.435 81.3277 92.4221 81.9429C89.4092 82.5577 86.3868 80.1974 85.6715 76.6704C84.9562 73.1433 86.8181 69.7859 89.831 69.1706C92.8433 68.5559 95.8663 70.9161 96.5816 74.4432Z" fill="#071952"/>
<path d="M93.5456 75.0626C93.9679 77.1429 92.8691 79.124 91.0922 79.4866C89.3153 79.8496 87.5322 78.4572 87.1099 76.3763C86.6876 74.296 87.7863 72.3149 89.5633 71.9524C91.3402 71.5899 93.1233 72.9823 93.5456 75.0626Z" fill="#68A8DE"/>
<path d="M85.6723 95.522C85.6723 95.522 82.9378 95.9261 81.8283 97.6671C77.0733 105.129 67.8125 127.948 67.8125 127.948L76.7421 131.841C76.7421 131.841 88.4828 118.431 89.5608 112.051C90.6398 105.67 85.6723 95.522 85.6723 95.522Z" fill="#E4973F"/>
<path d="M75.8986 129.895L94.2268 141.647L91.639 147.306C91.639 147.306 75.1434 141.467 70.0764 137.681C65.0093 133.896 67.8125 127.948 67.8125 127.948C67.8125 127.948 70.6156 127.624 75.8986 129.895Z" fill="white"/>
<path d="M93.688 141.466C93.688 141.466 99.8695 141.178 102.097 141.178C104.325 141.178 108.207 144.783 107.776 145.936C107.344 147.09 102.888 143.557 102.888 143.557L102.637 144.026C102.637 144.026 106.59 146.405 106.805 147.306C107.021 148.207 106.123 148.063 104.829 147.522C103.535 146.982 101.594 145.756 101.594 145.756L101.379 146.008C101.379 146.008 105.117 148.279 105.117 149.108C105.117 149.937 102.421 149 100.445 147.702L100.193 148.099C100.193 148.099 102.637 149.324 102.817 150.118C102.997 150.911 101.667 150.586 100.193 149.901C98.7201 149.216 97.3543 149.144 95.4497 148.856C93.5451 148.568 91.2852 147.179 91.2852 147.179L93.688 141.466Z" fill="white"/>
<path d="M207.319 108.503L198.53 151.957H133.41L142.149 108.753C142.334 107.84 143.134 107.185 144.062 107.185H206.244C206.937 107.184 207.457 107.821 207.319 108.503Z" fill="#071952"/>
<path d="M133.41 151.957L115.52 146.221C114.888 146.018 114.46 145.437 114.46 144.782C114.46 143.947 115.147 143.27 115.995 143.27H135.167L133.41 151.957Z" fill="#00496A"/>
<path d="M86.4658 97.2876C86.4658 97.2876 90.4712 108.452 88.0437 116.115C88.0437 116.115 96.2316 107.144 86.4658 97.2876Z" fill="#C6606C"/>
<path d="M127.555 120.466C126.756 119.423 125.896 118.21 125.103 116.896C126.756 110.494 122.91 96.2368 122.91 96.2368C131.339 106.83 128.989 116.669 127.555 120.466Z" fill="#E39A50"/>
<path d="M146.068 109.762L198.529 151.957H138.716L146.068 109.762Z" fill="#375C93"/>
<path d="M177.599 136.654C180.27 135.57 181.545 132.557 180.445 129.923C179.346 127.289 176.289 126.032 173.618 127.116C170.946 128.199 169.671 131.213 170.771 133.847C171.87 136.48 174.927 137.737 177.599 136.654Z" fill="#A6D6F7"/>
<path d="M99.6697 88.7676L108.521 97.6448C108.521 97.6448 106.985 99.7855 104.43 99.7262C101.874 99.6669 100.438 96.4647 99.7153 94.7984C98.9921 93.1327 97.5166 91.3146 97.5166 91.3146L99.6697 88.7676Z" fill="#FFA9B3"/>
<path d="M108.52 97.6444C108.52 97.6444 110.8 99.0119 113.029 98.0618C115.258 97.1117 114.656 95.6595 113.873 94.1285C113.09 92.5975 112.246 89.8658 112.246 89.8658L109.705 88.4219C109.705 88.4219 110.155 94.2576 108.52 97.6444Z" fill="#FFA9B3"/>
<path d="M122.167 114.791L99.8643 116.917C99.8643 116.917 104.865 120.452 112.563 119.383C120.262 118.314 122.167 114.791 122.167 114.791Z" fill="#C6606C"/>
<path opacity="0.42" d="M72.3166 43.3081H31.9859C29.415 43.3081 27.3311 45.3624 27.3311 47.8967V58.4346C27.3311 60.9689 29.415 63.0231 31.9859 63.0231H65.9596L76.972 69.2979V63.0231V59.9894V47.8967C76.9715 45.3624 74.8875 43.3081 72.3166 43.3081Z" fill="#071952"/>
<path d="M30.4307 48.0757H72.4427" stroke="white" stroke-miterlimit="10" stroke-linecap="round" stroke-linejoin="round"/>
<path d="M30.4307 53.1313H72.4427" stroke="white" stroke-miterlimit="10" stroke-linecap="round" stroke-linejoin="round"/>
<path d="M30.4307 58.1865H72.4427" stroke="white" stroke-miterlimit="10" stroke-linecap="round" stroke-linejoin="round"/>
<path d="M74.6256 165.838C75.6811 157.236 68.7938 158.529 64.0832 163.066C59.3732 167.604 54.7555 165.07 59.98 156.593C65.2045 148.116 69.0305 145.508 68.3068 141.24C67.5831 136.972 63.8066 138.838 57.273 142.388C50.7394 145.939 56.9142 136.67 56.4205 127.877C55.9274 119.085 47.0703 123.478 46.3257 130.879C45.5812 138.28 48.9338 146.567 44.6354 144.923C40.3371 143.278 37.7374 133.448 33.8288 138.089C29.9201 142.73 44.8615 158.464 44.3593 163.215C43.8572 167.966 33.1079 153.489 30.0196 158.256C26.9314 163.022 40.2926 194.852 51.8595 193.96C66.5546 192.827 73.5707 174.439 74.6256 165.838Z" fill="#E4973F"/>
<path d="M50.815 131.913C50.815 131.913 48.9678 141.866 49.7067 154.49C50.4456 167.115 52.1196 198.878 52.1196 198.878" stroke="#ED893E" stroke-miterlimit="10"/>
<path d="M38.2549 144.425C38.2549 144.425 46.7437 154.356 49.8263 156.547C49.8263 156.547 60.7898 146.134 62.8833 144.425" stroke="#ED893E" stroke-miterlimit="10"/>
<path d="M33.2402 164.31C33.2402 164.31 46.0049 176.967 50.996 177.807L69.7786 165.395" stroke="#ED893E" stroke-miterlimit="10"/>
<path d="M46.8422 189.071C46.8422 189.071 52.3748 177.011 49.394 170.532C46.4131 164.052 42.1389 167.854 40.7967 173.019C39.4544 178.183 35.1178 178.346 35.1167 170.201C35.1156 162.056 36.6721 158.617 34.3176 155.926C31.9632 153.235 30.1205 156.132 27.0716 161.371C24.0227 166.61 24.3455 157.509 20.1955 151.546C16.0451 145.583 11.7304 152.39 14.4098 157.896C17.0893 163.403 23.0274 167.809 19.2998 168.462C15.5722 169.116 9.49404 163.31 8.75909 168.21C8.02414 173.11 25.3166 177.87 27.0198 181.415C28.7231 184.96 14.9159 179.32 14.8113 183.963C14.7062 188.606 30.7722 196.756 38.0447 195.543C45.3166 194.33 46.8422 189.071 46.8422 189.071Z" fill="#FAAF86"/>
<path d="M17.6895 155.167C17.6895 155.167 38.7466 188.52 43.1799 198.878" stroke="#ED893E" stroke-miterlimit="10"/>
<path d="M14.2412 170.999L29.0516 173.601L32.0971 161.045" stroke="#ED893E" stroke-miterlimit="10"/>
<path d="M22.0693 185.978L37.8913 188.678L44.412 174.52" stroke="#ED893E" stroke-miterlimit="10"/>
<path d="M37.4336 198.878H64.1966L61.8979 212.194H40.2249L37.4336 198.878Z" fill="#375C93"/>
<path d="M64.5239 202.561H37.3532C36.3551 202.561 35.5459 201.763 35.5459 200.779V199.366C35.5459 198.382 36.3551 197.584 37.3532 197.584H64.5239C65.522 197.584 66.3312 198.382 66.3312 199.366V200.779C66.3312 201.762 65.522 202.561 64.5239 202.561Z" fill="#071952"/>
<path opacity="0.42" d="M161.264 213.656C171.526 213.656 179.845 205.455 179.845 195.339C179.845 185.223 171.526 177.022 161.264 177.022C151.002 177.022 142.683 185.223 142.683 195.339C142.683 205.455 151.002 213.656 161.264 213.656Z" fill="#071952"/>
<path d="M172.939 188.573H149.588C148.949 188.573 148.431 189.084 148.431 189.715V202.399C148.431 203.029 148.949 203.54 149.588 203.54H172.939C173.579 203.54 174.097 203.029 174.097 202.399V189.715C174.097 189.084 173.578 188.573 172.939 188.573ZM173.285 190.403L162.32 197.47C162.227 197.53 162.119 197.561 162.012 197.561C161.918 197.561 161.823 197.537 161.737 197.49L148.964 190.422C148.693 190.272 148.597 189.935 148.749 189.668C148.901 189.401 149.245 189.306 149.514 189.456L161.99 196.358L172.669 189.475C172.928 189.307 173.278 189.379 173.448 189.636C173.619 189.892 173.546 190.236 173.285 190.403Z" fill="white"/>
<path d="M175.607 193.363C179.41 193.363 182.493 190.324 182.493 186.575C182.493 182.826 179.41 179.787 175.607 179.787C171.804 179.787 168.721 182.826 168.721 186.575C168.721 190.324 171.804 193.363 175.607 193.363Z" fill="#FFA9B3"/>
</svg>
