<svg width="186" height="177" viewBox="0 0 186 177" fill="none" xmlns="http://www.w3.org/2000/svg">
<path d="M92.5396 176.256C143.648 176.256 185.079 173.673 185.079 170.486C185.079 167.299 143.648 164.716 92.5396 164.716C41.4314 164.716 0 167.299 0 170.486C0 173.673 41.4314 176.256 92.5396 176.256Z" fill="#F5F5F5"/>
<path d="M65.5196 19.3564C61.8035 22.6288 58.1699 27.9033 60.3005 33.615C62.4306 39.3262 76.0651 39.9117 78.9193 37.556C82.642 34.4833 79.3517 20.8845 76.4503 20.805C76.2236 15.7655 68.6281 16.619 65.5196 19.3564Z" fill="#263238"/>
<path d="M60.3125 74.4673C60.3125 74.4673 61.8069 103.478 63.4511 119.189C63.621 133.939 66.7754 167.266 66.7754 167.266H70.2619C70.849 150.732 75.1617 135.292 72.2961 120.707C79.0009 92.0697 74.4018 74.4841 74.4018 74.4841L60.3125 74.4673Z" fill="#FFB573"/>
<path d="M64.1113 74.4841C64.1113 74.4841 71.2944 106.662 73.2637 120.375C75.3317 134.776 78.4145 162.721 78.2713 167.266H81.2863C81.2863 167.266 86.3445 138.997 81.6624 120.875C85.5241 80.1281 75.9951 74.4836 75.9951 74.4836L64.1113 74.4841Z" fill="#FFB573"/>
<path d="M46.8864 37.2595C46.6601 35.5254 43.6738 35.3771 43.6738 35.3771L42.2338 34.6062C41.6329 34.2841 40.9805 34.4395 40.6932 34.9726L40.2374 35.8179C39.919 36.408 40.1548 37.2549 40.7686 37.7262L41.2029 38.0605C41.9403 38.6271 42.8147 38.9558 43.722 39.0063L45.0436 39.0801C45.3462 39.097 45.6359 39.0587 45.9022 38.9706C46.5804 38.7459 46.9909 38.009 46.8864 37.2595Z" fill="#FFB573"/>
<path d="M62.6238 47.4298C62.4429 47.6245 62.3446 47.7208 62.2105 47.8528L61.8358 48.2054C61.5862 48.4316 61.3304 48.6411 61.075 48.8485C60.561 49.2566 60.035 49.6363 59.4962 49.9904C58.4156 50.6941 57.2739 51.2765 56.0998 51.7637C53.7545 52.7502 51.2344 53.244 48.7373 53.2817L48.6786 53.2832L48.5177 53.2817C48.4027 53.2766 48.2896 53.274 48.1755 53.2516C47.9436 53.2159 47.7259 53.1497 47.5198 53.061C47.116 52.8822 46.8115 52.6376 46.5747 52.4011C46.1251 51.9293 45.8903 51.489 45.7094 51.0962C45.3596 50.3079 45.1906 49.6184 45.0455 48.9422C44.7658 47.598 44.6623 46.3231 44.5811 45.0558C44.4456 42.5207 44.5124 40.0549 44.7248 37.556C44.7778 36.9287 45.2975 36.4666 45.8851 36.5231C46.3977 36.5731 46.7929 37.0011 46.8497 37.5264L46.8525 37.554C47.1112 39.9296 47.4057 42.3398 47.7947 44.6481C47.987 45.7992 48.2266 46.9406 48.5263 47.9557C48.6743 48.4561 48.8585 48.9341 49.0327 49.2301C49.1143 49.3774 49.2017 49.4508 49.1654 49.4003C49.1411 49.3667 49.0733 49.2984 48.9344 49.2347C48.8623 49.2001 48.7817 49.1751 48.692 49.1588C48.6476 49.1557 48.6065 49.1435 48.5626 49.144L48.5087 49.145L48.5574 49.1399C49.5888 49.0431 50.6059 48.8546 51.6034 48.5983C52.5966 48.3226 53.5726 47.9832 54.5157 47.5598C55.4608 47.1399 56.3647 46.6201 57.2305 46.0499C57.6644 45.7666 58.0858 45.4634 58.4881 45.1455C58.6881 44.986 58.8833 44.8209 59.0728 44.6578L59.3477 44.4147L59.5606 44.2145L59.6828 44.0993C60.5715 43.2631 61.9265 43.3548 62.7097 44.3031C63.4586 45.2122 63.4075 46.5814 62.6238 47.4298Z" fill="#FFB573"/>
<path d="M64.9713 41.7722C61.1945 41.0996 57.2326 43.84 55.1803 46.0724C54.1246 49.4784 57.5152 53.6135 57.5152 53.6135C57.5152 53.6135 62.35 50.443 64.0945 48.2784C65.8394 46.1132 67.1467 42.1595 64.9713 41.7722Z" fill="#E0E0E0"/>
<path d="M76.6665 74.0989C76.6665 74.0989 81.9929 78.1291 83.01 91.5515C83.41 96.8321 84.1307 117.913 85.6499 126.985C80.1845 131.154 63.8228 130.585 61.2598 128.145C61.9824 109.806 55.4175 85.4709 60.1783 74.2834C68.0501 73.2495 76.6665 74.0989 76.6665 74.0989Z" fill="#263238"/>
<path opacity="0.2" d="M71.2601 112.576C71.3345 104.864 70.2688 94.2552 67.0361 87.9688C68.1415 95.815 71.2601 112.576 71.2601 112.576Z" fill="black"/>
<path d="M57.665 47.9883C57.6698 52.3532 54.4033 54.6493 58.0946 58.0099C58.3113 61.7827 58.5829 68.5334 59.6524 74.6844C60.7741 76.3507 68.9766 76.2172 77.4937 74.2385C76.384 68.9681 76.7916 60.3774 79.7097 48.6268C80.3865 45.9027 78.6888 43.0985 76.0633 42.6048C75.3617 42.4728 74.6176 42.35 73.8549 42.2496C70.8886 41.8598 68.4573 41.5642 65.8309 41.6096C64.9603 41.6249 64.0592 41.6702 63.1977 41.7298C60.0896 41.9449 57.6617 44.6583 57.665 47.9883Z" fill="#E0E0E0"/>
<path d="M78.6207 72.3006L68.6197 74.719C68.2393 74.8108 67.8613 74.5565 67.7754 74.1504L64.5371 58.8848C64.4512 58.4787 64.6893 58.0751 65.0697 57.9834L75.0706 55.565C75.451 55.4728 75.8291 55.7276 75.915 56.1337L79.1533 71.3992C79.2392 71.8053 79.0006 72.2089 78.6207 72.3006Z" fill="#071952"/>
<path d="M66.7975 47.2391C66.7975 47.2391 65.1815 49.3064 63.8436 49.7977L63.6904 50.8239C66.588 50.3923 68.0972 48.3994 68.0972 48.3994L66.7975 47.2391Z" fill="#071952"/>
<path d="M62.4049 45.9898C62.4049 45.9898 62.3342 48.6819 63.0325 49.995L62.5108 50.8725C60.6065 48.501 60.711 45.9409 60.711 45.9409L62.4049 45.9898Z" fill="#071952"/>
<path d="M73.5288 32.5566C72.8893 35.268 72.139 40.2694 73.8562 42.2496C73.8562 42.2496 67.4602 44.1156 63.2873 50.2294C61.3997 43.8032 65.8322 41.6101 65.8322 41.6101C68.7465 41.1071 68.7827 38.8248 68.3852 36.6464L73.5288 32.5566Z" fill="#FFB573"/>
<path opacity="0.2" d="M71.4318 34.2255L68.3877 36.6439C68.4836 37.1595 68.5519 37.6803 68.5614 38.1817C69.6697 38.1002 71.2428 36.9338 71.4194 35.7159C71.5067 35.108 71.5115 34.518 71.4318 34.2255Z" fill="black"/>
<path d="M76.4962 27.7269C75.2715 32.1214 74.84 34.0114 72.2589 35.7373C68.3762 38.334 63.6521 35.6634 63.6378 30.9417C63.6249 26.6915 65.6294 20.219 70.0524 19.5372C74.4105 18.8651 77.7209 23.3324 76.4962 27.7269Z" fill="#FFB573"/>
<path d="M73.2902 21.312C72.1295 25.5465 73.1232 29.9991 75.4914 30.5046C78.7794 29.1955 78.6147 25.2953 77.7776 23.5118C76.9404 21.7288 73.9589 18.8727 73.2902 21.312Z" fill="#263238"/>
<path d="M75.0889 28.9174C73.2613 29.5691 72.9062 30.8787 72.9062 30.8787C72.9062 30.8787 74.162 29.9294 75.3643 30.1067C75.0745 29.4896 75.0889 28.9174 75.0889 28.9174Z" fill="#263238"/>
<path d="M70.5207 27.3147C70.4415 27.678 70.1962 27.9236 69.9723 27.863C69.7485 27.8024 69.6311 27.4584 69.7103 27.0951C69.7895 26.7318 70.0348 26.4862 70.2587 26.5468C70.4825 26.6074 70.5999 26.9514 70.5207 27.3147Z" fill="#263238"/>
<path d="M66.2971 26.2374C66.2178 26.6008 65.9725 26.8464 65.7487 26.7857C65.5248 26.7251 65.4074 26.3811 65.4866 26.0178C65.5659 25.6545 65.8112 25.4089 66.035 25.4695C66.2589 25.5302 66.3763 25.8741 66.2971 26.2374Z" fill="#263238"/>
<path d="M66.1278 25.5164L65.3604 25.042C65.3604 25.042 65.6338 25.8379 66.1278 25.5164Z" fill="#263238"/>
<path d="M67.0896 26.8296C67.0896 26.8296 66.168 28.2365 65.3643 28.8179C65.7189 29.3881 66.5317 29.3917 66.5317 29.3917L67.0896 26.8296Z" fill="#ED893E"/>
<path d="M76.5183 32.1352C75.9231 32.8578 75.1323 33.1758 74.4707 33.1579C73.4756 33.1309 73.3028 31.907 73.8517 30.9006C74.3452 29.9951 75.4578 28.9174 76.3259 29.432C77.1807 29.9395 77.1989 31.3092 76.5183 32.1352Z" fill="#FFB573"/>
<path d="M71.3191 25.7539C71.2694 25.7285 71.2294 25.6821 71.2103 25.622C70.9163 24.6839 70.1836 24.4546 70.175 24.452C70.0662 24.4184 69.9984 24.2971 70.0271 24.1799C70.0557 24.0627 70.1679 23.9949 70.2786 24.0281C70.3173 24.0398 71.237 24.3272 71.6016 25.491C71.6379 25.6072 71.5797 25.7305 71.4718 25.7667C71.4198 25.784 71.3654 25.7784 71.3191 25.7539Z" fill="#263238"/>
<path d="M64.7505 24.0693C64.6995 24.0704 64.647 24.051 64.6059 24.0112C64.5205 23.9287 64.5124 23.7891 64.5878 23.6999C65.3424 22.8051 66.2869 22.9631 66.327 22.9707C66.4396 22.9911 66.5179 23.1047 66.5012 23.2245C66.485 23.3442 66.3804 23.4247 66.2678 23.4049C66.2311 23.3982 65.4975 23.2866 64.8971 23.9985C64.8584 24.0444 64.8049 24.0683 64.7505 24.0693Z" fill="#263238"/>
<path d="M70.3534 26.5937L69.5859 26.1193C69.5859 26.1193 69.8594 26.9152 70.3534 26.5937Z" fill="#263238"/>
<path d="M70.0838 62.7728L66.3057 61.984L66.7347 66.6664C66.7347 66.6664 69.5798 66.5344 71.2326 65.1265L71.3854 64.512C71.1887 63.5132 70.9749 63.1438 70.0838 62.7728Z" fill="#FFB573"/>
<path d="M63.9913 63.9851L64.4366 65.9652C64.5698 66.5573 65.1067 66.9405 65.6699 66.8458L66.7352 66.6664L66.3061 61.984L64.6805 62.6159C64.1584 62.8187 63.8615 63.4082 63.9913 63.9851Z" fill="#FFB573"/>
<path d="M78.6464 46.0215C79.8229 48.4317 80.8065 50.8267 81.6738 53.3582C82.1052 54.6178 82.509 55.8999 82.835 57.2288C83.161 58.5598 83.4406 59.9254 83.5533 61.4062C83.5824 61.7762 83.5962 62.1578 83.5991 62.5461L83.5981 62.6827L83.5853 62.9044C83.5757 63.0501 83.5452 63.2009 83.5103 63.3487C83.4397 63.6397 83.3194 63.9189 83.1853 64.1406C82.9113 64.5956 82.6025 64.8667 82.3362 65.0659C81.806 65.441 81.3745 65.5898 80.9793 65.7126C80.5836 65.8308 80.2204 65.9031 79.8682 65.9597C78.4712 66.1758 77.2078 66.1564 75.9426 66.1161C73.4235 66.0025 70.9951 65.6698 68.5528 65.1714C67.9734 65.0532 67.593 64.456 67.7037 63.8374C67.8001 63.2977 68.2383 62.9202 68.7328 62.9105L68.7571 62.91C71.1397 62.8626 73.5566 62.7968 75.8824 62.6052C77.037 62.5079 78.2025 62.3668 79.1909 62.1181C79.4334 62.0549 79.6615 61.982 79.8434 61.9046C80.0247 61.8327 80.1608 61.7349 80.1297 61.7415C80.1083 61.7517 80.0262 61.7996 79.9121 61.98C79.8596 62.0661 79.8004 62.194 79.7661 62.3291C79.746 62.3973 79.7393 62.4707 79.7288 62.5349C79.725 62.568 79.7226 62.6017 79.7226 62.6353L79.7236 62.6756L79.7217 62.6511C79.7026 62.3928 79.6782 62.1293 79.6401 61.8562C79.3255 59.6533 78.538 57.2767 77.699 54.9735C76.8336 52.6743 75.8428 50.338 74.8338 48.1326L74.8133 48.0872C74.2931 46.9494 74.735 45.5766 75.8008 45.0207C76.8475 44.4749 78.1099 44.9249 78.6464 46.0215Z" fill="#FFB573"/>
<path d="M76.33 42.7662C79.0653 43.3063 80.2838 45.9275 82.265 51.1648C81.6402 54.69 76.7968 56.5494 76.7968 56.5494C76.7968 56.5494 74.0099 51.2728 73.4677 48.4763C72.926 45.6798 73.5522 42.2174 76.33 42.7662Z" fill="#E0E0E0"/>
<path d="M70.532 167.291C70.51 167.171 70.3797 167.085 70.2184 167.083L66.9781 167.032C66.6374 167.028 66.2532 167.068 66.0016 167.253C65.0418 167.959 63.3045 168.765 61.1243 169.113C60.4351 169.223 60.7477 170.463 62.3686 170.483C65.049 170.514 65.5344 170.298 67.8196 170.325C69.7741 170.349 68.8419 170.444 70.395 170.483C70.7668 170.492 71.0718 170.234 71.0212 169.958L70.532 167.291Z" fill="#263238"/>
<path d="M81.6958 167.291C81.6714 167.171 81.5392 167.085 81.3779 167.083L78.7404 167.032C78.3996 167.028 78.0159 167.068 77.7682 167.253C76.8222 167.959 76.9444 168.765 74.7709 169.113C74.0841 169.223 74.421 170.463 76.0424 170.483C78.7232 170.514 78.5595 170.325 79.6473 170.325C80.7412 170.325 80.0687 170.444 81.6223 170.483C81.9945 170.492 82.2943 170.234 82.2379 169.958L81.6958 167.291Z" fill="#263238"/>
<path d="M65.0381 48.0229C66.3945 48.0871 68.8811 49.2698 69.6753 50.5412C70.8041 49.2917 75.2023 46.3913 75.281 42.4641C74.294 41.5046 73.3304 41.3925 73.3304 41.3925C73.3304 41.3925 67.4598 44.4279 65.0381 48.0229Z" fill="#FAFAFA"/>
<path d="M62.84 47.8216C62.84 47.8216 62.4754 44.647 66.0717 41.5626C65.7114 41.2447 64.29 41.6049 64.29 41.6049C64.29 41.6049 60.0823 43.5352 60.2078 48.5335C61.5142 47.5291 62.84 47.8216 62.84 47.8216Z" fill="#FAFAFA"/>
<path d="M62.3073 49.1639C61.7861 49.4227 61.5823 51.2317 62.3073 51.6561C63.0323 52.0811 62.9621 50.3532 63.3831 49.7585C63.8041 49.1639 63.2194 48.7109 62.3073 49.1639Z" fill="#071952"/>
<path d="M62.9315 49.8706C62.5596 50.3827 63.0403 52.1127 63.8459 52.1035C64.6511 52.0943 63.9547 50.584 64.1137 49.8247C64.2721 49.065 63.5825 48.9738 62.9315 49.8706Z" fill="#071952"/>
<path d="M63.0581 51.1568C62.1656 49.6867 62.0931 57.4458 64.2628 60.5022C64.1201 57.4907 65.6331 53.219 63.0581 51.1568Z" fill="#071952"/>
<path d="M62.9754 51.0915C62.5802 49.5929 60.6052 56.1581 61.6934 59.3628C62.3149 56.7666 64.6526 53.566 62.9754 51.0915Z" fill="#071952"/>
<path d="M69.6251 30.7951C69.8208 30.7038 70.0198 30.5897 70.2203 30.447C70.2742 30.4083 70.2847 30.3314 70.2442 30.2748C70.2036 30.2187 70.1282 30.2035 70.0723 30.2427C68.6123 31.2853 67.1557 30.7049 67.1409 30.6993C67.0769 30.6728 67.0068 30.7028 66.9838 30.7655C66.9609 30.8287 66.9939 30.901 67.0574 30.9275C67.1137 30.95 68.2864 31.4183 69.6251 30.7951Z" fill="#263238"/>
<path d="M55.7783 34.3859H31.3936V35.2322H55.7783V34.3859Z" fill="#071952"/>
<path d="M55.1977 35.2324H31.9766L32.9989 35.8235H54.1759L55.1977 35.2324Z" fill="#071952"/>
<path opacity="0.2" d="M55.1977 35.2324H31.9766L32.9989 35.8235H54.1759L55.1977 35.2324Z" fill="black"/>
<path d="M39.2058 11.7293C38.909 11.7293 38.666 11.4699 38.666 11.1529V9.21914C38.666 8.90219 38.909 8.64282 39.2058 8.64282C39.5027 8.64282 39.7456 8.90219 39.7456 9.21914V11.1529C39.7456 11.4699 39.5027 11.7293 39.2058 11.7293Z" fill="#263238"/>
<path d="M38.3369 9.10491V8.84606C38.3369 8.60045 38.5254 8.39917 38.7555 8.39917H39.6566C39.8866 8.39917 40.0752 8.60045 40.0752 8.84606V9.10491C40.0752 9.35052 39.8866 9.55181 39.6566 9.55181H38.7555C38.525 9.55181 38.3369 9.35052 38.3369 9.10491Z" fill="#263238"/>
<path d="M40.0701 15.9199V10.411C40.0701 10.2867 39.9756 10.1858 39.8592 10.1858H38.5533C38.4369 10.1858 38.3424 10.2867 38.3424 10.411V15.9199C38.3424 16.7576 38.0078 17.5561 37.4227 18.1146C36.8375 18.6731 36.5029 19.4711 36.5029 20.3093V34.4395H41.9086V20.3088C41.9086 19.4711 41.574 18.6726 40.9889 18.1146C40.4042 17.5556 40.0701 16.7576 40.0701 15.9199Z" fill="#071952"/>
<path d="M41.9089 21.9817H38.3369V31.1177H41.9089V21.9817Z" fill="#E0E0E0"/>
<path d="M46.9778 34.386H46.332C46.332 34.386 46.6222 34.4109 46.9778 34.386Z" fill="#071952"/>
<path d="M50.8665 34.386H50.2207C50.5763 34.4109 50.8665 34.386 50.8665 34.386Z" fill="#071952"/>
<path opacity="0.2" d="M46.1162 23.599V25.9196C46.1162 27.7657 47.098 29.2969 48.3461 29.4819C48.3461 30.6743 48.3461 32.8135 48.3461 33.5396C48.3461 34.1699 47.7719 34.3447 47.3285 34.386H48.6H49.8715C49.4281 34.3442 48.8539 34.1694 48.8539 33.5396C48.8539 32.8135 48.8539 30.6743 48.8539 29.4819C50.1015 29.2969 51.0833 27.7657 51.0833 25.9196V23.599H46.1162Z" fill="#071952"/>
<path d="M75.6874 21.4314C73.7925 22.2941 67.3836 22.5621 64.876 21.9817C67.4671 18.0698 73.2909 16.9248 75.6874 21.4314Z" fill="#263238"/>
<path d="M81.7058 35.3923C81.6685 35.3923 81.6313 35.3735 81.6084 35.3383C81.5483 35.2471 80.1374 33.0361 80.1093 27.1144C80.0978 24.6466 79.3996 22.6557 78.1939 21.6524C77.509 21.0822 76.7258 20.8927 75.9311 21.1016C75.8677 21.1189 75.8023 21.0766 75.7865 21.0083C75.7713 20.94 75.8099 20.8707 75.8744 20.8539C76.733 20.6287 77.6074 20.8407 78.3405 21.4511C79.6043 22.5029 80.336 24.5666 80.3479 27.1129C80.3756 32.9408 81.7893 35.1701 81.8036 35.1921C81.8413 35.2496 81.828 35.3291 81.7745 35.3694C81.753 35.3847 81.7292 35.3923 81.7058 35.3923Z" fill="#263238"/>
<path d="M116.052 5.39172C117.382 7.33775 117.38 10.3737 116.922 12.0298C114.543 10.8701 114.91 7.54973 114.91 7.54973L116.052 5.39172Z" fill="#263238"/>
<path d="M123.186 29.4833L124.561 31.0987L125.985 32.7395C126.936 33.8279 127.908 34.8857 128.875 35.9039C129.36 36.4124 129.85 36.9041 130.341 37.3704C130.826 37.8463 131.314 38.3013 131.796 38.71C132.276 39.1238 132.761 39.4902 133.197 39.8066C133.628 40.1139 134.042 40.3411 134.248 40.442L133.514 40.3197C133.088 40.3131 132.893 40.4487 132.897 40.4629C132.888 40.4899 133.011 40.4522 133.171 40.362C133.5 40.1771 133.955 39.799 134.398 39.3638C135.296 38.4715 136.242 37.3627 137.136 36.1897C138.046 35.0213 138.934 33.7805 139.818 32.5214C140.702 31.2699 141.583 29.9542 142.45 28.7073L142.492 28.6466C143.201 27.628 144.549 27.416 145.503 28.1727C146.257 28.771 146.537 29.7988 146.272 30.7048C145.787 32.3568 145.223 33.8901 144.6 35.4498C143.974 36.9989 143.28 38.525 142.498 40.0436C141.694 41.5524 140.843 43.0648 139.694 44.5644C139.107 45.316 138.471 46.0753 137.573 46.8452C137.12 47.2294 136.592 47.6177 135.887 47.9642C135.198 48.3031 134.245 48.6287 133.06 48.5869C132.876 48.5803 132.696 48.5553 132.523 48.514L132.325 48.4646C131.104 48.163 130.169 47.7222 129.31 47.2707C128.46 46.8177 127.714 46.3117 126.998 45.8062C125.57 44.7922 124.31 43.7104 123.113 42.5883C121.908 41.4764 120.794 40.307 119.709 39.1182C119.173 38.5169 118.639 37.9182 118.127 37.2955C117.601 36.6682 117.125 36.0674 116.589 35.3576C115.1 33.3861 115.389 30.4989 117.236 28.9091C119.012 27.3788 121.584 27.6071 123.102 29.3835L123.186 29.4833Z" fill="#E0E0E0"/>
<path d="M144.597 31.4386L148.848 31.6546L147.47 25.5505C147.47 25.5505 143.514 25.8609 142.879 28.0357C142.809 28.2742 142.829 28.534 142.92 28.7644L143.701 30.7675C143.853 31.1573 144.202 31.4182 144.597 31.4386Z" fill="#FF8B7B"/>
<path d="M152.643 28.0277L151.822 25.9756C151.495 25.1588 150.662 24.7145 149.854 24.9259L147.47 25.5507L148.848 31.6547L151.714 30.4236C152.598 30.0435 153.017 28.9627 152.643 28.0277Z" fill="#FF8B7B"/>
<path d="M113.131 116.115C108.613 94.9125 105.825 69.3491 105.825 69.3491L124.337 69.0302C124.337 69.0302 124.077 103.485 124.12 117.917C124.167 132.922 125.141 165.946 125.141 165.946H119.522C119.522 165.946 112.271 134.667 113.131 116.115Z" fill="#263238"/>
<path d="M111.688 86.8629L108.761 91.4984C109.631 97.2866 110.681 103.661 111.877 109.911C112.383 100.308 112.296 89.1575 111.688 86.8629Z" fill="black"/>
<path d="M132.642 168.885C132.642 168.885 124.905 166.938 124.321 165.633H120.013L120.042 170.487H122.694L123.102 170.04L123.775 170.487C125.923 170.487 131.631 170.398 132.98 169.88C133.021 169.145 132.642 168.885 132.642 168.885Z" fill="#263238"/>
<path d="M95.9078 115.518C98.0551 94.1965 97.9854 79.9485 100.597 69.4393L117.454 69.1687C117.454 69.1687 110.435 102.995 107.175 117.081C103.901 131.22 98.3343 165.946 98.3343 165.946H93.1305C93.1305 165.946 91.4939 132.012 95.9078 115.518Z" fill="#263238"/>
<path d="M99.2602 73.594C98.8888 76.152 97.5634 91.2127 96.1846 96.7043C107.427 102.026 124.61 99.9313 125.14 96.478C124.98 90.0799 124.663 73.594 124.663 73.594H99.2602Z" fill="#E0E0E0"/>
<path opacity="0.1" d="M99.8838 76.3923C100.759 78.1335 102.708 80.0867 102.708 80.0867C102.708 80.0867 100.282 79.6199 99.8838 76.3923Z" fill="black"/>
<path opacity="0.1" d="M122.479 79.9425C123.281 78.8704 124.037 76.6456 124.037 76.6456C124.037 76.6456 124.146 79.2475 122.479 79.9425Z" fill="black"/>
<path opacity="0.1" d="M99.9915 78.3134C100.239 79.5939 101.131 81.2255 101.131 81.2255C101.131 81.2255 99.6741 80.4413 99.9915 78.3134Z" fill="black"/>
<path d="M103.184 168.885C103.184 168.885 98.3576 166.938 97.8049 165.633H93.4965L93.4082 170.487H96.9248L97.3434 170.04L98.0049 170.487C100.154 170.487 102.135 170.398 103.497 169.88C103.557 169.145 103.184 168.885 103.184 168.885Z" fill="#263238"/>
<path d="M99.9785 26.8985C105.931 26.1097 114.439 26.1821 120.142 27.2333C123.046 27.7683 125.339 30.3315 125.744 33.4367C126.945 42.6308 125.913 58.705 125.146 74.8832C112.12 79.642 98.3738 74.819 98.3738 74.819C97.8999 71.5537 98.9666 60.8605 99.683 55.1503C98.6082 49.2552 96.3277 42.505 94.8214 34.676C94.0898 30.8741 96.4323 27.3683 99.9785 26.8985Z" fill="#263238"/>
<path opacity="0.1" d="M99.9785 26.8985C105.931 26.1097 114.439 26.1821 120.142 27.2333C123.046 27.7683 125.339 30.3315 125.744 33.4367C126.945 42.6308 125.913 58.705 125.146 74.8832C112.12 79.642 98.3738 74.819 98.3738 74.819C97.8999 71.5537 98.9666 60.8605 99.683 55.1503C98.6082 49.2552 96.3277 42.505 94.8214 34.676C94.0898 30.8741 96.4323 27.3683 99.9785 26.8985Z" fill="white"/>
<path d="M105.869 14.754L112.648 20.6899C111.771 23.1802 111.492 25.7739 115.321 26.7716C116.279 28.1219 114.86 30.4884 113.143 31.4137C109.125 30.4318 106.808 29.2817 105.25 26.9953C105.741 25.2011 106.526 18.4382 105.869 14.754Z" fill="#FF8B7B"/>
<path opacity="0.2" d="M108.695 17.2305L112.645 20.6868C112.432 21.2835 112.258 21.8858 112.17 22.4708C110.639 22.5875 108.51 20.9325 108.413 19.4415C108.363 18.6873 108.544 17.581 108.695 17.2305Z" fill="black"/>
<path d="M104.897 10.7055C105.516 15.2457 105.661 17.9387 108.005 20.0697C111.53 23.2754 116.649 20.6649 117.315 16.007C117.915 11.8143 116.803 5.09414 112.473 3.68876C108.207 2.30427 104.279 6.16575 104.897 10.7055Z" fill="#FF8B7B"/>
<path d="M104.859 12.8043C104.859 12.8043 106.238 14.5221 108.377 13.7664C107.357 12.6606 108.349 8.61317 107.326 6.96727C109.305 7.38308 116.995 8.57699 117.732 5.72801C118.529 2.64566 115.336 0.229304 113.563 0C114.087 1.27595 114.035 2.19724 112.083 1.78297C110.131 1.36869 102.067 -0.615552 102.952 3.42224C100.354 3.42886 100.178 7.4585 102.076 9.38975C103.972 11.3215 104.859 12.8043 104.859 12.8043Z" fill="#263238"/>
<path d="M103.426 3.21191C101.871 2.8007 102.357 1.272 102.709 1.11353C101.25 1.48856 100.723 3.01675 102.479 3.72352C104.235 4.43028 103.426 3.21191 103.426 3.21191Z" fill="#263238"/>
<path d="M103.698 13.4979C104.002 14.5771 104.748 15.4031 105.524 15.8245C106.69 16.4589 107.542 15.4138 107.442 14.0966C107.353 12.9108 106.638 11.1523 105.359 11.0647C104.099 10.9781 103.35 12.2637 103.698 13.4979Z" fill="#FF8B7B"/>
<path d="M110.867 10.8736C110.896 11.2456 111.104 11.5284 111.332 11.5065C111.559 11.484 111.721 11.1645 111.691 10.7925C111.662 10.4206 111.454 10.1378 111.227 10.1602C110.999 10.1821 110.838 10.5016 110.867 10.8736Z" fill="#263238"/>
<path d="M115.032 10.765C115.061 11.137 115.269 11.4198 115.496 11.3974C115.724 11.375 115.885 11.0555 115.856 10.6835C115.827 10.3115 115.619 10.0287 115.392 10.0506C115.164 10.0736 115.003 10.3931 115.032 10.765Z" fill="#263238"/>
<path d="M114.188 11.2643C114.188 11.2643 115.147 13.3311 116.099 14.2804C115.531 14.9551 114.461 14.7772 114.461 14.7772L114.188 11.2643Z" fill="#FF5652"/>
<path d="M110.225 9.68735C110.191 9.69245 110.155 9.68837 110.122 9.6741C110.017 9.62977 109.966 9.50238 110.008 9.38926C110.432 8.25904 111.359 8.04349 111.398 8.03483C111.509 8.01037 111.616 8.08681 111.638 8.20553C111.66 8.32426 111.588 8.43994 111.478 8.46439C111.447 8.47153 110.727 8.64733 110.388 9.54977C110.36 9.62671 110.296 9.67665 110.225 9.68735Z" fill="#263238"/>
<path d="M117.443 9.09915C117.376 9.0966 117.312 9.06042 117.275 8.9952C116.805 8.17276 116.066 8.13607 116.035 8.13505C115.922 8.13097 115.834 8.03008 115.838 7.90983C115.842 7.78906 115.936 7.69428 116.049 7.69734C116.091 7.69938 117.037 7.73453 117.626 8.76487C117.685 8.8678 117.654 9.00284 117.557 9.06654C117.522 9.09049 117.482 9.10068 117.443 9.09915Z" fill="#263238"/>
<path d="M105.251 26.9953C105.251 26.9953 112.206 38.2771 114.849 46.237C117.454 36.8931 117.754 29.3969 115.323 26.7716C114.542 27.8228 111.392 29.2501 105.251 26.9953Z" fill="#E0E0E0"/>
<path d="M102.881 35.3418L102.207 37.403L101.535 39.5218C101.093 40.9332 100.686 42.3503 100.309 43.743C100.122 44.4406 99.9509 45.1351 99.8015 45.8184C99.6411 46.5002 99.4994 47.1759 99.3929 47.8236C99.2813 48.4712 99.2111 49.1 99.1586 49.6611C99.1109 50.2119 99.1209 50.7082 99.1371 50.9503L98.887 50.2027C98.6894 49.8002 98.4847 49.6814 98.4751 49.6922C98.4484 49.6972 98.5386 49.7941 98.689 49.9016C98.9987 50.1222 99.5266 50.3683 100.096 50.5768C101.259 50.9931 102.623 51.3528 104.015 51.631C105.411 51.9281 106.856 52.1691 108.314 52.3979C109.766 52.6303 111.269 52.829 112.71 53.0481L112.78 53.0588C113.956 53.2382 114.774 54.4015 114.606 55.6576C114.473 56.6503 113.761 57.4039 112.889 57.5879C111.297 57.9196 109.766 58.1229 108.185 58.2819C106.611 58.4337 105.024 58.5107 103.401 58.5015C101.775 58.4669 100.124 58.3899 98.341 58.0261C97.4428 57.8345 96.514 57.6001 95.452 57.1252C94.9194 56.8826 94.3481 56.5733 93.7262 56.076C93.1186 55.5909 92.3965 54.8525 91.8653 53.7208C91.7827 53.545 91.7173 53.3641 91.6691 53.1817L91.6157 52.9732C91.2816 51.6835 91.1985 50.5961 91.1603 49.5744C91.1279 48.5609 91.1885 47.6198 91.2629 46.7061C91.4162 44.8829 91.7054 43.184 92.0581 41.5264C92.3984 39.8652 92.8299 38.2621 93.2909 36.6769C93.53 35.8875 93.7677 35.0998 94.0364 34.3222C94.3018 33.5293 94.5695 32.7965 94.8979 31.9547C95.81 29.6168 98.3248 28.5111 100.515 29.4854C102.622 30.4225 103.661 32.9443 102.923 35.2164L102.881 35.3418Z" fill="#E0E0E0"/>
<path d="M113.362 53.7116L117.585 54.2721L115.254 60.0363C115.254 60.0363 111.404 59.0111 111.126 56.7522C111.095 56.5045 111.157 56.2523 111.282 56.0413L112.373 54.2099C112.584 53.8533 112.97 53.6596 113.362 53.7116Z" fill="#FF8B7B"/>
<path d="M120.746 58.5361L119.61 60.4093C119.158 61.1548 118.266 61.4412 117.504 61.0855L115.254 60.0363L117.585 54.2721L120.214 56.0066C121.024 56.5412 121.264 57.6826 120.746 58.5361Z" fill="#FF8B7B"/>
<path d="M105.588 25.2422C103.978 25.5943 103.284 26.5655 103.284 26.5655C103.284 26.5655 105.907 30.721 110.904 32.0184C110.688 31.2398 111.345 28.9483 112.07 28.1472C109.419 27.7217 105.588 25.2422 105.588 25.2422Z" fill="#FAFAFA"/>
<path d="M112.922 25.5184C114.533 25.8705 115.445 26.6283 115.445 26.6283C115.445 26.6283 118.117 29.8125 114.977 31.6082C115.194 30.8296 113.539 28.7532 112.071 28.1483C114.723 27.7218 112.922 25.5184 112.922 25.5184Z" fill="#FAFAFA"/>
<path d="M112.359 29.9572C110.248 28.7516 107.636 27.4415 108.364 29.5587C109.092 31.6759 108.129 32.4031 109.074 33.1277C110.02 33.8523 111.92 31.8752 112.57 31.6005C113.22 31.3259 112.359 29.9572 112.359 29.9572Z" fill="#6A3FDC"/>
<path d="M113.85 29.9424C115.461 28.7862 117.474 27.5342 117.118 29.5964C116.761 31.6592 117.646 32.3807 116.946 33.0788C116.246 33.7769 114.438 31.8227 113.867 31.5471C113.296 31.2714 113.85 29.9424 113.85 29.9424Z" fill="#6A3FDC"/>
<path d="M112.071 29.7942C112.546 29.4879 113.713 29.1012 114.288 29.9312C114.864 30.7613 114.68 32.1545 113.883 32.3211C112.887 32.5295 112.33 31.7351 112.33 31.7351C112.33 31.7351 112.994 30.6085 112.071 29.7942Z" fill="#6A3FDC"/>
<path d="M98.6285 166.101L92.8348 166.274L92.5303 162.77L99.2566 163.203L98.6285 166.101Z" fill="black"/>
<path d="M125.344 166.087L119.09 166.274L118.397 163.244L125.384 162.518L125.344 166.087Z" fill="black"/>
<path d="M111.716 52.5239C107.563 51.2261 103.38 50.822 102.734 50.8653C102.088 50.9086 101.84 66.5685 101.89 72.9707C101.89 73.8359 111.227 73.6627 113.611 73.2734C113.746 71.4828 113.775 58.4282 114.395 54.3471C114.495 53.6883 114.16 53.0483 113.583 52.7894C112.638 52.3649 111.716 52.5239 111.716 52.5239Z" fill="white"/>
<path d="M160.588 27.4584H134.089V28.2635H160.588V27.4584Z" fill="#6A3FDC"/>
<path d="M160.035 28.2635H134.644L135.616 28.8261H159.063L160.035 28.2635Z" fill="#6A3FDC"/>
<path opacity="0.2" d="M160.035 28.2635H134.644L135.616 28.8261H159.063L160.035 28.2635Z" fill="black"/>
<path d="M148.43 16.0864C148.43 16.73 147.941 17.2523 147.338 17.2523C146.735 17.2523 146.246 16.7305 146.246 16.0864C146.246 15.4428 146.735 14.9205 147.338 14.9205C147.941 14.9205 148.43 15.4423 148.43 16.0864Z" fill="#6A3FDC"/>
<path d="M158.794 23.7243C158.058 21.2896 156.668 19.1601 154.774 17.5657L155.07 17.1656C157.038 18.8222 158.483 21.0363 159.247 23.5673L158.794 23.7243Z" fill="#6A3FDC"/>
<path d="M153.116 16.3932C152.582 16.0798 152.022 15.8082 151.451 15.5855L151.615 15.1071C152.209 15.3384 152.791 15.6212 153.346 15.9468L153.116 16.3932Z" fill="#6A3FDC"/>
<path d="M147.339 16.0864C141.353 16.0864 136.5 21.2672 136.5 27.6581H158.178C158.177 21.2667 153.325 16.0864 147.339 16.0864Z" fill="#6A3FDC"/>
<path opacity="0.3" d="M137.991 26.6196H140.794C140.994 26.6196 141.161 26.4657 141.199 26.2558C141.765 23.0858 143.535 20.3249 146.351 17.9203C146.648 17.6671 146.447 17.1585 146.07 17.2105C141.7 17.8118 138.216 21.4791 137.578 26.1202C137.541 26.3847 137.741 26.6196 137.991 26.6196Z" fill="white"/>
<path d="M112.854 16.116C113.064 16.1242 113.286 16.1135 113.521 16.0783C113.584 16.0686 113.624 16.0055 113.61 15.9367C113.597 15.8684 113.536 15.8205 113.471 15.8297C111.761 16.089 110.701 14.9114 110.691 14.8997C110.645 14.8472 110.571 14.8416 110.525 14.887C110.48 14.9323 110.48 15.0118 110.526 15.0638C110.566 15.1102 111.419 16.059 112.854 16.116Z" fill="#263238"/>
</svg>
