<svg width="201" height="183" viewBox="0 0 201 183" fill="none" xmlns="http://www.w3.org/2000/svg">
<path d="M100.432 182.691C155.9 182.691 200.865 180.023 200.865 176.731C200.865 173.44 155.9 170.772 100.432 170.772C44.9651 170.772 0 173.44 0 176.731C0 180.023 44.9651 182.691 100.432 182.691Z" fill="#CCCCC8"/>
<path d="M43.8269 117.931L40.3154 114.763L46.3008 105.418L49.8117 108.585L43.8269 117.931Z" fill="#FF8B7B"/>
<path d="M41.0401 112.753L45.5067 115.902C45.6693 116.017 45.7134 116.218 45.6134 116.386L43.3783 120.129C43.1462 120.518 42.5619 120.628 42.1921 120.357C40.6557 119.234 40.0636 118.689 38.202 117.165C37.0567 116.227 34.329 113.971 32.9201 112.485C31.5417 111.031 32.9978 109.624 33.7255 110.127C35.4484 111.317 38.4517 112.624 40.1859 112.519C40.4988 112.5 40.8023 112.586 41.0401 112.753Z" fill="#263238"/>
<path opacity="0.2" d="M49.812 108.588L46.299 105.42L43.4189 109.921L47.0179 112.955L49.812 108.588Z" fill="black"/>
<path d="M85.5398 61.9187C85.5398 61.9187 61.9729 60.2844 59.0499 68.3999C52.4056 86.8488 43.7578 106.426 43.7578 106.426L50.7248 111.534C50.7248 111.534 65.4134 88.722 69.8764 74.0727C78.9412 76.3075 95.3298 78.2217 100.611 72.0642C105.115 66.8119 101.744 61.9192 101.744 61.9192L85.5398 61.9187Z" fill="#263238"/>
<path opacity="0.3" d="M65.352 76.2638C64.804 78.5123 63.9716 84.9682 63.4541 89.2484C64.5957 86.9951 65.6872 84.7103 66.6667 82.4776L65.352 76.2638Z" fill="black"/>
<path d="M50.2611 113.846L42.3789 107.572L43.9904 104.057L52.8008 110.895L50.2611 113.846Z" fill="#071952"/>
<path d="M39.1501 112.464C39.5173 112.723 39.9763 112.932 40.3083 113.066C40.3497 113.083 40.3969 113.073 40.4285 113.042C40.4606 113.01 40.4704 112.962 40.4554 112.92C40.3896 112.741 39.7976 111.166 39.1801 111.017C39.0371 110.983 38.8994 111.022 38.7823 111.132C38.5891 111.313 38.5109 111.512 38.5497 111.725C38.5989 111.995 38.8419 112.247 39.1501 112.464ZM40.1467 112.75C39.3371 112.393 38.8289 112.001 38.7709 111.683C38.7471 111.551 38.8004 111.426 38.9346 111.3C38.9967 111.242 39.0579 111.223 39.1273 111.24C39.4598 111.32 39.8892 112.127 40.1467 112.75Z" fill="#071952"/>
<path d="M40.2857 113.054C40.3002 113.064 40.3173 113.071 40.3355 113.073C40.3738 113.078 40.4121 113.063 40.437 113.033C40.4743 112.986 41.3569 111.887 41.2238 111.212C41.1881 111.029 41.0855 110.892 40.9208 110.803C40.7224 110.696 40.5339 110.714 40.3904 110.851C39.9977 111.227 40.0148 112.488 40.2474 113.007C40.2562 113.026 40.2692 113.042 40.2857 113.054ZM40.8602 111.033C40.9374 111.087 40.984 111.161 41.0026 111.256C41.0824 111.659 40.6608 112.348 40.3878 112.724C40.2448 112.183 40.2873 111.265 40.5447 111.018C40.5934 110.971 40.6691 110.927 40.8151 111.005C40.8317 111.014 40.8467 111.024 40.8602 111.033Z" fill="#071952"/>
<path d="M74.7925 123.453L70.259 124.376L69.4204 112.041L74.0264 112.189L74.7925 123.453Z" fill="#FF8B7B"/>
<path d="M69.6425 122.689L74.8094 120.471C74.9975 120.391 75.1943 120.462 75.2834 120.644L77.2606 124.69C77.4657 125.11 77.2373 125.689 76.8011 125.867C74.9892 126.608 74.0853 126.869 71.8129 127.845C70.4148 128.445 66.6475 130.184 64.6134 130.696C62.6238 131.196 62.1384 129.148 62.9558 128.747C64.8915 127.797 68.102 124.91 68.9696 123.317C69.1266 123.029 69.3675 122.808 69.6425 122.689Z" fill="#263238"/>
<path d="M68.351 124.203C68.7758 124.021 69.2088 123.73 69.5072 123.51C69.5445 123.483 69.5621 123.436 69.5528 123.39C69.5429 123.345 69.5077 123.309 69.4631 123.299C69.273 123.259 67.5953 122.913 67.1265 123.378C67.0177 123.486 66.9758 123.629 67.0053 123.793C67.0535 124.065 67.1814 124.244 67.385 124.327C67.644 124.432 67.9946 124.356 68.351 124.203ZM69.1466 123.479C68.393 123.998 67.7766 124.232 67.4715 124.108C67.3451 124.056 67.2674 123.94 67.2337 123.751C67.2182 123.665 67.2358 123.6 67.2886 123.548C67.5409 123.297 68.4696 123.362 69.1466 123.479Z" fill="#071952"/>
<path d="M69.484 123.523C69.5006 123.516 69.5162 123.505 69.5281 123.49C69.5534 123.459 69.5617 123.416 69.5493 123.378C69.5301 123.319 69.0748 121.93 68.4216 121.675C68.2455 121.606 68.0715 121.621 67.9042 121.718C67.7032 121.835 67.6136 122.011 67.6524 122.214C67.7581 122.77 68.8495 123.451 69.4229 123.531C69.4441 123.534 69.4649 123.531 69.484 123.523ZM68.0679 121.899C68.1569 121.86 68.2455 121.859 68.3377 121.895C68.7273 122.047 69.0852 122.801 69.2566 123.25C68.7143 123.079 67.9498 122.533 67.8803 122.169C67.8669 122.1 67.871 122.009 68.0186 121.923C68.0357 121.914 68.0518 121.905 68.0679 121.899Z" fill="#071952"/>
<path opacity="0.2" d="M74.0275 112.192L69.4189 112.044L69.8598 118.485L74.4517 118.4L74.0275 112.192Z" fill="black"/>
<path d="M96.9899 61.9186C96.9899 61.9186 63.3061 65.1545 64.5327 75.4568C66.3016 90.3157 67.5976 116.33 67.5976 116.33L76.1823 116.673C76.1823 116.673 79.4 93.7979 77.5176 78.5827C86.2349 78.5827 105.17 79.0485 108.502 74.4731C112.457 69.0419 110.625 61.9186 110.625 61.9186H96.9899Z" fill="#263238"/>
<path d="M77.1307 117.21L66.8274 116.691L66.457 112.134L77.7559 112.927L77.1307 117.21Z" fill="#071952"/>
<path d="M89.512 31.7553C89.438 32.6969 89.3587 33.5353 89.2453 34.4148C89.1375 35.2838 89.0184 36.1501 88.8884 37.016C88.6356 38.7492 88.2973 40.4729 87.914 42.2035C87.5095 43.9298 87.0588 45.6625 86.4663 47.4004C85.8623 49.1368 85.1842 50.8879 84.1198 52.6674C83.5764 53.5548 82.9444 54.4612 82.0323 55.3433C81.7878 55.5801 81.5785 55.7459 81.3667 55.9154C81.1532 56.0938 80.9393 56.2428 80.7249 56.397C80.297 56.7028 79.866 56.9733 79.4335 57.2139C77.7071 58.1828 75.9941 58.8423 74.2785 59.3581C73.4238 59.6218 72.5665 59.8413 71.7103 60.0334C70.8556 60.2303 69.9999 60.3966 69.1426 60.5329C67.4208 60.814 65.7394 60.9992 63.9591 61.0598C62.9801 61.0929 62.1596 60.3134 62.127 59.3187C62.1001 58.5018 62.6129 57.7934 63.3391 57.5481L63.4085 57.5249C66.4361 56.5044 69.5384 55.3986 72.3293 54.0722C73.7211 53.4043 75.0555 52.6795 76.1541 51.8721C76.4276 51.67 76.6846 51.4653 76.9182 51.2627C77.0332 51.16 77.1544 51.06 77.2507 50.9569C77.3559 50.8537 77.4641 50.7479 77.5133 50.6863C77.7811 50.3779 78.1013 49.8831 78.3898 49.3131C78.9756 48.1599 79.4858 46.7378 79.8987 45.2662C80.3172 43.7893 80.6803 42.2461 80.9818 40.6761C81.3024 39.1092 81.5521 37.5107 81.8059 35.9091C82.0509 34.3211 82.2503 32.6548 82.4285 31.1274L82.4384 31.0416C82.6699 29.0605 84.4378 27.6457 86.387 27.8804C88.2901 28.1094 89.6612 29.8326 89.512 31.7553Z" fill="#071952"/>
<path d="M64.0781 56.6117L61.4824 56.7785L63.5559 61.6213C63.5559 61.6213 68.0376 61.5176 67.9449 59.2755L67.1352 58.2038C66.4417 57.2849 65.3124 56.697 64.0781 56.6117Z" fill="#FF8B7B"/>
<path d="M58.6514 57.167L60.8906 61.6208H63.5557L61.4822 56.7781L58.6514 57.167Z" fill="#FF8B7B"/>
<path d="M89.1402 24.2917L94.1512 23.2491L98.1361 22.6627C98.7069 22.5785 99.286 22.5327 99.8605 22.5859C102.958 22.8711 105.619 25.0702 106.463 28.186C107.46 31.8677 108.362 36.3889 109.056 40.3958C110.019 45.9586 110.521 54.3189 110.626 61.918H86.8771C86.3798 48.1571 83.4796 39.28 82.5006 33.7872C81.8919 30.3735 83.6096 26.9692 86.6916 25.477L89.1402 24.2917Z" fill="#071952"/>
<path d="M86.877 27.3176C86.9334 29.5809 87.3846 37.6521 89.7808 42.2359C90.2035 37.9384 95.2223 24.8539 95.2223 24.8539L86.877 27.3176Z" fill="#F5F5F5"/>
<path opacity="0.3" d="M109.593 44.1713C109.594 44.1718 109.595 44.1723 109.596 44.1734C109.585 44.0876 109.575 44.0055 109.564 43.9207C109.549 43.7913 109.533 43.6655 109.517 43.5376C109.491 43.3339 109.465 43.1318 109.438 42.9323C109.413 42.7428 109.388 42.5544 109.362 42.3691C109.336 42.1849 109.309 42.0054 109.283 41.8254C109.261 41.6765 109.239 41.5254 109.217 41.3801C109.165 41.0449 109.112 40.7164 109.058 40.3991C108.887 39.4127 108.702 38.3943 108.508 37.3663C108.503 37.3374 108.497 37.3085 108.492 37.2795C108.297 36.2511 108.092 35.2137 107.877 34.1842C107.872 34.1615 107.867 34.1389 107.862 34.1157C107.77 33.6773 107.677 33.242 107.581 32.8094C107.546 32.6462 107.509 32.4852 107.473 32.323C107.41 32.0425 107.347 31.7646 107.283 31.4883C107.232 31.2688 107.182 31.0504 107.13 30.8335C107.119 30.7893 107.109 30.7435 107.099 30.6993H107.098C106.891 29.833 106.679 28.9877 106.462 28.1866L102.861 26.2603C103.275 27.8782 103.671 29.6525 104.045 31.4751C103.596 31.713 103.213 31.9988 102.863 32.3315C102.004 33.1131 102.032 34.7721 102.893 36.7326C105.341 42.3133 106.549 48.3809 106.811 54.4852C106.917 56.9648 106.985 59.4759 107.016 61.9133L110.627 61.9186C110.54 55.8863 110.208 49.3819 109.593 44.1713Z" fill="black"/>
<path d="M92.2832 14.1488L90.2517 17.2994L87.4872 21.5937C87.6767 21.6943 88.0989 22.368 88.3419 22.8648C88.8469 23.8991 89.2644 24.6728 87.1277 26.1528C86.6703 26.4697 86.6542 26.9718 86.7578 27.5244C86.8837 28.195 87.2706 28.8997 89.5773 28.4855C92.2485 28.0065 94.0366 26.5718 95.3658 25.2207C96.134 24.4401 95.9578 23.8522 95.2176 23.0438C93.1203 20.7542 92.493 17.0978 92.2832 14.1488Z" fill="#FF8B7B"/>
<path d="M87.394 28.5645L88.8636 29.5003L91.2453 28.4735C90.6651 27.9429 90.0239 27.4966 89.1474 27.375C88.4518 27.5792 87.9027 28.0377 87.394 28.5645Z" fill="#263238"/>
<path d="M89.1465 27.375C90.2389 27.8334 90.789 28.8645 91.2837 30.0572C91.2837 30.0572 96.5226 26.0213 96.6325 23.3644C96.3507 22.4617 95.0396 22.6196 95.0396 22.6196C95.0396 22.6196 93.4458 25.4265 89.1465 27.375Z" fill="white"/>
<path d="M89.1468 27.3751C88.0544 27.8335 87.4866 28.8204 87.4866 30.0141C87.4866 30.0141 85.1573 27.234 87.0536 25.1355C87.4866 24.8202 88.678 24.5155 88.678 24.5155C88.678 24.5155 88.1103 25.6703 89.1468 27.3751Z" fill="white"/>
<path d="M89.3214 29.0641C89.3214 29.0641 88.9205 29.0641 88.6516 29.0641C88.4387 29.4457 88.1342 34.3806 88.0171 37.0054C88.3673 38.5938 88.8241 40.146 89.4177 41.476C89.4276 41.4913 89.4327 41.5123 89.4431 41.5276C89.4783 41.6102 89.5141 41.6929 89.5545 41.7697C89.6254 41.9297 89.7016 42.0844 89.7829 42.2339C89.8943 41.1097 90.3211 39.3717 90.8945 37.428C90.1942 34.3858 89.3214 29.0641 89.3214 29.0641Z" fill="#263238"/>
<path opacity="0.2" d="M88.1675 20.5385L89.8639 17.4784C89.8986 17.5547 89.939 17.6426 89.9794 17.7305C90.112 18.0589 90.2446 18.4689 90.343 18.9032C90.6548 20.2632 89.6158 22.2038 88.4736 23.1301C88.4275 23.0422 88.3871 22.9543 88.341 22.8664C88.1276 22.4206 87.7639 21.8348 87.5562 21.6469C87.5334 21.6232 87.5101 21.6059 87.4868 21.5943L88.1675 20.5385Z" fill="black"/>
<path d="M79.8898 13.962C79.4795 12.0894 82.4057 9.50876 82.4057 9.50876L78.9403 8.2782C77.3775 9.43033 78.3923 12.6904 79.8898 13.962Z" fill="#263238"/>
<path d="M91.5676 8.57143C92.3839 13.2416 93.092 15.9248 91.3915 18.9217C88.8331 23.4292 82.8079 22.8892 80.651 18.6075C78.7095 14.7532 77.701 7.76352 81.6486 4.69659C85.5372 1.67493 90.7512 3.90131 91.5676 8.57143Z" fill="#FF8B7B"/>
<path d="M91.6294 13.2973L89.456 12.692V9.84721C89.456 9.84721 86.7044 8.24611 87.1333 6.29448C87.3224 4.97865 88.0175 3.03386 88.0175 3.03386C88.0175 3.03386 92.3779 2.74912 93.7019 3.31545C93.4719 3.64809 92.5799 4.37916 92.5799 4.37916C92.5799 4.37916 94.2976 5.54867 95.2222 7.12766C94.5644 7.18608 93.7299 7.85873 93.7299 7.85873C93.7299 7.85873 94.3059 11.7478 91.6294 13.2973Z" fill="#263238"/>
<path d="M86.6235 0.00217855C88.2236 1.0201 87.2959 2.89542 87.2959 2.89542L91.5812 2.98858C91.3533 1.61222 87.6398 -0.068876 86.6235 0.00217855Z" fill="#263238"/>
<path d="M88.2941 7.2519C87.9895 8.12982 84.5205 9.2009 81.3561 9.30616C79.2267 9.37722 76.7362 8.42456 76.7362 8.42456C76.7362 8.42456 77.2956 7.7856 78.3062 7.30295C76.3928 6.82031 73.9717 5.11447 73.3076 3.7297C75.0361 3.10599 76.342 3.20389 77.6157 3.42127C75.997 2.01754 75.9753 0.153809 75.9753 0.153809C75.9753 0.153809 84.0735 3.41863 87.1918 2.06491C90.5831 0.592766 93.1559 3.3539 90.9286 5.46132C88.7007 7.56875 88.2941 7.2519 88.2941 7.2519Z" fill="#263238"/>
<path d="M94.0428 11.9546C94.0925 13.0757 93.6766 14.1199 93.1161 14.7963C92.2723 15.8137 90.9716 15.0021 90.6702 13.7326C90.3993 12.5899 90.7505 10.8256 91.8548 10.2788C92.9431 9.7414 93.9858 10.673 94.0428 11.9546Z" fill="#FF8B7B"/>
<path d="M84.5595 12.893C84.6776 13.2583 84.5849 13.6251 84.3528 13.7115C84.1208 13.7978 83.8369 13.572 83.7188 13.2062C83.6007 12.8409 83.6934 12.4741 83.9255 12.3877C84.1575 12.3014 84.4414 12.5277 84.5595 12.893Z" fill="#263238"/>
<path d="M80.5448 14.3898C80.6629 14.7551 80.5702 15.122 80.3382 15.2083C80.1061 15.2946 79.8222 15.0688 79.7041 14.703C79.586 14.3377 79.6788 13.9709 79.9108 13.8846C80.1429 13.7983 80.4267 14.0246 80.5448 14.3898Z" fill="#263238"/>
<path d="M81.9174 14.1968C81.9174 14.1968 81.9448 16.251 81.5444 17.4295C82.2644 17.6953 83.0585 17.0658 83.0585 17.0658L81.9174 14.1968Z" fill="#A02724"/>
<path d="M84.3759 18.4707C85.7844 17.9754 86.2681 16.8064 86.2899 16.7522C86.3132 16.6948 86.2858 16.629 86.2293 16.6054C86.1723 16.5817 86.1076 16.6096 86.0848 16.6675C86.0791 16.6806 85.53 18.0128 83.9046 18.3712C83.844 18.3844 83.8067 18.4444 83.8201 18.5054C83.8331 18.5665 83.8921 18.6049 83.9522 18.5912C84.1014 18.558 84.2423 18.5175 84.3759 18.4707Z" fill="#263238"/>
<path d="M85.4512 10.7577C85.4833 10.7404 85.5112 10.7146 85.5325 10.6809C85.5988 10.5762 85.5687 10.4361 85.4657 10.3688C84.4437 9.70192 83.5082 10.1414 83.4693 10.1609C83.36 10.2009 83.3113 10.3488 83.3642 10.4614C83.417 10.574 83.5491 10.6214 83.66 10.5683C83.6988 10.5504 84.423 10.2246 85.2253 10.7483C85.2963 10.7951 85.3828 10.7956 85.4512 10.7577Z" fill="#263238"/>
<path d="M79.7491 12.1751C79.7532 12.1383 79.7486 12.0998 79.7335 12.0635C79.6864 11.9483 79.5564 11.8935 79.4429 11.9414C78.3215 12.4146 78.1438 13.4462 78.1371 13.4899C78.1071 13.6041 78.1987 13.7288 78.3205 13.7488C78.4417 13.7688 78.5556 13.6857 78.5753 13.563C78.5831 13.5204 78.7323 12.7299 79.6134 12.3588C79.6905 12.3256 79.7398 12.2541 79.7491 12.1751Z" fill="#263238"/>
<path d="M105.356 25.9191C105.928 26.6334 106.426 27.2786 106.933 27.9718C107.438 28.6534 107.926 29.3455 108.406 30.0461C109.371 31.4414 110.277 32.8851 111.157 34.3615C112.015 35.8547 112.853 37.3726 113.592 38.9958C114.327 40.619 115.013 42.3122 115.481 44.2502C115.707 45.2249 115.881 46.275 115.886 47.4739C115.877 48.6571 115.692 49.6977 115.427 50.6803C114.889 52.6309 114.097 54.3115 113.192 55.86C112.745 56.6373 112.264 57.3779 111.762 58.0937C111.264 58.8116 110.742 59.5032 110.198 60.1706C109.107 61.517 107.982 62.748 106.682 63.9507C105.957 64.6207 104.836 64.5665 104.177 63.8307C103.639 63.2302 103.575 62.3617 103.963 61.6985L104.009 61.6206C105.578 58.9395 107.13 56.1042 108.221 53.3341C108.763 51.9488 109.198 50.5619 109.377 49.3066C109.462 48.6876 109.499 48.0882 109.448 47.6287C109.407 47.1855 109.288 46.6081 109.093 45.9981C108.7 44.7665 108.11 43.4243 107.412 42.1059C106.722 40.7816 105.943 39.4506 105.116 38.1405C104.297 36.8215 103.419 35.5236 102.529 34.2288L101.17 32.303C100.715 31.6761 100.239 31.0103 99.8074 30.4366L99.7758 30.3945C98.5829 28.8097 98.8807 26.5428 100.44 25.3307C101.968 24.1407 104.148 24.4128 105.356 25.9191Z" fill="#071952"/>
<path d="M56.006 64.7455L100.075 62.7186C100.654 62.6918 101.149 63.1508 101.175 63.7392L55.0011 65.8629C54.9752 65.2745 55.4274 64.7724 56.006 64.7455Z" fill="#071952"/>
<g opacity="0.6">
<path d="M56.006 64.7455L100.075 62.7186C100.654 62.6918 101.149 63.1508 101.175 63.7392L55.0011 65.8629C54.9752 65.2745 55.4274 64.7724 56.006 64.7455Z" fill="white"/>
</g>
<path d="M48.9908 43.9681L80.3442 42.526C80.7275 42.5086 81.1356 42.806 81.2548 43.1913L87.2738 62.6002C87.3929 62.985 87.179 63.3118 86.7957 63.3292L55.4423 64.7713C55.0585 64.7892 54.6509 64.4913 54.5317 64.1061L48.5127 44.6971C48.393 44.3124 48.607 43.986 48.9908 43.9681Z" fill="#071952"/>
<path opacity="0.6" d="M48.9908 43.9681L80.3442 42.526C80.7275 42.5086 81.1356 42.806 81.2548 43.1913L87.2738 62.6002C87.3929 62.985 87.179 63.3118 86.7957 63.3292L55.4423 64.7713C55.0585 64.7892 54.6509 64.4913 54.5317 64.1061L48.5127 44.6971C48.393 44.3124 48.607 43.986 48.9908 43.9681Z" fill="white"/>
<path opacity="0.5" d="M81.2549 43.1912L87.2739 62.6001C87.393 62.9854 87.1791 63.3117 86.7958 63.3291L80.3442 42.5259C80.7276 42.508 81.1357 42.8059 81.2549 43.1912Z" fill="#071952"/>
<path opacity="0.5" d="M88.4874 63.2518L100.076 62.7186C100.655 62.6918 101.15 63.1508 101.176 63.7392L87.483 64.3687C87.4566 63.7808 87.9088 63.2781 88.4874 63.2518Z" fill="#071952"/>
<path d="M103.127 61.4854L100.163 61.9264L103.199 66.2129C103.199 66.2129 108.019 65.4276 107.462 63.2565L106.447 62.3838C105.577 61.6348 104.351 61.3033 103.127 61.4854Z" fill="#FF8B7B"/>
<path d="M96.5381 63.207L100.253 66.4997L103.199 66.2123L100.163 61.9259L96.5381 63.207Z" fill="#FF8B7B"/>
<path opacity="0.2" d="M110.581 126.463C110.581 126.463 72.5117 149.299 72.5117 170.937H148.65C148.65 149.299 110.581 126.463 110.581 126.463Z" fill="#407BFF"/>
<path opacity="0.2" d="M110.581 153.711C110.581 153.711 75.4312 162.556 75.4312 170.937H145.731C145.731 162.556 110.581 153.711 110.581 153.711Z" fill="#407BFF"/>
<path opacity="0.3" d="M115.202 132.77C122.347 139.909 136.242 155.738 136.242 170.937H126.718C126.718 155.737 119.11 139.909 115.202 132.77Z" fill="white"/>
<path opacity="0.2" d="M110.581 126.463C110.581 126.463 72.5117 103.626 72.5117 81.9883H148.65C148.65 103.626 110.581 126.463 110.581 126.463Z" fill="#407BFF"/>
<path opacity="0.2" d="M110.581 124.376C110.581 124.376 91.144 114.891 91.144 105.903H130.018C130.018 114.89 110.581 124.376 110.581 124.376Z" fill="#407BFF"/>
<path opacity="0.3" d="M106.431 120.155C99.2856 113.016 85.3911 97.1876 85.3911 81.9883H94.9154C94.9154 97.1876 102.523 113.016 106.431 120.155Z" fill="white"/>
<path opacity="0.3" d="M115.202 120.155C122.347 113.016 135.894 95.3571 136.242 81.9883H133.701C132.511 98.2861 120.857 113.248 115.202 120.155Z" fill="white"/>
<path d="M143.486 74.3517H139.169V74.878H143.486V74.3517Z" fill="#407BFF"/>
<path d="M158.134 81.5829H157.616C157.616 77.886 154.656 74.878 151.018 74.878H146.465V74.3517H151.018C154.942 74.3517 158.134 77.5955 158.134 81.5829Z" fill="#407BFF"/>
<path d="M151.017 87.7826H70.1455C67.2287 87.7826 64.8418 85.3578 64.8418 82.3935V81.5825C64.8418 78.6187 67.2282 76.1934 70.1455 76.1934H151.018C153.934 76.1934 156.321 78.6182 156.321 81.5825V82.3935C156.321 85.3578 153.934 87.7826 151.017 87.7826Z" fill="#1C145C"/>
<path d="M151.017 165.143H70.1455C67.2287 165.143 64.8418 167.567 64.8418 170.532V171.343C64.8418 174.307 67.2282 176.732 70.1455 176.732H151.018C153.934 176.732 156.321 174.307 156.321 171.343V170.532C156.321 167.567 153.934 165.143 151.017 165.143Z" fill="#1C145C"/>
</svg>
