<svg width="203" height="137" viewBox="0 0 203 137" fill="none" xmlns="http://www.w3.org/2000/svg">
<path d="M173.988 51.0078C173.988 51.0078 169.398 52.5269 168.183 53.2496C168.183 53.2496 163.403 73.8948 165.213 76.7631L166.335 80.3238C166.335 80.3238 169.417 79.3579 170.441 76.2303C171.291 73.6327 173.076 70.0307 173.73 65.6664C174.77 58.7276 173.988 51.0078 173.988 51.0078Z" fill="#142239"/>
<path d="M172.107 136.725H180.001C180.22 133.851 180.4 131.472 180.479 130.516C181.052 123.632 183.235 105.219 183.235 105.219C183.235 105.219 186.134 122.835 186.472 128.16C186.585 129.932 186.916 133.172 187.307 136.724H194.923C194.89 131.748 194.909 127.184 195.147 126.01C195.644 123.552 194.09 87.7292 194.09 87.7292C185.311 83.3477 172.381 87.9129 172.381 87.9129C171.634 90.3703 172.549 105.322 172.212 111.161C172.023 114.424 172.049 126.555 172.107 136.725Z" fill="#142239"/>
<path d="M177.917 50.4081C178.282 50.3259 178.692 50.1356 178.692 50.1356C180.619 46.6797 180.275 39.0327 180.275 39.0327C180.275 39.0327 186.603 42.5239 186.655 43.3226C186.868 46.5109 187.314 49.4742 187.881 50.5592C187.938 50.6723 188.181 50.8025 188.533 50.9371V57.7296L178.096 56.2921L177.917 50.4081Z" fill="#B87456"/>
<path d="M186.654 43.3225C186.781 45.1919 186.985 46.9791 187.245 48.3587C185.196 49.928 182.007 51.5393 178.826 49.88C180.605 46.3166 180.275 39.0326 180.275 39.0326C180.275 39.0326 186.603 42.5237 186.654 43.3225Z" fill="#A86448"/>
<path d="M192.393 95.5115C195.822 95.4729 193.412 95.2093 195.25 94.1584C195.25 94.1584 193.933 83.1963 193.811 81.339C193.468 76.1853 195.278 66.3406 195.287 64.9136C195.317 58.243 194.511 51.6617 194.511 51.6617C194.032 51.2833 188.516 49.7768 187.592 49.5292C186.352 52.4649 183.264 54.8997 183.264 54.8997C183.255 54.893 183.242 54.8875 183.234 54.8793C183.221 54.8875 183.212 54.893 183.203 54.8997C183.203 54.8997 180.114 52.4649 178.874 49.5292C177.951 49.7768 175.489 50.5794 171.955 51.6617C171.955 51.6617 170.665 59.4328 170.699 66.1046C170.702 67.5294 173 76.1853 172.656 81.339C172.535 83.1963 171.285 86.3112 171.576 86.9103C171.576 86.9103 165.909 94.6372 171.424 94.8551C171.424 94.8551 175.186 86.8281 177.713 85.4794L187.911 88.9965L192.393 95.5115Z" fill="#142239"/>
<path d="M170.119 94.2909C170.119 94.2909 170.773 97.9861 172.377 99.4645C172.377 99.4645 174.081 97.3871 173.922 94.9021C173.922 94.9021 173.431 94.1386 172.783 93.8882C172.088 93.6212 172.025 92.2836 172.025 92.2836L170.119 94.2909Z" fill="#CD8A6A"/>
<path d="M168.694 92.7012L169.316 94.9545C169.316 94.9545 171.719 94.8271 172.706 92.9753L172.436 91.3018L168.694 92.7012Z" fill="white"/>
<path d="M172.628 91.9669C172.628 91.9669 171.219 93.7701 168.392 93.8738C168.392 93.8738 166.816 87.9457 164.991 77.839C164.531 75.2961 164.894 73.7648 164.905 73.0488C164.905 73.0488 167.56 71.0967 168.24 71.2384C168.919 71.378 171.367 74.1692 171.367 74.1692L172.628 91.9669Z" fill="#142239"/>
<path d="M176.178 86.8656L178.793 68.3778C178.793 68.3778 178.333 57.3053 178.204 53.2454C178.157 51.7505 178.826 49.8795 179.249 48.8485C180.488 51.7825 181.645 52.4263 183.234 53.8075C183.234 53.8075 186.105 51.7825 187.345 48.8485C187.345 48.8485 188.042 50.991 187.89 53.5025C187.801 54.9631 186.251 69.0607 186.251 69.0607C186.251 69.0607 187.246 82.4433 187.912 88.997L176.178 86.8656Z" fill="#C5D0EA"/>
<path d="M180.894 73.3109C180.979 71.6991 181.29 60.3138 182.139 55.4464L183.761 55.5832C183.761 55.5832 185.118 69.6339 185.046 73.3738C184.458 74.7093 183.758 75.8836 182.933 76.7624C182.933 76.7624 181.973 75.529 180.894 73.3109Z" fill="#5E83B9"/>
<path d="M183.875 55.8066C183.875 55.8066 183.083 56.1143 182.036 55.8066C182.036 55.8066 181.594 54.7552 181.565 53.8075H184.449C184.449 53.8075 184.129 55.4475 183.875 55.8066Z" fill="#5E83B9"/>
<path d="M176.912 39.3611C176.834 37.3632 176.95 35.8303 176.95 35.8303C177.145 32.6817 180.115 32.0986 183.066 32.1714C186.01 32.0986 188.983 32.6817 189.184 35.8303C189.184 35.8303 189.29 37.3632 189.218 39.3611C190.937 38.179 191.192 39.9795 190.633 41.4385C190.143 42.6873 189.282 42.9814 188.859 42.9736C188.813 43.2594 188.757 43.5451 188.692 43.8231C188.214 45.9479 185.382 48.6095 183.812 49.2013C183.812 49.2013 183.625 49.289 183.066 49.289C182.503 49.289 182.311 49.2013 182.311 49.2013C180.745 48.6095 177.913 45.9479 177.435 43.8231C177.372 43.5451 177.315 43.2594 177.269 42.9736C176.845 42.9814 176.339 42.9814 175.852 41.7331C175.29 40.2729 175.192 38.1796 176.912 39.3611Z" fill="#CD8A6A"/>
<path d="M183.229 53.8078C183.229 53.8078 184.039 53.8078 184.493 54.0649C184.945 54.3203 186.843 56.1207 187.241 56.1119C187.641 56.1042 188.743 52.6544 188.213 49.6983L187.34 48.8483C187.34 48.8483 183.889 53.3991 183.229 53.8078Z" fill="white"/>
<path d="M183.197 53.8077C183.197 53.8077 182.388 53.8077 181.934 54.0648C181.482 54.3202 179.318 55.814 178.921 55.8062C178.523 55.798 177.684 52.6543 178.215 49.6982L179.311 48.6573C179.311 48.6573 181.043 51.9654 183.197 53.8077Z" fill="white"/>
<path d="M189.216 39.361C189.216 39.361 188.801 40.7274 188.353 40.7268C187.904 40.7268 188.5 38.8155 188.353 38.1331C188.206 37.4508 188.283 35.9112 187.906 33.2486C187.906 33.2486 180.607 34.1455 178.045 33.3948C178.045 33.3948 178.268 36.2891 177.576 37.2114C177.576 37.2114 177.652 39.6346 177.576 39.9082C177.501 40.1818 177.049 40.1129 177.049 40.1129C177.049 40.1129 176.486 39.0427 176.234 39.0328C176.234 39.0328 175.614 31.5998 176.824 30.6908C181.562 27.1246 185.902 27.9862 189.038 31.2904C189.037 31.2904 190.898 34.0887 189.216 39.361Z" fill="#180508"/>
<path d="M192.856 51.0078C192.856 51.0078 197.446 52.5269 198.662 53.2496C198.662 53.2496 203.442 73.8948 201.633 76.7631L200.509 80.3238C200.509 80.3238 197.428 79.3579 196.403 76.2303C195.553 73.6327 193.769 70.0307 193.115 65.6664C192.074 58.7276 192.856 51.0078 192.856 51.0078Z" fill="#142239"/>
<path d="M196.73 94.2911C196.73 94.2911 196.076 97.9864 194.472 99.4647C194.472 99.4647 192.768 97.3873 192.926 94.9023C192.926 94.9023 193.418 94.1389 194.066 93.8885C194.759 93.6215 194.824 92.2838 194.824 92.2838L196.73 94.2911Z" fill="#CD8A6A"/>
<path d="M198.154 92.7013L197.532 94.9547C197.532 94.9547 195.129 94.8272 194.144 92.9755L194.412 91.3019L198.154 92.7013Z" fill="white"/>
<path d="M194.221 91.9672C194.221 91.9672 195.629 93.7704 198.457 93.8741C198.457 93.8741 200.032 87.9459 201.857 77.8393C202.316 75.2963 201.954 73.7651 201.942 73.0491C201.942 73.0491 199.285 71.0969 198.606 71.2387C197.929 71.3782 195.48 74.1694 195.48 74.1694L194.221 91.9672Z" fill="#142239"/>
<path d="M10.1163 49.8561C10.1163 49.8561 5.48824 51.3879 4.2621 52.1144C4.2621 52.1144 -0.557808 72.9328 1.26709 75.8243L2.39943 79.4148C2.39943 79.4148 5.50529 78.4417 6.53774 75.2865C7.3972 72.668 9.1959 69.0367 9.85496 64.6349C10.9032 57.641 10.1163 49.8561 10.1163 49.8561Z" fill="#142239"/>
<path d="M29.0299 49.8561C29.0299 49.8561 34.8268 51.7167 35.7386 52.6809C35.7386 52.6809 36.3386 55.9591 36.0657 59.4552C36.0657 59.4552 39.269 71.6613 40.2448 75.0063L37.4435 77.6502C37.4435 77.6502 31.7099 78.7021 29.011 76.4995C26.3144 74.2947 29.0299 49.8561 29.0299 49.8561Z" fill="#142239"/>
<path d="M8.22032 136.725H16.1443C16.3806 133.633 16.5767 131.037 16.6614 130.027C17.2388 123.086 19.4402 104.518 19.4402 104.518C19.4402 104.518 22.3615 122.281 22.705 127.65C22.8232 129.509 23.1795 132.972 23.5949 136.725H31.2283C31.1905 131.539 31.2046 126.7 31.4512 125.482C31.9532 123.003 30.3865 86.8836 30.3865 86.8836C21.5343 82.4647 8.49625 87.0684 8.49625 87.0684C7.74217 89.5457 8.66802 104.624 8.32448 110.509C8.13017 113.847 8.16002 126.383 8.22032 136.725Z" fill="#142239"/>
<path d="M14.0645 49.2514C14.433 49.1676 14.8459 48.9762 14.8459 48.9762C16.7896 45.4922 16.443 37.7806 16.443 37.7806C16.443 37.7806 22.8229 41.2999 22.8746 42.1075C23.0903 45.3212 23.5428 48.3093 24.1105 49.402C24.1696 49.5173 24.4145 49.6491 24.7696 49.7832V56.6331L14.2441 55.1835L14.0645 49.2514Z" fill="#F8A273"/>
<path d="M22.8763 42.1074C23.0048 43.9906 23.2101 45.7938 23.4726 47.185C21.4071 48.7659 18.1904 50.3909 14.9834 48.7173C16.7766 45.1258 16.4447 37.7805 16.4447 37.7805C16.4447 37.7805 22.8245 41.3004 22.8763 42.1074Z" fill="#DD885E"/>
<path d="M25.208 94.7687C28.6647 94.7301 29.6929 94.4256 31.5446 93.3659C31.5446 93.3659 30.2179 82.3116 30.0943 80.4416C29.7477 75.2433 31.5744 65.317 31.5824 63.879C31.6134 57.1521 30.8015 50.5145 30.8015 50.5145C30.3184 50.1339 24.7554 48.6153 23.8253 48.366C22.5742 51.3237 19.4592 53.7806 19.4592 53.7806C19.4501 53.7723 19.4379 53.7685 19.4287 53.7613C19.4147 53.7685 19.4056 53.7729 19.3977 53.7806C19.3977 53.7806 16.2833 51.3237 15.0328 48.366C14.1021 48.6153 11.6193 49.424 8.05661 50.5145C8.05661 50.5145 6.75494 58.3512 6.79027 65.0787C6.79453 66.5168 9.10977 75.2438 8.76318 80.4422C8.63953 82.3122 5.18831 90.2079 5.48312 90.8114C5.48312 90.8114 1.96123 93.8497 7.51938 94.0692C7.51938 94.0692 11.3129 85.976 13.8621 84.6157L24.1439 88.1609L25.208 94.7687Z" fill="#142239"/>
<path d="M12.3135 86.0118L14.9509 67.3701C14.9509 67.3701 14.4856 56.206 14.3558 52.1131C14.3095 50.6061 14.9838 48.7179 15.409 47.6781C16.6595 50.6386 17.8272 51.2868 19.4285 52.6812C19.4285 52.6812 22.3242 50.6386 23.5747 47.6781C23.5747 47.6781 24.2771 49.8393 24.1211 52.3712C24.0316 53.8435 22.471 68.0591 22.471 68.0591C22.471 68.0591 23.473 81.5526 24.1443 88.1615L12.3135 86.0118Z" fill="#C5D0EA"/>
<path d="M17.0684 72.3445C17.1542 70.7189 17.4685 59.2382 18.3243 54.3322L19.9598 54.4695C19.9598 54.4695 21.3291 68.6365 21.256 72.4079C20.6627 73.7544 19.9574 74.9387 19.1247 75.8246C19.1247 75.8246 18.1562 74.5813 17.0684 72.3445Z" fill="#5E83B9"/>
<path d="M6.20508 93.4993C6.20508 93.4993 6.86475 97.2238 8.48194 98.7176C8.48194 98.7176 10.1996 96.6226 10.0407 94.1166C10.0407 94.1166 9.54545 93.3449 8.89004 93.0923C8.192 92.8231 8.12743 91.4744 8.12743 91.4744L6.20508 93.4993Z" fill="#FAAF86"/>
<path d="M4.76855 91.8965L5.39533 94.1685C5.39533 94.1685 7.81899 94.0395 8.81245 92.1723L8.54079 90.4849L4.76855 91.8965Z" fill="white"/>
<path d="M14.372 90.4854L27.2358 88.2337L25.2708 71.3163L11.2783 72.4157L14.372 90.4854Z" fill="white"/>
<path d="M25.7821 71.2457L10.8369 73.3453L13.9322 91.4144L28.8774 89.3148L25.7821 71.2457Z" fill="#0A5E90"/>
<path d="M18.8343 83.1666C18.8343 83.1666 17.5966 83.7045 16.5118 84.4806C15.4276 85.2556 13.5125 85.7217 12.9034 85.6997C12.9034 85.6997 12.5446 85.6853 12.6567 85.1028C12.6567 85.1028 12.0933 84.6968 11.991 84.0707C11.991 84.0707 12.0884 83.7276 11.9374 83.5418C11.7845 83.3537 11.5329 83.2643 11.6773 82.8407C11.6773 82.8407 11.7644 82.6426 11.5853 82.481C11.4062 82.3199 11.4318 81.9713 11.6395 81.8842C11.8478 81.797 13.9511 81.1919 13.9968 81.0573C14.0406 80.9221 14.0796 80.5167 14.2228 80.4516C14.3653 80.3876 15.014 80.456 15.3301 80.5382C15.6444 80.6182 16.5045 80.7704 16.809 80.8559C17.1124 80.9392 17.6447 80.7269 17.8963 80.6568L18.8343 83.1666Z" fill="#FAAF86"/>
<path d="M18.7705 79.5695L16.5119 80.4305C16.5119 80.4305 16.2548 81.4157 18.3581 83.7562L20.8859 82.8929L18.7705 79.5695Z" fill="white"/>
<path d="M20.0739 54.6934C20.0739 54.6934 19.2759 55.0034 18.2216 54.6934C18.2216 54.6934 17.7751 53.6354 17.7471 52.6801H20.6544C20.6544 52.6801 20.3309 54.3321 20.0739 54.6934Z" fill="#5E83B9"/>
<path d="M13.0586 38.1114C12.9806 36.0975 13.0976 34.5513 13.0976 34.5513C13.2949 31.3773 16.2881 30.7882 19.2655 30.8627C22.2318 30.7882 25.2311 31.3773 25.4333 34.5513C25.4333 34.5513 25.5411 36.0969 25.4681 38.1114C27.2016 36.9194 27.4605 38.7347 26.8964 40.207C26.4018 41.4657 25.5332 41.7614 25.1068 41.7526C25.0587 42.0416 25.0039 42.3301 24.9387 42.6103C24.4569 44.7533 21.6008 47.4369 20.0189 48.0321C20.0189 48.0321 19.8295 48.1221 19.2655 48.1221C18.6984 48.1221 18.5035 48.0321 18.5035 48.0321C16.9259 47.4369 14.0685 44.7533 13.5873 42.6103C13.5234 42.3307 13.4679 42.0416 13.4192 41.7526C12.994 41.7614 12.4818 41.7614 11.9921 40.5026C11.4238 39.032 11.3245 36.9194 13.0586 38.1114Z" fill="#FAAF86"/>
<path d="M19.4336 52.6804C19.4336 52.6804 20.2498 52.6804 20.7054 52.9374C21.1629 53.1956 23.0761 55.0104 23.4781 55.0032C23.8801 54.9949 24.993 51.5154 24.4569 48.5356L23.5798 47.6772C23.5798 47.6772 20.0981 52.2672 19.4336 52.6804Z" fill="white"/>
<path d="M19.4002 52.6804C19.4002 52.6804 18.584 52.6804 18.1277 52.9374C17.6721 53.1956 15.4909 54.7026 15.0889 54.6938C14.6887 54.6866 13.842 51.5154 14.3774 48.5361L15.4824 47.4858C15.4824 47.4858 17.2287 50.8215 19.4002 52.6804Z" fill="white"/>
<path d="M33.8776 72.3607C33.8776 72.3607 38.9077 72.1472 39.6246 73.2747C40.2319 74.2301 40.6126 75.0156 39.755 78.322C39.755 78.322 22.2978 83.4503 19.449 83.6649C19.449 83.6649 17.4913 81.5098 17.7197 79.802C17.7197 79.802 30.9904 73.7083 33.8776 72.3607Z" fill="#142239"/>
<path d="M8.73849 91.158C8.73849 91.158 7.31866 92.975 4.46923 93.0782C4.46923 93.0782 2.87944 87.1015 1.03993 76.9099C0.578219 74.3466 0.942469 72.802 0.953433 72.0789C0.953433 72.0789 3.63292 70.1124 4.31634 70.2541C5.00037 70.3965 7.47032 73.2097 7.47032 73.2097L8.73849 91.158Z" fill="#142239"/>
<path d="M25.4713 38.1117C25.4713 38.1117 25.0522 39.4913 24.5996 39.4913C24.1483 39.4907 24.7489 37.5617 24.5996 36.8744C24.4522 36.1849 23.0835 35.0833 22.7041 32.3992C22.7041 32.3992 18.447 33.1571 15.8631 32.3992C15.8631 32.3992 14.4311 35.0149 13.7337 35.9444C13.7337 35.9444 13.8092 38.388 13.7337 38.6638C13.6569 38.9396 13.2013 38.8712 13.2013 38.8712C13.2013 38.8712 12.6336 37.7923 12.379 37.7818C12.379 37.7818 11.6225 30.1232 12.9741 29.3708C16.8036 27.2355 22.3082 27.5257 25.4713 30.8574C25.4713 30.8563 27.8157 31.8481 25.4713 38.1117Z" fill="#412720"/>
<path d="M142.431 24.9142C142.431 24.9142 141.753 35.3838 147.689 36.2653L152.993 36.0363C152.993 36.0363 158.676 33.3191 157.729 26.7147L142.431 24.9142Z" fill="#5D0A16"/>
<path d="M143.678 29.5605C143.678 29.5605 142.826 29.7331 142.574 28.4749C142.322 27.2167 142.416 26.1592 142.763 26.0439L143.678 29.5605Z" fill="#FAAF86"/>
<path d="M139.002 77.0311C139.002 77.0311 136.097 84.2357 137.613 87.4373C137.613 87.4373 146.542 93.5525 150.963 94.0092C150.963 94.0092 160.85 89.267 163.123 86.3517C163.123 86.3517 164.356 82.6339 161.609 77.6026L139.002 77.0311Z" fill="#B8E2E1"/>
<path d="M153.877 122.669C153.906 123.823 154.144 130.425 154.374 136.726H162.325C161.653 130.713 160.888 124.27 160.698 122.362C160.318 118.588 160.634 116.806 160.634 116.806C161.104 113.247 161.104 112.177 161.77 107.803C165.809 81.2769 163.128 77.6401 163.128 77.6401C157.414 78.0566 149.904 85.8619 149.904 85.8619C152.851 111.103 153.461 116.576 153.461 116.576C153.461 116.576 153.814 120.153 153.877 122.669Z" fill="#B8E2E1"/>
<path d="M140.469 116.96C140.469 116.96 140.785 118.743 140.408 122.516C140.216 124.416 139.562 130.774 138.999 136.725H147.148C147.378 130.425 147.616 123.823 147.645 122.669C147.709 120.154 148.063 116.576 148.063 116.576C148.063 116.576 148.672 111.102 151.62 85.8613C151.62 85.8613 144.109 78.0565 138.393 77.6395C138.393 77.6395 134.467 82.6791 139.481 110.089C139.874 112.238 140.49 114.205 140.469 116.96Z" fill="#B8E2E1"/>
<path d="M157.746 39.6881C157.746 39.6881 164.431 41.065 165.748 42.4705C165.748 42.4705 167.166 45.33 168.018 48.4693C168.018 48.4693 172.121 62.8823 172.282 65.193C172.397 66.8672 168.667 66.3586 167.012 65.5709C167.012 65.5709 162.499 53.2137 160.069 48.6088C160.069 48.6088 153.81 39.3224 157.746 39.6881Z" fill="#2DAEAE"/>
<path d="M142.994 39.917C142.994 39.917 136.326 40.7251 135.006 42.1317C135.006 42.1317 133.573 45.5589 132.72 48.6992C132.72 48.6992 128.617 63.1101 128.457 65.4225C128.342 67.0966 132.071 66.5886 133.727 65.8003C133.727 65.8003 138.241 53.4431 140.669 48.8377C140.669 48.8377 146.93 39.5513 142.994 39.917Z" fill="#2DAEAE"/>
<path d="M139.579 41.1334C140.339 40.1272 140.498 40.3026 140.498 40.3026C144.34 39.3158 150.178 38.0686 150.178 38.0686C150.178 38.0686 155.566 39.0814 159.407 40.0671C159.407 40.0671 160.015 40.1267 160.775 41.1334C160.775 41.1334 165.092 50.2675 163.984 55.1476C163.984 55.1476 163.209 57.0374 162.307 58.4832C162.307 58.4832 160.722 61.1459 161.256 66.6962C161.561 69.879 163.702 76.9242 163.843 78.4527C163.843 78.4527 159.929 81.3073 150.22 81.2102C140.588 81.3073 136.814 78.4527 136.814 78.4527C138.19 72.4693 139.778 65.2581 139.778 65.2581C136.754 56.9371 136.371 55.1476 136.371 55.1476C135.263 50.2675 139.579 41.1334 139.579 41.1334Z" fill="#4EC3C6"/>
<path d="M161.155 65.1104C161.17 65.6112 161.202 66.1386 161.255 66.6962C161.334 67.5187 161.537 68.5993 161.794 69.7753C154.154 70.6877 146.416 70.6822 138.778 69.7599C139.364 67.1315 139.777 65.2576 139.777 65.2576C139.761 65.2146 139.748 65.176 139.732 65.133C146.844 65.9703 154.045 65.9626 161.155 65.1104Z" fill="white"/>
<path d="M156.446 39.3621C156.446 39.3621 150.747 55.2684 150.175 56.2597L143.602 39.5436C146.872 38.7741 150.176 38.0686 150.176 38.0686C150.176 38.0686 153.274 38.65 156.446 39.3621Z" fill="white"/>
<path d="M144.002 75.2356L155.899 74.7491L156.736 55.932L144.002 54.9849V75.2356Z" fill="white"/>
<path d="M145.761 38.9125C145.761 38.9125 147.678 36.161 147.678 33.4167H150.191H152.703C152.703 36.1616 154.59 38.9125 154.59 38.9125C153.748 41.7317 150.17 52.9918 150.17 52.9918C150.168 52.9891 146.602 41.7328 145.761 38.9125Z" fill="#F8A273"/>
<path d="M146.483 37.6757C147.027 36.6172 147.677 35.017 147.677 33.4167H150.19H152.702C152.702 34.5779 153.04 35.739 153.429 36.6922C151.735 37.7237 148.165 39.1607 146.483 37.6757Z" fill="#DD875D"/>
<path d="M143.632 29.5705C143.632 33.3854 148.029 36.8004 150.14 36.8004C152.249 36.8004 156.648 33.3854 156.648 29.5705C156.648 25.7533 157.97 20.0767 150.367 20.0767C142.766 20.0761 143.632 25.7533 143.632 29.5705Z" fill="#FAAF86"/>
<path d="M157.198 55.9319H143.455V76.1832H157.198V55.9319Z" fill="#0A5E90"/>
<path d="M148.448 64.4775C148.448 64.4775 147.22 64.382 145.994 64.5337C144.768 64.6843 143.056 64.2557 142.596 63.9871C142.596 63.9871 142.328 63.8288 142.707 63.4239C142.707 63.4239 142.477 62.8789 142.712 62.3537C142.712 62.3537 142.961 62.1287 142.938 61.9218C142.914 61.7155 142.765 61.5423 143.09 61.2748C143.09 61.2748 143.257 61.1573 143.2 60.9582C143.142 60.7607 143.338 60.502 143.541 60.5196C143.747 60.5384 145.674 60.9394 145.776 60.8534C145.878 60.769 146.112 60.4722 146.255 60.481C146.397 60.4882 146.863 60.8109 147.066 61.0034C147.268 61.1954 147.855 61.667 148.047 61.8579C148.239 62.0476 148.757 62.1017 148.986 62.153L148.448 64.4775Z" fill="#FAAF86"/>
<path d="M172.285 65.5618C172.285 65.5618 171.847 62.5142 168.358 62.2439C163.769 61.8892 154.346 62.4866 148.987 62.1534C148.987 62.1534 147.734 62.7784 148.449 64.4774C148.449 64.4774 166.429 68.1815 170.725 67.1979C170.725 67.1979 172.306 66.98 172.285 65.5618Z" fill="#FAAF86"/>
<path d="M151.619 69.5419C151.619 69.5419 152.839 69.6853 154.003 70.0698C155.166 70.4526 156.939 70.3632 157.453 70.1906C157.453 70.1906 157.752 70.0858 157.477 69.6186C157.477 69.6186 157.831 69.1293 157.724 68.5722C157.724 68.5722 157.534 68.3052 157.605 68.1077C157.676 67.9091 157.863 67.769 157.609 67.4452C157.609 67.4452 157.473 67.2979 157.576 67.1159C157.679 66.9333 157.549 66.6426 157.344 66.6217C157.14 66.599 155.162 66.6195 155.083 66.5163C155.003 66.4126 154.844 66.0778 154.702 66.059C154.562 66.0397 154.03 66.2648 153.786 66.4126C153.544 66.5621 152.859 66.9102 152.627 67.0591C152.394 67.2086 151.875 67.1611 151.64 67.1667L151.619 69.5419Z" fill="#FAAF86"/>
<path d="M128.074 66.0083C128.074 66.0083 129.216 63.1146 132.689 63.5233C137.258 64.0611 146.324 66.4585 151.639 67.1667C151.639 67.1667 152.718 68.0184 151.619 69.5414C151.619 69.5414 133.181 69.6953 129.214 67.9064C129.214 67.9064 127.72 67.3896 128.074 66.0083Z" fill="#FAAF86"/>
<path d="M137.139 77.0311C137.172 77.0438 137.204 77.057 137.236 77.0708C149.978 82.4805 163.575 77.0708 163.577 77.0708C163.719 77.6848 163.815 78.1641 163.842 78.4521C163.842 78.4521 159.928 81.3067 150.219 81.2096C140.588 81.3067 136.813 78.4521 136.813 78.4521C136.92 77.9843 137.029 77.5105 137.139 77.0311Z" fill="white"/>
<path d="M146.483 21.7976C146.483 21.7976 148.14 21.0347 149.956 22.3305C151.773 23.6279 154.72 28.2178 156.446 28.4379C156.446 28.4379 156.346 32.0388 155.377 33.2143C155.377 33.2143 157.07 31.7862 157.746 30.1082C158.417 28.4307 160.256 21.951 155.898 18.5955C152.25 15.7878 147.255 17.757 146.484 18.5955C146.484 18.5955 145.572 19.8907 146.483 21.7976Z" fill="#5D0A16"/>
<path d="M147.311 21.3403C147.311 21.3403 145.76 22.2544 145.745 24.3896C145.735 25.8376 144.449 28.8936 143.632 29.5698C143.632 29.5698 142.428 26.4483 142.006 24.7697C141.585 23.0928 143.298 19.8902 146.483 18.595L147.311 21.3403Z" fill="#5D0A16"/>
<path d="M155.771 33.2144C155.771 33.2144 155.014 35.2779 156.15 36.8004C157.288 38.3245 163.095 41.8697 160.697 47.7593C160.697 47.7593 160.128 48.446 158.707 49.5322C157.287 50.6177 157.614 52.4502 158.399 53.2202C159.181 53.9925 159.622 55.3831 159.308 56.2602C159.308 56.2602 159.02 54.6787 157.745 53.8783C156.466 53.0774 155.076 51.1329 156.024 48.7323C156.971 46.3306 156.815 41.103 154.589 38.9136C154.589 38.9136 153.389 37.2389 153.128 35.8654L155.771 33.2144Z" fill="#5D0A16"/>
<path d="M45.1658 26.5999C45.1658 26.5999 44.8174 31.1347 46.4541 33.9446C46.4541 33.9446 47.1436 36.054 45.8645 36.9349C45.8645 36.9349 48.3375 39.7443 54.1301 37.7358L54.3287 26.2369L45.1658 26.5999Z" fill="#000002"/>
<path d="M64.9317 27.6044C64.9317 27.6044 65.1473 33.7024 61.8916 36.8985C60.1574 38.5991 54.084 38.1076 54.084 38.1076L54.3288 30.9802L64.9317 27.6044Z" fill="#000002"/>
<path d="M44.6989 39.7907C44.6989 39.7907 38.2216 41.5205 37.1532 43.0992C37.1532 43.0992 36.0312 45.2544 36.0008 49.932C36.0008 49.932 34.3751 64.7986 34.609 67.1126C34.7765 68.7911 38.3909 67.7662 39.8997 66.7551C39.8997 66.7551 42.2801 53.8678 43.9077 48.9629C43.9077 48.9629 48.5393 38.8805 44.6989 39.7907Z" fill="#AD1F24"/>
<path d="M63.4155 39.7907C63.4155 39.7907 69.8928 41.5205 70.9612 43.0992C70.9612 43.0992 72.2148 47.388 72.1143 49.932C72.1143 49.932 73.7388 64.7986 73.5061 67.1126C73.3374 68.7911 69.7235 67.7662 68.2153 66.7551C68.2153 66.7551 65.8349 53.8678 64.2068 48.9629C64.2068 48.9629 59.5739 38.8805 63.4155 39.7907Z" fill="#AD1F24"/>
<path d="M42.7068 72.1244C42.7068 72.1244 39.7916 79.3571 41.3125 82.5719C41.3125 82.5719 50.275 88.708 54.7105 89.1675C54.7105 89.1675 64.636 84.4082 66.9184 81.4808C66.9184 81.4808 68.1555 77.7497 65.3974 72.6986L42.7068 72.1244Z" fill="#000B2A"/>
<path d="M64.7823 136.725H69.8227C69.7904 134.373 69.7825 131.701 69.8081 128.702C69.8428 124.639 69.9214 120.43 68.8207 116.688C67.2541 111.36 67.3637 110.903 67.3637 110.903L60.8133 113.707C60.6428 118.321 62.3958 125.234 63.7864 132.03C64.0836 133.482 64.4266 135.092 64.7823 136.725Z" fill="#FAAF86"/>
<path d="M46.2348 136.725H51.924C51.9197 135.034 51.9106 133.35 51.8935 131.814C51.8149 124.903 51.7095 117.645 50.562 113.143L43.5377 111.534C43.5377 111.534 43.743 111.964 43.3367 117.464C43.051 121.328 43.4896 124.37 44.3844 128.351C45.0745 131.413 45.697 134.224 46.2348 136.725Z" fill="#FAAF86"/>
<path d="M67.3515 77.9804C67.3515 77.9804 70.8539 90.7044 70.045 101.035C70.045 101.035 69.3324 113.992 70.045 116.927C70.045 116.927 59.095 120.092 50.2221 116.533C50.2221 116.533 44.9837 115.271 43.3562 115.5C43.3562 115.5 41.4314 105.849 40.8728 100.577C39.5742 88.3137 40.6231 77.6847 41.6659 74.1654L67.3515 77.9804Z" fill="#00040D"/>
<path d="M43.4787 40.8779C44.2426 39.8674 45.3475 39.6379 45.3475 39.6379C49.2026 38.6483 54.1169 37.801 54.1169 37.801C54.1169 37.801 59.0294 38.6489 62.8857 39.6379C62.8857 39.6379 63.9906 39.8679 64.7532 40.8779C64.7532 40.8779 69.0852 50.0463 67.9754 54.944C67.9754 54.944 66.5921 59.0006 64.9542 64.664C64.9542 64.664 67.197 73.1412 68.1569 77.7504C68.1569 77.7504 63.9053 81.2024 54.1583 81.1059C44.4899 81.2024 40.4734 77.5998 40.4734 77.5998C42.1107 70.9987 43.279 64.664 43.279 64.664C41.6417 59.0006 40.2578 54.944 40.2578 54.944C39.1455 50.0463 43.4787 40.8779 43.4787 40.8779Z" fill="#C22127"/>
<path d="M59.8589 38.9031C59.8589 38.9031 62.0828 46.5098 62.2186 48.7455L58.6529 48.574L60.2859 49.7434C60.2859 49.7434 55.4368 55.7477 54.1296 57.087C54.1296 57.087 51.603 54.6577 48.1798 49.4913L50.1442 48.3726L46.4365 48.8603C46.4365 48.8603 47.2107 41.8294 48.7524 38.7454L50.3032 38.1424L57.995 38.0713L59.8589 38.9031Z" fill="#EC3E45"/>
<path d="M49.917 38.7189C49.917 38.7189 51.6073 35.888 51.6073 33.1327H54.1296H56.6526C56.6526 35.888 58.3422 38.7189 58.3422 38.7189C58.3422 43.6001 54.012 52.935 54.012 52.935C54.009 52.9345 50.3982 44.8236 49.917 38.7189Z" fill="#F8A273"/>
<path d="M54.1297 33.1326H56.6527C56.6527 34.259 56.9347 35.3981 57.2685 36.3502C55.697 37.4302 52.7166 39.0321 50.5195 37.5312C51.0044 36.4506 51.608 34.7781 51.608 33.1321H54.1297V33.1326Z" fill="#DD875D"/>
<path d="M56.77 45.9721C55.5316 49.6585 54.0119 52.9351 54.0119 52.9351C54.0101 52.9345 52.5762 49.7115 51.3945 45.8027C53.6422 46.3681 55.5322 46.2192 56.77 45.9721Z" fill="white"/>
<path d="M46.204 25.2926C46.8308 25.1006 47.3704 26.1073 47.5191 26.4113C47.5239 25.8619 47.5495 25.3086 47.6098 24.7658C47.9314 21.9024 49.0802 18.8983 54.1285 18.8983C59.2506 18.8983 60.5151 21.9785 60.6759 24.8921C60.7051 25.4371 60.7033 25.9926 60.6893 26.5431L60.6911 26.4984C60.6911 26.4984 61.31 25.0675 62.047 25.2921C62.5751 25.4526 62.5428 28.4881 61.5804 29.1401C60.9207 29.5875 60.6893 29.3547 60.6095 29.1633C60.5614 33.0565 56.1861 36.5284 54.078 36.5284C51.9948 36.5284 47.6957 33.1365 47.5532 29.2968C47.4234 29.4264 47.1719 29.4793 46.6694 29.1395C45.7088 28.4886 45.6753 25.4531 46.204 25.2926Z" fill="#FAAF86"/>
<path d="M50.984 18.2104L50.3828 18.3826L51.2057 21.2123C51.2057 21.2123 51.6808 21.3381 51.9354 21.1936C52.1894 21.0518 50.984 18.2104 50.984 18.2104Z" fill="#FAAF86"/>
<path d="M48.0327 62.3091L46.2925 62.0349C46.2925 62.0349 45.6328 63.2667 45.3965 64.8354L47.4072 65.1686L48.0327 62.3091Z" fill="white"/>
<path d="M73.4066 67.4738C73.4066 67.4738 72.9681 64.0064 69.4766 63.6324C64.8851 63.1431 53.4789 62.565 48.1132 62.0752C48.1132 62.0752 46.3352 63.7196 46.9925 65.4444C46.9925 65.4444 67.3301 69.5324 71.6743 68.6703C71.6743 68.6703 72.923 68.4463 73.4066 67.4738Z" fill="#DC262B"/>
<path d="M62.2179 64.0417C62.2179 64.0417 64.6781 64.552 65.9944 63.3291L68.1561 63.499C68.1561 63.499 66.4147 61.2478 65.1873 61.1717C63.9599 61.0956 61.25 62.2071 61.25 62.2071L62.2179 64.0417Z" fill="#FAAF86"/>
<path d="M34.5859 67.294C34.5859 67.294 34.9995 63.8227 38.4885 63.4305C43.077 62.9148 54.4795 62.2688 59.8409 61.7487C59.8409 61.7487 61.6305 63.3825 60.9849 65.1113C60.9849 65.1113 40.6777 69.3179 36.3262 68.4811C36.3262 68.4811 35.8846 68.5848 34.5859 67.294Z" fill="#DA3D3F"/>
<path d="M59.9219 61.9825L61.6603 61.6979C61.6603 61.6979 62.3297 62.9258 62.5764 64.4923L60.5688 64.8382L59.9219 61.9825Z" fill="white"/>
<path d="M39.3645 62.8999C39.3645 62.8999 39.3261 62.7852 39.6897 62.2777C39.6897 62.2777 39.4662 61.9286 40.1721 61.6892C40.1721 61.6892 40.0241 61.372 40.4456 61.1762C40.8081 61.0063 42.5672 60.8651 42.9607 60.9329C43.3054 60.9925 45.6225 61.9269 46.1975 62.2281C46.1335 62.3616 46.0452 62.5591 45.9484 62.81L44.3287 62.9755L41.1437 63.2199C41.1437 63.2199 39.2091 63.6915 39.2433 63.4107C39.2433 63.4107 39.1147 63.2011 39.3645 62.8999Z" fill="#FAAF86"/>
<path d="M51.9347 21.1936H57.6396C57.6396 21.1936 58.68 21.9934 58.9187 23.6444C59.5559 28.0639 61.3089 32.0322 64.4196 32.0239C64.4196 32.0239 67.7101 20.6514 57.6402 16.843C57.6402 16.843 54.0976 15.9064 50.7822 18.2684L51.9347 21.1936Z" fill="#050004"/>
<path d="M50.7822 18.2684L51.3767 21.2631C51.3767 21.2631 49.6029 22.9262 49.285 25.2226C49.0017 27.2724 47.0032 30.9538 45.3976 30.79C45.3976 30.79 45.1351 28.0551 45.1655 26.5999C45.199 25.0179 47.4107 15.8479 50.7822 18.2684Z" fill="#050004"/>
<path d="M57.6395 21.1937C57.6395 21.1937 56.16 20.0281 55.1476 20.1147C54.1335 20.2013 52.2397 20.8103 51.9346 21.1937H57.6395Z" fill="#000002"/>
<path d="M83.9452 63.1046L85.499 65.07C85.499 65.07 84.4702 67.8943 82.1051 68.5457L80.5859 66.7668L83.9452 63.1046Z" fill="white"/>
<path d="M90.9195 27.3723C90.9195 27.3723 84.0828 29.8926 83.534 30.0173C83.534 30.0173 82.9858 31.2882 82.8481 32.2044C82.8481 32.2044 70.9735 48.7511 69.4653 52.4762C69.4653 52.4762 68.9561 54.1443 69.6407 55.1366C70.3266 56.1306 80.9294 68.1833 80.9294 68.1833C80.9294 68.1833 84.0219 66.438 84.8381 63.4577L77.8668 52.6543C77.8668 52.6543 87.8319 42.7314 89.8894 39.5045L90.9195 27.3723Z" fill="#181920"/>
<path d="M120.385 63.1046L118.83 65.07C118.83 65.07 119.859 67.8943 122.225 68.5457L123.743 66.7668L120.385 63.1046Z" fill="white"/>
<path d="M113.41 27.3723C113.41 27.3723 120.249 29.8926 120.796 30.0173C120.796 30.0173 121.344 31.2882 121.481 32.2044C121.481 32.2044 133.358 48.7511 134.866 52.4762C134.866 52.4762 135.375 54.1443 134.689 55.1366C134.003 56.1306 123.401 68.1833 123.401 68.1833C123.401 68.1833 120.308 66.438 119.492 63.4577L126.463 52.6543C126.463 52.6543 116.498 42.7314 114.441 39.5045L113.41 27.3723Z" fill="#181920"/>
<path d="M88.8886 136.725H98.0192C98.4541 131.102 98.8628 125.617 99.0059 123.904C99.7009 115.561 102.348 93.237 102.348 93.237C102.348 93.237 105.86 114.593 106.272 121.049C106.464 124.061 107.175 130.572 107.879 136.724H116.563C116.484 128.957 116.416 120.278 116.787 118.441C117.391 115.462 115.507 72.0341 115.507 72.0341C104.863 66.7221 89.1877 72.2559 89.1877 72.2559C88.2825 75.2351 89.3935 93.3633 88.983 100.439C88.7192 104.984 88.8003 123.708 88.8886 136.725Z" fill="#171720"/>
<path d="M95.8955 26.7888C96.3383 26.6884 96.8348 26.459 96.8348 26.459C99.1713 22.2695 98.7535 12.9963 98.7535 12.9963C98.7535 12.9963 106.425 17.23 106.488 18.1991C106.746 22.0637 107.289 25.6564 107.974 26.9692C108.044 27.1093 108.339 27.266 108.767 27.4276V35.6632L96.1117 33.9195L95.8955 26.7888Z" fill="#F8A273"/>
<path d="M106.486 18.1994C106.639 20.4632 106.886 22.6327 107.203 24.3041C104.718 26.206 100.852 28.1593 96.9951 26.1487C99.1514 21.8295 98.7512 12.9966 98.7512 12.9966C98.7512 12.9966 106.422 17.2308 106.486 18.1994Z" fill="#DD885E"/>
<path d="M105.217 82.3933C109.375 82.3469 112.615 80.8405 116.907 79.8283C116.907 79.8283 115.309 66.5372 115.162 64.2877C114.745 58.039 117.832 46.3079 117.842 44.5786C117.879 36.4914 116.011 28.3082 116.011 28.3082C115.431 27.8499 108.743 26.0246 107.624 25.7223C106.12 29.2824 102.375 32.2346 102.375 32.2346C102.364 32.2247 102.348 32.2203 102.338 32.2104C102.323 32.2203 102.311 32.2252 102.302 32.2346C102.302 32.2346 98.5564 29.2818 97.0525 25.7223C95.9342 26.0246 89.2449 27.8499 88.665 28.3082C88.665 28.3082 86.7938 36.4914 86.8346 44.5786C86.8401 46.3079 89.9308 58.039 89.5147 64.2877C89.3661 66.5372 87.6801 79.2667 88.0346 79.9932C88.0346 79.9932 92.7753 82.1296 99.4591 82.3933C99.4591 82.3933 101.882 77.6759 102.338 76.4342L105.217 82.3933Z" fill="#2C2D33"/>
<path d="M102.338 30.9113C102.338 30.9113 105.82 28.4555 107.323 24.8982C107.323 24.8982 108.167 27.4974 107.983 30.539C107.645 36.0898 106.022 44.9989 102.299 48.9551C102.299 48.9551 96.6029 41.654 96.241 30.2284C96.185 28.4191 96.9951 26.1492 97.5068 24.8982C99.0088 28.4555 100.412 29.2355 102.338 30.9113Z" fill="#C5D0EA"/>
<path d="M99.8271 44.7716C99.9301 42.8178 100.257 38.7966 101.287 32.8982L103.252 33.0631C103.252 33.0631 104.948 40.3141 104.862 44.8472C104.148 46.4673 103.3 47.8921 102.298 48.9545C102.298 48.9545 101.136 47.4586 99.8271 44.7716Z" fill="#1A2A3F"/>
<path d="M103.39 33.3319C103.39 33.3319 102.43 33.7053 101.163 33.3319C101.163 33.3319 100.625 32.0604 100.591 30.9114H104.087C104.087 30.9114 103.698 32.8983 103.39 33.3319Z" fill="#1A2A3F"/>
<path d="M94.679 13.396C94.5846 10.9749 94.7253 9.11545 94.7253 9.11545C94.9628 5.29884 98.5627 4.59113 102.141 4.68049C105.709 4.59113 109.314 5.29884 109.557 9.11545C109.557 9.11545 109.686 10.9749 109.599 13.396C111.682 11.9623 111.993 14.145 111.316 15.9157C110.721 17.4282 109.676 17.784 109.163 17.7736C109.108 18.1211 109.04 18.468 108.961 18.8051C108.385 21.3811 104.949 24.608 103.046 25.324C103.046 25.324 102.817 25.4321 102.141 25.4321C101.458 25.4321 101.226 25.324 101.226 25.324C99.3265 24.608 95.8936 21.3816 95.3143 18.8051C95.2363 18.4686 95.1687 18.1216 95.1127 17.7736C94.5998 17.784 93.9852 17.784 93.395 16.2721C92.7128 14.5008 92.594 11.9623 94.679 13.396Z" fill="#FAAF86"/>
<path d="M102.338 30.9114C102.338 30.9114 103.32 30.9114 103.869 31.2225C104.418 31.5331 106.719 33.7147 107.202 33.7053C107.685 33.696 109.022 29.5131 108.378 25.9282L107.323 24.8983C107.323 24.8983 103.138 30.415 102.338 30.9114Z" fill="white"/>
<path d="M102.3 30.9115C102.3 30.9115 101.318 30.9115 100.77 31.2226C100.222 31.5332 97.5987 33.3424 97.1163 33.332C96.6333 33.3237 95.6179 29.5132 96.2587 25.9282L97.5878 24.6661C97.5878 24.6661 99.688 28.6764 102.3 30.9115Z" fill="white"/>
<path d="M109.841 13.2405C109.841 13.2405 109.002 14.8821 108.422 15.0526C108.099 15.148 108.568 12.8985 108.55 10.7737C108.537 9.08083 108.009 7.42157 108.009 7.42157C108.009 7.42157 103.658 7.86397 96.9947 6.11922C96.9947 6.11922 97.5807 8.79012 96.3515 10.5994C95.3136 12.1219 96.0256 14.0073 95.7948 14.4122C95.5651 14.8192 95.0742 13.6349 94.677 13.3966L94.222 13.1302C94.222 13.1302 92.9502 5.89968 92.9502 5.24988C92.9502 4.59953 94.473 2.08417 98.3798 0.77961C99.2454 0.490566 106.195 0.731076 108.55 2.20719C109.581 2.85313 110.059 5.77115 110.24 6.29905C110.527 7.14081 110.134 12.7182 109.841 13.2405Z" fill="#00000D"/>
<path d="M112.692 69.474C112.889 69.2798 115.021 67.6377 115 67.4606C114.98 67.2841 114.806 66.7921 114.938 66.6536C115.069 66.5135 115.867 66.3072 116.28 66.2619C116.691 66.2151 117.779 66.011 118.181 65.9757C118.452 65.9508 118.768 65.7214 119.027 65.5167C119.358 66.2029 120.126 67.5124 121.404 68.2119C120.991 68.6769 120.331 69.4696 119.797 70.3472C118.949 71.7356 116.962 73.1306 116.236 73.3783C116.236 73.3783 115.81 73.5178 115.625 72.7881C115.625 72.7881 114.746 72.5641 114.288 71.8763C114.288 71.8763 114.218 71.4311 113.938 71.2816C113.658 71.1294 113.316 71.1387 113.256 70.5778C113.256 70.5778 113.249 70.3058 112.952 70.1977C112.655 70.0879 112.496 69.6687 112.692 69.474Z" fill="#FAAF86"/>
<path d="M91.638 69.474C91.4425 69.2798 89.3094 67.6377 89.3307 67.4606C89.3514 67.2841 89.5238 66.7921 89.3922 66.6536C89.2619 66.5135 88.4652 66.3072 88.0516 66.2619C87.6398 66.2151 86.5519 66.011 86.1499 65.9757C85.8783 65.9508 85.5621 65.7214 85.3045 65.5167C84.9725 66.2029 84.2057 67.5124 82.9277 68.2119C83.3395 68.6769 83.9986 69.4696 84.5346 70.3472C85.3831 71.7356 87.3694 73.1306 88.093 73.3783C88.093 73.3783 88.52 73.5178 88.7058 72.7881C88.7058 72.7881 89.5847 72.5641 90.0416 71.8763C90.0416 71.8763 90.1134 71.4311 90.393 71.2816C90.672 71.1294 91.0149 71.1387 91.0746 70.5778C91.0746 70.5778 91.0813 70.3058 91.3779 70.1977C91.6752 70.0879 91.8348 69.6687 91.638 69.474Z" fill="#FAAF86"/>
</svg>
