<svg width="156" height="200" viewBox="0 0 156 200" fill="none" xmlns="http://www.w3.org/2000/svg">
<path d="M102.213 74.9713C102.213 74.9713 102.249 74.8387 102.311 74.6091C102.318 74.5828 102.326 74.5526 102.334 74.5237C102.341 74.4969 102.348 74.4707 102.356 74.4419C102.362 74.4169 102.37 74.3898 102.376 74.3633C102.384 74.3353 102.391 74.3084 102.399 74.2789C102.411 74.2336 102.424 74.1859 102.436 74.1372C102.439 74.1257 102.442 74.1153 102.445 74.1037L100.575 76.1953L99.3197 77.6512C99.3197 77.6512 98.497 77.7922 97.5333 77.7922C96.6899 77.7922 96.074 78.5481 95.6401 79.3985C95.5781 79.52 95.5199 79.6434 95.4652 79.7668C95.3947 79.9258 95.2225 80.0524 94.9964 80.1611C94.9994 80.2594 94.9994 80.3584 94.9937 80.4586L92.9033 81.8585L90.0824 82.7156L91.6518 78.6023L86.7551 83.9453C87.4846 83.7143 88.1264 83.5626 88.3899 83.6798C89.0246 83.9618 89.3772 84.1735 89.3772 84.1735C89.3772 84.1735 89.3583 84.1052 89.3408 84.0085C89.3354 83.9791 89.3304 83.9491 89.326 83.9148C89.324 83.8987 89.323 83.8824 89.3213 83.8656C89.3179 83.8318 89.3155 83.798 89.3144 83.7621C89.3138 83.7429 89.3146 83.7244 89.3149 83.7049C89.3155 83.6702 89.318 83.6366 89.3221 83.6025C89.3245 83.5824 89.3276 83.5634 89.3315 83.5439C89.3381 83.5109 89.348 83.4804 89.3593 83.45C89.3659 83.4323 89.3719 83.4148 89.3804 83.3984C89.3959 83.3685 89.417 83.3433 89.4394 83.3188C89.4502 83.307 89.4585 83.2935 89.471 83.2833C89.5092 83.2521 89.5545 83.2272 89.6115 83.2137C89.6117 83.2136 89.612 83.2133 89.6122 83.2133C89.6145 83.2128 89.6171 83.212 89.6194 83.2115C89.6862 83.1957 89.7626 83.1763 89.8444 83.155C89.8791 83.1459 89.9131 83.1372 89.9502 83.1274C89.9853 83.1183 90.0219 83.1086 90.0589 83.0989C90.1872 83.0651 90.3258 83.0291 90.4732 82.9922C90.4991 82.9857 90.5244 82.9794 90.5506 82.973C90.6614 82.9457 90.7748 82.9186 90.892 82.8927C90.8927 82.8925 90.8934 82.8923 90.894 82.8922C91.7559 82.7015 92.7526 82.5744 93.3264 82.9276C93.534 83.0553 93.7147 83.1843 93.8778 83.3092C93.9018 83.3276 93.9294 83.3466 93.9525 83.3647C94.0088 83.4089 94.0594 83.4513 94.1099 83.4936C94.5185 83.836 94.7369 84.103 94.7369 84.103C94.7369 84.103 94.7273 83.9585 94.7854 83.7764C94.7854 83.7764 94.7854 83.7762 94.7854 83.776C94.7856 83.7752 94.786 83.7744 94.7863 83.7735C94.7969 83.741 94.8101 83.7073 94.8254 83.6729C94.8293 83.6641 94.8338 83.6554 94.8381 83.6466C94.8515 83.6188 94.8668 83.591 94.8841 83.563C94.8905 83.5524 94.8969 83.5421 94.9039 83.5316C94.923 83.5031 94.9448 83.475 94.9684 83.4472C94.9757 83.4387 94.9819 83.4301 94.9897 83.4216C95.0222 83.3861 95.0582 83.3514 95.0996 83.3187C95.1051 83.3143 95.1119 83.3105 95.1176 83.3061C95.1535 83.2788 95.1929 83.2528 95.236 83.2284C95.2523 83.2192 95.2703 83.2109 95.2878 83.2022C95.3244 83.1838 95.3634 83.1666 95.4052 83.1508C95.4268 83.1426 95.4488 83.1349 95.4718 83.1275C95.5169 83.113 95.5654 83.1008 95.6161 83.0897C95.6396 83.0845 95.6617 83.0787 95.6865 83.0743C95.7637 83.0606 95.8456 83.05 95.9358 83.0449C96.4717 83.0152 96.9783 83.0134 97.4215 83.0552C97.3963 82.1367 97.425 81.0693 97.4721 80.8478C97.552 80.4717 100.925 79.9075 100.925 79.9075L99.5785 78.6852L102.214 79.1553C102.214 79.1553 102.752 76.9926 103.598 75.018C104.445 73.0434 107.453 68.5035 107.453 68.5035L102.213 74.9713Z" fill="#0C121E"/>
<path d="M54.561 89.0813C54.5611 89.055 54.5613 89.0286 54.5616 89.0016C54.5624 88.9148 54.5638 88.8248 54.566 88.7313C54.5665 88.7151 54.5666 88.6997 54.567 88.6834C54.5698 88.5699 54.5738 88.4519 54.5786 88.3303C54.5792 88.3133 54.5801 88.2957 54.5808 88.2786C54.5852 88.172 54.5903 88.0628 54.5961 87.9512C54.5974 87.9262 54.5987 87.9015 54.6001 87.8762C54.6696 86.5929 54.8284 85.0302 55.051 83.8657L54.5491 83.3252L45.7637 81.187L51.9697 80.4818C49.854 79.9176 45.7637 78.2251 45.7637 78.2251L50.1361 76.8563L46.4689 72.019L50.7003 74.4168L48.0204 68.9366L53.2602 75.4041C53.2602 75.4041 53.2479 75.3589 53.2261 75.278C53.2205 75.2568 53.2137 75.2322 53.2068 75.206C53.2026 75.1907 53.1989 75.1765 53.1942 75.1597C53.1872 75.1336 53.1792 75.1033 53.1711 75.0735C53.1683 75.0627 53.1659 75.0537 53.1629 75.0424C52.8182 73.7544 51.6662 69.3813 51.5464 68.0292C51.4055 66.4371 52.3927 58.676 52.3927 58.676C52.5141 58.9527 52.6917 59.4139 52.9013 59.9834V59.9832C52.904 59.9907 52.9069 59.9988 52.9097 60.0064C52.9374 60.0819 52.9655 60.1586 52.9944 60.2377C52.9988 60.2496 53.0032 60.2618 53.0074 60.2738C53.133 60.619 53.2678 60.9957 53.408 61.3926C53.4136 61.4085 53.4192 61.4243 53.4249 61.4402C53.4591 61.5371 53.4936 61.635 53.5284 61.7339C53.5307 61.7405 53.533 61.7472 53.5353 61.7538C53.5716 61.857 53.608 61.9607 53.6447 62.0658C53.6453 62.0675 53.646 62.0692 53.6465 62.0708C54.0269 63.1587 54.4263 64.3261 54.7698 65.3386C54.7706 65.3409 54.7713 65.343 54.7721 65.3453C54.8044 65.4406 54.8363 65.5344 54.8675 65.6267C54.8714 65.6382 54.8752 65.6495 54.8792 65.661C54.9994 66.0159 55.1106 66.3458 55.2099 66.6408C55.221 66.6738 55.2323 66.7071 55.243 66.7392C55.2601 66.7902 55.2765 66.8387 55.2928 66.8873C55.3043 66.9216 55.3157 66.9554 55.3269 66.9886C55.3422 67.0345 55.3573 67.0791 55.3719 67.1225C55.3821 67.1529 55.3918 67.1819 55.4015 67.2109C55.4264 67.2853 55.4498 67.3549 55.4718 67.4204C55.5061 67.5227 55.5368 67.6145 55.563 67.693C55.5632 67.6933 55.5632 67.6936 55.5633 67.6939C55.5964 67.7929 55.6223 67.8703 55.641 67.9265C55.6467 67.9436 55.6508 67.956 55.6551 67.9689C55.6595 67.9823 55.6649 67.9983 55.6678 68.0069C55.6723 68.0203 55.6752 68.0292 55.6752 68.0292C55.6752 68.0292 55.6466 67.8202 55.5994 67.4637C55.5989 67.4592 55.5984 67.456 55.5978 67.4514V67.4515C55.3143 65.3087 54.3537 57.7806 54.5491 55.6098C54.6943 53.9975 55.5616 51.6225 56.1765 50.1003C56.2595 50.292 56.3445 50.4912 56.4315 50.6973V48.3011C56.4315 48.3011 58.3418 52.3647 58.7207 53.3772C59.0995 54.3897 58.2478 58.4295 58.7207 59.3716C59.1937 60.3136 62.0146 71.0245 62.4847 72.2982C62.9549 73.5719 70.8534 75.9281 70.8534 75.9281C70.8534 75.9281 74.8967 68.4189 75.1787 67.7514C75.3256 67.4038 75.7272 63.8482 76.0787 60.519C76.1136 55.9721 76.1499 51.9767 76.1809 49.9795C76.1811 49.9637 76.1815 49.9487 76.1817 49.9331C76.1829 49.8559 76.1841 49.7801 76.1854 49.7091C76.186 49.6718 76.1866 49.6383 76.1873 49.6027C76.1879 49.5698 76.1885 49.5345 76.189 49.5032L75.931 47.398C75.931 47.4115 75.3198 46.6793 74.4501 46.6793C73.5802 46.6793 73.1101 48.0427 72.6399 48.1964C72.1698 48.3501 70.2891 45.3159 69.772 43.9752C69.5923 43.5094 69.4313 43.0732 69.2954 42.6971C67.0244 43.6594 57.3104 47.7744 56.9368 47.8803C56.5137 48.0002 56.6548 47.1686 56.6548 47.1686C58.6765 46.4357 63.0018 42.4476 63.6131 41.7103C64.1043 41.1176 67.2617 40.8925 68.4819 40.827L68.2269 40.3899V40.39L68.2233 40.3836L68.2205 40.379C68.2205 40.379 68.3323 40.1661 68.4965 39.8381C68.0311 39.9129 66.5059 40.1671 64.9765 40.52C63.1429 40.9431 62.9325 40.52 61.5221 42.4947C60.1117 44.4692 57.9242 45.8797 56.5138 46.4439C55.1033 47.008 55.1033 46.5849 55.2443 47.7133C55.2511 47.7671 55.2692 47.836 55.2874 47.9053C54.4396 48.3336 53.2658 49.1534 51.9697 50.721C49.9601 53.1515 48.4436 59.7824 47.4562 61.5508C47.4562 61.5508 45.7637 63.5757 46.6099 64.6462C46.6099 64.6462 43.5122 71.9681 42.5249 75.9015C41.9757 78.0892 42.8456 81.5484 45.4816 84.4307C45.4816 84.4307 47.3644 85.9042 54.5605 89.1706C54.5605 89.1419 54.5609 89.111 54.561 89.0813Z" fill="#2B3344"/>
<path d="M57.9079 72.16C58.3922 71.8779 56.8592 61.9107 56.5643 60.897C56.2693 59.8832 56.8124 52.5575 56.8124 52.5575L57.597 53.8866C57.5943 53.8778 57.5921 53.8689 57.5895 53.8602C57.6202 53.964 57.6484 54.068 57.6775 54.1726C57.7258 54.3466 57.7717 54.5215 57.8148 54.6972C57.8424 54.8096 57.8685 54.9216 57.8937 55.0345C57.9326 55.2087 57.967 55.3834 57.9995 55.5582C58.0203 55.6697 58.0414 55.7806 58.0592 55.892C58.0893 56.0799 58.112 56.2674 58.1332 56.4549C58.144 56.5515 58.1582 56.6482 58.1665 56.7446C58.1906 57.0236 58.2056 57.3017 58.2058 57.5771C58.2058 57.5802 58.2063 57.5834 58.2063 57.5866C58.2063 58.8994 58.7207 64.1626 58.7207 64.1626L61.5221 73.3945C61.5221 73.3945 60.9831 80.297 61.2167 80.578C61.4503 80.8591 64.8354 83.2134 64.8354 83.2134L69.772 81.8586V79.45L76.1452 86.2658H79.363L75.931 83.0217C75.931 83.0217 76.0021 70.46 76.0787 60.5189C75.7273 63.8482 75.3257 67.4037 75.1788 67.7512C74.8968 68.4189 70.8534 75.928 70.8534 75.928C70.8534 75.928 62.9549 73.5717 62.4848 72.298C62.0146 71.0244 59.1938 60.3135 58.7208 59.3714C58.2479 58.4295 59.0996 54.3896 58.7208 53.3771C58.3419 52.3646 56.4316 48.301 56.4316 48.301V50.6972C56.3446 50.491 56.2596 50.2919 56.1766 50.1002C55.5618 51.6224 54.6943 53.9975 54.5492 55.6097C54.3538 57.7805 55.3144 65.3086 55.5978 67.4514C55.5993 67.456 57.4236 72.442 57.9079 72.16Z" fill="#1D2533"/>
<path d="M53.2603 64.5953C53.3488 64.1097 53.1238 61.894 52.9013 59.9833C52.6918 59.4138 52.5141 58.9526 52.3928 58.6759C52.3928 58.6759 51.4056 66.437 51.5465 68.0291C51.6538 69.2396 52.5865 72.8646 53.0284 74.5364L54.8989 76.6279C54.8989 76.6279 53.4741 72.442 53.2602 71.9718C53.0463 71.5017 55.2606 74.1345 55.8954 73.6643C56.53 73.1944 53.0979 65.4839 53.2603 64.5953Z" fill="#1D2533"/>
<path d="M55.6675 82.1988C56.0968 82.0036 57.1094 81.8955 58.0478 81.909C58.037 81.6045 58.0209 81.3712 58.0017 81.2808C57.9219 80.9048 54.5491 80.3406 54.5491 80.3406L55.8954 79.1182L53.2603 79.5883C53.2603 79.5883 52.7219 77.4256 51.8756 75.451C51.0293 73.4764 48.0204 68.9365 48.0204 68.9365L50.7002 74.4167L46.4689 72.0189L50.1361 76.8562L45.7637 78.225C45.7637 78.225 49.854 79.9175 51.9697 80.4817L45.7637 81.1869L54.549 83.3251L55.051 83.8655C55.2226 82.9671 55.4319 82.3058 55.6675 82.1988Z" fill="#1D2533"/>
<path d="M51.8286 72.8652C52.0401 73.0769 51.1233 70.538 50.4886 68.6339C49.8539 66.7298 50.3475 61.6522 50.4886 61.453C50.4886 61.453 48.0908 65.3899 48.3024 67.0119C48.514 68.6339 51.617 72.6538 51.8286 72.8652Z" fill="#435063"/>
<path d="M45.0584 75.263C45.1996 75.263 48.7257 76.1798 48.7257 76.1798C48.7257 76.1798 45.5521 72.7242 45.0584 73.4294C44.5648 74.1346 44.9173 75.263 45.0584 75.263Z" fill="#435063"/>
<path d="M43.5069 76.628C43.3659 77.0965 43.7185 77.5883 43.7185 77.5883L48.0203 76.8562C47.8089 76.7439 43.6479 76.1595 43.5069 76.628Z" fill="#435063"/>
<path d="M47.5267 82.4562C48.0204 83.1615 51.1234 84.2193 51.1234 84.2193L54.1559 83.646C54.1559 83.646 47.033 81.751 47.5267 82.4562Z" fill="#435063"/>
<path d="M108.864 64.2136C109.71 63.143 108.018 61.1181 108.018 61.1181C107.03 59.3497 105.514 52.7188 103.504 50.2883C100.925 47.1686 98.8272 47.0081 98.8272 47.0081C97.9809 45.8797 94.0787 44.2342 92.8093 42.6827C91.5399 41.1313 91.2577 40.379 89.7063 40.285C88.1548 40.191 86.2742 39.3551 85.569 39.585C85.2473 39.6898 84.7503 39.5116 84.304 39.2872C84.2631 41.057 83.381 46.8423 83.0302 47.1492C82.97 47.2018 82.8552 47.1359 82.7084 46.9996C82.6551 47.3945 82.5735 47.7798 82.4189 47.8803C82.0898 48.0943 80.5384 45.5507 80.2562 45.6917C79.9742 45.8328 79.8428 48.3119 79.8428 48.3119C79.8457 48.3243 79.8486 48.3367 79.8514 48.3491C79.8592 48.3825 79.867 48.4152 79.8748 48.4489C79.8957 48.539 79.9169 48.6309 79.938 48.7235C79.9429 48.7449 79.9478 48.7657 79.9527 48.7872C80.0061 49.0211 80.0598 49.2617 80.1136 49.5076C80.1168 49.5224 80.1201 49.5374 80.1232 49.5521C80.1459 49.6566 80.1685 49.7615 80.1912 49.8674C80.2 49.9086 80.2087 49.9504 80.2175 49.9919C80.2354 50.0765 80.2532 50.1611 80.2709 50.2464C80.2786 50.2837 80.2862 50.3213 80.2939 50.3587C80.3117 50.4456 80.3295 50.5325 80.347 50.6197C80.3564 50.6664 80.3656 50.7132 80.3749 50.76C80.3905 50.8391 80.4061 50.9181 80.4216 50.9973C80.4309 51.045 80.4399 51.0927 80.449 51.1404C80.4642 51.2196 80.4793 51.2988 80.4941 51.378C80.5035 51.4286 80.5128 51.479 80.5221 51.5296C80.5355 51.6034 80.5489 51.677 80.5621 51.7505C80.5718 51.8044 80.5813 51.8581 80.5906 51.9119C80.6035 51.9856 80.6161 52.0591 80.6286 52.1325C80.6372 52.183 80.6455 52.2334 80.6539 52.2837C80.6663 52.3586 80.6784 52.4331 80.6902 52.5074C80.6981 52.5571 80.7059 52.6065 80.7135 52.6558C80.7249 52.7291 80.7359 52.8018 80.7466 52.8744C80.754 52.9243 80.7614 52.9742 80.7685 53.0236C80.7786 53.0945 80.7882 53.1645 80.7978 53.2344C80.8045 53.2837 80.8112 53.3331 80.8176 53.3819C80.8267 53.4522 80.8352 53.5216 80.8437 53.5907C80.8493 53.637 80.8551 53.6835 80.8603 53.7292C80.8686 53.8004 80.8759 53.8703 80.8833 53.94C80.8877 53.9822 80.8924 54.025 80.8966 54.0666C80.9038 54.1393 80.9099 54.2103 80.9159 54.2812C80.919 54.318 80.9227 54.3556 80.9256 54.392C80.9319 54.4719 80.9369 54.5497 80.9417 54.6269C80.9433 54.652 80.9453 54.6781 80.9468 54.7029C80.9524 54.8048 80.957 54.9043 80.9598 55.0007C80.9618 55.0678 80.9644 55.1465 80.9675 55.2329C80.9679 55.2435 80.9684 55.2546 80.9687 55.2654C80.9719 55.352 80.9754 55.4462 80.9796 55.5502C80.9797 55.5524 80.9798 55.5542 80.9798 55.5565C80.9842 55.664 80.9891 55.7815 80.9944 55.9065C80.9951 55.9231 80.9959 55.9403 80.9966 55.9571C81.0015 56.0689 81.0066 56.1872 81.0122 56.3118C81.013 56.3298 81.0138 56.3468 81.0145 56.3651C81.0162 56.4024 81.0182 56.4447 81.0199 56.4832L81.1183 56.5263C81.1183 56.5263 82.8981 65.9306 82.8467 66.4131C82.7951 66.8955 88.9833 76.3925 88.9833 76.3925L92.9504 71.8571C92.9504 71.8571 94.581 66.8231 95.1291 64.4615C95.2303 64.0254 95.3449 64.3482 95.4652 65.1635C95.31 65.63 95.1615 66.075 95.0236 66.4903C95.772 64.2372 96.871 60.9934 97.2561 59.3564C97.5589 58.0694 98.2328 54.932 98.6616 52.1265C98.837 50.9783 98.971 49.8874 99.022 49.0002C99.6109 50.3959 100.756 53.3021 100.925 55.1771C101.153 57.7169 99.7988 67.5964 99.7988 67.5964C99.7988 67.5964 99.8017 67.5876 99.8062 67.5741C99.8089 67.5655 99.8144 67.5494 99.8188 67.5361C99.8232 67.5233 99.8272 67.5108 99.833 67.4937C99.8517 67.4375 99.8775 67.3602 99.9106 67.2611C99.9107 67.2608 99.9109 67.2605 99.9109 67.2602C99.9371 67.1817 99.9679 67.09 100.002 66.9876C100.024 66.9221 100.047 66.8525 100.072 66.7781C100.082 66.749 100.092 66.7201 100.102 66.6897C100.117 66.6463 100.132 66.6017 100.147 66.5557C100.158 66.5226 100.169 66.4887 100.181 66.4544C100.2 66.3993 100.218 66.3433 100.238 66.2851C100.239 66.2828 100.24 66.2805 100.24 66.2783C101.008 63.996 102.558 59.4347 103.081 58.2431C103.081 58.2431 104.068 66.0042 103.927 67.5963C103.82 68.8053 102.888 72.4289 102.445 74.1037C102.442 74.1154 102.44 74.1257 102.437 74.1372C102.424 74.1859 102.411 74.2337 102.399 74.2788C102.391 74.3083 102.384 74.3354 102.377 74.3633C102.37 74.3897 102.362 74.417 102.356 74.4419C102.348 74.4707 102.341 74.4969 102.334 74.5236C102.326 74.5531 102.318 74.5822 102.311 74.6091C102.25 74.8386 102.214 74.9713 102.214 74.9713L107.453 68.5038L104.774 73.9839L109.005 71.5862L105.338 76.4235L109.71 77.7922C109.71 77.7922 105.62 79.4848 103.504 80.0489L109.71 80.7541L100.925 82.8923L99.1212 84.8346C99.382 86.2752 99.6011 88.4779 99.5761 89.3383C107.882 85.6509 109.992 83.9982 109.992 83.9982C112.628 81.1158 113.498 77.6566 112.949 75.4689C111.962 71.5354 108.864 64.2136 108.864 64.2136Z" fill="#2B3344"/>
<path d="M102.214 79.1557L99.5783 78.6855L100.925 79.9079C100.925 79.9079 97.5519 80.472 97.4719 80.8482C97.4249 81.0695 97.3961 82.137 97.4213 83.0555C98.0279 83.1126 98.5121 83.2537 98.7566 83.5389C98.8738 83.6756 99.0018 84.1754 99.1212 84.8346L100.925 82.8923L109.71 80.7542L103.504 80.0489C105.62 79.4847 109.71 77.7922 109.71 77.7922L105.338 76.4235L109.005 71.5862L104.773 73.9839L107.453 68.5038C107.453 68.5038 104.444 73.0436 103.598 75.0182C102.752 76.9929 102.214 79.1557 102.214 79.1557Z" fill="#1D2533"/>
<path d="M102.214 64.1625C102.376 65.051 98.9438 72.7615 99.5784 73.2316C100.213 73.7018 102.427 71.0689 102.214 71.539C102 72.0092 100.575 76.1951 100.575 76.1951L102.445 74.1035C102.888 72.4287 103.82 68.8052 103.927 67.5961C104.068 66.004 103.081 58.2429 103.081 58.2429C102.558 59.4346 101.008 63.9959 100.24 66.2781C100.83 64.526 101.88 61.4324 102.572 59.5501C102.35 61.461 102.125 63.6768 102.214 64.1625Z" fill="#1D2533"/>
<path d="M98.9095 60.4641C98.6146 61.4779 97.0815 71.4451 97.566 71.7272C98.0502 72.0092 99.8747 67.0225 99.8761 67.0187C99.828 67.3828 99.7988 67.5963 99.7988 67.5963C99.7988 67.5963 101.153 57.7168 100.925 55.177C100.756 53.302 99.6109 50.3958 99.022 49.0001C98.971 49.8873 98.837 50.9783 98.6615 52.1264C98.6643 52.1635 99.2038 59.4529 98.9095 60.4641Z" fill="#1D2533"/>
<path d="M94.8655 66.9672C94.8299 67.075 94.7956 67.1795 94.7624 67.2807C94.7479 67.3248 94.7332 67.3696 94.7192 67.4123C94.6817 67.5273 94.6466 67.6355 94.613 67.7399C94.6012 67.7769 94.5891 67.8141 94.5777 67.8496C94.5549 67.921 94.535 67.9845 94.5144 68.0499C94.6756 68.298 94.8492 68.5582 95.0336 68.828C95.5136 69.5304 96.0617 70.2941 96.622 71.055C96.8462 71.3593 97.0723 71.6632 97.2968 71.9625C97.6336 72.4115 97.9667 72.8502 98.2844 73.2647C98.496 73.5411 98.7009 73.8068 98.8951 74.0576C99.8664 75.3118 100.575 76.1953 100.575 76.1953C100.575 76.1953 102 72.0093 102.214 71.5392C102.427 71.0691 100.213 73.7019 99.5784 73.2318C98.9437 72.7617 102.376 65.0512 102.214 64.1627C102.125 63.677 102.35 61.4613 102.573 59.5504C101.88 61.4327 100.83 64.5263 100.24 66.2784C100.239 66.2806 100.239 66.2829 100.238 66.2852C100.218 66.3436 100.2 66.3992 100.181 66.4545C100.169 66.4888 100.158 66.5227 100.147 66.5558C100.131 66.6016 100.116 66.6465 100.102 66.6898C100.092 66.7202 100.082 66.7492 100.072 66.7782C100.047 66.8526 100.024 66.9222 100.002 66.9878C99.9678 67.09 99.937 67.1819 99.9108 67.2603C99.9107 67.2607 99.9106 67.2609 99.9105 67.2613C99.8774 67.3603 99.8516 67.4376 99.8329 67.4938C99.828 67.5084 99.8225 67.5248 99.8187 67.5362C99.8142 67.5496 99.8088 67.5657 99.8061 67.5742C99.8016 67.5877 99.7987 67.5965 99.7987 67.5965C99.7987 67.5965 99.8279 67.3831 99.876 67.0189C99.8747 67.0227 98.0501 72.0094 97.5659 71.7274C97.0814 71.4453 98.6144 61.4781 98.9094 60.4643C99.2036 59.4531 98.6642 52.1637 98.6614 52.1266C98.2327 54.9322 97.5588 58.0695 97.256 59.3565C96.8708 60.9935 95.7719 64.2373 95.0235 66.4904C94.9965 66.5713 94.9702 66.6509 94.9442 66.7292C94.9174 66.81 94.8912 66.8892 94.8655 66.9672Z" fill="#0C121E"/>
<path d="M96.5 98.9833C95.8868 98.9187 95.2595 98.9717 94.6911 98.9745C94.6131 98.9749 94.5363 98.974 94.4607 98.9721C94.4476 98.9717 94.4345 98.9712 94.4215 98.9707C94.3583 98.9687 94.296 98.9654 94.2348 98.9609C94.2148 98.9594 94.195 98.9579 94.1754 98.9561C94.1214 98.9514 94.0685 98.9452 94.0164 98.9382C93.9933 98.935 93.9703 98.9318 93.9476 98.9281C93.8996 98.9204 93.8526 98.9108 93.8064 98.9004C93.7826 98.8952 93.7589 98.89 93.7356 98.884C93.692 98.8726 93.6498 98.8589 93.6081 98.8447C93.5848 98.8369 93.5611 98.8296 93.5385 98.8208C93.4978 98.8049 93.459 98.786 93.4205 98.767C93.3994 98.7566 93.3776 98.7475 93.3573 98.7361C93.3174 98.7136 93.2796 98.6874 93.2422 98.6608C93.2258 98.6491 93.2082 98.6392 93.1922 98.6266C93.1402 98.5855 93.0905 98.5404 93.0444 98.4896C92.824 98.2472 92.7001 97.7118 92.6338 97.0903C92.6073 96.8417 92.59 96.5793 92.5795 96.3163C92.5321 95.1331 92.6213 93.9385 92.6213 93.9385C92.621 93.9386 92.3491 94.0085 91.9742 94.0921C91.8855 94.1119 91.7923 94.1322 91.6941 94.1527C91.6545 94.161 91.6148 94.1692 91.5742 94.1774C91.3715 94.2185 91.1584 94.2584 90.9503 94.2915C90.9254 94.2955 90.9008 94.2993 90.8762 94.3031C90.5013 94.36 90.1548 94.3909 89.9383 94.3615C89.8845 94.3542 89.8363 94.3442 89.8004 94.3288C89.5535 94.223 89.3773 93.9586 89.2627 93.7205C89.1482 93.4829 89.0954 93.272 89.0952 93.2712C89.0953 93.2722 89.1204 93.6916 89.0606 94.051C89.0562 94.0778 89.0499 94.1021 89.0445 94.1281C89.0256 94.218 88.9988 94.2972 88.9653 94.3658C88.9258 94.4468 88.8787 94.5141 88.8131 94.5404C88.5045 94.6638 86.2522 95.4891 85.4577 95.3628C85.3442 95.3448 85.2604 95.3073 85.2164 95.2456C85.1283 95.1222 85.0533 94.9547 84.9905 94.7729C84.9636 94.695 84.9393 94.6144 84.9168 94.5335C84.9097 94.5079 84.9027 94.4825 84.8959 94.457C84.8543 94.2986 84.8209 94.1429 84.7949 94.0055C84.6598 94.032 84.5255 94.0585 84.3865 94.0835C84.2893 94.1008 84.1892 94.1167 84.0903 94.1333C83.8707 94.1703 83.6481 94.2057 83.4207 94.2388C83.3063 94.2554 83.1916 94.2715 83.0755 94.2871C82.8438 94.3183 82.6086 94.347 82.3704 94.374C82.2646 94.386 82.1604 94.3988 82.0535 94.4099C81.8237 94.4338 81.5905 94.4546 81.3561 94.4746C81.3496 94.5009 81.3423 94.523 81.3355 94.5476C81.3285 94.5727 81.3217 94.5985 81.3142 94.6218C81.3033 94.656 81.2916 94.686 81.2798 94.7158C81.2721 94.7353 81.2647 94.7563 81.2566 94.7739C81.2429 94.8035 81.2282 94.8277 81.2134 94.8516C81.2059 94.8635 81.1992 94.8781 81.1915 94.8885C81.1683 94.92 81.1441 94.9457 81.1181 94.9633C80.3319 95.5003 75.6958 95.2455 74.92 94.9633C74.898 94.9553 74.8771 94.9394 74.857 94.9194C74.8507 94.9131 74.8447 94.905 74.8387 94.8977C74.8249 94.881 74.8114 94.8619 74.7984 94.8397C74.7922 94.8291 74.7861 94.8182 74.7801 94.8064C74.7669 94.7801 74.7542 94.7505 74.7419 94.7185C74.7378 94.7076 74.7333 94.698 74.7292 94.6864C74.7132 94.641 74.698 94.5911 74.6837 94.5362C74.6809 94.5254 74.6784 94.5129 74.6756 94.5017C74.6713 94.4838 74.6668 94.4653 74.6626 94.4465C74.51 94.431 74.3576 94.4157 74.2067 94.3981C74.1018 94.3858 73.9989 94.3712 73.8949 94.3579C73.6473 94.3259 73.4023 94.2914 73.1603 94.2531C73.0432 94.2347 72.9272 94.2155 72.8117 94.1954C72.5752 94.1544 72.3431 94.1095 72.1135 94.062C72.0117 94.041 71.9087 94.0213 71.8085 93.9989C71.6478 93.963 71.4918 93.9235 71.3352 93.8843C71.2855 94.5044 71.2527 94.8929 71.2527 94.8929C71.2527 94.8929 71.1765 95.1815 71.06 95.5324C74.6765 96.3533 77.6749 97.2287 77.7408 97.4834C77.8818 98.0287 79.1747 101.028 79.1747 101.028C79.1747 101.028 75.1314 98.7011 73.9639 97.8548C73.6236 97.6082 72.2678 97.1724 70.5215 96.6791C70.4526 96.7469 70.3471 96.8022 70.2097 96.8451C70.005 96.909 69.7375 96.9478 69.4469 96.9692C69.3017 96.9799 69.1506 96.9863 68.9986 96.9893C68.8466 96.9923 68.6939 96.9919 68.5453 96.9891C68.1737 96.9821 67.8279 96.9601 67.5856 96.9381C66.8099 96.8675 66.7392 95.8806 66.7392 95.8803C66.7391 95.8805 66.6014 96.0456 66.4121 96.2383C66.2984 96.354 66.1663 96.4796 66.0341 96.5855C66.0087 96.6057 65.9747 96.6237 65.9362 96.6404C65.9245 96.6456 65.9106 96.65 65.8977 96.6548C65.8678 96.6659 65.8356 96.6762 65.8 96.6856C65.7835 96.69 65.7666 96.6942 65.7489 96.6982C65.7099 96.7069 65.6682 96.7146 65.6241 96.7216C65.6072 96.7243 65.5915 96.7273 65.5741 96.7297C64.9125 96.8207 63.7846 96.7289 63.1427 96.515C62.2964 96.2328 62.3669 95.316 62.3669 95.316C62.3669 95.316 62.1377 95.7733 61.8096 96.311C63.5098 96.6293 72.2658 98.2852 73.1568 98.7835C74.1442 99.3358 78.9867 102.392 79.1747 102.415C79.3629 102.439 85.1457 98.1778 85.1457 98.1778L87.4024 96.2332C87.4024 96.2332 85.0046 99.2891 84.5815 100.441C84.1584 101.593 82.4187 103.92 82.4187 103.92C82.4187 103.92 84.5815 103.456 85.2866 103.3C85.9919 103.144 91.6336 101.493 92.6209 101.543C93.6082 101.593 96.288 102.415 96.288 102.415C96.288 102.415 92.0567 103.212 89.941 104.236C87.8253 105.26 82.4186 108.927 82.4186 108.927C82.4186 108.927 88.9538 106.764 91.0693 105.941C93.185 105.119 95.4648 104.868 95.4648 104.868C95.4648 104.868 92.6208 106.801 90.3641 107.582C88.1074 108.363 82.4186 111.325 82.4186 111.325C82.4186 111.325 81.3842 113.422 82.4186 113.008C83.453 112.594 94.0314 108.47 92.1978 109.474C90.3642 110.478 82.7947 114.525 82.4186 115.182C82.0424 115.838 91.7746 121.731 91.7746 121.731L82.419 118.204C82.419 118.204 89.0122 123.317 88.9831 123.879C88.9541 124.442 86.9795 132.764 87.6846 136.008C87.8642 136.833 88.2269 137.943 88.6721 139.18L95.4651 134.174L98.1594 159.804L95.4651 163.37C95.4651 163.37 94.3137 149.689 94.1727 148.984C94.0318 148.279 88.6842 139.201 88.6724 139.181C89.9758 142.802 91.9878 147.515 92.1981 149.407C92.4801 151.946 94.21 162.896 94.1208 163.768C94.0317 164.64 98.7969 166.04 97.2605 167.174C95.7242 168.307 94.2099 166.765 94.1208 169.511C94.0317 172.256 95.4651 174.795 95.4651 174.795L90.7977 178.282C90.696 179.058 90.7144 179.673 91.1637 179.844C91.1841 179.852 91.2086 179.854 91.2325 179.858C91.295 179.285 91.3517 178.885 91.3517 178.885C91.3517 178.885 96.0767 175.782 96.8525 175.641C97.6283 175.5 99.7869 176.683 99.787 176.683C100.136 176.732 100.379 176.752 100.379 176.752C100.379 176.752 100.191 172.491 100.379 170.423C100.567 168.354 101.507 166.574 100.379 165.583C99.2503 164.593 99.4383 163.21 99.8145 161.363C100.191 159.515 99.0821 158.365 98.9782 155.461C98.8742 152.557 96.6175 137.39 96.9936 134.818C97.3697 132.246 97.3697 131.494 97.5578 128.485C97.7176 125.928 97.7414 107.886 97.0527 99.0051C96.886 99.0091 96.7072 99.0051 96.5 98.9833Z" fill="#1D2533"/>
<path d="M55.1847 163.768C56.2317 164.358 62.5788 166.781 62.5788 166.781C62.5788 166.781 62.7197 160.756 62.5788 157.761C62.4377 154.767 61.5222 143.342 61.5222 143.342L66.5281 152.065C66.5281 152.065 66.9512 150.21 66.5281 148.186C66.168 146.464 62.2376 141.157 61.5502 139.242C61.5418 140.419 61.5222 141.508 61.5222 141.508L60.2104 156.459L56.4315 160.831L58.7207 139.957L60.322 142.072C60.322 142.072 59.7578 136.431 59.7031 134.738C59.6484 133.046 63.9892 126.699 63.9892 126.791C63.9892 126.791 65.8227 129.833 64.5674 131.23C63.312 132.627 61.4503 135.584 61.5222 136.572C61.549 136.94 61.5557 137.723 61.5537 138.558C62.3379 137.948 63.8698 136.671 65.5406 133.469C67.2332 130.225 64.4123 128.766 65.3997 126.04C66.3869 123.313 72.3109 109.474 72.3109 109.474L64.5675 122.747C64.5675 122.747 67.4068 109.623 67.7432 108.076C68.0796 106.529 59.7032 103.3 59.7032 103.3C59.7032 103.3 73.1572 107.545 73.1572 107.037C73.1572 106.529 59.7032 100.441 59.7032 100.441C59.7032 100.441 67.9384 100.058 70.7594 101.178C73.5803 102.298 77.1151 103.538 77.1151 103.538C77.1151 103.538 74.5676 100.323 72.3109 99.4769C70.2929 98.7202 63.2621 96.7437 61.7959 96.3336C61.7251 96.4491 61.6504 96.567 61.572 96.6857C72.3121 99.2513 74.5675 101.783 74.5675 101.783C74.5675 101.783 72.5598 101.875 70.9004 100.441C69.241 99.0071 60.8862 98.7716 60.4631 99.0537C60.2749 99.1791 60.1042 98.6401 59.9722 98.003C59.9718 98.003 59.9714 98.0031 59.971 98.0032C59.9301 98.0079 59.8894 98.0127 59.8469 98.0156C59.8095 98.0182 59.7709 98.0192 59.7325 98.0205C59.6832 98.0222 59.6345 98.0246 59.5837 98.0243C59.5677 98.0242 59.5511 98.0231 59.535 98.0228C58.9861 98.0135 58.3578 97.8962 57.7884 97.73C57.7532 98.0291 57.7199 98.3197 57.6892 98.5952C57.313 101.969 59.1936 115.257 58.8175 118.204C58.4414 121.151 60.0458 122.622 58.8675 131.571C57.6891 140.521 56.2534 159.491 55.1847 161.478C55.0901 161.654 55.001 161.822 54.9148 161.987C54.7781 162.815 54.7912 163.547 55.1847 163.768Z" fill="#1D2533"/>
<path d="M71.1824 36.4297L77.5796 41.913C77.601 41.9068 77.6205 41.9014 77.6423 41.895L78.2817 40.8492C78.2817 40.8492 79.1095 40.0213 80.0606 39.0741C80.1965 38.9389 80.3349 38.8011 80.4738 38.6631C81.5844 37.5582 82.7246 36.4298 82.8422 36.3358C82.8435 36.3346 82.8453 36.3343 82.8467 36.3332V35.8341C82.6094 36.0793 82.2561 36.4129 81.8524 36.7802C81.7162 37.0983 81.2542 37.4779 80.7641 37.748C79.8236 38.5691 78.9034 39.338 78.6316 39.5328C78.0414 39.9559 77.8115 40.0617 76.8596 39.9559C76.0859 39.87 72.1 36.688 70.6049 35.441C70.6179 35.6281 70.6299 35.797 70.6406 35.9476C70.6448 35.9499 70.6492 35.9513 70.6536 35.9538C70.9356 36.1124 71.1824 36.4297 71.1824 36.4297Z" fill="#843732"/>
<path d="M81.8524 36.7802C82.256 36.4128 82.6094 36.0792 82.8467 35.834V35.5571C82.3797 36.0585 81.9579 36.5337 81.8524 36.7802Z" fill="#6B2928"/>
<path d="M76.8596 39.9558C77.8116 40.0616 78.0415 39.9558 78.6317 39.5327C78.9033 39.3379 79.8236 38.569 80.7642 37.7479C80.3782 37.9608 79.9753 38.1075 79.6982 38.0919C79.0692 38.0563 77.0011 38.3281 76.1452 38.0931C75.2894 37.858 74.4324 36.8225 73.4922 36.2521C72.5519 35.6817 70.9063 34.8948 70.6712 34.3777C70.569 34.1528 70.487 33.5143 70.4205 32.7909C70.448 33.1882 70.4761 33.5938 70.5036 33.9886C70.5191 34.2133 70.5342 34.431 70.549 34.6427C70.5499 34.6543 70.5506 34.6657 70.5515 34.6773C70.5703 34.9481 70.5885 35.209 70.6048 35.441H70.6049C72.1 36.6878 76.0859 39.8699 76.8596 39.9558Z" fill="#6B2928"/>
<path d="M81.0643 57.4336C81.0716 57.5861 81.0791 57.742 81.0869 57.9046C81.0892 57.9517 81.0916 58.0013 81.094 58.0492C81.1 58.1742 81.1063 58.3017 81.1127 58.4319C81.491 66.1393 82.419 83.0216 82.419 83.0216L79.363 86.2657H83.1835C83.1838 86.2109 83.1847 86.1544 83.1873 86.095C83.1933 85.9577 83.2083 85.8112 83.2396 85.6684C83.2834 85.4682 83.3616 85.2768 83.4978 85.1291C83.5039 85.1226 83.5084 85.1149 83.5147 85.1084C83.6213 85.0003 83.7618 84.9185 83.947 84.8787C84.0171 84.8637 84.0977 84.8428 84.1856 84.8176C84.1936 84.8152 84.2029 84.8123 84.2111 84.8099C84.2956 84.7853 84.3856 84.7577 84.4819 84.7266C85.1129 84.5228 85.9818 84.1902 86.7551 83.9453L91.6518 78.6024L90.0824 82.7157L92.9033 81.8585L94.9937 80.4586C94.9994 80.3585 94.9994 80.2595 94.9964 80.1612C94.9895 79.9429 94.957 79.7318 94.8985 79.5304C94.8907 79.5034 94.8869 79.4751 94.8781 79.4486C94.4549 78.1792 94.3491 76.4337 94.2632 75.0453C94.2345 74.5825 94.2081 74.1594 94.1729 73.8068C94.0842 72.9201 94.0515 71.5878 94.1093 70.4401C94.1434 69.762 94.2091 69.1482 94.3139 68.7292C94.3142 68.7277 94.315 68.7252 94.3153 68.7237C94.3292 68.6685 94.3484 68.5995 94.3704 68.5231C94.3743 68.5093 94.3779 68.4966 94.3822 68.4821C94.4045 68.4053 94.431 68.3182 94.46 68.224C94.4674 68.2002 94.4748 68.176 94.4826 68.1511C94.4924 68.1198 94.5042 68.083 94.5146 68.05C94.5351 67.9846 94.5551 67.9211 94.5779 67.8497C94.5892 67.8143 94.6014 67.7769 94.6132 67.74C94.6468 67.6356 94.6818 67.5275 94.7194 67.4124C94.7334 67.3698 94.7482 67.3248 94.7625 67.2808C94.7958 67.1796 94.8301 67.0752 94.8657 66.9673C94.8913 66.8896 94.9177 66.8098 94.9445 66.729C94.9704 66.6507 94.9968 66.5713 95.0237 66.4903C95.1616 66.075 95.3101 65.63 95.4654 65.1635C95.3451 64.3482 95.2305 64.0255 95.1292 64.4615C94.5811 66.8231 92.9506 71.8571 92.9506 71.8571L88.9834 76.3925C88.9834 76.3925 82.7954 66.8955 82.8468 66.4131C82.8984 65.9306 81.1184 56.5263 81.1184 56.5263L81.0201 56.4832C81.0312 56.7266 81.0434 56.9895 81.0569 57.2737C81.0592 57.3268 81.0617 57.3792 81.0643 57.4336Z" fill="#1D2533"/>
<path d="M80.406 43.8614C80.1946 44.6696 79.4521 45.8715 79.2993 46.1138C79.2996 46.1151 79.3001 46.1166 79.3004 46.118C79.3 46.1166 79.2997 46.1152 79.2993 46.1138C79.2816 46.1419 79.2689 46.1619 79.2689 46.1619C79.2689 46.1619 78.1876 46.4439 77.9055 46.4439C77.6962 46.4439 77.2542 46.391 76.8479 46.1147C76.733 46.4855 76.5788 46.9659 76.4495 47.45C76.5787 46.9659 76.733 46.4855 76.8479 46.1146C76.7065 46.0185 76.5694 45.8964 76.4481 45.7387C76.1439 45.3432 75.703 44.2811 75.429 43.5787C75.0115 43.9698 74.6052 44.4126 74.2854 44.8924C73.1571 46.5849 72.1697 47.1491 72.1697 47.1491L68.4818 40.827C67.2617 40.8925 64.1043 41.1176 63.613 41.7103C63.0018 42.4476 58.6764 46.4358 56.6548 47.1686C56.6548 47.1686 56.5138 48.0003 56.9368 47.8803C57.3104 47.7744 67.0243 43.6594 69.2952 42.6968C69.4311 43.073 69.5922 43.5091 69.7719 43.9749C70.289 45.3156 72.1696 48.3497 72.6398 48.1961C73.1099 48.0424 73.58 46.679 74.4499 46.679C75.3197 46.679 75.9309 47.4111 75.9309 47.3977L76.1889 49.5029C76.1892 49.4919 76.1893 49.4798 76.1895 49.4689C76.1887 49.511 76.188 49.5575 76.1872 49.6024C76.1865 49.638 76.1859 49.6715 76.1853 49.7088C76.184 49.78 76.1828 49.8554 76.1816 49.9328C76.1814 49.9484 76.1811 49.9634 76.1808 49.9792C76.1695 50.7097 76.1574 51.7061 76.145 52.8986C76.4035 50.6778 76.737 48.6441 77.1061 48.4185C77.9524 47.9013 78.4404 47.7152 78.7046 48.0424C79.692 49.2648 80.3975 54.8627 81.1181 58.5469C81.1162 58.5072 81.1144 58.4711 81.1125 58.4319C81.1061 58.3017 81.0999 58.1742 81.0938 58.0492C81.0915 58.0014 81.089 57.9515 81.0868 57.9046C81.0789 57.742 81.0714 57.5861 81.0641 57.4336C81.0617 57.3795 81.0591 57.3264 81.0566 57.2737C81.0431 56.9895 81.031 56.7266 81.0198 56.4831C81.0181 56.4447 81.0161 56.4024 81.0144 56.3651C81.0135 56.3468 81.0129 56.3298 81.012 56.3117C81.0065 56.1872 81.0013 56.0688 80.9965 55.9571C80.9957 55.9404 80.995 55.923 80.9942 55.9065C80.9889 55.7815 80.984 55.6639 80.9797 55.5565C80.9796 55.5543 80.9795 55.5524 80.9794 55.5501C80.9753 55.4461 80.9717 55.352 80.9685 55.2653C80.9682 55.2545 80.9677 55.2435 80.9674 55.2329C80.9643 55.1465 80.9617 55.0678 80.9597 55.0007C80.9568 54.9043 80.9523 54.8047 80.9466 54.7029C80.9451 54.6781 80.9431 54.652 80.9415 54.6269C80.9367 54.5496 80.9317 54.4719 80.9254 54.392C80.9225 54.3556 80.9188 54.318 80.9158 54.2811C80.9097 54.2102 80.9036 54.1392 80.8964 54.0666C80.8923 54.025 80.8876 53.9822 80.8831 53.94C80.8758 53.8703 80.8684 53.8004 80.8602 53.7292C80.8549 53.6836 80.8491 53.637 80.8435 53.5907C80.835 53.5215 80.8267 53.4522 80.8174 53.3819C80.8111 53.3331 80.8043 53.2836 80.7976 53.2344C80.7881 53.1644 80.7784 53.0944 80.7683 53.0235C80.7612 52.9741 80.7538 52.9243 80.7464 52.8744C80.7357 52.8018 80.7247 52.7291 80.7134 52.6558C80.7057 52.6065 80.6979 52.557 80.69 52.5074C80.6782 52.4331 80.6661 52.3586 80.6538 52.2836C80.6454 52.2333 80.637 52.183 80.6284 52.1324C80.616 52.0591 80.6034 51.9856 80.5904 51.9119C80.581 51.8581 80.5716 51.8044 80.562 51.7505C80.5488 51.6769 80.5355 51.6033 80.5219 51.5296C80.5126 51.4791 80.5034 51.4285 80.4939 51.378C80.4791 51.2988 80.4641 51.2196 80.4488 51.1404C80.4398 51.0927 80.4307 51.045 80.4214 50.9973C80.406 50.9181 80.3904 50.8391 80.3747 50.76C80.3655 50.7132 80.3562 50.6664 80.3469 50.6197C80.3293 50.5324 80.3115 50.4456 80.2937 50.3587C80.286 50.3213 80.2784 50.2837 80.2707 50.2464C80.253 50.1611 80.2352 50.0765 80.2173 49.9919C80.2085 49.9504 80.1998 49.9086 80.1911 49.8673C80.1685 49.7614 80.1459 49.6565 80.1231 49.5521C80.1199 49.5373 80.1166 49.5223 80.1134 49.5076C80.0597 49.2617 80.006 49.021 79.9525 48.7872C79.9477 48.7657 79.9428 48.7449 79.9379 48.7235C79.9167 48.6309 79.8956 48.539 79.8746 48.4489C79.8668 48.4151 79.8591 48.3825 79.8513 48.3491C79.8484 48.3367 79.8455 48.3243 79.8426 48.3119C79.8426 48.3119 79.974 45.8328 80.2561 45.6917C80.5382 45.5506 82.0897 48.0943 82.4188 47.8803C82.5733 47.7798 82.6549 47.3944 82.7082 46.9996C82.1815 46.5104 81.1954 45.0096 80.406 43.8614Z" fill="#0A111C"/>
<path d="M79.3629 86.2657L82.4189 83.0216C82.4189 83.0216 81.4909 66.1393 81.1126 58.432C81.1145 58.4712 81.1163 58.5074 81.1182 58.547C80.3976 54.8628 79.6921 49.2649 78.7047 48.0425C78.4406 47.7153 77.9525 47.9015 77.1062 48.4187C76.7371 48.6443 76.4036 50.6779 76.1451 52.8987C76.1575 51.7062 76.1695 50.7098 76.1809 49.9793C76.1498 51.9765 76.1136 55.9719 76.0786 60.5188C76.002 70.46 75.9309 83.0216 75.9309 83.0216L79.3629 86.2657Z" fill="#11192B"/>
<path d="M75.429 43.5787C75.703 44.2811 76.1439 45.3433 76.4481 45.7387C76.5694 45.8964 76.7065 46.0186 76.8478 46.1147C76.7329 46.4855 76.5788 46.9659 76.4495 47.45C76.5787 46.9659 76.7329 46.4855 76.8479 46.1147C77.2542 46.391 77.6962 46.4439 77.9054 46.4439C78.1876 46.4439 79.2689 46.1619 79.2689 46.1619C79.2689 46.1619 79.2816 46.1419 79.2993 46.1138C79.2997 46.1152 79.2999 46.1166 79.3004 46.118C79.3 46.1166 79.2996 46.1152 79.2993 46.1138C79.4521 45.8716 80.1945 44.6697 80.406 43.8615C80.0403 43.3295 79.7166 42.8733 79.504 42.6357C79.0489 42.1271 78.5049 41.977 78.1157 41.9384C78.0643 41.9333 78.0116 41.9275 77.9663 41.9258C77.9474 41.9252 77.9325 41.9257 77.9147 41.9255C77.865 41.925 77.8151 41.9245 77.7763 41.9264C77.7753 41.9264 77.7748 41.9265 77.7738 41.9266C77.6897 41.9308 77.6432 41.9376 77.6274 41.9401C77.6246 41.9406 77.6133 41.9421 77.6133 41.9421C77.6133 41.9421 77.61 41.944 77.6097 41.9442C77.6074 41.9455 77.5935 41.9536 77.5651 41.9705C77.5645 41.9708 77.5639 41.9712 77.5634 41.9715C77.4669 42.029 77.2374 42.1695 76.9367 42.3755C76.5199 42.6611 75.9665 43.0751 75.429 43.5787Z" fill="#11192B"/>
<path d="M72.1697 47.1492C72.1697 47.1492 73.1571 46.585 74.2854 44.8924C74.6052 44.4127 75.0115 43.9698 75.429 43.5787C75.9665 43.0751 76.5199 42.6611 76.937 42.3755C76.9365 42.3758 76.9362 42.376 76.9357 42.3763C75.9065 41.4286 70.7312 36.6835 70.4773 36.8528C70.2504 37.0041 68.9427 39.4069 68.2269 40.3899L68.4819 40.827L72.1697 47.1492Z" fill="#3F4B60"/>
<path d="M82.8466 37.1819C82.4621 37.0655 79.2879 40.6804 78.1924 41.9449C78.1646 41.9411 78.1422 41.941 78.1157 41.9385C78.5048 41.977 79.049 42.1272 79.5041 42.6357C79.7166 42.8733 80.0403 43.3295 80.4061 43.8615C81.1954 45.0096 82.1816 46.5105 82.7084 46.9997C82.8552 47.136 82.97 47.2019 83.0303 47.1492C83.3759 46.8467 84.2369 41.2271 84.3012 39.3699L83.9935 39.1209C83.9935 39.1209 83.3123 37.323 82.8466 37.1819Z" fill="#3F4B60"/>
<path d="M59.5227 176.981C58.8057 176.596 58.1593 176.215 57.6892 175.889C57.5716 175.808 57.4592 175.732 57.3517 175.661C56.7697 175.277 56.3355 175.036 56.0121 174.799C55.9088 175.007 55.8078 175.244 55.738 175.5C55.5265 176.276 55.8485 177.686 53.9596 179.238C53.3251 179.759 52.6419 180.36 51.9972 180.96C52.7733 180.268 53.7052 179.584 54.6801 179.152C55.9892 178.572 55.9495 177.334 55.9495 177.334C55.9495 177.334 56.8663 176.628 57.2894 176.77C57.7126 176.911 56.9368 177.968 56.6291 178.533C56.3215 179.097 57.5715 178.321 58.3473 177.933C59.123 177.545 61.0977 178.815 61.3093 179.449C61.5208 180.084 61.6619 180.719 61.3093 180.795C60.9567 180.871 58.6294 179.59 58.3473 179.865C58.0652 180.139 56.9369 179.449 56.4315 179.865C55.9261 180.28 57.2189 180.366 57.4306 180.795C57.6421 181.223 56.6547 183.046 56.4315 183.49C56.2083 183.935 55.6675 184.104 54.6097 184.174C53.5517 184.245 50.5193 184.315 49.8847 184.174C49.2537 184.034 50.3647 182.579 51.2424 181.681C50.3011 182.603 49.5441 183.445 49.3205 183.892C48.8973 184.738 48.4037 186.149 48.8973 186.572C49.391 186.995 50.4488 187.418 50.4488 187.418C50.4488 187.418 58.559 186.995 59.0526 186.501C59.5463 186.008 59.2642 185.585 60.2515 185.232C61.2389 184.879 63.7777 185.162 64.2713 183.892C64.6858 182.826 64.6025 180.126 64.3983 179.077C63.3168 178.82 61.2251 177.894 59.5227 176.981Z" fill="#040506"/>
<path d="M96.8526 175.641C96.0769 175.782 91.3518 178.885 91.3518 178.885C91.3518 178.885 91.2952 179.285 91.2326 179.858C91.0859 181.203 90.9066 183.518 91.3518 183.963C91.9865 184.598 94.0317 184.174 94.3843 184.668C94.737 185.162 94.6664 185.585 95.2306 185.938C95.7948 186.29 97.6284 186.572 99.2504 186.854C100.872 187.136 104.046 187.066 104.399 186.431C104.751 185.797 104.963 184.316 104.399 183.399C103.834 182.482 99.9008 179.065 99.7872 176.683C99.787 176.683 97.6283 175.5 96.8526 175.641Z" fill="#040506"/>
<path d="M61.5225 62.3814C61.5282 65.1998 61.653 69.5507 62.3671 69.6459C63.4249 69.7869 73.6525 69.5754 73.8639 69.1523C73.9967 68.8869 73.9714 64.7816 73.9342 61.7581C72.5579 61.6001 68.8329 61.1832 67.8333 61.1832C66.7764 61.1831 62.6756 62.1146 61.5225 62.3814Z" fill="#1D2533"/>
<path d="M61.5323 60.6923C61.5265 61.1117 61.5211 61.7002 61.5224 62.3768C61.5224 62.3783 61.5224 62.3798 61.5224 62.3813C62.6755 62.1145 66.7765 61.1831 67.8333 61.1831C68.833 61.1831 72.5579 61.6 73.9342 61.758C73.9272 61.1808 73.9197 60.6441 73.9127 60.18C73.9122 60.1457 73.9116 60.1128 73.9112 60.0793C73.9095 59.9655 73.9077 59.8557 73.9061 59.7521C71.7902 60.0187 62.8276 60.6746 61.5323 60.6923Z" fill="#141A23"/>
<path d="M61.3797 60.6896C61.4005 60.693 61.4573 60.6935 61.5322 60.6924H61.5323C62.8276 60.6747 71.7902 60.0188 73.9061 59.7522C74.1698 59.7188 74.3336 59.6913 74.3559 59.6721C74.5674 59.4907 74.3559 56.176 74.3559 56.176C74.3559 56.176 62.1554 56.6697 61.8028 57.0928C61.4503 57.516 60.9567 60.619 61.3797 60.6896Z" fill="#3F4B60"/>
<path d="M83.8756 62.001C83.8954 61.1596 83.921 60.4285 83.9397 59.9519H83.9395C83.8609 61.9671 83.654 68.5592 84.3058 68.7018C85.0752 68.8701 92.8328 70.8447 93.1147 70.7037C93.3969 70.5626 93.5379 69.2932 93.5379 69.2932C93.5379 69.2932 93.8674 65.3104 94.0309 62.7656C92.7808 62.1482 90.5471 61.0919 89.8003 61.0421C88.9356 60.9844 85.2082 61.7276 83.8756 62.001Z" fill="#1D2533"/>
<path d="M88.3193 59.9966C86.6844 59.6682 84.7823 59.8567 83.9397 59.952C83.9211 60.4285 83.8955 61.1597 83.8756 62.001C85.2083 61.7276 88.9356 60.9845 89.8004 61.0421C90.5472 61.0919 92.7809 62.1482 94.031 62.7657C94.0316 62.7568 94.0321 62.7487 94.0326 62.7397C94.0409 62.6113 94.0487 62.4866 94.056 62.3663C94.0581 62.3313 94.06 62.2986 94.0621 62.2643C94.0675 62.1716 94.0729 62.0808 94.0777 61.9942C94.0795 61.961 94.0813 61.929 94.0831 61.8968C94.0876 61.8145 94.0917 61.7359 94.0954 61.6604C94.0969 61.6293 94.0985 61.5978 94.1 61.5681C94.104 61.482 94.1076 61.4012 94.1105 61.3261C94.1109 61.3155 94.1116 61.3031 94.112 61.2927C94.1124 61.2832 94.1124 61.2763 94.1128 61.267C92.5986 60.9237 89.7729 60.2885 88.3193 59.9966Z" fill="#141A23"/>
<path d="M93.4205 44.4223C92.1511 43.623 91.3049 41.8194 90.3646 41.7104C89.4243 41.6014 88.3429 41.4156 87.3556 40.8045C86.3683 40.1933 84.6287 39.7678 84.6287 39.7678C84.6287 39.7678 87.5906 42.4463 90.4585 43.975C93.3264 45.5036 97.3671 47.5068 97.815 47.8922C98.263 48.2775 98.5647 48.4165 98.6726 48.1961C98.7807 47.9757 94.6899 45.2215 93.4205 44.4223Z" fill="#0A111C"/>
<path d="M68.2206 40.379L68.2232 40.3835L68.2269 40.3899C68.9427 39.407 70.2503 37.0041 70.4773 36.8528C70.7312 36.6835 75.9064 41.4285 76.9357 42.3763C76.9362 42.3761 76.9365 42.3758 76.937 42.3755C77.2376 42.1695 77.4672 42.029 77.5636 41.9715C77.5645 41.9709 77.5645 41.971 77.5654 41.9705C77.5938 41.9535 77.6077 41.9455 77.6099 41.9441C77.6102 41.9441 77.6134 41.9421 77.6134 41.9421L77.5795 41.913L71.1823 36.4297C71.1823 36.4297 70.9355 36.1123 70.6535 35.9537C70.583 35.914 70.5102 35.8843 70.4386 35.8718C70.4028 35.8656 70.3672 35.8638 70.3325 35.8672C70.1582 35.8842 70.0011 36.033 69.9129 36.4297C69.8072 36.9057 69.5427 37.5801 69.2535 38.2371C69.2053 38.3466 69.1564 38.4556 69.1074 38.5631C68.6668 39.5311 68.2206 40.379 68.2206 40.379Z" fill="#95A7B1"/>
<path d="M82.8421 36.3356C82.7246 36.4296 81.5844 37.558 80.4737 38.6629C80.3349 38.8009 80.1965 38.9387 80.0606 39.0739C79.1095 40.0211 78.2816 40.849 78.2816 40.849L77.6423 41.8948L77.6135 41.942H77.6136C77.6136 41.942 77.6244 41.9405 77.6276 41.94C77.6434 41.9374 77.6899 41.9307 77.774 41.9266C77.7751 41.9265 77.7755 41.9264 77.7765 41.9263C77.8153 41.9245 77.8651 41.9248 77.9149 41.9255C77.933 41.9257 77.9472 41.9251 77.9665 41.9257C78.0118 41.9274 78.0645 41.9332 78.1159 41.9384C78.1422 41.941 78.1647 41.9411 78.1925 41.9448C79.288 40.6803 82.4622 37.0654 82.8468 37.1818C83.3124 37.3228 83.9937 39.1207 83.9937 39.1207L84.3015 39.3699C84.3041 39.2944 84.3052 39.2262 84.3053 39.163C84.3053 39.1542 84.3055 39.1449 84.3054 39.1364C84.305 39.0729 84.3034 39.0157 84.2997 38.9684C84.2175 37.8989 83.6672 36.6852 83.531 36.3985C83.5115 36.3576 83.5005 36.3355 83.5005 36.3355C83.5005 36.3355 83.474 36.3237 83.4307 36.3091C83.3873 36.2944 83.3271 36.2768 83.2596 36.265C83.2257 36.2591 83.1901 36.2547 83.1538 36.2529C83.1175 36.2511 83.0806 36.2517 83.0443 36.2562C83.008 36.2606 82.9721 36.2687 82.938 36.2816C82.9038 36.2945 82.8715 36.3122 82.8421 36.3356Z" fill="#95A7B1"/>
<path d="M94.1209 169.511C94.2101 166.765 95.7243 168.307 97.2606 167.174C98.7969 166.041 94.0317 164.64 94.1209 163.768C94.2101 162.896 92.4802 151.946 92.1982 149.407C91.988 147.515 89.9759 142.802 88.6725 139.181C88.6725 139.181 88.672 139.18 88.672 139.18L88.6722 139.18C88.227 137.944 87.8643 136.834 87.6847 136.008C86.9795 132.764 88.9541 124.442 88.9832 123.879C89.0123 123.317 82.419 118.204 82.419 118.204L91.7751 121.732C91.7751 121.732 82.0429 115.838 82.419 115.182C82.7952 114.525 90.3646 110.478 92.1983 109.475C94.0319 108.471 83.4535 112.594 82.419 113.008C81.3847 113.422 82.419 111.325 82.419 111.325C82.419 111.325 88.1079 108.363 90.3646 107.582C92.6213 106.801 95.4653 104.868 95.4653 104.868C95.4653 104.868 93.1855 105.119 91.0698 105.941C88.9542 106.764 82.4191 108.927 82.4191 108.927C82.4191 108.927 87.8258 105.26 89.9415 104.236C92.0572 103.212 96.2885 102.415 96.2885 102.415C96.2885 102.415 93.6087 101.593 92.6214 101.543C91.6341 101.493 85.9923 103.144 85.2871 103.3C84.5819 103.456 82.4192 103.92 82.4192 103.92C82.4192 103.92 84.1588 101.593 84.582 100.441C85.0051 99.2892 87.4029 96.2333 87.4029 96.2333L85.1461 98.1779C85.1461 98.1779 79.3634 102.439 79.1752 102.415C78.9872 102.392 74.1446 99.3359 73.1573 98.7836C72.2663 98.2853 63.5102 96.6294 61.8101 96.3111C61.8054 96.3186 61.8008 96.3262 61.7961 96.3338C63.2623 96.7437 70.2931 98.7202 72.3111 99.477C74.5678 100.323 77.1153 103.538 77.1153 103.538C77.1153 103.538 73.5806 102.298 70.7596 101.178C67.9387 100.058 59.7034 100.441 59.7034 100.441C59.7034 100.441 73.1574 106.529 73.1574 107.037C73.1574 107.545 59.7034 103.3 59.7034 103.3C59.7034 103.3 68.0798 106.529 67.7434 108.076C67.4071 109.623 64.5677 122.747 64.5677 122.747L72.3111 109.475C72.3111 109.475 66.3871 123.314 65.3999 126.04C64.4126 128.766 67.2334 130.225 65.5408 133.469C63.87 136.671 62.338 137.948 61.554 138.558C61.5534 138.785 61.5521 139.015 61.5505 139.242C62.2378 141.157 66.1682 146.464 66.5283 148.186C66.9514 150.21 66.5283 152.065 66.5283 152.065L61.5224 143.342C61.5224 143.342 62.4379 154.767 62.579 157.761C62.72 160.756 62.579 166.781 62.579 166.781C62.579 166.781 56.2319 164.358 55.185 163.768C54.7915 163.546 54.7783 162.815 54.9151 161.988C54.9147 161.988 54.9145 161.989 54.9141 161.99C54.4773 162.827 54.1582 163.524 54.0272 164.057C54.0243 164.069 54.0209 164.081 54.0181 164.093C53.9901 164.213 53.9733 164.324 53.9662 164.426C53.9651 164.441 53.9644 164.455 53.9638 164.469C53.9598 164.567 53.9663 164.657 53.9845 164.739C53.987 164.75 53.9908 164.761 53.9939 164.772C54.0156 164.852 54.0475 164.923 54.0936 164.984C54.0987 164.99 54.1053 164.995 54.1107 165.002C54.1618 165.063 54.224 165.116 54.3039 165.156C54.304 165.156 54.3041 165.156 54.3042 165.156C54.5862 165.298 54.9742 165.843 55.3092 166.509C55.4766 166.841 55.6309 167.204 55.7521 167.561C56.035 168.393 56.1378 169.194 55.8087 169.511C55.6677 169.646 55.5555 169.78 55.4667 169.921C55.4371 169.967 55.4101 170.015 55.3855 170.064C55.3116 170.209 55.2594 170.365 55.2233 170.538C55.163 170.828 55.1476 171.168 55.1514 171.598C55.1515 171.599 55.1515 171.601 55.1515 171.602C55.1539 171.857 55.1629 172.143 55.1735 172.469C55.1772 172.583 55.181 172.701 55.1849 172.825C55.196 173.186 55.2249 173.473 55.277 173.71C55.329 173.948 55.4041 174.135 55.5077 174.296C55.6112 174.457 55.7432 174.591 55.9089 174.723C55.9412 174.748 55.9775 174.774 56.0122 174.799C56.3357 175.036 56.7698 175.277 57.3519 175.661C57.4593 175.732 57.5718 175.808 57.6893 175.889C58.1594 176.215 58.8059 176.596 59.5229 176.981C61.2253 177.894 63.317 178.82 64.3983 179.077C64.5694 179.118 64.7235 179.147 64.8379 179.151C64.9141 179.154 64.9766 179.148 65.0236 179.133C65.2893 179.045 65.46 178.803 65.5795 178.446C65.6117 178.35 65.6406 178.247 65.666 178.134C65.7131 177.925 65.7504 177.69 65.7821 177.432C65.7933 177.34 65.8039 177.246 65.814 177.149C65.8647 176.663 65.9052 176.112 65.9639 175.519C66.0976 174.168 66.516 173.691 66.8146 172.917C66.9358 172.602 67.0378 172.24 67.0922 171.749C67.1745 171.004 66.9328 169.694 66.7451 168.234C66.6647 167.608 66.5942 166.954 66.5633 166.306C66.5427 165.874 66.5398 165.443 66.5633 165.025C66.6103 164.189 66.763 163.4 67.0921 162.736C67.4212 162.072 67.7269 161.431 67.9943 160.807C68.1949 160.34 68.3739 159.881 68.5253 159.429C68.5757 159.279 68.6231 159.129 68.6672 158.98C68.7554 158.681 68.8303 158.385 68.8901 158.091C69.0698 157.207 69.1139 156.338 68.9728 155.461C68.679 153.633 71.0191 144.574 72.2386 138.566C72.5801 136.883 72.8338 135.44 72.9171 134.462C72.9289 134.322 72.9449 134.167 72.9647 133.997C73.2904 131.192 74.645 124.426 75.841 118.71C75.8772 118.537 75.9133 118.365 75.9493 118.193C76.057 117.68 76.1632 117.176 76.2668 116.687C76.3359 116.36 76.4039 116.04 76.4706 115.726C76.7037 114.63 76.92 113.622 77.108 112.75C77.1886 112.376 77.2641 112.027 77.3334 111.708C77.3797 111.494 77.4233 111.294 77.4639 111.107C77.5248 110.827 77.5789 110.578 77.6255 110.365C77.6566 110.222 77.6843 110.095 77.7085 109.985C77.7808 109.655 77.8206 109.475 77.8206 109.475C77.8206 109.475 77.8339 109.53 77.8591 109.635C77.876 109.705 77.8982 109.797 77.9254 109.91C77.9934 110.193 78.0925 110.607 78.2175 111.128C78.2675 111.337 78.3215 111.562 78.3793 111.804C78.4372 112.046 78.4988 112.303 78.5638 112.575C78.6613 112.983 78.7665 113.423 78.8781 113.891C78.9525 114.202 79.0299 114.526 79.1097 114.861C79.3491 115.866 79.6114 116.967 79.8868 118.127C80.0703 118.901 80.2598 119.7 80.4523 120.514C80.6447 121.328 80.8403 122.156 81.036 122.988C81.1338 123.403 81.2318 123.82 81.3294 124.236C81.7594 126.068 82.1833 127.885 82.5713 129.568C82.7117 130.176 82.8476 130.768 82.9769 131.335C83.0175 131.513 83.0575 131.689 83.0969 131.862C83.1757 132.208 83.2518 132.544 83.3249 132.869C83.4347 133.356 83.5378 133.817 83.6331 134.248C83.6966 134.535 83.7565 134.809 83.8127 135.067C84.0656 136.23 84.2407 137.089 84.3059 137.512C84.5378 139.016 84.7478 140.192 84.9939 141.25C85.0555 141.514 85.1191 141.771 85.186 142.024C85.253 142.277 85.323 142.526 85.3973 142.775C85.5455 143.271 85.7101 143.765 85.8982 144.282C85.9452 144.411 85.9908 144.563 86.0348 144.735C86.123 145.079 86.2052 145.502 86.2816 145.984C86.3772 146.586 86.4635 147.278 86.5407 148.019C86.587 148.463 86.6299 148.925 86.6695 149.395C86.6828 149.552 86.6955 149.71 86.7082 149.868C86.7331 150.184 86.7566 150.503 86.7787 150.821C86.7896 150.981 86.8004 151.14 86.8106 151.298C86.9546 153.519 87.0265 155.653 87.0265 156.771C87.0265 159.327 85.7101 160.619 87.0265 161.478C87.6025 161.853 88.3225 162.037 88.8714 162.256C89.1067 162.35 89.3106 162.451 89.4581 162.577C89.6058 162.702 89.6973 162.852 89.7077 163.045C89.7111 163.109 89.7057 163.178 89.6903 163.252C89.6594 163.401 89.589 163.571 89.4713 163.768C89.3538 163.965 89.2568 164.141 89.1772 164.301C89.0974 164.461 89.035 164.604 88.9866 164.736C88.6957 165.524 88.9072 165.883 88.9072 166.781C88.9072 167.978 87.9669 167.978 88.155 170.423C88.2255 171.339 88.6663 172.05 89.1896 172.668C89.5386 173.08 89.9243 173.451 90.2615 173.815C90.7673 174.361 91.1639 174.891 91.1639 175.519C91.1639 175.734 91.1479 175.96 91.123 176.19C91.1211 176.206 91.1186 176.223 91.1167 176.24C91.0928 176.45 91.0617 176.664 91.0271 176.877C91.0116 176.973 90.9958 177.067 90.9795 177.162C90.9756 177.185 90.9717 177.207 90.9679 177.23C90.9051 177.594 90.8411 177.953 90.7981 178.281C90.798 178.281 90.7979 178.282 90.7979 178.282H90.798L95.4654 174.795C95.4652 174.795 94.0318 172.256 94.1209 169.511Z" fill="#0C121E"/>
<path d="M66.3868 108.392C66.3868 108.392 61.4502 106.101 60.604 106.033C59.7577 105.965 59.703 131.572 59.703 131.572C59.703 131.572 63.2838 124.663 63.8481 121.732C64.4122 118.8 66.3868 108.392 66.3868 108.392Z" fill="#2C3647"/>
<path d="M60.7451 97.7139C60.6998 97.7552 60.6476 97.7908 60.5913 97.8232C60.5719 97.8343 60.55 97.8431 60.5294 97.8532C60.4904 97.8724 60.4508 97.8909 60.4078 97.9065C60.3801 97.9167 60.3508 97.9252 60.3215 97.934C60.2819 97.9457 60.2415 97.9567 60.1993 97.966C60.1649 97.9736 60.1298 97.9804 60.0938 97.9865C60.0541 97.9931 60.0136 97.9985 59.9722 98.0032C60.1042 98.6403 60.2749 99.1793 60.463 99.0539C60.8861 98.7718 69.241 99.0073 70.9003 100.441C72.5598 101.875 74.5675 101.783 74.5675 101.783C74.5675 101.783 72.3121 99.2515 61.572 96.6859C61.316 97.0732 61.0261 97.4584 60.7451 97.7139Z" fill="#2C3647"/>
<path d="M61.5221 136.572C61.4503 135.584 63.3119 132.627 64.5673 131.23C65.8227 129.833 63.9891 126.792 63.9891 126.792C63.9891 126.699 59.6484 133.046 59.7031 134.738C59.7577 136.431 60.3219 142.073 60.3219 142.073L58.7206 139.957L56.4314 160.832L60.2103 156.459L61.5221 141.508C61.5221 141.508 61.5417 140.419 61.5502 139.242C61.5518 139.015 61.5531 138.785 61.5537 138.558C61.5557 137.723 61.5489 136.941 61.5221 136.572Z" fill="#2C3647"/>
<path d="M86.2742 114.074C85.4279 115.133 94.1208 123.542 94.1208 123.542L88.9832 121.903C88.9832 121.903 91.2109 124.845 91.7749 125.701C92.3391 126.558 89.2637 137.136 89.2637 137.136L96.5705 131.539L95.1291 108.392C95.1291 108.392 87.1205 113.015 86.2742 114.074Z" fill="#2C3647"/>
<path d="M88.6725 139.181C88.6843 139.201 94.0318 148.279 94.1727 148.984C94.3138 149.689 95.4652 163.37 95.4652 163.37L98.1594 159.803L95.4652 134.174L88.6722 139.18L88.672 139.18L88.6725 139.181Z" fill="#2C3647"/>
<path d="M70.9258 95.9122C70.8311 96.1602 70.7234 96.4012 70.6137 96.5665C70.5917 96.5996 70.5697 96.6296 70.5477 96.656C70.5407 96.6643 70.5298 96.6712 70.5216 96.6792C72.268 97.1725 73.6238 97.6083 73.964 97.8548C75.1317 98.7011 79.1749 101.028 79.1749 101.028C79.1749 101.028 77.882 98.0287 77.741 97.4834C77.6751 97.2287 74.6767 96.3533 71.0602 95.5325C71.051 95.5602 71.0421 95.5874 71.0325 95.6158C70.9995 95.7128 70.9637 95.813 70.9258 95.9122Z" fill="#2C3647"/>
<path d="M82.0428 92.2482C82.0428 92.2482 83.9376 92.2038 84.1231 91.9662C84.2753 91.7713 83.4201 88.5324 83.1068 87.3708C82.5879 87.4004 82.0733 87.4242 81.5647 87.4437C81.6616 88.3816 81.9831 91.5017 82.0428 92.2482Z" fill="#211F28"/>
<path d="M55.6675 82.1989C55.4319 82.3059 55.2227 82.9672 55.051 83.8655C54.8284 85.03 54.6696 86.5928 54.6001 87.8761C54.6071 87.7475 54.6146 87.6169 54.6235 87.4834C54.7998 88.2172 54.9597 89.0679 54.957 89.4157C54.9517 90.121 54.8683 90.121 57.4071 90.4621C59.9459 90.8033 58.9585 89.2747 59.1466 88.6843C59.3348 88.094 58.5355 83.8679 58.1594 82.26C58.1275 82.1241 58.1125 82.0119 58.1043 81.9097C58.1086 81.9098 58.1126 81.91 58.117 81.9101C58.094 81.9096 58.0709 81.9094 58.0478 81.9091C57.1093 81.8955 56.0969 82.0038 55.6675 82.1989Z" fill="#211F28"/>
<path d="M59.7031 92.4246C59.3663 91.9074 56.4668 92.5656 56.2317 92.7773C56.4433 92.7068 55.5265 96.656 56.5139 97.2202C56.8248 97.3979 57.2828 97.5825 57.7884 97.73C58.2021 97.8508 58.6464 97.9443 59.0691 97.9908C59.2954 97.6773 59.6572 97.3387 59.8518 97.0792C60.275 96.5149 60.04 92.9418 59.7031 92.4246Z" fill="#211F28"/>
<path d="M65.6816 91.8135C65.4465 91.0612 62.9077 91.8605 62.4376 91.5051C61.9674 91.1498 62.367 95.3161 62.367 95.3161C62.367 95.3161 62.3582 95.3335 62.3456 95.3581C62.3583 95.3335 62.367 95.3161 62.367 95.3161C62.367 95.3161 62.2965 96.2329 63.1428 96.515C63.7249 96.709 64.7031 96.801 65.3743 96.7488C65.4148 96.5859 65.4707 96.4122 65.5406 96.2333C65.8293 95.4951 65.9167 92.5657 65.6816 91.8135Z" fill="#211F28"/>
<path d="M70.2656 84.103C69.4193 84.0325 68.0793 84.103 67.5857 84.3145C67.092 84.5261 66.8805 84.8787 66.8805 84.8787C66.8805 84.8789 66.904 87.9112 67.1353 88.8985C67.3207 89.6903 69.0863 89.3629 70.044 88.9822C69.9096 87.5164 69.8076 86.2524 69.9009 85.7485C70.1709 84.291 71.7466 84.7376 71.7466 84.7376C71.394 84.5967 71.1119 84.1735 70.2656 84.103Z" fill="#211F28"/>
<path d="M62.6491 83.7504C62.3671 84.0324 61.0977 84.103 61.0977 84.103C61.2182 84.3885 61.3092 88.5224 61.7324 89.1336C62.1555 89.7448 65.1879 89.4768 65.6111 89.1948C66.0342 88.9127 65.3526 85.2313 65.1645 84.244C65.1275 84.05 65.1187 83.8972 65.1336 83.7776C64.1242 83.6271 62.8398 83.5598 62.6491 83.7504Z" fill="#211F28"/>
<path d="M74.0154 87.4453C73.0963 87.413 72.3351 87.3748 71.7794 87.3428C71.7795 87.3401 71.7796 87.3376 71.7798 87.335C71.7793 87.3352 71.7789 87.3355 71.7783 87.3358C71.7617 87.6947 71.743 88.0675 71.7199 88.4646C71.6844 89.0747 71.6431 89.7128 71.6001 90.3401C71.5787 90.6538 71.5567 90.9647 71.5348 91.2681C71.5314 91.3162 71.5279 91.3626 71.5244 91.4103C71.598 91.5357 71.6969 91.6439 71.8326 91.7194C72.5929 92.1425 73.7682 92.5656 74.0033 92.3776C74.2056 92.2158 74.0601 88.4862 74.0154 87.4453Z" fill="#211F28"/>
<path d="M95.2372 91.028C94.7369 91.3904 94.5872 94.4934 94.615 95.9038C94.643 97.3143 94.236 98.2872 94.5087 98.6307C94.5829 98.7241 94.6492 98.8466 94.6911 98.9745C95.2595 98.9718 95.8868 98.9188 96.5 98.9833C96.7072 99.0052 96.8861 99.0091 97.0528 99.0051C97.9643 98.9831 98.3285 98.5967 98.6862 98.0256C99.1093 97.3499 98.7567 90.3795 98.7567 90.3795C98.075 90.6381 95.7374 90.6656 95.2372 91.028Z" fill="#211F28"/>
<path d="M99.455 89.7854C99.455 89.7854 99.455 89.7854 99.455 89.7853C99.4815 89.7487 99.5124 89.7145 99.5324 89.6743C99.5575 89.6245 99.5712 89.5059 99.5761 89.3383C99.601 88.4779 99.382 86.2752 99.1212 84.8346C99.0018 84.1754 98.8738 83.6756 98.7567 83.5388C98.5122 83.2536 98.0279 83.1126 97.4214 83.0555C97.1584 83.0307 96.8687 83.025 96.5681 83.0275C96.4688 83.0713 95.9589 86.444 95.9121 87.1753C95.8651 87.9113 95.5831 90.076 96.1003 90.122C96.6174 90.168 99.1093 89.9329 99.5324 89.6743C99.5123 89.7146 99.4814 89.7487 99.455 89.7854Z" fill="#211F28"/>
<path d="M94.1099 83.4937C94.0594 83.4514 94.0088 83.409 93.9524 83.3648C93.7726 83.2235 93.5645 83.0742 93.3264 82.9277C92.7527 82.5746 91.7558 82.7017 90.894 82.8923C90.9898 83.8326 90.421 87.9883 90.5055 88.4192C90.5996 88.8986 92.3862 89.303 92.9973 89.195C93.6085 89.0868 94.1641 88.985 94.6149 88.7068C95.0659 88.4286 95.1731 87.8458 95.2371 87.6434C95.3011 87.4412 94.6399 84.5509 94.7368 84.1031C94.7368 84.1031 94.5184 83.8361 94.1099 83.4937Z" fill="#211F28"/>
<path d="M86.7551 83.9453C85.9818 84.1901 85.1129 84.5227 84.4819 84.7266C84.7276 84.8964 84.9695 85.1806 85.0518 85.6544C85.1316 86.1133 85.1776 87.6084 85.2435 89.2054C85.6982 89.1993 86.3842 89.233 86.8853 89.1947C87.6846 89.1335 88.907 89.2089 89.1891 88.4189C89.4711 87.629 89.4402 84.5743 89.3772 84.1734C89.3772 84.1734 89.0245 83.9618 88.3898 83.6798C88.1264 83.5627 87.4847 83.7143 86.7551 83.9453Z" fill="#211F28"/>
<path d="M74.5675 86.7828C74.5675 86.7828 74.5538 87.041 74.5359 87.4613C74.5322 87.5459 74.5286 87.6354 74.5247 87.7325C74.7622 87.8372 75.0368 87.9566 75.3338 88.0839C75.358 87.8408 75.3852 87.6767 75.4138 87.6291C75.6253 87.2764 80.4209 87.2764 80.4209 87.2764C80.6028 87.428 80.6932 88.6745 80.7094 90.0946C80.9836 90.1731 81.2469 90.2424 81.4928 90.2983C81.505 90.5582 81.5149 90.8213 81.5223 91.0833C81.4833 89.6945 81.3708 88.2743 81.2578 87.4551C81.2094 87.1042 81.1609 86.8634 81.1182 86.7828C80.8439 86.2656 74.5675 86.7828 74.5675 86.7828Z" fill="#AE8762"/>
<path d="M80.7094 90.0946C80.7309 91.9784 80.6218 94.168 80.4209 94.516C80.0683 95.1263 76.4683 94.4783 75.763 94.5242C75.153 94.564 75.1788 89.6423 75.3338 88.084C75.0368 87.9567 74.7622 87.8373 74.5246 87.7325C74.5246 87.7331 74.5246 87.7338 74.5245 87.7344C74.5234 87.7644 74.5221 87.7968 74.5209 87.828C74.519 87.877 74.5171 87.9265 74.5152 87.9781C74.5139 88.0113 74.5127 88.0455 74.5114 88.0798C74.5096 88.1322 74.5076 88.1858 74.5058 88.2405C74.5044 88.2779 74.5032 88.3154 74.5018 88.3539C74.4994 88.427 74.4969 88.502 74.4945 88.5786C74.494 88.5959 74.4934 88.6123 74.4929 88.6297C74.49 88.7251 74.4871 88.8232 74.4842 88.9229C74.4833 88.957 74.4824 88.9919 74.4815 89.0263C74.4797 89.0948 74.4778 89.164 74.4761 89.2341C74.4751 89.2757 74.474 89.3176 74.4731 89.3596C74.4715 89.4268 74.47 89.4946 74.4686 89.5628C74.4677 89.6049 74.4669 89.6468 74.466 89.6893C74.4639 89.7969 74.4619 89.9054 74.4603 90.0151C74.4601 90.0245 74.46 90.034 74.46 90.0434C74.4585 90.1447 74.4572 90.2467 74.456 90.3491C74.4556 90.3872 74.4554 90.4254 74.4551 90.4636C74.4543 90.5416 74.4538 90.6196 74.4534 90.6978C74.4531 90.7376 74.4529 90.7775 74.4528 90.8173C74.4524 90.8998 74.4524 90.9821 74.4524 91.0645C74.4525 91.0977 74.4524 91.131 74.4524 91.164C74.4528 91.2766 74.4533 91.3886 74.4544 91.5002C74.4546 91.5275 74.455 91.5544 74.4553 91.5816C74.4562 91.6671 74.4574 91.7521 74.4588 91.8366C74.4594 91.8749 74.4601 91.9128 74.4609 91.9508C74.4624 92.0275 74.4641 92.1033 74.4659 92.1787C74.4669 92.2148 74.4677 92.251 74.4688 92.2867C74.4716 92.3866 74.4748 92.4853 74.4786 92.5823C74.4788 92.59 74.479 92.5978 74.4794 92.6054C74.4835 92.7108 74.4882 92.8138 74.4934 92.9149C74.4949 92.9429 74.4964 92.97 74.4979 92.9975C74.5019 93.0697 74.5062 93.1407 74.5107 93.2103C74.5129 93.2429 74.5152 93.2754 74.5174 93.3074C74.5223 93.3763 74.5276 93.4434 74.5333 93.5092C74.5354 93.5341 74.5373 93.5599 74.5395 93.5844C74.5476 93.6728 74.5561 93.7585 74.5654 93.8404C74.5669 93.8531 74.5685 93.8647 74.57 93.8773C74.5781 93.9457 74.5866 94.0114 74.5956 94.0747C74.599 94.0985 74.6028 94.1213 74.6063 94.1444C74.6141 94.1955 74.6224 94.2444 74.631 94.2914C74.6349 94.313 74.639 94.3348 74.6431 94.3556C74.6491 94.3861 74.6555 94.4152 74.662 94.4438C74.6621 94.4447 74.6624 94.4455 74.6626 94.4465C74.6669 94.4653 74.6713 94.4839 74.6756 94.5018C74.6783 94.513 74.6809 94.5254 74.6837 94.5362C74.698 94.5911 74.7132 94.641 74.7292 94.6864C74.7333 94.698 74.7377 94.7076 74.7419 94.7186C74.7542 94.7506 74.7669 94.7802 74.7802 94.8064C74.7861 94.8182 74.7922 94.8291 74.7984 94.8398C74.8114 94.862 74.8249 94.881 74.8387 94.8977C74.8447 94.905 74.8506 94.9132 74.857 94.9194C74.8772 94.9394 74.898 94.9553 74.9201 94.9634C75.6958 95.2455 80.3319 95.5004 81.1181 94.9634C81.1441 94.9457 81.1684 94.92 81.1915 94.8886C81.1992 94.8781 81.2059 94.8636 81.2134 94.8517C81.2282 94.8277 81.2429 94.8035 81.2566 94.7739C81.2647 94.7563 81.2721 94.7353 81.2798 94.7158C81.2915 94.686 81.3034 94.656 81.3142 94.6218C81.3217 94.5986 81.3285 94.5728 81.3355 94.5477C81.3455 94.5116 81.3554 94.4749 81.3645 94.435C81.371 94.4065 81.3772 94.3766 81.3833 94.3464C81.3918 94.3045 81.3999 94.2614 81.4077 94.2163C81.4132 94.1838 81.4185 94.1508 81.4235 94.1168C81.4309 94.0677 81.4379 94.0168 81.4444 93.9646C81.4487 93.9308 81.4529 93.8971 81.4568 93.8621C81.4633 93.8041 81.4692 93.7439 81.4748 93.6827C81.4779 93.6492 81.4812 93.6163 81.4839 93.5818C81.4898 93.5112 81.4948 93.438 81.4995 93.3637C81.5014 93.3364 81.5033 93.3099 81.5049 93.282C81.5103 93.1897 81.5149 93.0948 81.5188 92.9979C81.5193 92.9852 81.5201 92.9732 81.5206 92.9606C81.5383 92.502 81.5404 91.9969 81.5314 91.4785C81.5313 91.4777 81.5314 91.477 81.5313 91.4762C81.529 91.3469 81.526 91.2169 81.5224 91.0866C81.5223 91.0856 81.5223 91.0845 81.5223 91.0835C81.5149 90.8215 81.5049 90.5584 81.4928 90.2985C81.2469 90.2424 80.9836 90.1731 80.7094 90.0946Z" fill="#7C573C"/>
<path d="M75.7631 94.5242C76.4683 94.4782 80.0683 95.1262 80.4209 94.5159C80.6219 94.1679 80.7311 91.9784 80.7095 90.0946C80.6933 88.6745 80.6027 87.4279 80.4209 87.2764C80.4209 87.2764 75.6254 87.2764 75.4138 87.629C75.3852 87.6766 75.358 87.8406 75.3338 88.0838C75.1788 89.6422 75.1529 94.5639 75.7631 94.5242Z" fill="#211F28"/>
<path d="M59.703 92.4247C60.0399 92.9418 60.2749 96.5151 59.8518 97.0792C59.6567 97.3391 59.2939 97.6786 59.0677 97.9925C59.2279 98.0104 59.384 98.0203 59.535 98.0229C59.5509 98.0231 59.5675 98.0243 59.5836 98.0244C59.6345 98.0246 59.6831 98.0222 59.7324 98.0206C59.7709 98.0192 59.8094 98.0182 59.8468 98.0157C59.8892 98.0128 59.93 98.0079 59.9709 98.0033C59.9714 98.0032 59.9718 98.0032 59.9721 98.0031C60.0135 97.9984 60.0541 97.993 60.0937 97.9864C60.1297 97.9804 60.1648 97.9734 60.1992 97.9659C60.2414 97.9566 60.2818 97.9457 60.3214 97.9339C60.3508 97.9251 60.38 97.9166 60.4078 97.9064C60.4508 97.8908 60.4903 97.8723 60.5293 97.8531C60.5498 97.843 60.5719 97.8341 60.5912 97.8231C60.6475 97.7907 60.6997 97.7551 60.745 97.7138C61.5207 97.0086 62.367 95.3161 62.367 95.3161C62.367 95.3161 61.9675 91.1497 62.4376 91.5051C62.9078 91.8605 65.4465 91.0612 65.6817 91.8135C65.9168 92.5657 65.8293 95.495 65.5405 96.2333C65.4703 96.413 65.4139 96.5876 65.3735 96.7512C65.4445 96.7457 65.511 96.7383 65.5743 96.7297C65.5917 96.7273 65.6074 96.7242 65.6243 96.7216C65.6683 96.7147 65.7102 96.7069 65.7491 96.6982C65.7668 96.6943 65.7837 96.6901 65.8002 96.6857C65.8358 96.6763 65.868 96.6659 65.8979 96.6548C65.9107 96.65 65.9247 96.6456 65.9364 96.6404C65.9749 96.6237 66.0089 96.6058 66.0343 96.5855C66.1665 96.4797 66.2987 96.3541 66.4123 96.2383C66.6017 96.0455 66.7394 95.8802 66.7394 95.8802C66.7394 95.8806 66.8101 96.8676 67.5857 96.9381C67.8281 96.9601 68.1739 96.9822 68.5455 96.9891C68.6941 96.9919 68.8468 96.9923 68.9988 96.9893C69.1508 96.9863 69.3019 96.9799 69.4471 96.9693C69.7378 96.9478 70.0052 96.9091 70.2099 96.8452C70.3634 96.7973 70.4816 96.7354 70.5477 96.656C70.5697 96.6295 70.5917 96.5994 70.6137 96.5664C70.7234 96.4012 70.8311 96.1601 70.9257 95.9122C70.9636 95.813 70.9995 95.7127 71.0325 95.6157C71.0422 95.5874 71.051 95.56 71.0601 95.5324C71.1766 95.1814 71.2528 94.8929 71.2528 94.8929C71.2528 94.8929 71.2856 94.5044 71.3353 93.8842C71.3354 93.8833 71.3355 93.8823 71.3355 93.8814C71.4928 93.9209 71.647 93.9629 71.8085 93.9989C71.9088 94.0212 72.0118 94.0409 72.1135 94.062C72.343 94.1094 72.5752 94.1545 72.8117 94.1954C72.9272 94.2154 73.0433 94.2346 73.1603 94.2531C73.4023 94.2913 73.6475 94.326 73.895 94.3578C73.999 94.3712 74.1018 94.3857 74.2067 94.398C74.3568 94.4156 74.5102 94.4284 74.662 94.4437C74.6555 94.4151 74.6492 94.386 74.6431 94.3555C74.6389 94.3347 74.635 94.3129 74.6311 94.2913C74.6224 94.2442 74.6141 94.1954 74.6063 94.1443C74.6027 94.1212 74.599 94.0985 74.5956 94.0746C74.5866 94.0114 74.578 93.9456 74.57 93.8773C74.5685 93.8646 74.5669 93.853 74.5655 93.8403C74.5562 93.7584 74.5475 93.6727 74.5395 93.5843C74.5374 93.5598 74.5354 93.5341 74.5333 93.5091C74.5277 93.4432 74.5223 93.3762 74.5174 93.3073C74.5151 93.2753 74.5129 93.2428 74.5108 93.2102C74.5062 93.1406 74.502 93.0696 74.498 92.9975C74.4965 92.9699 74.4949 92.9428 74.4934 92.9148C74.4882 92.8136 74.4835 92.7107 74.4794 92.6053C74.479 92.5977 74.4789 92.5899 74.4786 92.5822C74.4749 92.4852 74.4717 92.3866 74.4688 92.2866C74.4677 92.2508 74.4669 92.2147 74.466 92.1786C74.4641 92.1032 74.4623 92.0273 74.4609 91.9507C74.4601 91.9127 74.4594 91.8748 74.4588 91.8365C74.4574 91.7521 74.4562 91.667 74.4553 91.5815C74.4551 91.5543 74.4547 91.5274 74.4544 91.5001C74.4533 91.3886 74.4528 91.2765 74.4524 91.164C74.4524 91.1308 74.4525 91.0975 74.4524 91.0644C74.4524 90.982 74.4524 90.8997 74.4528 90.8172C74.4529 90.7773 74.4532 90.7375 74.4534 90.6977C74.4539 90.6194 74.4544 90.5415 74.4551 90.4635C74.4554 90.4253 74.4557 90.3871 74.4561 90.349C74.4572 90.2466 74.4585 90.1446 74.46 90.0433C74.4601 90.0339 74.4602 90.0244 74.4603 90.015C74.462 89.9053 74.4639 89.7968 74.466 89.6892C74.4669 89.6466 74.4678 89.6049 74.4686 89.5627C74.47 89.4944 74.4715 89.4267 74.4731 89.3595C74.474 89.3174 74.475 89.2757 74.4761 89.234C74.4778 89.1639 74.4796 89.0948 74.4815 89.0262C74.4825 88.9916 74.4833 88.9569 74.4843 88.9228C74.4871 88.823 74.4899 88.725 74.4929 88.6296C74.4934 88.6122 74.4941 88.5959 74.4946 88.5785C74.497 88.502 74.4994 88.427 74.5019 88.3538C74.5032 88.3152 74.5044 88.278 74.5058 88.2404C74.5077 88.1856 74.5096 88.1321 74.5114 88.0797C74.5127 88.0452 74.5139 88.0113 74.5152 87.978C74.5171 87.9264 74.519 87.8768 74.5209 87.8279C74.5222 87.7966 74.5233 87.7644 74.5246 87.7343C74.5247 87.7337 74.5246 87.733 74.5246 87.7324C74.5286 87.6354 74.5323 87.5458 74.5359 87.4613C74.3611 87.4561 74.1803 87.4511 74.0153 87.4452C74.0601 88.4861 74.2055 92.2158 74.0034 92.3776C73.7683 92.5656 72.5929 92.1425 71.8326 91.7194C71.697 91.6439 71.5981 91.5357 71.5245 91.4103C71.528 91.3626 71.5314 91.3162 71.5349 91.2681C71.5568 90.9647 71.5788 90.6537 71.6002 90.3401C71.6433 89.7128 71.6845 89.0747 71.72 88.4645C71.7555 87.8545 71.7852 87.2724 71.8052 86.7571C71.8202 86.3708 71.8297 86.022 71.8321 85.7272C71.8329 85.629 71.8328 85.5367 71.832 85.4511C71.8276 85.0228 71.8018 84.7597 71.7467 84.7377C71.7467 84.7377 70.171 84.2911 69.901 85.7486C69.8077 86.2524 69.9097 87.5164 70.0441 88.9822C69.0864 89.363 67.3208 89.6903 67.1354 88.8985C66.9041 87.9112 66.8806 84.879 66.8806 84.8787C66.8806 84.8787 66.8776 84.7764 66.8301 84.6394C66.7649 84.4512 66.6132 84.1957 66.2458 84.0324C66.1986 84.0115 66.1375 83.9906 66.0695 83.9699C66.051 83.9643 66.0304 83.9588 66.0106 83.9532C65.954 83.9373 65.8931 83.9216 65.8265 83.906C65.8063 83.9013 65.7867 83.8966 65.7656 83.892C65.5798 83.8509 65.3649 83.812 65.1337 83.7775C65.1188 83.897 65.1276 84.0498 65.1646 84.2439C65.3527 85.2312 66.0343 88.9126 65.6112 89.1946C65.188 89.4767 62.1556 89.7447 61.7325 89.1334C61.3094 88.5222 61.2183 84.3883 61.0977 84.1029C61.0977 84.1029 61.0889 84.0797 61.0721 84.0384C60.9545 83.7492 60.4454 82.569 59.8284 82.1988C59.7868 82.1738 59.7373 82.1509 59.6828 82.1294C59.6649 82.1223 59.6436 82.1161 59.6243 82.1093C59.5853 82.0957 59.5455 82.0822 59.5016 82.0701C59.4754 82.0629 59.4472 82.0563 59.4193 82.0496C59.3774 82.0394 59.3348 82.0295 59.2896 82.0206C59.2575 82.0142 59.2242 82.0082 59.1905 82.0024C59.1449 81.9945 59.0981 81.9871 59.0499 81.9802C59.0138 81.9751 58.9776 81.97 58.9402 81.9654C58.8904 81.9593 58.8392 81.9541 58.7872 81.949C58.7484 81.9452 58.7102 81.9412 58.6704 81.9378C58.6157 81.9334 58.5596 81.93 58.5033 81.9265C58.4641 81.9241 58.4258 81.9211 58.386 81.9193C58.2976 81.9151 58.2077 81.912 58.1169 81.9101C58.1126 81.91 58.1085 81.9098 58.1042 81.9097C58.1124 82.012 58.1276 82.1242 58.1593 82.26C58.5355 83.8679 59.3347 88.094 59.1466 88.6843C58.9586 89.2746 59.9458 90.8033 57.407 90.4621C54.8682 90.1209 54.9517 90.1209 54.957 89.4157C54.9596 89.0679 54.7998 88.2172 54.6234 87.4834C54.6147 87.6169 54.607 87.7476 54.6 87.8761C54.5987 87.9014 54.5974 87.926 54.5961 87.9511C54.5902 88.0626 54.5852 88.1719 54.5808 88.2785C54.58 88.2957 54.5792 88.3132 54.5785 88.3302C54.5738 88.4518 54.5699 88.5699 54.567 88.6832C54.5665 88.6997 54.5664 88.715 54.566 88.7312C54.5638 88.8247 54.5624 88.9147 54.5616 89.0015C54.5613 89.0285 54.5611 89.055 54.561 89.0812C54.5606 89.1667 54.5608 89.2486 54.562 89.3261C54.5621 89.339 54.5621 89.3529 54.5623 89.3655C54.5638 89.4528 54.5664 89.5335 54.5698 89.609C54.5707 89.6279 54.5719 89.6447 54.5728 89.6628C54.5759 89.7195 54.5796 89.7722 54.5839 89.8207C54.5854 89.8378 54.5869 89.8551 54.5886 89.871C54.5946 89.9295 54.6014 89.9832 54.6096 90.0267C54.7022 90.5204 54.9837 91.122 55.2887 91.6368C55.6812 92.2985 56.1125 92.8167 56.2316 92.7771C56.4666 92.5657 59.3662 91.9075 59.703 92.4247Z" fill="#100F13"/>
<path d="M55.6558 88.9101C55.6558 89.4398 56.0031 89.8693 56.4314 89.8693C56.8598 89.8693 57.2072 89.4399 57.2072 88.9101C57.2072 88.3804 56.8599 87.951 56.4314 87.951C56.0031 87.951 55.6558 88.3805 55.6558 88.9101Z" fill="#D0CED8"/>
<path d="M63.1966 87.6433C62.85 87.6433 62.5692 87.9906 62.5692 88.4191C62.5692 88.8476 62.8501 89.1949 63.1966 89.1949C63.5431 89.1949 63.824 88.8476 63.824 88.4191C63.8239 87.9906 63.543 87.6433 63.1966 87.6433Z" fill="#D0CED8"/>
<path d="M68.3144 87.1753C67.9679 87.1753 67.687 87.5226 67.687 87.9511C67.687 88.3795 67.9679 88.7269 68.3144 88.7269C68.661 88.7269 68.9419 88.3796 68.9419 87.9511C68.9419 87.5226 68.661 87.1753 68.3144 87.1753Z" fill="#D0CED8"/>
<path d="M99.5324 89.6742C99.1093 89.9328 96.6174 90.1679 96.1003 90.1218C95.5831 90.0759 95.8651 87.9112 95.9122 87.1752C95.9591 86.441 96.4733 83.0418 96.5696 83.0248C96.3635 83.0272 96.153 83.0331 95.9358 83.0451C95.8455 83.0502 95.7637 83.0609 95.6864 83.0745C95.6617 83.0788 95.6395 83.0846 95.616 83.0898C95.5654 83.1009 95.5167 83.1132 95.4718 83.1277C95.4488 83.1351 95.4266 83.1428 95.4051 83.151C95.3635 83.1668 95.3244 83.184 95.2877 83.2024C95.2703 83.2111 95.2522 83.2193 95.2359 83.2286C95.1929 83.253 95.1535 83.2789 95.1176 83.3063C95.1118 83.3107 95.105 83.3144 95.0995 83.3188C95.0583 83.3516 95.0221 83.3863 94.9896 83.4218C94.9819 83.4302 94.9756 83.4388 94.9684 83.4474C94.9448 83.4752 94.9229 83.5032 94.9039 83.5317C94.8969 83.5423 94.8905 83.5526 94.884 83.5632C94.8669 83.5912 94.8513 83.619 94.838 83.6468C94.8337 83.6556 94.8292 83.6643 94.8253 83.673C94.81 83.7073 94.7968 83.7412 94.7862 83.7737C94.786 83.7745 94.7855 83.7754 94.7853 83.7762C94.7853 83.7764 94.7853 83.7765 94.7853 83.7765C94.7719 83.8986 94.7565 84.0122 94.7369 84.1031C94.6399 84.5509 95.301 87.4412 95.2371 87.6435C95.1732 87.8457 95.066 88.4286 94.615 88.7068C94.1641 88.985 93.6085 89.0868 92.9974 89.195C92.3862 89.3031 90.5996 88.8987 90.5056 88.4192C90.4211 87.9883 90.9899 83.8326 90.8941 82.8923C90.8934 82.8925 90.8927 82.8927 90.8921 82.8928C90.775 82.9188 90.6613 82.9459 90.5507 82.9731C90.5243 82.9796 90.499 82.9859 90.4732 82.9923C90.3249 83.0294 90.1879 83.0651 90.0589 83.0991C90.0219 83.1088 89.9853 83.1184 89.9503 83.1276C89.9148 83.137 89.8778 83.1464 89.8444 83.1552C89.7626 83.1765 89.6862 83.1959 89.6194 83.2117C89.6173 83.2122 89.6143 83.213 89.6123 83.2135C89.612 83.2136 89.6118 83.2138 89.6115 83.2139C89.5545 83.2274 89.5093 83.2524 89.471 83.2834C89.4585 83.2936 89.4503 83.3072 89.4394 83.3189C89.417 83.3435 89.3958 83.3686 89.3804 83.3986C89.372 83.4149 89.3659 83.4326 89.3593 83.4502C89.3479 83.4805 89.338 83.511 89.3316 83.5441C89.3277 83.5634 89.3246 83.5828 89.3222 83.6026C89.318 83.6368 89.3155 83.6705 89.3149 83.7051C89.3147 83.7243 89.3139 83.7433 89.3144 83.7623C89.3155 83.7982 89.3179 83.832 89.3213 83.8658C89.323 83.8822 89.324 83.8993 89.3261 83.9149C89.3304 83.9493 89.3355 83.9794 89.3409 84.0087C89.3498 84.0578 89.3589 84.1017 89.3659 84.1299L89.3773 84.1736C89.4403 84.5745 89.4712 87.6292 89.1892 88.4191C88.9071 89.209 87.6847 89.1336 86.8854 89.1949C86.3842 89.2332 85.6983 89.1995 85.2436 89.2055C85.1777 87.6085 85.1316 86.1135 85.0519 85.6546C84.9695 85.1808 84.7276 84.8966 84.482 84.7267C84.3857 84.7579 84.2956 84.7854 84.2111 84.81C84.2028 84.8124 84.1937 84.8154 84.1856 84.8177C84.0977 84.8429 84.0171 84.8639 83.947 84.8789C83.7619 84.9186 83.6214 85.0004 83.5148 85.1085C83.5084 85.1149 83.5039 85.1227 83.4978 85.1292C83.3616 85.2769 83.2834 85.4683 83.2396 85.6685C83.2084 85.8113 83.1934 85.9578 83.1873 86.0952C83.1809 86.2402 83.1835 86.3747 83.1843 86.4829C83.1847 86.5189 83.1847 86.552 83.1842 86.5816C83.1832 86.6408 83.18 86.686 83.1712 86.7125L83.3175 87.3577C83.2474 87.3619 83.1768 87.3671 83.1068 87.3711C83.4202 88.5326 84.2754 91.7716 84.1232 91.9665C83.9376 92.2042 82.0428 92.2485 82.0428 92.2485C81.9831 91.502 81.6616 88.3819 81.5647 87.444C81.4621 87.4479 81.3598 87.4518 81.2578 87.4553C81.3708 88.2745 81.4832 89.6948 81.5223 91.0836C81.5223 91.0846 81.5223 91.0857 81.5224 91.0867C81.5261 91.2171 81.5291 91.3469 81.5313 91.4763C81.5314 91.4771 81.5313 91.4778 81.5314 91.4786C81.5404 91.9971 81.5383 92.5021 81.5206 92.9607C81.5201 92.9734 81.5193 92.9854 81.5188 92.998C81.5148 93.0949 81.5103 93.1899 81.5049 93.2821C81.5034 93.31 81.5014 93.3365 81.4995 93.3638C81.4948 93.4381 81.4898 93.5113 81.4839 93.5819C81.4812 93.6164 81.4779 93.6493 81.4749 93.6828C81.4693 93.744 81.4633 93.8043 81.4568 93.8622C81.4529 93.8972 81.4487 93.931 81.4444 93.9647C81.4379 94.017 81.431 94.0678 81.4236 94.1169C81.4185 94.1509 81.4133 94.1839 81.4077 94.2164C81.4 94.2616 81.3918 94.3046 81.3833 94.3465C81.3773 94.3767 81.371 94.4066 81.3645 94.4351C81.3617 94.4474 81.3593 94.4615 81.3564 94.4735C81.5902 94.4536 81.8242 94.434 82.0535 94.41C82.1604 94.3989 82.2646 94.3862 82.3704 94.3741C82.6085 94.3471 82.8439 94.3184 83.0755 94.2873C83.1916 94.2716 83.3064 94.2557 83.4207 94.239C83.6481 94.2059 83.8709 94.1705 84.0903 94.1335C84.1892 94.1169 84.2893 94.101 84.3865 94.0836C84.5265 94.0585 84.6585 94.0303 84.7946 94.0037C84.7947 94.0044 84.7948 94.005 84.795 94.0056C84.8209 94.143 84.8543 94.2986 84.896 94.4572C84.9027 94.4827 84.9097 94.508 84.9168 94.5336C84.9394 94.6144 84.9636 94.6952 84.9906 94.773C85.0533 94.9548 85.1283 95.1223 85.2164 95.2458C85.2605 95.3075 85.3442 95.345 85.4577 95.363C86.2522 95.4893 88.5045 94.6639 88.8131 94.5405C88.8787 94.5143 88.9257 94.4469 88.9653 94.366C88.9988 94.2973 89.0256 94.2182 89.0445 94.1282C89.0499 94.1022 89.0562 94.078 89.0606 94.0511C89.1204 93.6913 89.0951 93.2711 89.0951 93.2711V93.2713C89.0953 93.272 89.1482 93.483 89.2626 93.7206C89.3773 93.9586 89.5536 94.2231 89.8004 94.3289C89.8363 94.3443 89.8843 94.3543 89.9381 94.3616C90.1547 94.3911 90.5011 94.3602 90.876 94.3031C90.9007 94.2994 90.9252 94.2956 90.9502 94.2916C91.1583 94.2584 91.3714 94.2186 91.574 94.1775C91.6148 94.1692 91.6544 94.1611 91.694 94.1528C91.7921 94.1322 91.8854 94.1119 91.9741 94.0922C92.3491 94.0085 92.6212 93.9385 92.6212 93.9385V93.9386C92.6212 93.9386 92.532 95.1332 92.5793 96.3164C92.5899 96.5794 92.6072 96.8418 92.6336 97.0903C92.7 97.7119 92.8239 98.2473 93.0443 98.4897C93.0906 98.5405 93.14 98.5856 93.1921 98.6267C93.208 98.6392 93.2256 98.6491 93.2421 98.6608C93.2795 98.6874 93.3171 98.7138 93.3572 98.7361C93.3774 98.7475 93.3993 98.7568 93.4203 98.7671C93.4589 98.7862 93.4976 98.805 93.5384 98.8208C93.561 98.8297 93.5847 98.8369 93.6079 98.8448C93.6498 98.8589 93.6918 98.8726 93.7354 98.884C93.7587 98.8901 93.7825 98.8952 93.8063 98.9005C93.8526 98.9108 93.8993 98.9203 93.9474 98.9282C93.9702 98.9318 93.9931 98.9351 94.0163 98.9382C94.0684 98.9454 94.1213 98.9515 94.1753 98.9562C94.1949 98.9578 94.2147 98.9595 94.2346 98.961C94.2959 98.9654 94.3581 98.9687 94.4214 98.9708C94.4344 98.9713 94.4474 98.9718 94.4606 98.9721C94.5363 98.9741 94.6129 98.975 94.691 98.9745C94.6491 98.8466 94.5828 98.7241 94.5086 98.6307C94.2359 98.2873 94.6429 97.3144 94.6149 95.9038C94.5871 94.4934 94.7368 91.3904 95.237 91.028C95.7373 90.6657 98.0749 90.6381 98.7566 90.3795C98.7566 90.3795 98.977 90.2694 99.194 90.0834C99.3242 89.9718 99.453 89.8329 99.5324 89.6742Z" fill="#100F13"/>
<path d="M49.8847 184.175C50.5193 184.316 53.5518 184.245 54.6097 184.175C55.6675 184.104 56.2083 183.935 56.4315 183.491C56.6548 183.046 57.6421 181.224 57.4305 180.795C57.2189 180.366 55.9261 180.28 56.4315 179.865C56.9369 179.45 58.0652 180.139 58.3473 179.865C58.6294 179.591 60.9566 180.871 61.3093 180.795C61.6619 180.719 61.5208 180.084 61.3093 179.45C61.0977 178.815 59.123 177.545 58.3473 177.933C57.5716 178.321 56.3215 179.097 56.6291 178.533C56.9369 177.969 57.7126 176.911 57.2894 176.77C56.8663 176.629 55.9495 177.334 55.9495 177.334C55.9495 177.334 55.9892 178.572 54.6801 179.152C53.7052 179.584 52.7732 180.269 51.9972 180.96C51.7312 181.197 51.483 181.435 51.2583 181.664C51.2531 181.67 51.2475 181.676 51.2423 181.681C50.3646 182.579 49.2537 184.034 49.8847 184.175Z" fill="#17202F"/>
<path d="M63.9186 181.321C63.2134 181.636 60.0399 183.963 60.0399 183.963C60.0399 183.963 63.2134 184.288 63.566 183.491C63.9186 182.694 64.6238 181.006 63.9186 181.321Z" fill="#17202F"/>
<path d="M96.1473 183.046C95.2305 182.623 94.3842 182.699 94.2432 181.321C94.1021 179.943 95.957 177.071 95.16 177.545C95.16 177.545 92.4097 179.081 92.198 179.865C91.9865 180.649 91.7043 183.187 92.198 183.187C92.6917 183.187 94.6663 182.595 95.16 183.491C95.6536 184.386 96.4295 185.162 97.2757 185.444C98.122 185.726 103.693 185.229 103.834 184.772C103.975 184.316 103.2 183.393 101.93 182.655C100.661 181.918 97.0641 183.469 96.1473 183.046Z" fill="#17202F"/>
<path d="M98.8977 177.933C98.122 177.686 96.2179 178.251 96.2179 178.251C96.2179 178.251 94.6664 180.858 95.3011 181.282C95.9357 181.706 100.483 181.283 100.925 181.001C101.366 180.719 99.6735 178.18 98.8977 177.933Z" fill="#17202F"/>
<path d="M84.8845 26.8748L84.8844 26.8747C84.8772 27.702 84.8637 28.5564 84.8415 29.3513L84.88 29.1949C84.8676 29.5253 84.8533 29.8441 84.8379 30.1494C84.8645 30.0757 84.88 30.0322 84.88 30.0322C84.88 30.0322 84.8876 30.1198 84.898 30.2574C84.9686 30.2448 85.0415 30.2142 85.1107 30.1532C85.3969 29.9007 85.8159 28.2138 85.9502 27.1814C86.0844 26.1489 86.1333 25.0756 85.7101 24.6877C85.68 24.66 85.6466 24.6496 85.6143 24.6328C85.5927 24.8144 85.5698 24.9725 85.5445 25.0883C85.3799 25.8405 84.8845 26.8748 84.8845 26.8748Z" fill="#843732"/>
<path d="M76.6629 32.1781C76.5547 32.2819 76.4478 32.4149 76.407 32.5677C76.313 32.9203 75.9537 34.3308 76.1452 34.6364C76.3365 34.9419 78.0119 34.8714 78.6316 34.8479C79.2514 34.8244 80.1917 34.6833 80.3093 34.2837C80.4268 33.8842 80.5443 33.4375 80.3093 33.0849C80.1641 32.8672 79.8764 32.6231 79.7323 32.4567C79.6726 32.4356 79.6137 32.4129 79.5571 32.3866C79.0868 32.1681 78.5287 32.417 78.079 32.3866C77.7701 32.3656 77.1416 32.1555 76.6629 32.1781Z" fill="#F3B985"/>
<path d="M84.8904 24.5432C84.8879 23.8862 84.8824 23.343 84.876 23.0005C84.8824 23.3439 84.8879 23.8861 84.8904 24.5432Z" fill="#F3B985"/>
<path d="M84.8905 24.5695C84.8779 24.5068 84.4201 22.2395 83.8637 21.092C83.2994 19.9283 81.5717 19.3289 80.2317 19.1527C78.8917 18.9764 78.0102 19.7169 76.8349 20.4221C75.6595 21.1273 75.1541 20.9158 74.1315 20.9158C73.1089 20.9158 72.6152 21.1978 72.051 21.8678C71.4871 22.5376 71.0828 22.5356 71.0824 22.5356C71.0305 22.7568 70.9944 22.5303 70.7581 22.9021C70.5219 23.2741 70.0378 23.7828 70.0378 23.7828V25.7595C70.0378 25.7595 70.0378 25.7596 70.0379 25.7596V25.7254C70.851 27.078 73.3008 31.2435 74.0033 33.468C74.0033 33.468 74.0392 33.5408 74.1042 33.6604C74.249 33.2866 74.4145 32.9266 74.5734 32.7323C74.9965 32.2151 75.46 31.6521 76.1452 31.628C76.8302 31.6039 77.8944 31.8401 78.6316 31.628C79.3689 31.4159 79.9568 31.2278 80.462 31.3689C80.9674 31.51 81.3436 31.1361 81.7197 31.9577C81.9818 32.5303 82.3218 33.4032 82.4371 33.9149C83.1445 33.1954 83.9583 32.3081 84.1444 31.9093C84.2349 31.7005 84.3055 31.5284 84.3055 31.5284L84.8415 29.3514C84.8637 28.5565 84.8771 27.7021 84.8844 26.8748C84.8916 26.0458 84.8927 25.2476 84.8905 24.5695Z" fill="#F3B985"/>
<path d="M80.3093 33.0848C80.5444 33.4374 80.4269 33.884 80.3093 34.2836C80.1918 34.6832 79.2515 34.8243 78.6317 34.8478C78.0119 34.8713 76.3365 34.9418 76.1453 34.6362C75.9539 34.3307 76.3131 32.9202 76.4071 32.5676C76.4478 32.4148 76.5548 32.2818 76.663 32.178C76.4447 32.1883 76.2546 32.2422 76.1453 32.3926C75.8487 32.8005 75.7267 34.7185 75.3842 35.3633C75.6885 35.4918 75.9065 35.5693 75.9484 35.5753C76.1009 35.5977 76.6892 35.6 77.115 35.5753C77.5408 35.5507 78.2407 35.4119 78.6318 35.5753C78.9498 35.7082 80.2641 35.4858 81.0728 35.0947C80.8998 34.9952 80.8193 33.7782 80.7325 33.2087C80.6499 32.6655 80.1674 32.6104 79.7325 32.4565C79.8765 32.6229 80.1642 32.8671 80.3093 33.0848Z" fill="#BF724C"/>
<path d="M72.051 21.8678C72.6153 21.1979 73.109 20.9157 74.1316 20.9157C75.1541 20.9157 75.6595 21.1273 76.8349 20.4221C78.0103 19.7168 78.8917 18.9763 80.2317 19.1526C81.5716 19.329 83.2995 19.9284 83.8637 21.092C84.4201 22.2395 84.8779 24.5069 84.8905 24.5694C84.8882 23.8999 84.8825 23.3486 84.876 23.0005C84.8758 22.9855 84.8755 22.972 84.8752 22.9578C84.8743 22.9112 84.8733 22.8695 84.8724 22.8314C84.872 22.8151 84.8715 22.7989 84.8712 22.7841C84.8703 22.7521 84.8695 22.726 84.8685 22.7022C84.8681 22.691 84.8676 22.678 84.8673 22.6687C84.8661 22.6406 84.8648 22.6189 84.8636 22.6083C84.8636 22.6082 84.8636 22.6079 84.8636 22.6078C84.8252 22.2738 84.7976 21.8309 84.7173 21.4133C84.6652 21.1423 84.5912 20.8817 84.476 20.6689C84.4029 20.5338 84.2662 20.3726 84.0954 20.203C83.7537 19.8639 83.2748 19.4915 82.8917 19.2271C82.7001 19.095 82.5326 18.9898 82.4182 18.9294C81.8893 18.6502 81.4906 18.5021 80.9952 18.3943C80.8962 18.3727 80.7932 18.3527 80.6846 18.3337C80.4672 18.2955 80.2272 18.261 79.9499 18.2241C79.7393 18.1962 79.4833 18.1975 79.2072 18.2207C79.1833 18.2227 79.1587 18.2259 79.1346 18.2282C78.8927 18.2516 78.6376 18.2916 78.3823 18.3442C78.203 18.381 78.0242 18.4219 77.851 18.4699C77.705 18.5103 77.563 18.5542 77.4282 18.6008C77.1583 18.6939 76.917 18.7978 76.7292 18.9059C76.1783 19.2233 75.6898 19.4539 75.2572 19.6212C74.9688 19.7328 74.7052 19.8162 74.4646 19.8786C74.3443 19.9097 74.2297 19.9356 74.1207 19.9571C73.6843 20.0431 73.3357 20.0585 73.0595 20.0593C72.9213 20.0596 72.8014 20.0564 72.6974 20.0564C72.5415 20.0564 72.4222 20.0638 72.3325 20.1023C72.3026 20.1151 72.276 20.1314 72.2525 20.1519C72.2291 20.1724 72.204 20.1989 72.1779 20.2304C71.7863 20.7039 71.1312 22.3284 71.0825 22.5357C71.0828 22.5355 71.4872 22.5374 72.051 21.8678Z" fill="#BF724C"/>
<path d="M84.8415 29.3513L84.3055 31.5284C84.3055 31.5284 84.2349 31.7004 84.1444 31.9092C84.3744 31.4164 84.719 30.4774 84.8378 30.1494C84.8531 29.8442 84.8674 29.5254 84.8799 29.1949L84.8415 29.3513Z" fill="#BF724C"/>
<path d="M70.038 25.7252V26.4272C70.4135 27.442 71.0577 29.2814 71.0823 30.0322C71.1174 31.0935 71.9406 32.45 72.6459 33.5314C72.8835 33.8958 73.3198 34.2431 73.7983 34.5458C73.8745 34.3016 73.9818 33.9763 74.1042 33.6602C74.0393 33.5405 74.0033 33.4678 74.0033 33.4678C73.3007 31.2433 70.8509 27.0778 70.038 25.7252Z" fill="#BF724C"/>
<path d="M70.2303 30.259C70.2255 29.9845 69.5544 26.0376 69.5544 26.0376C69.5544 26.0376 69.525 25.2518 69.2429 24.9345C69.0365 24.7021 68.302 24.1692 67.8257 24.0377C67.6514 23.9896 67.5109 23.9936 67.4447 24.0882C67.1979 24.4408 67.3036 24.864 67.4447 26.2039C67.5858 27.5438 67.8902 29.2369 68.4256 29.7127C68.5559 29.8286 68.7305 29.9364 68.9193 30.0296C69.506 30.3195 70.234 30.4665 70.2303 30.259Z" fill="#843732"/>
<path d="M69.4899 27.6849C69.4899 27.6849 69.4546 24.864 67.621 24.3351C67.621 24.3351 67.3037 24.7582 67.621 25.1108C67.9384 25.4634 68.4251 25.5541 68.7636 26.0377C69.102 26.5214 69.4899 27.6849 69.4899 27.6849Z" fill="#BF724C"/>
<path d="M89.9762 55.177C90.4913 55.1778 91.7218 53.9256 91.7933 53.798C91.865 53.6703 92.7521 50.6314 92.7235 50.491C92.6948 50.3505 90.8633 49.2652 90.5199 49.0226C90.1765 48.7799 89.9763 48.831 89.9763 48.831C89.9763 48.831 89.776 48.7799 89.4325 49.0226C89.0891 49.2652 87.2575 50.3504 87.2288 50.491C87.2002 50.6314 88.0873 53.6703 88.159 53.798C88.2304 53.9256 89.4611 55.1778 89.9762 55.177Z" fill="#E8B136"/>
<path d="M90.4842 49.8469C91.0422 50.1688 91.9437 50.8771 91.9651 51.2635C91.9865 51.6499 91.3856 53.4313 91.6861 52.9591C91.9866 52.487 92.4802 50.4909 92.4802 50.4909L89.9762 48.9885C89.9762 48.9885 90.0979 48.8151 89.4754 49.2559C88.853 49.6967 87.4579 50.3191 87.5223 50.5982C87.5867 50.8772 87.6207 51.9504 87.7432 51.7143C87.8657 51.4781 87.7798 50.8558 88.5526 50.448C89.3251 50.0401 89.9261 49.5249 90.4842 49.8469Z" fill="#EFDDB9"/>
<path d="M101.53 55.6481C101.459 56.9175 100.925 61.9246 100.925 61.9246C100.925 61.9246 103.152 57.4817 103.222 55.6481C103.293 53.8146 101.247 50.5704 101.247 50.5704C101.247 50.5704 101.6 54.3787 101.53 55.6481Z" fill="#435063"/>
<path d="M104.985 68.2011C104.35 70.1052 103.434 72.644 103.645 72.4324C103.857 72.2209 106.96 68.2011 107.171 66.5791C107.383 64.957 104.985 61.0201 104.985 61.0201C105.126 61.2194 105.62 66.297 104.985 68.2011Z" fill="#435063"/>
<path d="M110.415 72.9967C109.922 72.2914 106.748 75.747 106.748 75.747C106.748 75.747 110.274 74.8302 110.415 74.8302C110.556 74.8302 110.909 73.7018 110.415 72.9967Z" fill="#435063"/>
<path d="M107.453 76.4234L111.755 77.1555C111.755 77.1555 112.108 76.6637 111.967 76.1952C111.826 75.7268 107.665 76.3111 107.453 76.4234Z" fill="#435063"/>
<path d="M101.318 83.2133L104.35 83.7866C104.35 83.7866 107.453 82.7288 107.947 82.0235C108.441 81.3183 101.318 83.2133 101.318 83.2133Z" fill="#435063"/>
<path d="M86.1556 18.5767C85.5679 17.4013 84.8627 16.037 84.0869 15.1202C83.3112 14.2034 82.1159 13.1381 80.1141 12.84C76.9642 12.3707 76.1884 12.6366 74.4254 12.8409C71.8564 13.1384 70.709 14.0162 70.0379 14.3689C69.3668 14.7215 68.2429 16.3435 68.3369 16.8842C68.3369 16.8842 67.9373 17.0252 67.7023 17.4248C67.4672 17.8244 67.1791 19.2819 67.2967 20.4103C67.4033 21.4343 67.4785 23.2657 67.8239 23.8609C67.824 23.9205 67.8246 23.9793 67.8259 24.0378C68.3021 24.1693 69.0366 24.7022 69.2431 24.9346C69.5251 25.2519 69.5545 26.0377 69.5545 26.0377C69.5545 26.0377 70.2256 29.9846 70.2304 30.2591C70.2341 30.4666 69.5061 30.3196 68.9195 30.0298C69.1091 30.772 69.4447 31.9179 69.7721 32.1984C69.9755 32.3728 70.195 32.4005 70.385 32.3762C70.3964 32.5157 70.4081 32.6543 70.4205 32.79C70.4206 32.7903 70.4206 32.7906 70.4206 32.7908C70.4871 33.5143 70.5691 34.1528 70.6713 34.3776C70.9064 34.8947 72.5519 35.6817 73.4923 36.252C74.4325 36.8223 75.2895 37.8579 76.1453 38.093C77.0012 38.3281 79.0693 38.0562 79.6983 38.0918C79.9754 38.1075 80.3783 37.9608 80.7643 37.7479C81.2543 37.4776 81.7163 37.0982 81.8525 36.78C81.958 36.5336 82.3798 36.0584 82.8468 35.557C83.4576 34.9012 84.1457 34.2005 84.3057 33.9075C84.5878 33.3903 84.7255 32.6988 84.8918 32.3863C85.024 32.1376 84.9384 30.7953 84.898 30.2574C84.8876 30.1198 84.8801 30.0322 84.8801 30.0322C84.8801 30.0322 84.8645 30.0757 84.8379 30.1494C84.7191 30.4774 84.3746 31.4164 84.1446 31.9091V31.9092C83.9584 32.308 83.1446 33.1952 82.4372 33.9148C82.322 33.4031 81.982 32.5302 81.7199 31.9576C81.3437 31.136 80.9676 31.5099 80.4622 31.3688C79.9569 31.2277 79.369 31.4158 78.6318 31.6279C77.8944 31.84 76.8304 31.6038 76.1453 31.6279C75.4602 31.652 74.9967 32.215 74.5736 32.7322C74.4146 32.9264 74.2491 33.2864 74.1043 33.6603C73.9819 33.9765 73.8747 34.3017 73.7984 34.5459C73.32 34.2432 72.8836 33.8959 72.646 33.5315C71.9407 32.4501 71.1175 31.0935 71.0825 30.0323C71.0577 29.2816 70.4136 27.4421 70.0381 26.4273C70.0381 26.4272 70.038 26.4272 70.038 26.4272V23.7827C70.038 23.7827 70.522 23.274 70.7583 22.9021C70.9945 22.5302 71.0307 22.7567 71.0826 22.5355C71.1312 22.3282 71.7862 20.7037 72.1779 20.2302C72.204 20.1987 72.229 20.1722 72.2525 20.1517C72.2759 20.1311 72.3026 20.1149 72.3324 20.1021C72.4221 20.0636 72.5415 20.0562 72.6973 20.0562C72.8013 20.0562 72.9213 20.0595 73.0594 20.0591C73.3357 20.0583 73.6843 20.0429 74.1206 19.9569C74.2298 19.9355 74.3443 19.9095 74.4645 19.8784C74.7052 19.816 74.9688 19.7326 75.2571 19.621C75.6897 19.4537 76.1781 19.2231 76.7292 18.9057C76.917 18.7976 77.1583 18.6937 77.4281 18.6006C77.5629 18.554 77.705 18.5101 77.851 18.4697C78.0242 18.4218 78.2029 18.3809 78.3822 18.3439C78.6377 18.2914 78.8926 18.2513 79.1345 18.228C79.1587 18.2257 79.1832 18.2225 79.2072 18.2205C79.4833 18.1974 79.7392 18.196 79.9498 18.2239C80.2271 18.2607 80.4672 18.2953 80.6845 18.3335C80.7932 18.3525 80.8961 18.3725 80.9952 18.3941C81.4905 18.5019 81.8892 18.65 82.4181 18.9292C82.5326 18.9896 82.7001 19.0947 82.8916 19.2269C83.2747 19.4912 83.7536 19.8637 84.0954 20.2028C84.2663 20.3724 84.4028 20.5336 84.4762 20.6687C84.5914 20.8815 84.6653 21.142 84.7174 21.4131C84.7977 21.8307 84.8252 22.2736 84.8636 22.6076C84.8636 22.6077 84.8636 22.608 84.8636 22.608C84.8648 22.6188 84.8661 22.6403 84.8673 22.6685C84.8678 22.6778 84.8682 22.6908 84.8685 22.702C84.8694 22.7257 84.8703 22.7521 84.8712 22.7839C84.8717 22.7986 84.8721 22.8149 84.8724 22.8312C84.8733 22.8691 84.8743 22.9111 84.8752 22.9576C84.8755 22.9718 84.8758 22.9853 84.8761 23.0003C84.8892 23.6993 84.8989 25.2274 84.8845 26.8745L84.8845 26.8746C84.8845 26.8746 85.38 25.8403 85.5445 25.088C85.5698 24.9722 85.5927 24.8141 85.6143 24.6326C85.7328 23.6349 85.8049 21.8331 85.9441 21.2563C86.1086 20.5748 86.7433 19.752 86.1556 18.5767ZM76.1451 32.3927C76.2545 32.2422 76.4446 32.1883 76.6629 32.178C77.1417 32.1554 77.7702 32.3656 78.079 32.3864C78.5287 32.4169 79.0868 32.168 79.557 32.3864C79.6136 32.4128 79.6726 32.4355 79.7323 32.4566C80.1672 32.6105 80.6497 32.6656 80.7323 33.2088C80.8191 33.7783 80.8996 34.9952 81.0726 35.0947C80.2639 35.4858 78.9496 35.7084 78.6316 35.5754C78.2405 35.4119 77.5406 35.5508 77.1148 35.5754C76.689 35.6001 76.1007 35.5977 75.9482 35.5754C75.9063 35.5692 75.6883 35.4918 75.384 35.3633C75.7266 34.7186 75.8486 32.8006 76.1451 32.3927Z" fill="#362026"/>
<path d="M83.1713 86.7124C83.1801 86.6859 83.1833 86.6407 83.1843 86.5815C83.1848 86.5519 83.1847 86.5188 83.1844 86.4828C83.1838 86.4188 83.183 86.3448 83.1835 86.2657H79.363H76.1452L69.7719 79.4499V81.8585L64.8353 83.2134C64.8353 83.2134 61.4502 80.859 61.2166 80.5779C60.9831 80.2969 61.522 73.3944 61.522 73.3944L58.7206 64.1626C58.7206 64.1626 58.2062 58.8828 58.2062 57.5866C58.2062 57.5834 58.2058 57.5803 58.2058 57.5771C58.2055 57.3017 58.1905 57.0237 58.1664 56.7446C58.1581 56.6483 58.1441 56.5515 58.1331 56.4549C58.1119 56.2675 58.0892 56.0799 58.0591 55.8921C58.0413 55.7808 58.0201 55.6695 57.9994 55.5582C57.9669 55.3834 57.9325 55.2087 57.8936 55.0346C57.8685 54.9218 57.8422 54.8095 57.8147 54.6972C57.7716 54.5215 57.7258 54.3466 57.6774 54.1726C57.6509 54.0771 57.6247 53.9815 57.5969 53.8867L56.8123 52.5575C56.8123 52.5575 56.2693 59.8832 56.5642 60.897C56.8591 61.9108 58.3921 71.8779 57.9078 72.16C57.4235 72.4419 55.5994 67.4563 55.5976 67.4514C55.5982 67.4559 55.5987 67.4592 55.5993 67.4636C55.6464 67.8195 55.675 68.0291 55.675 68.0291C55.675 68.0291 55.6721 68.0203 55.6676 68.0068C55.6648 67.9981 55.6594 67.9821 55.655 67.9688C55.6511 67.9573 55.6457 67.941 55.6408 67.9264C55.6221 67.8702 55.5962 67.7928 55.5631 67.6938C55.563 67.6935 55.5629 67.6932 55.5629 67.6929C55.5366 67.6144 55.5059 67.5227 55.4716 67.4203C55.4496 67.3548 55.4263 67.2852 55.4014 67.2108C55.3916 67.1817 55.3819 67.1528 55.3718 67.1224C55.3572 67.0791 55.3421 67.0343 55.3267 66.9885C55.3156 66.9554 55.3042 66.9215 55.2926 66.8872C55.2763 66.8388 55.26 66.7899 55.2428 66.7391C55.232 66.707 55.2208 66.6737 55.2097 66.6407C55.1103 66.3455 54.9992 66.0159 54.879 65.6609C54.8752 65.6494 54.8713 65.6381 54.8674 65.6267C54.8361 65.5343 54.8043 65.4405 54.7719 65.3452C54.7712 65.3429 54.7704 65.3408 54.7697 65.3385C54.4263 64.3265 54.0264 63.1577 53.6463 62.0707C53.6457 62.0691 53.6451 62.0674 53.6446 62.0657C53.6079 61.9609 53.5714 61.8568 53.5352 61.7537C53.5329 61.747 53.5305 61.7404 53.5282 61.7338C53.4935 61.6349 53.459 61.537 53.4247 61.4401C53.4191 61.4242 53.4135 61.4085 53.4078 61.3925C53.2677 60.9959 53.1328 60.6187 53.0073 60.2737C53.003 60.2617 52.9985 60.2495 52.9942 60.2376C52.9654 60.1586 52.9373 60.0817 52.9096 60.0063C52.9068 59.9987 52.9038 59.9906 52.9011 59.9831C52.9011 59.9832 52.9011 59.9833 52.9011 59.9833C53.1235 61.8941 53.3486 64.1097 53.26 64.5952C53.0978 65.4838 56.5299 73.1942 55.8952 73.6644C55.2605 74.1346 53.0462 71.5017 53.26 71.9719C53.4739 72.442 54.8988 76.628 54.8988 76.628C54.8988 76.628 57.3701 73.5454 59.4092 70.7229L59.4092 70.7226C59.6554 72.8971 59.8909 74.9262 60.061 76.4581C60.0616 76.4641 60.0623 76.4703 60.063 76.4763C60.0853 76.6766 60.1064 76.869 60.1263 77.0514C60.1266 77.0544 60.1269 77.0572 60.1272 77.0601C60.1449 77.2227 60.1614 77.3764 60.177 77.5236C60.1801 77.5528 60.1832 77.5827 60.1863 77.6114C60.2019 77.7594 60.2166 77.9006 60.2297 78.0308C60.2312 78.0456 60.2324 78.0586 60.2338 78.0731C60.2453 78.1868 60.2555 78.2919 60.2649 78.3905C60.2673 78.4158 60.2697 78.4413 60.272 78.4656C60.2818 78.5712 60.2906 78.6698 60.2976 78.7552C60.2982 78.7617 60.2984 78.7666 60.2989 78.7729C60.3052 78.8494 60.3098 78.9151 60.3135 78.9738C60.3146 78.9907 60.3155 79.007 60.3163 79.0223C60.3195 79.0801 60.3217 79.131 60.3217 79.1663C60.3217 79.4839 60.3481 79.978 60.3968 80.5539C60.2112 80.4539 60.0704 80.3393 60.0084 80.1995C59.8991 79.9526 59.7754 79.7058 59.6363 79.4744C59.2191 78.7802 58.6633 78.2248 57.9404 78.2248C56.9767 78.2248 56.1539 78.0838 56.1539 78.0838L54.8989 76.6279L53.0284 74.5363C53.0807 74.7345 53.1263 74.9055 53.1629 75.0422C53.1659 75.0534 53.1683 75.0625 53.1711 75.0733C53.1793 75.1035 53.1872 75.1331 53.1942 75.1595C53.1988 75.1765 53.2026 75.1905 53.2068 75.2058C53.2137 75.2316 53.2205 75.2567 53.2261 75.2778C53.248 75.3587 53.2602 75.404 53.2602 75.404L48.0204 68.9365C48.0204 68.9365 51.0294 73.4764 51.8757 75.4509C52.7219 77.4256 53.2603 79.5882 53.2603 79.5882L55.8954 79.1181L54.5491 80.3405C54.5491 80.3405 57.9219 80.9047 58.0018 81.2808C58.021 81.3711 58.037 81.6045 58.0478 81.909C58.0709 81.9093 58.094 81.9094 58.117 81.9099C58.2077 81.9119 58.2976 81.9149 58.3861 81.9192C58.4259 81.9211 58.4641 81.924 58.5033 81.9264C58.5596 81.9298 58.6157 81.9333 58.6704 81.9377C58.7102 81.941 58.7485 81.945 58.7873 81.9488C58.8392 81.9539 58.8905 81.9592 58.9403 81.9653C58.9777 81.9699 59.0138 81.9749 59.05 81.9801C59.0982 81.987 59.145 81.9943 59.1905 82.0022C59.2243 82.008 59.2575 82.014 59.2896 82.0204C59.3349 82.0295 59.3775 82.0393 59.4194 82.0494C59.4472 82.0562 59.4755 82.0627 59.5017 82.07C59.5457 82.0822 59.5854 82.0956 59.6244 82.1092C59.6437 82.1159 59.6649 82.1221 59.6829 82.1292C59.7373 82.1508 59.787 82.1737 59.8285 82.1986C60.4455 82.5689 60.9545 83.7491 61.0722 84.0383C61.089 84.0796 61.0978 84.1027 61.0978 84.1027C61.0978 84.1027 62.3672 84.0322 62.6492 83.7501C62.8398 83.5595 64.1243 83.6267 65.1338 83.7774C65.3651 83.8119 65.5798 83.8506 65.7657 83.8918C65.7868 83.8965 65.8064 83.9011 65.8265 83.9059C65.893 83.9214 65.9541 83.9371 66.0107 83.9531C66.0305 83.9587 66.0511 83.9641 66.0695 83.9698C66.1374 83.9905 66.1988 84.0114 66.2459 84.0323C66.6132 84.1956 66.7649 84.4511 66.8302 84.6393C66.8776 84.7763 66.8806 84.8785 66.8806 84.8785C66.8806 84.8785 67.0922 84.526 67.5859 84.3144C68.0795 84.1029 69.4195 84.0324 70.2658 84.1029C71.1121 84.1735 71.3941 84.5966 71.7467 84.7375C71.8018 84.7596 71.8276 85.0227 71.832 85.4509C71.8329 85.5365 71.8329 85.6288 71.8321 85.7271C71.8298 86.0218 71.8202 86.3706 71.8053 86.757C71.798 86.9433 71.7892 87.1407 71.7795 87.3426C72.3352 87.3746 73.0964 87.4129 74.0155 87.4451C74.1805 87.4509 74.3612 87.4559 74.536 87.4612C74.554 87.0408 74.5676 86.7827 74.5676 86.7827C74.5676 86.7827 80.8441 86.2655 81.1184 86.7827C81.161 86.8632 81.2096 87.104 81.258 87.4549C81.36 87.4513 81.4623 87.4476 81.5649 87.4436C82.0735 87.4242 82.5881 87.4002 83.107 87.3707C83.177 87.3668 83.2477 87.3616 83.3177 87.3573L83.1713 86.7124Z" fill="#0C121E"/>
</svg>
