<svg width="200" height="200" viewBox="0 0 200 200" fill="none" xmlns="http://www.w3.org/2000/svg">
<path d="M68.15 183.73C81.2115 183.73 91.8 180.61 91.8 176.762C91.8 172.913 81.2115 169.793 68.15 169.793C55.0885 169.793 44.5 172.913 44.5 176.762C44.5 180.61 55.0885 183.73 68.15 183.73Z" fill="#6581AF"/>
<path d="M78.9629 108.77C78.9629 108.77 82.8329 127.475 82.8245 137.206H71.9997C71.9997 137.206 68.3597 119.218 68.3425 117.187C68.3169 114.13 68.8441 108.77 68.8441 108.77L78.9629 108.77Z" fill="#1D2B41"/>
<path d="M57.722 108.77C57.722 108.77 53.852 127.475 53.8604 137.206H64.6852C64.6852 137.206 68.3252 119.218 68.3424 117.187C68.368 114.13 67.8408 108.77 67.8408 108.77L57.722 108.77Z" fill="#1D2B41"/>
<path d="M71.9996 137.205L74.0476 170.916H81.9468C81.9468 170.916 82.3124 153.509 82.3124 151.6C82.3124 149.691 82.788 138.392 82.8244 137.205C82.8608 136.019 73.9012 134.644 71.9996 137.205Z" fill="#1D2B41"/>
<path d="M58.4936 97.5464C58.7988 93.4236 55.7404 81.2072 56.2752 79.8328C56.8096 78.4584 65.2124 77.0852 65.2124 77.0852C65.7468 78.0776 68.648 78.9176 68.648 78.9176C68.648 78.9176 71.5492 78.0776 72.0836 77.0852C72.0836 77.0852 80.4864 78.4584 81.0208 79.8328C81.5552 81.2072 78.4968 93.4236 78.8024 97.5464C79.1076 101.669 81.93 126.278 81.93 126.278H54.7556C54.7556 126.278 58.188 101.669 58.4936 97.5464Z" fill="#E7E9F3"/>
<path d="M64.6853 137.205L62.6373 170.916H54.7381C54.7381 170.916 54.3725 153.509 54.3725 151.6C54.3725 149.691 53.8969 138.392 53.8605 137.205C53.8241 136.019 62.7837 134.644 64.6853 137.205Z" fill="#1D2B41"/>
<path d="M56.726 79.376C56.726 79.376 52.6964 82.2732 46.8968 90.8364C46.8968 90.8364 46.852 96.502 48.8388 96.8668C51.2428 97.308 52.3988 95.3808 52.3988 95.3808L57.7024 89.9964L56.726 79.376Z" fill="#E7E9F3"/>
<path d="M80.5804 79.376C80.5804 79.376 84.61 82.2732 90.4096 90.8364C90.4096 90.8364 90.4544 96.502 88.4676 96.8668C86.0636 97.308 84.9076 95.3808 84.9076 95.3808L79.604 89.996L80.5804 79.376Z" fill="#E7E9F3"/>
<path d="M53.1312 94.158L55.1504 108.374L53.4924 111.578C53.4924 111.578 46.2736 96.5284 46.8968 90.836L53.1312 94.158Z" fill="#E3A274"/>
<path d="M55.1504 108.374C55.1504 108.374 56.6664 108.959 56.7144 109.282C56.7624 109.605 57.7936 112.759 57.1656 113.606C56.5376 114.454 55.2804 115.082 55.2804 115.082C55.2804 115.082 53.8044 113.259 53.4924 111.578L55.1504 108.374Z" fill="#E3A274"/>
<path d="M54.4716 103.391L49.718 105.014L49.1272 103.848L54.2004 101.686L54.4716 103.391Z" fill="#F5FAFF"/>
<path d="M50.168 103.742C50.168 103.742 49.9852 103.323 49.7032 102.667C48.0744 98.3556 46.6004 93.5404 46.8964 90.8364L53.1308 94.158L54.2 101.687L50.168 103.742Z" fill="#E7E9F3"/>
<path d="M85.4788 90.2592L89.906 78.9268L93.206 78.7704C93.206 78.7704 92.6052 91.6232 89.2272 96.2468L85.4788 90.2592Z" fill="#E3A274"/>
<path d="M89.8289 79.5708C89.8289 79.5708 88.5037 78.6288 88.5261 78.3032C88.5485 77.9776 88.2165 74.6764 89.0113 73.9828C89.8061 73.2892 91.7193 72.6816 91.7193 72.6816C91.7193 72.6816 93.2613 77.062 93.2061 78.7704L89.8289 79.5708Z" fill="#E3A274"/>
<path d="M88.8708 81.5772L93.8504 82.5504L93.7812 83.856L88.24 83.192L88.8708 81.5772Z" fill="#F5FAFF"/>
<path d="M92.79 83.7368C92.79 83.7368 92.7752 83.8832 92.6924 84.5924C91.9548 89.1416 91.162 93.546 89.2272 96.2472L85.4788 90.2596L88.2396 83.1924L92.79 83.7368Z" fill="#E7E9F3"/>
<path d="M66.4256 71.808L68.648 73.1276L70.8704 71.808C70.8704 71.808 70.652 74.8904 71.3012 76.5128C71.3012 76.5128 69.8124 78.622 68.6484 77.7916C67.484 78.622 65.9952 76.5128 65.9952 76.5128C66.6436 74.8904 66.4256 71.808 66.4256 71.808Z" fill="#E3A274"/>
<path d="M68.6425 75.0048C67.8545 74.962 67.0721 74.4932 66.4401 73.912C66.4941 72.7756 66.4257 71.808 66.4257 71.808L68.6481 73.1276L70.8705 71.808C70.8705 71.808 70.8029 72.7704 70.8557 73.9024C70.2213 74.4884 69.4349 74.962 68.6425 75.0048Z" fill="#C08963"/>
<path d="M72.6232 64.9604C72.6232 64.9604 72.566 71.0144 72.0504 72.0452C71.5352 73.076 70.1228 73.888 68.7104 73.9644C67.298 73.888 65.8856 73.076 65.3704 72.0452C64.8552 71.0144 64.7976 64.9604 64.7976 64.9604H72.6232Z" fill="#E3A274"/>
<path d="M72.5164 66.7048C72.5164 66.7048 73.4172 66.3608 73.5888 66.7328C73.7604 67.1048 73.7524 69.0484 72.368 69.2792L72.5164 66.7048Z" fill="#E3A274"/>
<path d="M64.8216 66.7048C64.8216 66.7048 63.8784 66.3608 63.7064 66.7328C63.5348 67.1048 63.5728 69.0484 64.9576 69.2792L64.8216 66.7048Z" fill="#E3A274"/>
<path d="M72.7993 66.6544C72.9457 66.0788 72.8565 65.324 72.6237 64.1296C72.5901 63.9568 72.5889 64.6212 72.5197 64.4552C72.3725 64.104 72.2221 62.9184 71.3013 62.6748C70.9505 62.582 70.5369 62.1088 70.1889 62.072C64.7981 61.502 64.6409 64.77 64.6077 65.2992C64.5765 65.798 64.5021 66.612 64.5021 66.612C64.5165 67.1036 64.5353 66.9992 64.8489 67.2132C64.8489 67.2132 64.9869 67.104 65.0733 66.606C65.1597 66.1084 65.4453 65.6436 65.8005 65.6324C65.8349 65.6312 65.8709 65.634 65.9025 65.6136C66.0049 65.548 65.9853 65.3084 66.0757 65.2128C66.3437 65.5192 66.7001 65.5988 67.0401 65.65C68.1173 65.8124 69.2077 65.7948 70.2825 65.598C70.7509 65.5124 71.2529 65.4 71.6753 65.7052C71.8149 65.806 71.9437 65.9588 72.0037 66.1672C72.0493 66.3264 72.1961 66.406 72.3685 66.9316C72.4689 67.2396 72.7021 67.036 72.7993 66.6544Z" fill="#1D2B41"/>
<path d="M69.4632 71.4664H67.8212C67.8212 71.4664 68.7024 72.8596 69.4632 71.4664Z" fill="white"/>
<path d="M65.7408 69.378C65.9728 69.67 66.3868 69.8176 66.9712 69.8176C66.9712 69.8176 67.002 69.8204 67.054 69.8204C67.3364 69.8204 68.2508 69.7416 68.3828 68.7484L68.3836 68.0872C68.4496 68.0732 68.9708 68.0744 69.0372 68.088V68.7328C69.17 69.7392 70.084 69.8204 70.3736 69.8204C70.4616 69.8204 70.462 69.8168 70.4644 69.8168C71.0364 69.8168 71.4496 69.6692 71.6812 69.3784C71.9532 69.0368 71.864 68.632 71.86 68.6148L71.8628 67.8356L71.776 67.8116C70.3748 67.4392 69.3472 67.7948 69.1508 67.8724C69.0788 67.852 68.3444 67.8532 68.272 67.8728C68.0784 67.796 67.0504 67.4388 65.646 67.8116L65.5592 67.8356V68.6412C65.556 68.6412 65.4716 69.0412 65.7408 69.378ZM69.2708 68.7172L69.2716 68.078C69.5252 67.9884 70.44 67.7228 71.6284 68.0156V68.6408C71.632 68.67 71.698 68.9832 71.496 69.234C71.3096 69.4656 70.958 69.5828 70.45 69.5828C70.3992 69.5888 69.3972 69.6676 69.2708 68.7172ZM65.7904 68.6668L65.7928 68.016C66.9808 67.7256 67.896 67.9896 68.15 68.0772V68.7328C68.024 69.672 67.024 69.5852 66.9832 69.5844C66.464 69.5836 66.112 69.4664 65.926 69.2348C65.7236 68.9836 65.7896 68.6696 65.7904 68.6668Z" fill="#1D2B41"/>
<path d="M72.0832 77.0856L70.9528 75.2152C70.9528 75.2152 69.4876 77.7156 68.6476 77.792L68.7104 79.5712C68.7104 79.5712 70.7092 79.0324 72.0832 77.0856Z" fill="#DDDFE9"/>
<path d="M65.212 77.0856L66.3292 75.1404C66.3292 75.1404 67.808 77.7156 68.648 77.792L68.7108 79.5712C68.7108 79.5712 66.5864 79.0324 65.212 77.0856Z" fill="#DDDFE9"/>
<path d="M69.5 67.0268C70.0888 66.3252 71.1908 66.4808 71.964 67.0696C71.964 67.0696 70.5944 66.7116 69.6924 67.2748C69.6924 67.2748 69.1632 67.428 69.5 67.0268Z" fill="#1D2B41"/>
<path d="M67.8428 67.1412C67.254 66.4396 66.152 66.5952 65.3788 67.184C65.3788 67.184 66.748 66.826 67.6504 67.3892C67.6504 67.3892 68.18 67.5424 67.8428 67.1412Z" fill="#1D2B41"/>
<path d="M61.4696 170.916L61.8144 173.369C61.8572 173.673 61.5948 173.95 61.222 173.994L60.0352 174.135L59.792 174.426C59.792 174.426 56.08 178.768 52.0144 179.582C48.318 180.322 48.4068 178.713 48.5216 178C48.636 177.286 52.3196 172.972 54.7516 170.916H61.4696Z" fill="#1D2B41"/>
<path d="M61.8145 173.369L61.6849 172.447C61.3561 172.688 60.4593 173.299 59.9349 173.206C59.9349 173.206 54.8769 178.322 52.1477 179.181C49.4197 180.039 48.4965 178.207 48.4953 178.205C48.4205 178.976 48.6381 180.258 52.0137 179.582C56.0793 178.768 59.7913 174.426 59.7913 174.426L60.0345 174.135L61.2213 173.994C61.5949 173.95 61.8573 173.673 61.8145 173.369Z" fill="#1D2B41"/>
<path d="M75.2156 170.916L74.8708 173.369C74.828 173.673 75.0904 173.95 75.4632 173.994L76.65 174.135L76.8932 174.426C76.8932 174.426 80.6052 178.768 84.6708 179.582C88.3672 180.322 88.2784 178.713 88.1636 178C88.0492 177.286 84.3656 172.972 81.9336 170.916H75.2156Z" fill="#1D2B41"/>
<path d="M74.8711 173.369L75.0007 172.447C75.3295 172.688 76.2263 173.299 76.7507 173.206C76.7507 173.206 81.8088 178.322 84.538 179.181C87.266 180.039 88.1892 178.207 88.1904 178.205C88.2652 178.976 88.0475 180.258 84.6719 179.582C80.6063 178.768 76.8943 174.426 76.8943 174.426L76.6512 174.135L75.4643 173.994C75.0907 173.95 74.8283 173.673 74.8711 173.369Z" fill="#1D2B41"/>
<path d="M71.6972 55.51L69.0476 54.0964C68.8372 53.984 68.5844 53.984 68.374 54.0964L65.7244 55.51C65.5092 55.6248 65.3676 55.8412 65.348 56.084L64.5024 66.6124L64.8224 66.7044C65.2332 64.6744 67.9528 64.2752 68.6192 64.2076C68.6676 64.2028 68.6996 64.2028 68.748 64.2076C69.4228 64.2752 72.1892 64.6736 72.6004 66.7048L72.9204 66.6128L72.0748 56.0844C72.054 55.8412 71.9124 55.6248 71.6972 55.51Z" fill="#E7E9F3"/>
<path d="M71.5928 57.394L71.3776 62.9768L70.7052 62.602L70.2984 55.8292L69.9404 62.1848L69.0324 61.9144L68.686 54.9216L68.3396 61.9144L67.4316 62.1848L67.0736 55.8292L66.6668 62.602L65.9944 62.9768L65.7792 57.394L65.4612 64.2904C66.6976 62.6096 68.6856 62.5904 68.6856 62.5904C68.6856 62.5904 70.674 62.6096 71.91 64.2904L71.5928 57.394Z" fill="#D5D9E9"/>
<path d="M74.7952 126.278H74.4788V82.8116L68.7108 79.5708L69.1556 79.4116L74.7952 82.6212V126.278Z" fill="#DDDFE9"/>
<path d="M70.7844 85.4248C71.0176 85.4248 71.2064 85.236 71.2064 85.0028C71.2064 84.7696 71.0176 84.5808 70.7844 84.5808C70.5512 84.5808 70.3624 84.7696 70.3624 85.0028C70.3624 85.2356 70.5512 85.4248 70.7844 85.4248ZM65.9004 84.5804C65.6672 84.5804 65.4784 84.7692 65.4784 85.0024C65.4784 85.2356 65.6672 85.4244 65.9004 85.4244C66.1336 85.4244 66.3224 85.2356 66.3224 85.0024C66.3224 84.7696 66.1336 84.5804 65.9004 84.5804ZM65.9004 89.7428C65.6672 89.7428 65.4784 89.9316 65.4784 90.1648C65.4784 90.398 65.6672 90.5868 65.9004 90.5868C66.1336 90.5868 66.3224 90.398 66.3224 90.1648C66.3224 89.9316 66.1336 89.7428 65.9004 89.7428ZM70.7844 89.7428C70.5512 89.7428 70.3624 89.9316 70.3624 90.1648C70.3624 90.398 70.5512 90.5868 70.7844 90.5868C71.0176 90.5868 71.2064 90.398 71.2064 90.1648C71.2064 89.9316 71.0176 89.7428 70.7844 89.7428ZM65.9004 94.9048C65.6672 94.9048 65.4784 95.0936 65.4784 95.3268C65.4784 95.56 65.6672 95.7488 65.9004 95.7488C66.1336 95.7488 66.3224 95.56 66.3224 95.3268C66.3224 95.0936 66.1336 94.9048 65.9004 94.9048ZM70.7844 94.9048C70.5512 94.9048 70.3624 95.0936 70.3624 95.3268C70.3624 95.56 70.5512 95.7488 70.7844 95.7488C71.0176 95.7488 71.2064 95.56 71.2064 95.3268C71.2064 95.0936 71.0176 94.9048 70.7844 94.9048ZM70.7844 100.067C70.5512 100.067 70.3624 100.256 70.3624 100.489C70.3624 100.722 70.5512 100.911 70.7844 100.911C71.0176 100.911 71.2064 100.722 71.2064 100.489C71.2064 100.256 71.0176 100.067 70.7844 100.067ZM65.9004 100.067C65.6672 100.067 65.4784 100.256 65.4784 100.489C65.4784 100.722 65.6672 100.911 65.9004 100.911C66.1336 100.911 66.3224 100.722 66.3224 100.489C66.3224 100.256 66.1336 100.067 65.9004 100.067ZM70.7844 105.229C70.5512 105.229 70.3624 105.418 70.3624 105.651C70.3624 105.884 70.5512 106.073 70.7844 106.073C71.0176 106.073 71.2064 105.884 71.2064 105.651C71.2064 105.418 71.0176 105.229 70.7844 105.229ZM65.9004 105.229C65.6672 105.229 65.4784 105.418 65.4784 105.651C65.4784 105.884 65.6672 106.073 65.9004 106.073C66.1336 106.073 66.3224 105.884 66.3224 105.651C66.3224 105.418 66.1336 105.229 65.9004 105.229ZM70.7844 110.39C70.5512 110.39 70.3624 110.58 70.3624 110.812C70.3624 111.046 70.5512 111.234 70.7844 111.234C71.0176 111.234 71.2064 111.046 71.2064 110.812C71.2064 110.58 71.0176 110.39 70.7844 110.39ZM65.9004 110.39C65.6672 110.39 65.4784 110.58 65.4784 110.812C65.4784 111.046 65.6672 111.234 65.9004 111.234C66.1336 111.234 66.3224 111.046 66.3224 110.812C66.3224 110.58 66.1336 110.39 65.9004 110.39ZM70.7844 115.553C70.5512 115.553 70.3624 115.742 70.3624 115.975C70.3624 116.208 70.5512 116.397 70.7844 116.397C71.0176 116.397 71.2064 116.208 71.2064 115.975C71.2064 115.742 71.0176 115.553 70.7844 115.553ZM65.9004 115.553C65.6672 115.553 65.4784 115.742 65.4784 115.975C65.4784 116.208 65.6672 116.397 65.9004 116.397C66.1336 116.397 66.3224 116.208 66.3224 115.975C66.3224 115.742 66.1336 115.553 65.9004 115.553ZM65.9004 120.714C65.6672 120.714 65.4784 120.904 65.4784 121.136C65.4784 121.37 65.6672 121.558 65.9004 121.558C66.1336 121.558 66.3224 121.37 66.3224 121.136C66.3224 120.904 66.1336 120.714 65.9004 120.714ZM70.7844 120.714C70.5512 120.714 70.3624 120.904 70.3624 121.136C70.3624 121.37 70.5512 121.558 70.7844 121.558C71.0176 121.558 71.2064 121.37 71.2064 121.136C71.2064 120.904 71.0176 120.714 70.7844 120.714Z" fill="#1D2B41"/>
<path d="M93.0612 62.2848L91.7112 66.2912C91.498 66.9244 91.838 67.6104 92.4712 67.8236L92.7008 68.532L87.4552 82.1492C87.4552 82.1492 87.3872 83.2952 87.4912 83.33C87.5952 83.3648 87.846 83.4496 87.846 83.4496C87.846 83.4496 88.0972 83.5344 88.2008 83.5692C88.3048 83.6044 88.944 82.6508 88.944 82.6508L93.0108 68.6288L93.6204 68.2104C94.2536 68.4236 94.9396 68.0832 95.1528 67.4504L96.5028 63.444L93.0612 62.2848ZM92.5396 66.5764L92.2224 66.4696L93.4888 62.7108L93.806 62.8176L92.5396 66.5764ZM93.2472 66.8152L92.93 66.7084L94.1964 62.9496L94.5136 63.0564L93.2472 66.8152ZM93.9552 67.0536L93.638 66.9468L94.9044 63.188L95.2216 63.2948L93.9552 67.0536ZM94.6628 67.292L94.3456 67.1852L95.612 63.4264L95.9292 63.5332L94.6628 67.292Z" fill="#1D2B41"/>
<path d="M93.4822 62.7118L92.2157 66.4703L92.533 66.5772L93.7994 62.8187L93.4822 62.7118Z" fill="white"/>
<path d="M94.1897 62.9499L92.9232 66.7084L93.2405 66.8153L94.5069 63.0568L94.1897 62.9499Z" fill="white"/>
<path d="M94.9067 63.1827L93.6403 66.9417L93.9576 67.0486L95.224 63.2896L94.9067 63.1827Z" fill="white"/>
<path d="M95.6145 63.421L94.348 67.1799L94.6653 67.2868L95.9318 63.5279L95.6145 63.421Z" fill="white"/>
<path d="M91.5984 73.9648C91.5984 73.9648 89.714 73.7756 89.3428 74.7416C88.9712 75.7076 88.4912 77.4816 89.0596 77.9852C89.628 78.4892 90.6712 78.7708 90.6712 78.7708C90.6712 78.7708 92.3712 77.0516 91.5984 73.9648Z" fill="#E3A274"/>
<path d="M148.841 149.132C161.903 149.132 172.491 146.012 172.491 142.164C172.491 138.315 161.903 135.195 148.841 135.195C135.78 135.195 125.191 138.315 125.191 142.164C125.191 146.012 135.78 149.132 148.841 149.132Z" fill="#6581AF"/>
<path d="M168.758 55.5736C168.758 55.5736 163.642 57.7912 163.295 57.4748C158.564 53.1604 159.198 47.5496 162.882 45.8368C162.882 45.8368 164.947 46.3928 168.758 55.5736Z" fill="#DD5253"/>
<path d="M155.256 21.982L155.258 22.2104L155.344 31.9048L154.19 31.5548" fill="#D5D9E9"/>
<path d="M148.229 39.3936C148.229 39.3936 148.185 44.1244 149.289 45.5436C149.289 45.5436 149.861 46.6628 150.638 45.9444C151.556 45.096 152.718 42.3408 152.96 41.606C153.283 40.6236 153.216 36.988 153.216 36.988L148.229 39.3936Z" fill="#DDA272"/>
<path d="M148.317 41.5932C148.221 40.3844 148.229 39.3936 148.229 39.3936L152.333 38.4356C152.333 38.4356 151.303 40.654 148.317 41.5932Z" fill="#C18E64"/>
<path d="M147.619 30.9408C147.619 30.3316 148.616 27.622 148.616 27.622C149.36 27.8244 148.845 27.7736 149.614 27.7132C150.382 27.6528 151.171 27.5972 151.912 27.81C152.215 27.8968 152.504 28.0272 152.778 28.1808C153.01 28.31 153.237 28.4596 153.403 28.6668C153.643 28.9672 153.734 29.362 153.757 29.7464C154.79 29.7832 154.66 29.9724 154.956 30.9628C155.253 31.9532 155.956 32.6676 155.57 33.6268C155.217 34.504 154.782 36.388 153.945 36.8284C153.747 36.9328 153.527 37.014 153.303 36.9996C153.014 36.9812 152.758 36.808 152.538 36.6184C151.318 35.568 150.785 33.9532 150.024 32.534C149.827 32.166 149.606 31.8004 149.288 31.5296C148.969 31.2588 148.536 31.094 148.129 31.186" fill="#8A5642"/>
<path d="M147.688 30.6288C147.688 30.6288 146.828 34.572 145.918 35.1752C145.918 35.1752 146.91 36.0028 147.303 35.8244C147.696 35.646 146.911 36.0028 146.911 36.0028C146.911 36.0028 146.64 39.1572 147.076 39.3856C147.511 39.614 151.881 39.016 152.65 38.2084C153.42 37.4008 154.064 32.9868 154.064 32.9868C154.064 32.9868 152.337 33.6672 151.957 33.04C151.577 32.4128 151.823 30.4536 150.945 30.19C150.068 29.9252 148.576 29.5616 147.688 30.6288Z" fill="#DDA272"/>
<path d="M147.619 30.9408C147.619 30.9408 148.468 23.2884 152.442 19.3692L155.255 21.982C155.875 22.6536 154.064 32.236 154.064 32.236C154.064 32.236 153.567 33.0592 152.701 32.57C151.391 31.8292 149.431 30.098 147.619 30.9408Z" fill="#E7E9F3"/>
<path d="M154.064 32.986C154.064 32.986 153.22 33.3128 152.581 33.2964L152.556 33.3016C152.556 33.3016 151.489 35.4468 150.722 35.824C149.955 36.2012 147.303 35.824 147.303 35.824C147.223 35.8604 147.118 35.9084 147.034 35.9464C146.988 35.994 146.943 36.0524 146.901 36.1232C146.857 36.696 146.69 39.1832 147.075 39.3852C147.511 39.6136 151.88 39.0156 152.65 38.208C153.419 37.4 154.064 32.986 154.064 32.986Z" fill="#8A5642"/>
<path d="M147.386 36.5772L149.117 36.4412C149.117 36.4412 148.589 37.8964 148.123 37.974C147.658 38.0516 147.341 37.79 147.341 37.79L147.386 36.5772Z" fill="white"/>
<path d="M154.064 32.236C154.064 32.236 155.22 33.0328 155.683 32.576C155.683 32.576 155.67 33.3612 155.57 33.6268C155.471 33.8924 154.481 33.8504 152.702 32.57L154.064 32.236Z" fill="#E7E9F3"/>
<path d="M153.095 32.8076C153.095 32.8076 153.859 32.2684 154.175 32.8336C154.364 33.1716 154.096 34.0544 152.702 34.2692L153.095 32.8076Z" fill="#A5664E"/>
<path d="M148.579 28.7912C148.579 28.7912 151.884 29.2796 152.974 31.1328L153.435 31.5764L154.446 24.0092L152.975 30.0236L152.202 29.284L153.46 21.6064L151.118 28.6432L149.992 28.3228L152.333 20.4104C152.333 20.4104 149.639 24.2556 148.579 28.7912Z" fill="#D5D9E9"/>
<path d="M162.113 75.4064C162.113 75.4064 162.381 100.09 162.259 104.104C162.259 104.104 155.583 106.293 152.66 104.059L150.638 84.7052L149.555 75.3996L162.113 75.4064Z" fill="#29405D"/>
<path d="M162.285 104.104C162.285 104.104 162.668 128.011 162.003 137.403H153.129C153.129 137.403 153.277 116.55 152.66 104.059L162.285 104.104Z" fill="#1D2B41"/>
<path d="M139.436 104.104C139.436 104.104 138.488 127.42 138.71 137.255L147.214 137.403C147.214 137.403 148.063 115.506 149.061 104.059L139.436 104.104Z" fill="#1D2B41"/>
<path d="M139.716 75.3532C139.716 75.3532 139.363 99.9812 139.447 103.996C139.447 103.996 146.117 106.265 149.061 104.059C149.061 104.059 149.776 96.1932 150.768 84.186L152.422 75.4132L139.716 75.3532Z" fill="#29405D"/>
<path d="M160.997 64.1012C160.689 59.9484 163.77 47.6424 163.232 46.258C162.693 44.8736 154.229 43.4904 154.229 43.4904C153.691 44.49 150.66 45.3348 150.66 45.3348C150.66 45.3348 147.846 44.49 147.308 43.4904C147.308 43.4904 138.843 44.874 138.305 46.258C137.767 47.6424 140.848 59.9484 140.54 64.1012C140.232 68.254 139.546 75.4064 139.546 75.4064H162.113C162.113 75.4064 161.304 68.254 160.997 64.1012Z" fill="#E7E9F3"/>
<path d="M139.74 76.9044L162.13 77.0052L162.113 75.4064H139.546L139.74 76.9044Z" fill="#1F3043"/>
<path d="M154.229 43.4904L152.96 41.6064C152.96 41.6064 151.435 44.0748 150.874 45.2504C150.874 45.2504 152.922 45.8876 154.229 43.4904Z" fill="#DDDFE9"/>
<path d="M147.308 43.4904L148.288 41.6064C148.288 41.6064 149.814 44.0748 150.375 45.2504C150.375 45.2504 148.614 45.8876 147.308 43.4904Z" fill="#DDDFE9"/>
<path d="M150.107 92.0676C150.107 92.0676 150.814 90.3292 151.408 92.0676L151.463 82.6788C151.463 82.6788 149.103 85.056 150.107 92.0676Z" fill="#29405D"/>
<path d="M138.902 45.688C138.902 45.688 136.131 49.9892 131.564 56.6524C131.564 56.6524 131.72 56.7568 131.967 56.9156L127.888 61.3444C127.888 61.3444 129.969 64.1376 131.333 64.1492C132.698 64.1608 138.546 59.7584 138.546 59.7584C138.562 59.7468 138.561 59.7304 138.574 59.718C138.847 59.6832 139.077 59.594 139.236 59.4208C142.222 56.162 142.854 46.6296 138.902 45.688Z" fill="#E7E9F3"/>
<path d="M140.006 58.3612L139.08 52.9052L139.236 59.4212C139.236 59.4212 139.878 58.8116 140.006 58.3612Z" fill="#DDDFE9"/>
<path d="M161.85 56.1632C161.85 56.1632 160.386 55.8064 166.992 63.842C166.992 63.842 169.161 63.842 172.627 61.3148C174.518 59.9368 171.516 58.058 171.516 58.058L168.817 53.7764C168.817 53.7764 159.35 34.6716 161.85 56.1632Z" fill="#E7E9F3"/>
<path d="M181.358 51.024C181.358 51.024 187.408 50.8012 187.527 51.4828C187.646 52.1648 184.544 52.3532 184.544 52.3532C184.544 52.3532 181.162 51.5632 181.358 51.024Z" fill="#E3A274"/>
<path d="M170.195 56.2356L182.641 50.4096L186.037 51.0304C186.037 51.0304 174.284 61.848 168.9 62.8704L170.195 56.2356Z" fill="#DDA272"/>
<path d="M181.818 56.6404C181.818 56.6404 175.015 61.9812 167.91 63.6972L170.195 56.236L178.49 51.1848L181.818 56.6404Z" fill="#E7E9F3"/>
<path d="M145.916 137.352L146.235 139.624C146.275 139.906 146.032 140.163 145.686 140.204L144.587 140.334L144.361 140.604C144.361 140.604 140.922 144.626 137.156 145.38C133.732 146.066 133.815 144.575 133.921 143.914C134.027 143.254 137.648 139.18 139.902 137.276L145.916 137.352Z" fill="#1D2B41"/>
<path d="M146.236 139.624L146.116 138.771C145.811 138.994 144.98 139.56 144.495 139.474C144.495 139.474 139.809 144.212 137.281 145.008C134.754 145.803 133.899 144.106 133.898 144.104C133.829 144.818 134.03 146.006 137.157 145.38C140.923 144.625 144.362 140.603 144.362 140.603L144.588 140.334L145.687 140.204C146.032 140.163 146.275 139.906 146.236 139.624Z" fill="#1D2B41"/>
<path d="M161.278 137.352L161.597 139.624C161.636 139.906 161.393 140.163 161.048 140.204L159.948 140.334L159.723 140.604C159.723 140.604 156.284 144.626 152.518 145.38C149.094 146.066 149.176 144.575 149.282 143.914C149.388 143.254 152.801 139.257 155.054 137.353L161.278 137.352Z" fill="#1D2B41"/>
<path d="M161.597 139.624L161.477 138.771C161.172 138.994 160.342 139.56 159.856 139.474C159.856 139.474 155.17 144.212 152.642 145.008C150.115 145.803 149.26 144.106 149.259 144.104C149.19 144.818 149.391 146.006 152.518 145.38C156.284 144.625 159.723 140.603 159.723 140.603L159.949 140.334L161.048 140.204C161.393 140.163 161.636 139.906 161.597 139.624Z" fill="#1D2B41"/>
<path d="M126.585 44.8936C126.585 44.8936 124.402 43.7492 124.431 43.4224C124.46 43.0956 124.22 39.7428 124.994 39.0976C125.768 38.452 127.606 37.9696 127.606 37.9696C127.606 37.9696 128.962 39.9304 128.944 44.512L126.585 44.8936Z" fill="#DDA272"/>
<path d="M124.03 39.9592C124.03 39.9592 122.597 39.8868 122.993 40.4784C123.389 41.07 124.187 42.0428 124.661 41.924C125.135 41.8052 125.655 41.3316 125.655 41.3316C125.655 41.3316 125.983 40.7504 124.03 39.9592Z" fill="#DDA272"/>
<path d="M133 56.0956C133 56.0956 134.492 61.0516 132.569 63.7716L135.417 61.9816C135.417 61.9816 133.993 58.296 133 56.0956Z" fill="#DDDFE9"/>
<path d="M124.916 49.3732C124.916 49.3732 126.455 59.846 126.952 61.0464C128.484 64.7416 131.795 64.4884 132.569 63.7716C133.092 63.2872 134.934 57.1868 130.844 48.822L124.916 49.3732Z" fill="#E7E9F3"/>
<path d="M147.308 43.4904C147.308 43.4904 144.173 53.1508 150.281 53.1508C150.281 53.1508 155.012 53.1508 154.229 43.4904L156.511 43.9804L162.113 75.4064L164.892 102.51C165.145 104.98 163.207 107.126 160.725 107.126C160.725 107.126 150.838 111.473 140.764 107.126C138.412 106.111 136.235 104.86 136.604 102.326C137.648 95.164 139.466 81.8368 139.546 75.406C139.697 63.2916 144.738 43.972 144.738 43.972L147.308 43.4904Z" fill="#2D9596"/>
<path d="M134.934 60.7516L135.078 62.206C136.854 61.0308 138.547 59.7584 138.547 59.7584C138.563 59.7468 138.561 59.7304 138.574 59.718C138.847 59.6832 139.078 59.594 139.236 59.4208V59.2076L134.934 60.7516Z" fill="#DDDFE9"/>
<path d="M126.585 44.8936L126.847 49.1936L130.314 48.9292L128.944 44.5112L126.585 44.8936Z" fill="#DDA272"/>
<path d="M156.776 74.6596H143.974V76.9848H156.776V74.6596Z" fill="#4E380D"/>
<path d="M181.714 40.902C182.301 40.902 182.778 40.4258 182.778 39.8384C182.778 39.251 182.301 38.7748 181.714 38.7748C181.127 38.7748 180.65 39.251 180.65 39.8384C180.65 40.4258 181.127 40.902 181.714 40.902Z" fill="#707480"/>
<path d="M191.55 50.2528C191.568 49.9716 191.579 49.6884 191.572 49.4012C191.439 44.092 187.028 39.8956 181.718 40.0284C176.409 40.1612 172.213 44.5728 172.346 49.8816C172.353 50.1688 172.378 50.4512 172.41 50.7312L191.55 50.2528Z" fill="#BFC2C9"/>
<path d="M193.398 51.308L170.266 51.8864C170.19 51.8884 170.126 51.828 170.124 51.752L170.104 50.9268C170.102 50.8508 170.162 50.7876 170.238 50.7856L193.37 50.2072C193.446 50.2052 193.51 50.2656 193.512 50.3416L193.532 51.1668C193.534 51.2428 193.474 51.306 193.398 51.308Z" fill="#707480"/>
<path d="M181.718 40.0284C181.718 40.0284 187.76 43.9676 187.724 50.3484L191.55 50.2528C191.568 49.9716 191.579 49.6884 191.572 49.4012C191.439 44.092 187.028 39.8956 181.718 40.0284Z" fill="#E7E9F3"/>
<path d="M181.718 40.0284C179.418 40.086 177.328 40.9488 175.708 42.338L174.751 50.6732L178.424 50.5812C178.26 42.4452 181.718 40.0284 181.718 40.0284Z" fill="#D6D7DF"/>
<path d="M181.718 40.0284C181.718 40.0284 183.69 46.9628 181.804 50.4964L187.724 50.3484C187.724 50.3484 188.952 43.1348 181.718 40.0284Z" fill="#8C8E93"/>
<path d="M181.718 40.0284C181.718 40.0284 186.175 42.066 186.252 50.3852L188.936 50.318C188.936 50.318 188.916 42.2308 181.718 40.0284Z" fill="#707480"/>
<path d="M181.718 40.0284C176.409 40.1612 172.213 44.5728 172.346 49.8816C172.353 50.1688 172.378 50.4512 172.41 50.7312L175.754 50.6476C176.409 41.3964 181.718 40.0284 181.718 40.0284Z" fill="#8C8E93"/>
<path d="M191.572 49.4012C191.442 44.2008 187.204 40.0788 182.041 40.0368C182.911 40.184 190.619 41.7236 191.176 50.2624L191.554 50.0968C191.566 49.866 191.578 49.6356 191.572 49.4012Z" fill="#BFC2C9"/>
<path d="M184.369 45.5672C184.32 47.4196 183.419 48.8988 182.358 48.8708C181.296 48.8428 180.475 47.3184 180.524 45.466C180.573 43.6136 181.473 42.1344 182.535 42.1624C183.597 42.19 184.417 43.7144 184.369 45.5672Z" fill="#BFC2C9"/>
<path d="M28.554 143.783C40.7513 143.783 50.6391 140.869 50.6391 137.276C50.6391 133.682 40.7513 130.768 28.554 130.768C16.3566 130.768 6.46875 133.682 6.46875 137.276C6.46875 140.869 16.3566 143.783 28.554 143.783Z" fill="#6581AF"/>
<path d="M31.3632 94.8581C31.3632 94.8581 31.6508 103.394 33.0404 109.725C34.43 116.056 35.4208 128.952 36.4248 131.092C37.1608 132.662 39.9136 135.294 41.3012 135.318C43.744 135.359 43.0788 134.403 42.8116 130.908C42.4396 126.04 41.9116 104.485 40.4488 96.1281C40.4488 96.1281 32.0164 92.7357 31.3632 94.8581Z" fill="#1D2B41"/>
<path d="M36.3868 131.092L36.0756 133.571C36.0368 133.879 36.2736 134.159 36.6104 134.204L37.6816 134.346L37.9012 134.64C37.9012 134.64 41.2512 139.028 44.9204 139.852C48.256 140.6 48.176 138.974 48.0728 138.252C47.9696 137.531 44.5764 133.197 42.8264 131.092H36.3868V131.092Z" fill="#1D2B41"/>
<path d="M36.0759 133.571L36.1927 132.64C36.4895 132.883 37.2987 133.5 37.7719 133.407C37.7719 133.407 42.3367 138.578 44.7999 139.446C47.2619 140.314 48.0951 138.461 48.0959 138.459C48.1635 139.239 47.9671 140.535 44.9203 139.851C41.2515 139.028 37.9011 134.639 37.9011 134.639L37.6815 134.345L36.6103 134.203C36.2739 134.159 36.0371 133.879 36.0759 133.571Z" fill="#1D2B41"/>
<path d="M23.928 27.0888C23.8316 27.4 23.7672 27.722 23.6404 28.022C23.5136 28.322 23.3124 28.6064 23.0196 28.7492C22.7268 28.892 22.3328 28.8564 22.1248 28.6052C22.5452 29.7328 23.7192 30.5344 24.9228 30.5152C25.2256 30.5104 25.5364 30.4548 25.7912 30.2908C25.9732 30.1736 26.1184 30.006 26.2356 29.8236C26.6568 29.1672 26.7096 28.2908 26.3708 27.5888C26.1076 27.0432 25.62 26.6264 25.0532 26.4212C24.8504 26.3476 24.572 26.2384 24.362 26.342C24.1104 26.4656 24.0032 26.8456 23.928 27.0888Z" fill="#1C2024"/>
<path d="M40.1091 39.156C40.1091 39.156 45.0367 43.0908 48.8563 54.01C48.8563 54.01 45.3415 59.7468 43.4391 58.7668C43.4391 58.7668 41.0171 54.046 39.1759 51.1596C39.1759 51.1596 39.4043 40.578 40.1091 39.156Z" fill="#E7E9F3"/>
<path d="M48.8563 54.0104L60.3795 49.1612C60.3795 49.1612 62.1055 50.058 62.2915 53.0384C62.2915 53.0384 50.2551 64.5552 43.4391 58.7672C43.4391 58.7672 48.7727 55.0784 48.8563 54.0104Z" fill="#E7E9F3"/>
<path d="M62.0359 51.6444C62.0359 51.6444 62.0567 53.2328 62.2911 53.0384C62.5255 52.844 65.2047 51.2964 65.2967 50.3168C65.3883 49.3372 64.1059 47.444 64.1059 47.444C64.1059 47.444 60.9327 48.0008 59.7987 49.7744L62.0359 51.6444Z" fill="#E3A274"/>
<path d="M19.6547 39.156C19.6547 39.156 11.8059 44.6264 9.82385 57.1528C9.82385 57.1528 14.4223 59.7472 16.3247 58.7672C16.3247 58.7672 18.7467 54.0464 20.5879 51.16C20.5879 51.16 19.6699 39.354 19.6547 39.156Z" fill="#E7E9F3"/>
<path d="M16.4803 57.9528C16.4803 57.9528 16.2927 63.3744 22.2995 67.4988C22.2995 67.4988 22.3919 69.8212 19.4807 70.4856C19.4807 70.4856 9.58991 64.512 9.82391 57.2036C9.82391 57.2036 15.4127 58.0428 16.4803 57.9528Z" fill="#E7E9F3"/>
<path d="M19.5027 68.7908C19.5027 68.7908 19.2511 70.286 19.4811 70.4856C19.7107 70.6852 21.6707 73.0796 22.6523 73.012C23.6335 72.9444 25.2951 71.3728 25.2951 71.3728C25.2951 71.3728 24.2335 68.3308 22.2999 67.4984L19.5027 68.7908Z" fill="#E3A274"/>
<path d="M35.3231 23.3352C35.3231 23.3352 36.0483 23.5816 36.1487 24.0504C36.2491 24.5188 35.3675 27.5652 33.5823 27.5652V23.9592L35.3231 23.3352Z" fill="#1C2024"/>
<path d="M24.0563 23.1112C24.0563 23.1112 23.3311 23.3576 23.2307 23.8264C23.1303 24.2952 24.0119 27.3412 25.7971 27.3412V23.7352L24.0563 23.1112Z" fill="#1C2024"/>
<path d="M27.0959 94.8581C27.0959 94.8581 26.8083 103.394 25.4187 109.725C24.0291 116.056 23.0383 128.952 22.0343 131.092C21.2983 132.662 18.5455 135.294 17.1579 135.318C14.7151 135.359 15.3803 134.403 15.6475 130.908C16.0199 126.04 16.5475 104.485 18.0107 96.1281C18.0107 96.1281 26.4427 92.7357 27.0959 94.8581Z" fill="#1D2B41"/>
<path d="M21.8663 58.516C21.8219 56.6916 21.0387 52.2408 20.3683 50.3344C18.8743 46.0852 19.6547 39.156 19.6547 39.156C23.6187 37.0156 29.8819 37.2532 29.8819 37.2532C29.8819 37.2532 36.1451 37.0152 40.1091 39.156C40.1091 39.156 41.0603 44.5248 39.3955 50.3344C38.8387 52.2768 37.9419 56.6916 37.8975 58.516C37.7899 62.9204 38.8795 67.7672 39.5539 68.4896H20.2095C20.8839 67.7672 21.9735 62.9204 21.8663 58.516Z" fill="#2D9596"/>
<path d="M25.6219 37.4748C27.9855 37.1836 29.8819 37.2536 29.8819 37.2536C29.8819 37.2536 31.7783 37.184 34.1419 37.4748C33.5199 38.7476 31.7443 45.872 29.8819 47.0496C28.0195 45.872 26.2439 38.7476 25.6219 37.4748Z" fill="#C2D9DE"/>
<path d="M30.2187 37.2472C30.3255 37.2464 30.4547 37.246 30.6059 37.2468H30.6075C30.7587 37.248 30.9311 37.2504 31.1215 37.2548C31.1243 37.2548 31.1275 37.2548 31.1303 37.2552C31.3187 37.26 31.5247 37.2668 31.7459 37.2764C31.7515 37.2768 31.7575 37.2768 31.7631 37.2772C31.9831 37.2872 32.2179 37.3 32.4643 37.3164C32.4723 37.3168 32.4799 37.3172 32.4875 37.318C32.7339 37.3348 32.9927 37.3552 33.2607 37.38C33.2695 37.3808 33.2783 37.3816 33.2875 37.3824C33.5623 37.408 33.8471 37.4384 34.1391 37.4744C34.1399 37.4744 34.1403 37.4744 34.1411 37.4748C33.5191 38.748 35.7331 47.0496 29.8815 47.0496C24.3579 47.0496 26.2439 38.7476 25.6215 37.4748C25.6227 37.4748 25.6239 37.4748 25.6247 37.4744C25.9163 37.4384 26.2003 37.4084 26.4747 37.3824C26.4843 37.3816 26.4935 37.3808 26.5027 37.38C26.7703 37.3552 27.0287 37.3348 27.2747 37.318C27.2831 37.3176 27.2911 37.3168 27.2991 37.3164C27.5455 37.3 27.7799 37.2872 27.9995 37.2772C28.0055 37.2768 28.0115 37.2768 28.0175 37.2764C28.2383 37.2664 28.4443 37.2596 28.6327 37.2552C28.6355 37.2552 28.6387 37.2552 28.6415 37.2548C28.8315 37.25 29.0039 37.2476 29.1551 37.2468C29.1551 37.2468 29.1563 37.2468 29.1571 37.2468C29.3079 37.2456 29.4375 37.246 29.5443 37.2472C29.5459 37.2472 29.5479 37.2472 29.5495 37.2472C29.7627 37.2492 29.8811 37.2536 29.8811 37.2536C29.8811 37.2536 29.9995 37.2492 30.2127 37.2472C30.2151 37.2472 30.2171 37.2472 30.2187 37.2472Z" fill="#C2D9DE"/>
<path d="M32.1919 31.4984L29.8843 32.8688L27.5767 31.4984C27.5767 31.4984 27.8311 35.8408 27.1571 37.5256C27.1571 37.5256 28.1375 39.0004 29.8843 39.156C31.7647 38.9012 32.6391 37.53 32.6391 37.53C31.9655 35.8456 32.1919 31.4984 32.1919 31.4984Z" fill="#DDA272"/>
<path d="M29.8899 34.8184C30.7083 34.774 31.5203 34.2872 32.1771 33.6836C32.1211 32.5036 32.1923 31.4984 32.1923 31.4984L29.8847 32.8688L27.5771 31.4984C27.5771 31.4984 27.6475 32.498 27.5923 33.6736C28.2503 34.282 29.0671 34.7736 29.8899 34.8184Z" fill="#C18E64"/>
<path d="M25.8483 27.4336C25.8483 27.4336 25.0915 26.69 24.9131 27.0764C24.7347 27.4628 24.8551 30.0728 26.2927 30.3124L25.8483 27.4336Z" fill="#DDA272"/>
<path d="M33.7895 27.4336C33.7895 27.4336 34.5463 26.69 34.7247 27.0764C34.9031 27.4628 34.7827 30.0728 33.3451 30.3124L33.7895 27.4336Z" fill="#DDA272"/>
<path d="M25.7559 24.388C25.7559 24.388 25.8155 29.8364 26.3507 30.9068C26.8859 31.9772 28.3523 33.6588 29.8191 33.738C31.2859 33.6588 32.7523 31.9768 33.2875 30.9068C33.8227 29.8364 33.8819 24.388 33.8819 24.388H25.7559Z" fill="#DDA272"/>
<path d="M29.0375 30.8224H30.7427C30.7427 30.8224 29.8275 32.2692 29.0375 30.8224Z" fill="white"/>
<path d="M28.5539 23.1076C28.5539 23.1076 27.3427 26.298 25.8671 26.1992C24.3915 26.1004 25.4419 23.8212 25.4419 23.8212C25.4419 23.8212 26.8871 21.7832 28.5539 23.1076Z" fill="#4B3520"/>
<path d="M19.6547 39.156C19.6547 39.156 23.6355 47.3728 20.5883 51.1596L19.6547 39.156Z" fill="#343A39"/>
<path d="M40.1091 39.156C40.1091 39.156 36.1283 47.3728 39.1755 51.1596L40.1091 39.156Z" fill="#343A39"/>
<path d="M32.3471 36.4616L33.2163 37.8312L30.9035 40.4552L30.1043 39.7412L29.8843 39.156L32.3471 36.4616Z" fill="#DDDFE9"/>
<path d="M27.4367 36.4616L26.5103 37.8312L28.8231 40.4552L29.6223 39.7412L29.8843 39.156L27.4367 36.4616Z" fill="#DDDFE9"/>
<path d="M39.19 50.5768L39.5764 49.6632C39.5764 49.6632 43.2516 56.23 43.2264 58.3572L43.226 58.3568C42.5996 57.154 40.692 53.5376 39.1752 51.1596C39.1752 51.1596 39.1804 50.9432 39.19 50.5768Z" fill="#DDDFE9"/>
<path d="M20.4892 50.5768L20.1028 49.6632C20.1028 49.6632 16.4276 56.23 16.4528 58.3572L16.4532 58.3568C17.0796 57.154 18.9872 53.5376 20.504 51.1596C20.504 51.1596 20.4992 50.9432 20.4892 50.5768Z" fill="#DDDFE9"/>
<path d="M39.2599 67.9728L45.2519 96.858L36.1907 98.8608C31.4939 99.8988 26.6139 99.7648 21.9815 98.47L13.1359 95.998L20.2095 68.4896L20.5035 67.9728H39.2599Z" fill="#2D9596"/>
<path d="M23.0487 22.774C23.5347 21.1236 25.6415 20.214 26.8111 21.1824C26.8111 21.1824 27.0115 16.27 29.8611 16.27C32.7107 16.27 32.9111 21.1824 32.9111 21.1824C34.0811 20.214 36.4111 21.0528 36.6735 22.774C37.1079 25.6216 33.7895 27.434 33.7895 27.434C33.2579 26.6172 32.8655 25.2264 31.0491 24.8276C30.2451 24.6512 29.4851 24.6976 28.6727 24.8276C27.0355 25.09 26.2899 26.6156 25.7583 27.4324C25.7583 27.4324 22.2215 25.5812 23.0487 22.774Z" fill="#E7E9F3"/>
<path d="M28.9283 26.4676C28.4523 25.9004 27.5611 26.026 26.9363 26.5024C26.9363 26.5024 28.0435 26.2132 28.7727 26.6684C28.7727 26.6684 29.2007 26.792 28.9283 26.4676Z" fill="#1D2B41"/>
<path d="M30.71 26.4676C31.186 25.9004 32.0772 26.026 32.702 26.5024C32.702 26.5024 31.5948 26.2132 30.8656 26.6684C30.8656 26.6684 30.4376 26.792 30.71 26.4676Z" fill="#1D2B41"/>
<path d="M22.0723 131.092L22.3835 133.571C22.4223 133.879 22.1855 134.159 21.8487 134.204L20.7775 134.346L20.5579 134.64C20.5579 134.64 17.2079 139.028 13.5387 139.852C10.2031 140.6 10.2831 138.974 10.3863 138.252C10.4895 137.531 13.8827 133.197 15.6327 131.092H22.0723V131.092Z" fill="#1D2B41"/>
<path d="M22.3831 133.571L22.2663 132.64C21.9695 132.883 21.1603 133.5 20.6871 133.407C20.6871 133.407 16.1223 138.578 13.6591 139.446C11.1971 140.314 10.3639 138.461 10.3631 138.459C10.2955 139.239 10.4919 140.535 13.5387 139.851C17.2075 139.028 20.5579 134.639 20.5579 134.639L20.7775 134.345L21.8487 134.203C22.1851 134.159 22.4219 133.879 22.3831 133.571Z" fill="#1D2B41"/>
<path d="M35.7335 37.7192C35.7335 37.7192 38.1423 41.0192 39.1751 51.16C39.1751 51.16 41.6227 47.0296 40.1087 39.1564C40.1087 39.1564 38.0267 37.8736 35.7335 37.7192Z" fill="#E7E9F3"/>
<path d="M24.0299 37.7192C24.0299 37.7192 21.6215 41.0192 20.5883 51.16C20.5883 51.16 18.1407 47.0296 19.6547 39.1564C19.6547 39.1564 21.7367 37.8736 24.0299 37.7192Z" fill="#E7E9F3"/>
<path d="M35.7335 65.46H24.0299V67.4988H35.7335V65.46Z" fill="#4E380D"/>
<path d="M53.9603 48.5476C53.9603 49.4824 57.9359 50.2404 62.8407 50.2404C67.7455 50.2404 71.7211 49.4824 71.7211 48.5476C71.7211 47.6128 67.7455 46.8548 62.8407 46.8548C57.9359 46.8548 53.9603 47.6124 53.9603 48.5476Z" fill="#CEE0F1"/>
<path d="M56.0491 48.344C56.0491 49.0592 59.0899 49.6388 62.8407 49.6388C66.5915 49.6388 69.6323 49.0592 69.6323 48.344C69.6323 47.6292 66.5915 47.0492 62.8407 47.0492C59.0899 47.0492 56.0491 47.6292 56.0491 48.344Z" fill="#E7E9F3"/>
<path d="M68.9615 47.2316C68.6815 46.7968 67.6735 46.6008 67.0587 46.8796C66.8415 46.978 66.6799 47.1212 66.4411 47.1992C66.2023 47.2772 65.8291 47.246 65.7607 47.086C65.7171 46.9836 65.8179 46.8816 65.8579 46.7784C65.9687 46.492 65.5991 46.2196 65.2059 46.0488C64.7319 45.8432 64.0323 45.7152 63.6019 45.954C63.2083 46.1724 63.2639 46.58 62.8975 46.8148C62.5635 47.0292 61.8975 46.9972 61.6411 46.7464C61.4263 46.5364 61.5135 46.2668 61.5271 46.0196C61.5539 45.5368 61.2427 45.0392 60.6315 44.732C60.0199 44.4252 59.1047 44.34 58.4087 44.5704C57.7127 44.8008 57.3303 45.3572 57.6255 45.8056C57.7807 46.0416 58.0879 46.2256 58.3683 46.4136C58.6487 46.6016 58.9207 46.8144 58.9759 47.0664C59.0311 47.3184 58.7843 47.6108 58.3711 47.6456C58.0735 47.6704 57.7479 47.5636 57.4831 47.65C57.2783 47.7168 57.2027 47.8824 57.2587 48.02C57.3147 48.1572 57.4743 48.27 57.6459 48.3656C58.3883 48.7784 59.4651 48.9552 60.4467 48.8256C61.4623 48.6916 62.4155 48.2528 63.4355 48.3736C63.9571 48.4352 64.4015 48.6376 64.8947 48.758C66.2127 49.0812 69.7415 48.4432 68.9615 47.2316Z" fill="#B5A761"/>
<path d="M68.3775 47.926C68.8283 47.9764 69.3227 48.13 69.5351 48.5308C68.9991 48.9468 68.2355 48.5364 67.5571 48.5348C67.3515 48.5344 67.1031 48.6144 67.0659 48.8164C67.0499 48.9044 67.0775 49.0052 67.0255 49.078C66.9787 49.144 66.8871 49.1564 66.8067 49.1632C65.8123 49.2444 64.8171 49.3096 63.8207 49.3576C63.5599 49.3704 63.2831 49.378 63.0563 49.2484C62.8295 49.1188 62.6919 48.7984 62.8463 48.5876C62.7279 48.4488 62.4963 48.4872 62.3491 48.5952C62.2015 48.7028 62.0971 48.862 61.9463 48.9652C61.7723 49.0848 61.5543 49.118 61.3447 49.1424C60.2123 49.2736 59.0599 49.2304 57.9403 49.0156C57.5795 48.9464 57.2151 48.8564 56.9015 48.6648C56.8423 48.6288 56.7827 48.5864 56.7531 48.5236C56.7179 48.45 56.7311 48.362 56.7603 48.2864C56.9343 47.8408 57.5299 47.7796 58.0083 47.7916C60.2847 47.8484 62.5611 47.9052 64.8375 47.962C65.2907 47.9732 65.7639 47.99 66.1595 48.2108C66.6907 48.5072 66.8551 48.63 67.2319 48.1576C67.5651 47.74 67.8031 47.862 68.3775 47.926Z" fill="#D8C873"/>
<path d="M116.514 183.73C129.576 183.73 140.164 180.61 140.164 176.762C140.164 172.913 129.576 169.793 116.514 169.793C103.453 169.793 92.8644 172.913 92.8644 176.762C92.8644 180.61 103.453 183.73 116.514 183.73Z" fill="#6581AF"/>
<path d="M109.112 171.858C108.698 169.011 102.684 169.574 102.322 171.32C102.322 171.32 102.248 172.351 102.238 173.048C102.157 178.34 103.511 180.108 103.647 180.475C103.647 180.475 105.644 184.347 108.085 181.161C108.085 181.161 109.949 177.609 109.112 171.858Z" fill="#1D2B41"/>
<path d="M111.159 108.799C111.159 108.799 113.556 127.97 112.885 137.813L102.618 137.122C102.618 137.122 101.43 124.433 101.316 117.234C101.268 114.134 103.037 108.147 103.037 108.147L111.159 108.799Z" fill="#1D2B41"/>
<path d="M123.49 108.482C123.49 108.482 126.516 124.489 126.097 137.813L116.43 137.314C116.43 137.314 113.911 118.713 113.894 116.654C113.868 113.554 113.23 108.481 113.23 108.481H123.49V108.482Z" fill="#1D2B41"/>
<path d="M116.429 137.314L116.026 145.163C116.015 145.378 116.02 145.594 116.041 145.808L118.506 171.495H126.515C126.515 171.495 125.605 153.689 125.605 151.754C125.605 149.818 126.06 139.016 126.096 137.813C126.134 136.61 118.358 134.717 116.429 137.314Z" fill="#1D2B41"/>
<path d="M102.735 97.1021C103.045 92.9217 99.9437 80.5349 100.486 79.1417C101.028 77.7481 109.547 76.3557 109.547 76.3557C110.089 77.3621 113.031 77.0716 113.031 77.0716C113.031 77.0716 115.972 77.3621 116.514 76.3557C116.514 76.3557 125.034 77.7481 125.576 79.1417C126.118 80.5353 123.017 92.9221 123.327 97.1021C123.636 101.282 127.222 126.97 127.222 126.97H118.843V125.897L99.3129 125.402C99.3129 125.402 102.426 101.282 102.735 97.1021Z" fill="#E7E9F3"/>
<path d="M119.164 126.97H118.843V81.9625L111.927 78.6761L112.183 78.3289L119.164 81.7693V126.97Z" fill="#DDDFE9"/>
<path d="M115.096 84.6117C115.333 84.6117 115.524 84.4201 115.524 84.1837C115.524 83.9473 115.333 83.7557 115.096 83.7557C114.86 83.7557 114.668 83.9473 114.668 84.1837C114.668 84.4201 114.86 84.6117 115.096 84.6117ZM110.144 83.7557C109.908 83.7557 109.716 83.9473 109.716 84.1837C109.716 84.4201 109.908 84.6117 110.144 84.6117C110.381 84.6117 110.572 84.4201 110.572 84.1837C110.572 83.9473 110.381 83.7557 110.144 83.7557ZM110.144 88.9901C109.908 88.9901 109.716 89.1817 109.716 89.4181C109.716 89.6545 109.908 89.8461 110.144 89.8461C110.381 89.8461 110.572 89.6545 110.572 89.4181C110.572 89.1817 110.381 88.9901 110.144 88.9901ZM115.096 88.9901C114.86 88.9901 114.668 89.1817 114.668 89.4181C114.668 89.6545 114.86 89.8461 115.096 89.8461C115.333 89.8461 115.524 89.6545 115.524 89.4181C115.524 89.1817 115.333 88.9901 115.096 88.9901ZM110.144 94.2241C109.908 94.2241 109.716 94.4157 109.716 94.6521C109.716 94.8885 109.908 95.0801 110.144 95.0801C110.381 95.0801 110.572 94.8885 110.572 94.6521C110.572 94.4157 110.381 94.2241 110.144 94.2241ZM115.096 94.2241C114.86 94.2241 114.668 94.4157 114.668 94.6521C114.668 94.8885 114.86 95.0801 115.096 95.0801C115.333 95.0801 115.524 94.8885 115.524 94.6521C115.524 94.4157 115.333 94.2241 115.096 94.2241ZM115.096 99.4581C114.86 99.4581 114.668 99.6497 114.668 99.8861C114.668 100.122 114.86 100.314 115.096 100.314C115.333 100.314 115.524 100.122 115.524 99.8861C115.524 99.6497 115.333 99.4581 115.096 99.4581ZM110.144 99.4581C109.908 99.4581 109.716 99.6497 109.716 99.8861C109.716 100.122 109.908 100.314 110.144 100.314C110.381 100.314 110.572 100.122 110.572 99.8861C110.572 99.6497 110.381 99.4581 110.144 99.4581ZM115.096 104.692C114.86 104.692 114.668 104.884 114.668 105.12C114.668 105.356 114.86 105.548 115.096 105.548C115.333 105.548 115.524 105.356 115.524 105.12C115.524 104.884 115.333 104.692 115.096 104.692ZM110.144 104.692C109.908 104.692 109.716 104.884 109.716 105.12C109.716 105.356 109.908 105.548 110.144 105.548C110.381 105.548 110.572 105.356 110.572 105.12C110.572 104.884 110.381 104.692 110.144 104.692ZM115.096 109.926C114.86 109.926 114.668 110.118 114.668 110.354C114.668 110.59 114.86 110.782 115.096 110.782C115.333 110.782 115.524 110.59 115.524 110.354C115.524 110.118 115.333 109.926 115.096 109.926ZM110.144 109.926C109.908 109.926 109.716 110.118 109.716 110.354C109.716 110.59 109.908 110.782 110.144 110.782C110.381 110.782 110.572 110.59 110.572 110.354C110.572 110.118 110.381 109.926 110.144 109.926ZM115.096 115.16C114.86 115.16 114.668 115.352 114.668 115.588C114.668 115.824 114.86 116.016 115.096 116.016C115.333 116.016 115.524 115.824 115.524 115.588C115.524 115.352 115.333 115.16 115.096 115.16ZM110.144 115.16C109.908 115.16 109.716 115.352 109.716 115.588C109.716 115.824 109.908 116.016 110.144 116.016C110.381 116.016 110.572 115.824 110.572 115.588C110.572 115.352 110.381 115.16 110.144 115.16ZM110.144 120.394C109.908 120.394 109.716 120.586 109.716 120.822C109.716 121.058 109.908 121.25 110.144 121.25C110.381 121.25 110.572 121.058 110.572 120.822C110.572 120.586 110.381 120.394 110.144 120.394ZM115.096 120.394C114.86 120.394 114.668 120.586 114.668 120.822C114.668 121.058 114.86 121.25 115.096 121.25C115.333 121.25 115.524 121.058 115.524 120.822C115.524 120.586 115.333 120.394 115.096 120.394Z" fill="#1D2B41"/>
<path d="M113.284 99.7248L124.196 104.236C123.757 101.005 123.416 98.3088 123.327 97.1064C121.059 96.3396 118.447 95.8316 115.745 95.3744L115.696 94.8516C115.696 94.8516 115.162 94.9536 114.286 95.1476C113.899 95.102 113.796 95.0912 113.796 95.0912L113.775 95.2624C112.112 95.642 109.576 96.2784 106.99 97.1396L106.634 96.9796L104.154 97.8132C103.943 97.7356 103.369 97.7236 102.665 97.8032C102.478 99.4124 102.007 102.28 101.43 105.544C103.673 105.38 105.267 104.249 105.267 104.249L113.284 99.7248Z" fill="#DDDFE9"/>
<path d="M102.618 137.122L101.316 170.681L110.145 170.871C110.145 170.871 111.29 154.274 111.42 152.343C111.55 150.412 112.77 139.011 112.886 137.813C113 136.615 104.596 134.652 102.618 137.122Z" fill="#1D2B41"/>
<path d="M101.832 103.228C103.715 102.152 104.088 95.8216 104.088 95.8216C104.088 95.8216 107.948 78.9024 101.764 78.6776C101.764 78.6776 101.286 78.6836 100.457 80.3204C100.744 83.8288 103.002 93.5012 102.735 97.102C102.656 98.1752 102.306 100.448 101.832 103.228Z" fill="#DDDFE9"/>
<path d="M124.23 103.228C122.347 102.152 121.974 95.8216 121.974 95.8216C121.974 95.8216 118.114 78.9024 124.298 78.6776C124.298 78.6776 124.776 78.6836 125.605 80.3204C125.318 83.8288 123.06 93.5012 123.327 97.102C123.406 98.1752 123.756 100.448 124.23 103.228Z" fill="#DDDFE9"/>
<path d="M125.117 78.678C125.117 78.678 127.871 78.678 131.632 101.35C131.632 101.35 128.92 105.692 125.312 103.845C123.105 102.716 122.793 95.8224 122.793 95.8224C122.793 95.8224 117.764 75.9652 125.117 78.678Z" fill="#E7E9F3"/>
<path d="M101.085 78.678C101.085 78.678 98.3312 78.678 94.5704 101.35C94.5704 101.35 97.5544 103.124 100.49 103.396C102.958 103.626 103.409 95.822 103.409 95.822C103.409 95.822 108.438 75.9652 101.085 78.678Z" fill="#E7E9F3"/>
<path d="M94.5704 101.35C99.6132 107.461 105.266 103.396 105.266 103.396L116.01 97.3336L115.696 93.9988C115.696 93.9988 102.879 96.4372 98.72 100.489L94.5704 101.35Z" fill="#E7E9F3"/>
<path d="M112.564 98.7512L110.913 93.9984L109.575 94.1476L111.032 99.6152L112.564 98.7512Z" fill="#F5FAFF"/>
<path d="M108.911 97.1497L106.634 96.1273L104.154 96.9609C103.589 96.7537 100.424 97.0117 99.1233 98.2549L104.332 103.396L111.032 99.6153L110.547 97.7933L108.911 97.1497Z" fill="#E7E9F3"/>
<path d="M120.39 101.668L108.911 97.1496L108.762 93.8032C108.762 93.8032 121.792 94.446 126.471 97.884L120.39 101.668Z" fill="#EEBF97"/>
<path d="M108.911 97.1496C108.911 97.1496 106.941 96.2492 106.634 96.1272L104.154 96.9608C104.777 94.6248 108.068 93.8032 108.068 93.8032H108.762L108.911 97.1496Z" fill="#EEBF97"/>
<path d="M111.596 98.2065L112.57 93.9617L113.894 94.0353L113.232 98.8505L111.596 98.2065Z" fill="#F5FAFF"/>
<path d="M113.796 94.2384C113.796 94.2384 113.944 94.2536 114.663 94.3396C119.274 95.0992 123.738 95.9148 126.778 97.8296L125.312 103.844L113.232 98.8504L113.796 94.2384Z" fill="#E7E9F3"/>
<path d="M110.778 71.0045L113.031 72.3425L115.284 71.0045C115.284 71.0045 115.063 74.1301 115.721 75.7749C115.721 75.7749 114.211 77.9133 113.031 77.0717C111.85 77.9137 110.341 75.7749 110.341 75.7749C110.999 74.1301 110.778 71.0045 110.778 71.0045Z" fill="#EEBF97"/>
<path d="M113.026 74.2461C112.226 74.2029 111.434 73.7277 110.792 73.1381C110.847 71.9861 110.778 71.0045 110.778 71.0045L113.031 72.3425L115.284 71.0045C115.284 71.0045 115.215 71.9805 115.269 73.1281C114.626 73.7221 113.829 74.2025 113.026 74.2461Z" fill="#DDB18C"/>
<path d="M117.062 64.0612C117.062 64.0612 117.004 70.2 116.481 71.2448C115.959 72.29 114.526 73.1136 113.094 73.1908C111.662 73.1132 110.23 72.2896 109.708 71.2448C109.185 70.1996 109.127 64.0612 109.127 64.0612H117.062Z" fill="#EEBF97"/>
<path d="M116.954 65.83C116.954 65.83 117.867 65.4812 118.041 65.8584C118.215 66.2356 118.207 68.2064 116.803 68.4404L116.954 65.83Z" fill="#DDB18C"/>
<path d="M109.152 65.83C109.152 65.83 108.195 65.4812 108.021 65.8584C107.847 66.2356 107.886 68.2064 109.289 68.4404L109.152 65.83Z" fill="#DDB18C"/>
<path d="M117.24 65.7788C117.245 65.0676 117.054 64.1824 116.803 63.6768C116.724 63.5168 117.027 63.7172 116.957 63.5488C116.807 63.1928 116.655 61.9904 115.721 61.7436C115.365 61.6496 114.946 61.1648 114.593 61.1328C109.127 60.6344 108.897 63.9472 108.863 64.4836C108.832 64.9892 108.813 65.2488 108.827 65.7364C108.842 66.2348 108.861 66.1288 109.179 66.3464C109.179 66.3464 109.064 66.3344 109.152 65.83C109.239 65.3256 109.784 64.7548 110.144 64.7436C110.179 64.7424 110.215 64.7452 110.247 64.7248C110.351 64.658 110.331 64.4152 110.423 64.3184C110.694 64.6288 111.056 64.71 111.401 64.7616C112.493 64.926 113.599 64.9084 114.688 64.7088C115.163 64.622 115.672 64.508 116.1 64.8176C116.242 64.92 116.795 65.206 116.855 65.4172C116.901 65.5788 117.022 65.864 116.924 66.3468C116.859 66.6676 117.237 66.1784 117.24 65.7788Z" fill="#1D2B41"/>
<path d="M114.473 70.426H111.578C111.578 70.426 113.131 72.8832 114.473 70.426Z" fill="white"/>
<path d="M116.514 76.3557L115.368 74.4589C115.368 74.4589 113.882 76.9941 113.031 77.0717L114.114 78.6781C114.114 78.6781 115.121 78.3297 116.514 76.3557Z" fill="#DDDFE9"/>
<path d="M109.547 76.3556L110.68 74.3832C110.68 74.3832 112.18 76.9944 113.031 77.0716L111.947 78.678C111.947 78.678 110.941 78.3296 109.547 76.3556Z" fill="#DDDFE9"/>
<path d="M113.895 66.1564C114.492 65.4452 115.61 65.6024 116.394 66.2C116.394 66.2 115.005 65.8372 114.09 66.408C114.09 66.408 113.554 66.5632 113.895 66.1564Z" fill="#1D2B41"/>
<path d="M112.215 66.2725C111.618 65.5613 110.5 65.7185 109.716 66.3161C109.716 66.3161 111.105 65.9533 112.02 66.5241C112.02 66.5241 112.556 66.6797 112.215 66.2725Z" fill="#1D2B41"/>
<path d="M119.69 171.495L119.341 173.982C119.298 174.291 119.564 174.572 119.942 174.616L121.145 174.759L121.392 175.054C121.392 175.054 125.156 179.456 129.278 180.282C133.026 181.033 132.936 179.401 132.82 178.678C132.704 177.954 128.968 173.579 126.502 171.495H119.69Z" fill="#1D2B41"/>
<path d="M119.341 173.982L119.472 173.048C119.806 173.292 120.715 173.912 121.247 173.818C121.247 173.818 126.375 179.004 129.143 179.875C131.909 180.746 132.845 178.888 132.846 178.886C132.922 179.668 132.701 180.968 129.278 180.282C125.156 179.456 121.392 175.054 121.392 175.054L121.146 174.759L119.942 174.617C119.564 174.572 119.298 174.291 119.341 173.982Z" fill="#1D2B41"/>
<path d="M113.796 94.2385C113.796 94.2385 118.414 95.0153 118.74 95.0701C119.225 95.1517 121.859 95.8221 121.859 95.8221C122.05 94.6021 120.897 93.7725 120.424 93.3289C120.306 93.2177 120.158 93.1657 119.996 93.1781C118.996 93.2557 115.179 93.5765 113.84 94.0425L113.796 94.2385Z" fill="#EEBF97"/>
<path d="M113.031 77.0717L114.114 78.6781L111.927 78.6765C111.927 78.6765 112.793 77.0913 113.031 77.0717Z" fill="#DDDFE9"/>
<path d="M116.059 54.468L113.372 53.0348C113.159 52.9208 112.903 52.9208 112.69 53.0348L110.003 54.468C109.785 54.5844 109.641 54.8036 109.621 55.05L108.764 65.7252L109.088 65.8188C109.505 63.7608 112.262 63.3556 112.938 63.2868C112.987 63.282 113.019 63.2816 113.068 63.2868C113.752 63.3552 116.557 63.7592 116.974 65.8188L117.298 65.7252L116.441 55.05C116.421 54.8036 116.277 54.584 116.059 54.468Z" fill="#E7E9F3"/>
<path d="M115.953 56.3784L115.735 62.0392L115.053 61.6592L114.641 54.792L114.278 61.236L113.357 60.9616L113.006 53.8712L112.654 60.9616L111.734 61.236L111.371 54.792L110.958 61.6592L110.277 62.0392L110.058 56.3784L109.736 63.3708C110.99 61.6668 113.006 61.6472 113.006 61.6472C113.006 61.6472 115.022 61.6668 116.275 63.3708L115.953 56.3784Z" fill="#D5D9E9"/>
</svg>
