<svg width="555" height="546" viewBox="0 0 555 546" fill="none" xmlns="http://www.w3.org/2000/svg">
<path d="M85.342 406.001C85.342 406.001 20.9353 372.898 36.4542 298.463C51.9732 224.028 115.177 206.365 141.169 211.829C189.887 222.071 110.293 252.29 91.2794 200.422C67.4233 135.344 152.483 86.0715 231.331 98.8227C282.006 107.018 306.467 130.883 351.513 145.878C396.398 160.82 415.224 140.808 397.341 129.21C380.366 118.199 318.732 136.163 339.894 160.783C368.87 194.494 438.703 142.264 492.825 200.422C546.948 258.581 499.963 331.698 458.354 337.796C416.746 343.893 434.99 285.137 499.963 331.699C564.935 378.262 482.865 428.74 482.865 428.74" stroke="#C3C8FF" stroke-miterlimit="10"/>
<path d="M527.595 433.394H35.2603C32.6462 433.394 30.5283 431.309 30.5283 428.739C30.5283 426.167 32.6473 424.084 35.2603 424.084H532.327V428.739C532.327 431.309 530.208 433.394 527.595 433.394Z" fill="#6876EB"/>
<path d="M212.188 433.394H35.2603C32.6462 433.394 30.5283 431.309 30.5283 428.739V424.084H216.921V428.739C216.921 431.309 214.802 433.394 212.188 433.394Z" fill="#1C145E"/>
<path d="M285.739 246.606C264.655 286.464 240.966 302.702 240.966 302.702L261.424 334.836L297.15 298.313L285.739 246.606Z" fill="#1C145E"/>
<path d="M338.014 237.093L285.739 246.606C282.428 343.907 281.187 424.071 281.187 424.071H375.019C375.019 424.071 377.742 275.075 362.647 242.566L338.014 237.093Z" fill="white"/>
<path d="M331.944 286.677L357.412 284.558" stroke="#6876EB" stroke-width="4" stroke-miterlimit="10"/>
<path d="M320.254 265.766C320.254 265.766 336.419 374.285 322.354 418.195" stroke="black" stroke-miterlimit="10"/>
<path d="M303.328 320.124C303.328 320.124 318.941 326.307 339.183 326.961C359.425 327.615 346.831 338.211 316.823 336.202" stroke="#6876EB" stroke-miterlimit="10"/>
<path d="M307.353 233.137L320.254 266.858L338.014 237.093L326.309 218.274L307.353 233.137Z" fill="#E9A394"/>
<path d="M320.254 266.858L344.338 260.316L338.014 237.093L320.254 266.858Z" fill="#2D9596"/>
<path d="M310.22 240.63L297.149 254.992L320.254 266.858L310.22 240.63Z" fill="#2D9596"/>
<path d="M261.424 334.836C261.424 334.836 269.058 319.175 252.667 299.005C243.579 287.82 239.391 268.518 239.391 268.518L225.735 270.562L238.24 334.837H261.424V334.836Z" fill="#E9A394"/>
<path d="M222.943 248.366L217.352 253.365L224.827 259.856L201.422 259.464L200.92 267.364L225.734 270.562L239.39 268.518L222.943 248.366Z" fill="#E9A394"/>
<path d="M227.034 260.67L204.578 251.557L203.128 255.482L221.871 263.231L227.034 260.67Z" fill="#E9A394"/>
<path d="M362.648 242.566C362.648 242.566 392.815 259.464 402.341 322.758L367.343 331.066L362.648 242.566Z" fill="#1C145E"/>
<path d="M297.131 191.929L285.738 220.609L294.451 223.246L297.131 239.4L324.946 233.137L328.966 189.292L297.131 191.929Z" fill="#E9A394"/>
<path d="M315.694 198.744H294.424L296.744 192.561L315.694 191.408V198.744Z" fill="#E37A82"/>
<path d="M326.808 211.828C326.808 211.828 313.238 209.067 313.238 195.256C313.238 195.256 293.104 197.952 286.153 187.201C277.92 174.465 290.502 159.828 300.893 162.802C300.893 162.802 294.345 169.187 304.289 169.937C311.381 170.472 324.341 161.19 328.967 170.167C328.967 170.167 364.662 178.188 338.015 210.908L326.808 211.828Z" fill="#071952"/>
<path d="M313.237 194.164C313.237 194.164 286.323 199.28 280.694 180.292C277.403 169.192 288.713 162.871 288.713 162.871" stroke="#071952" stroke-width="2" stroke-miterlimit="10"/>
<path d="M301.848 219.695C307.459 219.695 312.008 215.22 312.008 209.7C312.008 204.18 307.459 199.705 301.848 199.705C296.237 199.705 291.688 204.18 291.688 209.7C291.688 215.22 296.237 219.695 301.848 219.695Z" stroke="#071952" stroke-width="0.5" stroke-miterlimit="10"/>
<path d="M311.462 206.466L325.932 207.245" stroke="#071952" stroke-width="0.5" stroke-miterlimit="10"/>
<path d="M344.337 214.345C344.337 220.536 335.906 225.554 329.614 225.554C323.321 225.554 321.551 220.535 321.551 214.345C321.551 208.156 326.652 203.137 332.944 203.137C339.235 203.137 344.337 208.156 344.337 214.345Z" fill="#E9A394"/>
<path d="M398.163 323.749V375.435H371.966L369.786 330.485L398.163 323.749Z" fill="#E9A394"/>
<path d="M283.698 312.064L284.798 276.05L267.828 328.289L283.698 312.064Z" fill="#1C145C"/>
<path d="M308.701 236.567L324.946 233.137L311.628 244.311L308.701 236.567Z" fill="#E37A82"/>
<path d="M299.094 214.345C300.168 214.345 301.039 212.559 301.039 210.355C301.039 208.152 300.168 206.365 299.094 206.365C298.02 206.365 297.149 208.152 297.149 210.355C297.149 212.559 298.02 214.345 299.094 214.345Z" fill="#071952"/>
<path d="M304.376 200.651C304.376 195.304 300.049 198.903 300.049 198.903L304.376 200.651Z" fill="#071952"/>
<path d="M300.047 224.321L306.235 222.7C306.235 222.7 308.887 245.281 300.047 224.321Z" fill="white"/>
<path d="M166.694 325.532C166.694 325.532 208.445 319.176 209.265 390.801C209.398 402.424 216.921 424.083 216.921 424.083H179.084L166.694 325.532Z" fill="#FFB573"/>
<path d="M123.039 319.176L97.8057 325.036L105.505 424.083H203.686C203.686 424.083 200.393 345.717 163.368 322.208L123.039 319.176Z" fill="#E4973F"/>
<path d="M97.8056 325.036C71.7972 330.872 77.8855 350.51 82.9072 390.838C69.9257 401.21 82.3799 405.878 82.3799 405.878C68.1231 420.745 85.9086 424.083 85.9086 424.083H133.388C133.388 424.083 123.832 319.196 97.8056 325.036Z" fill="#E4973F"/>
<path d="M130.564 401.206L119.17 349.751" stroke="#FFB573" stroke-miterlimit="10"/>
<path d="M85.9072 424.083C85.9072 424.083 93.9237 405.976 119.259 396.873C140.266 389.326 170.994 408.918 190.665 390.302L194.308 411.261L133.386 424.083H85.9072Z" fill="#E9A394"/>
<path d="M169.426 268.165L188.209 296.292L176.156 300.525L174.072 323.384L137.849 311.003L141.262 264.506L169.426 268.165Z" fill="#E9A394"/>
<path d="M141.555 297.711L123.039 319.176L146.784 347.804L157.493 314.367L141.555 297.711Z" fill="#E37A82"/>
<path d="M147.746 284.42L174.242 275.377L169.426 268.165L143.252 270.844L147.746 284.42Z" fill="#E37A82"/>
<path d="M145.459 294.273C145.459 294.273 153.481 310.073 147.9 279.616C147.9 279.616 155.512 280.457 161.474 270.574C161.474 270.574 159.621 286.68 177.109 270.574C194.597 254.467 172.365 241.865 145.199 246.606C121.652 250.717 98.0894 263.804 132.528 308.176L145.459 294.273Z" fill="#263238"/>
<path d="M141.17 300.556C139.362 302.939 136.258 305.103 133.03 305.566C126.574 306.491 120.269 301.477 119.329 295.126C118.389 288.775 121.65 285.477 128.105 284.552C131.733 284.032 135.935 285.091 139.086 287.245C140.038 288.413 141.17 300.556 141.17 300.556Z" fill="#E9A394"/>
<path d="M166.724 291.776C167.691 291.518 167.989 289.55 167.391 287.379C166.792 285.209 165.523 283.658 164.556 283.917C163.589 284.175 163.291 286.143 163.89 288.314C164.488 290.484 165.757 292.035 166.724 291.776Z" fill="#263238"/>
<path d="M159.381 282.325C159.381 282.325 158.439 277.102 163.368 279.616L159.381 282.325Z" fill="#263238"/>
<path d="M120.074 320.054L124.373 315.197L122.796 311.597L132.527 308.177L160.445 321.988L161.473 332.534L156.749 331.065L149.036 359.346L120.074 320.054Z" fill="#E4973F"/>
<path d="M145.283 326.96L161.473 332.534L160.445 321.988" stroke="#FFB573" stroke-miterlimit="10"/>
<path d="M147.9 279.616C147.9 279.616 151.156 298.263 155.919 302.097C157.483 303.357 160.444 300.154 174.072 299.885C182.405 299.721 182.399 328.336 171.341 327.516C160.283 326.696 143.479 319.913 140.96 299.056C138.752 280.759 147.9 279.616 147.9 279.616Z" fill="#263238"/>
<path d="M161.473 305.566C161.473 305.566 164.283 310.714 169.822 307.227" stroke="#C4C6C5" stroke-miterlimit="10"/>
<path d="M224.666 412.306H131.462V419.1C131.462 421.852 133.73 424.081 136.526 424.081H224.666C227.464 424.081 229.73 421.851 229.73 419.1V417.288C229.731 414.537 227.464 412.306 224.666 412.306Z" fill="#1C145E"/>
<path d="M300.363 344.204H191.942C188.72 344.204 185.999 346.56 185.591 349.704L176.856 416.986C176.368 420.751 179.349 424.083 183.208 424.083H291.628C294.85 424.083 297.571 421.726 297.979 418.582L306.714 351.301C307.202 347.536 304.221 344.204 300.363 344.204Z" fill="#263238"/>
<path d="M305.61 344.204H197.189C193.967 344.204 191.246 346.56 190.838 349.704L182.103 416.986C181.615 420.751 184.596 424.083 188.455 424.083H296.875C300.097 424.083 302.818 421.726 303.226 418.582L311.961 351.301C312.449 347.536 309.468 344.204 305.61 344.204Z" fill="black"/>
<path d="M254.009 391.372C258.524 387.158 259.058 380.5 255.201 376.501C251.345 372.502 244.558 372.677 240.043 376.892C235.528 381.107 234.995 387.765 238.851 391.763C242.708 395.762 249.494 395.587 254.009 391.372Z" fill="white"/>
<path d="M303.246 423.513H168.291" stroke="#1C145E" stroke-miterlimit="10"/>
<path d="M362.888 333.473L407.688 334.308L397.532 280.393L373.71 283.046C373.71 283.046 362.98 298.627 371.453 310.742C381.014 324.41 361.903 324.92 362.888 333.473Z" fill="#071952"/>
<path d="M373.709 283.046C373.709 283.046 362.979 298.627 371.452 310.742C381.014 324.411 361.903 324.92 362.888 333.473" stroke="black" stroke-width="2" stroke-miterlimit="10"/>
<path d="M382.647 326.96C382.647 326.96 362.263 346.638 351.515 420.795H374.205L382.647 326.96Z" fill="#2D9596"/>
<path d="M436.519 321.478L427.648 420.795H361.745L369.949 382.863C369.949 382.863 344.859 369.985 382.646 326.96L392.038 322.208L432.842 319.176L436.519 321.478Z" fill="white"/>
<path d="M382.647 371.409C382.647 371.409 378.696 378.066 382.495 383.41L376.901 420.795" stroke="black" stroke-miterlimit="10"/>
<path d="M373.436 383.034L411.607 384.143" stroke="black" stroke-miterlimit="10"/>
<path d="M419.134 401.729L415.097 353.96" stroke="black" stroke-miterlimit="10"/>
<path d="M436.52 321.478C436.52 321.478 440.159 325.983 444.373 336.428C450.347 351.239 457.472 377.996 457.005 420.793H427.648L436.52 321.478Z" fill="white"/>
<path d="M457.004 424.071C457.004 424.071 442.336 391.07 405.443 400.514C365.16 410.826 350.202 408.898 350.202 408.898L347.148 424.071H457.004Z" fill="#E9A394"/>
<path d="M418.605 393.579L405.515 396.458L435.248 424.071H463.275C463.275 424.071 451.196 395.257 418.605 393.579Z" fill="#2D9596"/>
<path d="M419.414 402.143L425.649 400.269" stroke="white" stroke-miterlimit="10"/>
<path d="M350.202 408.898L331.062 405.005L317.341 424.071H347.149L350.202 408.898Z" fill="#E9A394"/>
<path d="M382.646 371.409L418.215 336.417L411.607 333.347L436.519 321.478L425.08 314.317H398.455L382.646 333.757L387.014 334.836L382.646 337.849V371.409Z" fill="#2D9596"/>
<path d="M407.514 326.212L419.133 318.313L406.59 290.721L387.149 302.734L392.625 325.621L382.646 371.409L407.514 326.212Z" fill="#E9A394"/>
<path d="M388.712 309.271L402.356 302.271L390.175 315.382L388.712 309.271Z" fill="#E37A82"/>
<path d="M363.787 269.325L357.83 301.808H366.767L376.801 315.382L402.357 302.271L384.483 263.093L363.787 269.325Z" fill="#E9A394"/>
<path d="M362.343 277.202L361.745 280.771L385.314 277.607L384.953 273.164L362.343 277.202Z" fill="#E37A82"/>
<path d="M428.93 266.857C423.031 251.124 415.817 245.058 415.817 245.058C401.359 230.924 376.645 246.607 376.645 246.607C344.974 239.066 357.83 277.748 357.83 277.748L383.622 274.636C387.229 295.921 400.126 285.143 400.126 285.143L406.141 295.816C406.141 295.816 400.072 301.093 406.399 310.139C411.609 317.587 399.134 320.125 402.358 328.054L452.211 317.889C452.211 285.618 439.593 295.293 428.93 266.857Z" fill="#071952"/>
<path d="M355.809 277.998C355.809 277.998 351.248 255.912 359.626 248.726C363.995 244.978 377.753 246.607 377.753 246.607" stroke="black" stroke-width="2" stroke-miterlimit="10"/>
<path d="M455.474 316.958C455.474 316.958 459.455 302.271 437.763 285.617" stroke="#071952" stroke-width="2" stroke-miterlimit="10"/>
<path d="M400.867 297.181C406.798 297.181 411.606 292.451 411.606 286.616C411.606 280.781 406.798 276.051 400.867 276.051C394.936 276.051 390.128 280.781 390.128 286.616C390.128 292.451 394.936 297.181 400.867 297.181Z" fill="#E9A394"/>
<path d="M373.436 300.613L380.093 299.005C380.093 299.005 382.43 317.686 373.436 300.613Z" fill="white"/>
<path d="M367.892 289.574C367.892 289.574 370.011 276.869 374.647 289.574" stroke="#1C145E" stroke-width="0.5" stroke-miterlimit="10"/>
<path d="M369.527 279.909C369.527 279.909 372.108 275.609 375.166 279.909H369.527Z" fill="#071952"/>
<path d="M269.347 165.445C265.484 154.876 253.34 149.584 242.695 154.1C233.534 157.986 228.678 168.211 231.519 177.619C233.108 182.879 236.695 186.948 241.188 189.322C245.334 191.513 248.893 194.639 251.502 198.493L252.254 199.604L267.169 194.329L267.031 193.007C266.539 188.324 267.371 183.639 269.131 179.262C270.847 174.989 271.051 170.107 269.347 165.445Z" fill="#C3C8FF"/>
<path d="M269.347 165.445C265.484 154.876 253.34 149.584 242.695 154.1C233.534 157.986 228.678 168.211 231.519 177.619C233.108 182.879 236.695 186.948 241.188 189.322C245.334 191.513 248.893 194.639 251.502 198.493L252.254 199.604L267.169 194.329L267.031 193.007C266.539 188.324 267.371 183.639 269.131 179.262C270.847 174.989 271.051 170.107 269.347 165.445Z" fill="#C3C8FF"/>
<path d="M255.667 195.277L243.777 178.781C243.777 178.781 243.994 175.441 247.726 175.97C251.457 176.5 253.685 182.294 251.022 181.359C248.359 180.425 247.417 173.614 252.456 172.575C257.495 171.537 259.179 182.799 256.395 180.629C253.611 178.459 254.198 171.289 259.594 171.23L262.759 195.021" stroke="white" stroke-miterlimit="10"/>
<path d="M266.823 205.604L259.819 208.082C257.156 209.024 254.22 207.663 253.263 205.044L251.782 200.992C250.824 198.373 252.207 195.484 254.87 194.543L261.874 192.065C264.537 191.123 267.472 192.484 268.43 195.103L269.911 199.155C270.868 201.774 269.486 204.662 266.823 205.604Z" fill="#071952"/>
<path d="M268.472 188.397L247.379 195.857L251.081 205.987L272.174 198.527L268.472 188.397Z" fill="#6876EB"/>
<path d="M250.107 147.484L248.002 135.615" stroke="#C3C8FF" stroke-miterlimit="10"/>
<path d="M234.907 154.554L224.83 144.871" stroke="#C3C8FF" stroke-miterlimit="10"/>
<path d="M224.405 172.144L212.907 172.953" stroke="#C3C8FF" stroke-miterlimit="10"/>
<path d="M266.679 153.988L271.854 144.548" stroke="#C3C8FF" stroke-miterlimit="10"/>
<path d="M428.562 241.182H499.855C502.334 241.182 504.708 239.206 505.158 236.766L512.525 196.781C512.975 194.342 511.328 192.365 508.85 192.365H437.557C435.078 192.365 432.704 194.341 432.254 196.781L424.887 236.766C424.439 239.205 426.084 241.182 428.562 241.182Z" fill="#1C145C"/>
<path d="M485.717 219.88C487.798 218.01 488.199 215.109 486.613 213.401C485.026 211.692 482.053 211.823 479.972 213.693C477.891 215.563 477.49 218.464 479.076 220.173C480.663 221.881 483.636 221.75 485.717 219.88Z" fill="white"/>
<path d="M471.557 219.88C473.638 218.01 474.039 215.109 472.452 213.4C470.866 211.692 467.893 211.823 465.812 213.693C463.731 215.563 463.33 218.464 464.916 220.173C466.503 221.881 469.476 221.75 471.557 219.88Z" fill="white"/>
<path d="M457.396 219.88C459.477 218.01 459.878 215.108 458.291 213.4C456.705 211.692 453.732 211.823 451.651 213.693C449.57 215.563 449.169 218.464 450.755 220.172C452.341 221.881 455.314 221.75 457.396 219.88Z" fill="white"/>
<path d="M466.932 238.553L442.16 253.036L446.6 237.411L466.932 238.553Z" fill="#1C145C"/>
<path d="M198.891 235.255H127.598C125.119 235.255 122.745 233.278 122.296 230.839L114.928 190.853C114.479 188.415 116.125 186.437 118.604 186.437H189.897C192.375 186.437 194.75 188.414 195.199 190.853L202.566 230.839C203.016 233.277 201.371 235.255 198.891 235.255Z" fill="#C3C8FF"/>
<path d="M148.342 214.227C149.928 212.519 149.527 209.618 147.446 207.747C145.365 205.877 142.392 205.746 140.806 207.455C139.22 209.163 139.621 212.064 141.702 213.934C143.783 215.804 146.756 215.936 148.342 214.227Z" fill="white"/>
<path d="M162.502 214.227C164.089 212.518 163.688 209.617 161.607 207.747C159.525 205.877 156.552 205.746 154.966 207.455C153.38 209.163 153.781 212.064 155.862 213.934C157.943 215.804 160.916 215.935 162.502 214.227Z" fill="white"/>
<path d="M176.662 214.228C178.249 212.519 177.848 209.618 175.767 207.748C173.686 205.878 170.713 205.747 169.126 207.456C167.54 209.164 167.941 212.065 170.022 213.935C172.103 215.805 175.076 215.936 176.662 214.228Z" fill="white"/>
<path d="M173.459 232.625L177.37 246.606L193.185 231.647L173.459 232.625Z" fill="#C3C8FF"/>
</svg>
